<?xml version="1.0" encoding="utf-8"?>
<!-- Generator: Adobe Illustrator 24.2.1, SVG Export Plug-In . SVG Version: 6.00 Build 0)  -->
<svg version="1.1" id="Layer_1" xmlns="http://www.w3.org/2000/svg" xmlns:xlink="http://www.w3.org/1999/xlink" x="0px" y="0px"
	 viewBox="0 0 500 500" style="enable-background:new 0 0 500 500;" xml:space="preserve">
<style type="text/css">
	.st0{fill:#231F20;}
</style>
<path class="st0" d="M430.8,125.7c-14.8-13.9-46.3-23.7-52.1-25.3c-5.8-1.6-8.4-1.3-8.4-1.3l-9.3,6.5c0,0,10.4-8.6,15-12.4
	c4.6-3.7,6.1-4.9,6.1-4.9l-18.8-10.4c0,0-12.1,12-19.4,18.1c-7.3,6.2-17.2,13.3-17.2,13.3l11-11c0,0-32,0.6-49-1.8
	c-17-2.4-48.3-8.9-69.1-6.5c-20.9,2.2-41,8.3-62.5,23.5s-33.3,36.6-42.1,54.6c-8.7,18.1-10.8,35.5-10.8,44.9s3.3,25.6,3.3,25.6
	s-3-7.8-4-11.5s-3.7-7-5.5-6.8c-1.8,0.1-10.1,2.4-21.2,14.5c-11.1,12.1-13.2,26.8-14.2,31.7c-1,4.9-0.4,9.8-0.4,9.8
	s10.8-3.4,15.4-6.2c-1.8,1.2-6.1,3.8-11.3,5.9c-6.8,2.7-10.4,4.4-14.4,10.5c-4,5.9-4.3,15.4-3.7,21.8c0.6,6.4,0.6,12.1,0,17.3
	c-0.4,5.2-1.2,8-1.3,11c0,2.8,0.9,4.6,1.3,5.2c0.4,0.6,1.5,0.6,1.5,0.6s13.5-14.2,21.6-20.4c8.1-6.2,10.4-8.3,14.7-10.1
	c4.3-1.9,11.7-4.1,16.6-5c4.9-0.9,8.1-3.6,8.1-3.6s-0.6,1.8-3.7,3s-15,3.7-18.4,5.2C85,312.7,74.6,320,69.8,324
	c-4.9,4.1-14.1,13.2-16.3,16c-2.4,2.8-3.4,3.3-2.4,4.7c0.9,1.5,10.2,1.3,15.1,1.2s23.5-3.7,39.7-10.8c16.1-7.1,33.8-16.6,40.9-22.8
	c7.1-6.2,18.7-17.6,18.7-17.6l-3.1,4.6c0,0,8.3,7,14.7,10.4c6.4,3.4,11.5,6.4,14.5,9.3c3,3,3,3.6,5,12.9s3.8,17.9,6.2,26.2
	c2.4,8.3,4.3,14.2,4.4,17c0.1,3-1.3,5.3-2.7,7c-1.3,1.5-4.9,1.8-8.3,4.1c-3.4,2.4-6.1,8.4-6.1,11.8c0.1,3.4,2.1,6.2,4,8.1
	c1.8,1.9,5.5,2.8,5.5,2.8s-5-0.3-7.7-3.3l-2.7,2.7l12.6,13.8l8.3-8.3l-3.1-1.8c0,0,3,1.5,6.4,0.6c3.4-0.9,7.3-6.2,8.3-8.3
	c1-2.1,0-4.6,0-4.6s6.7-9.6,10.7-21.8s5.9-22.2,6.7-29c0.7-6.8,1.2-12.6,1.2-12.6l-6.4-2.2c0,0,7.6,0.4,11.5,0.4c4,0,6.2-3,6.2-3
	l-3.1-1.8c0,0,3.7-4,4.3-5.3c0.6-1.3-0.6-1.6-0.6-1.6s-1.5,1.9-3.3,1.6c-1.8-0.4-4.3-1.5-7-2.4c-2.7-0.7-5.9-3.8-5.9-3.8
	s4.1,2.4,5.3,2.5c0,0,6.2-34.1,13.3-56.7c7.1-22.7,10.2-29.9,14.4-37.5c4.1-7.4,7.7-12.7,7.7-12.7l-0.6,3c0,0,3,1.9,7.1-0.7
	c4-2.7,5.2-8,7-9.9c1.8-1.9,3-4,1.6-7.1c-1.2-3.1-2.5-3.1-3.6-4.3c-1.2-1.2-3.3-3.6-3.3-3.6s3.1,2.1,3.3,1.9
	c0.3-0.3,2.7-4.6,2.7-4.6l-6.1-1.3c0,0,10.5-0.3,13.9-0.6c3.4-0.3,5-0.7,5.2-2.2c0.3-1.5-0.6-2.7-0.1-3.1s2.4-2.4,1.5-3.6
	c-1-1.2-2.4-2.4-2.4-2.4s2.4-0.3,1.9-2.8c-0.4-2.5-7.7-5-7.7-5l6.5,1.5c0,0,22.4-30.8,29.9-38.9c7.6-8.1,20-18.2,20-18.2
	s-9.5,10.2-12.6,13.3c0,0,31.4-3.4,47.1,2.5c15.7,6.1,26.8,13.2,33.5,20.7c6.7,7.6,14.5,26.2,14.2,33c-0.3,6.8-3.1,12-3.1,12
	s1.9-9.3-1.9-15.7c-3.8-6.5-18.7-16.1-31.8-8.1s-21.5,22.1-15.1,36c6.4,13.9,21.6,21.2,30.7,20.7c9-0.4,33.5-12.9,37.9-36.7
	C456.8,166,445.4,139.6,430.8,125.7z M192.8,301.9c-7.7-4-23.4-11.1-23.4-11.1l-3,1.8l3-3.4l25-26.9c0,0-1.5-3.7-2.2-4.3
	s-12,7.4-12,7.4s10.5-10.1,12.1-9.8c1.6,0.4,3,5.6,4.9,11.1c1.9,5.5,8.6,34.8,9.9,39.2c1.2,4.3,1.8,6.5,1.8,6.5
	S200.5,305.9,192.8,301.9z M220.5,329.3c0,0-0.9,25.2-5.3,36l2.4-16.4l-6.1-28.3c0,0,8.3,5.8,10.4,7.4s3.8,2.5,3.8,2.5L220.5,329.3z
	 M258.4,205.8c-2.4,3.6-12.7,20-19.5,35.1c-6.8,15.1-11.7,42.8-13.6,50.3c-2.1,7.6-0.6,5.2-0.6,6.7c0.1,1.5,0.3,3,0.4,5.3
	c0.1,2.4,2.7,6.5,2.7,6.5s-2.2-2.2-3.4-4.6s-0.1-3.7-0.6-6.4c-0.4-2.8-13.2-51.8-15.8-56.4c-2.7-4.6-9.2-5.3-9.2-5.3
	c9.8-1.9,12,7.4,12,7.4s6.4-7.8,13.8-15.5s29-32.3,29-32.3s0.7,1.6,1.6,4.7c0.9,3,2.1,3.4,2.1,3.4l6.2-5.3
	C263.1,199.4,260.9,202.2,258.4,205.8z M269.5,184.2c-2.2-1.2-5.9-4.3-5.9-4.3l2.8-2.2c0,0,2.2,1.9,3.8,3.8c1.6,1.9,4,3.8,4,3.8
	S271.7,185.5,269.5,184.2z M410.3,193.2c-1-1.3,1-4.1,0.4-4.7c-0.7-0.6-1.8-1-1.8-1c4.3-2.4,7.7,1.2,7.6,4
	C416.2,194.4,411.2,194.7,410.3,193.2z"/>
</svg>
