<?xml version="1.0" encoding="utf-8"?>
<!-- Generator: Adobe Illustrator 24.2.1, SVG Export Plug-In . SVG Version: 6.00 Build 0)  -->
<svg version="1.1" id="Layer_1" xmlns="http://www.w3.org/2000/svg" xmlns:xlink="http://www.w3.org/1999/xlink" x="0px" y="0px"
	 viewBox="0 0 500 500" style="enable-background:new 0 0 500 500;" xml:space="preserve">
<style type="text/css">
	.st0{fill-rule:evenodd;clip-rule:evenodd;}
</style>
<g>
	<path class="st0" d="M287.8,93c0.5,0.4,0.7,1.2,1.5,1.5c0.2,0.1,0.4,0,0.6,0.1c0.4,0.2,1.3,1.1,1.3,1.4c0.2,1-1.3,2.2-2.1,2.3
		c-1.3,0.1-2.6-0.5-3.3-1.1c-0.1-1.1-0.9-1.6-1-2.7c0.6-0.6,1.4-0.9,2-1.5C287.2,93,287.4,93,287.8,93z"/>
	<path class="st0" d="M259.6,100.7c0.2-1.5,0.5-2.7,0.5-4.2c0.8-0.7,1.9-2,3-2.3c1.2-0.2,0.9,1.2,1.1,1.9c0.1,0.7,0.4,0.9,0.7,1.3
		c0.1,0.7-0.3,1.2-0.2,1.8c0,0.3,0.3,0.6,0.3,0.9c0,0.4-0.5,0.5-0.7,0.8c-0.6,0.8-0.8,2.2-2.2,2.1c-0.2,0-0.5-0.1-0.6-0.2
		C260.8,102.4,260.5,101.2,259.6,100.7z"/>
	<path class="st0" d="M268.2,241.5c-0.6-1.9,0.5-3.5,1.6-4.3c0.1-0.4-0.1-0.5,0-0.9c0.9-1.4,3.5,0.4,4.6-0.7
		c0.5,0.4,1.2,0.4,1.6,0.9c0.5,0.6,0.1,1.5,0.8,1.9c-0.2,0.4,0,0.9-0.1,1.2c-0.1,0.4-0.7,0.5-0.9,0.8c-0.5,0.6-0.8,1.6-1.7,1.6
		c-0.6,0-1.2-0.4-1.9-0.3c-0.3,0-0.7,0.2-1.1,0.3c-0.3,0.1-0.5,0.3-0.8,0.3c-0.4,0-0.4-0.3-0.8-0.4
		C269,241.7,268.4,241.9,268.2,241.5z"/>
	<path class="st0" d="M258.7,410.4c0.3-0.5,1.2-1,1.4,0c0,0.2-0.2,0.5-0.2,0.7c0,0.2,0.1,0.6,0,0.7c0,0-0.7,1.1-0.8,1.2
		c-1.2,1-3.1-0.5-2.1-1.9C257.3,410.7,258,410.7,258.7,410.4z"/>
	<path class="st0" d="M294.9,84.9c0,0.4,0.4,0.5,0.5,0.9c-1,1.2,0,2.6,1,3.1c0.2,1.1,0,2.3,0.4,3.4c0.1,0.4,1.1,2.1,1.5,2.4
		c0.4,0.3,1.1,0.5,1.4,0.5c1.5,0,1.9-2.4,2.8-3c-0.2-2.7,1.6-2.9,2.9-3.9c1.4,0.3,2-1.1,3.2-0.2c0.7,0.6,1.1,1.5,2,1.9
		c0,0.9,0.5,1.7,0.4,2.6c0,0.3-0.3,0.5-0.4,0.8c-0.1,0.2,0,0.5,0,0.7c-0.1,0.4-0.6,0.7-0.5,1.2c-1,0.6-1.8,1.3-2.5,2.2
		c-0.2,1.5-1.2,2.2-2.3,2.7c-0.1,0.7,0.2,1,0,1.5c0.5,0.5,0.4,1.4,0.7,2c-0.1,1.4-0.2,2.8-0.2,4.2c0,0.7,0.2,1.5,0.2,2.2
		c0,0.5-0.1,0.9-0.1,1.4c0,0.8,0.4,1.5,0.3,2.1c-0.1,1.4-1.3,1.9-1.8,2.9c1.1,1.5-1,1.6-1.6,2.5c-0.6,0.9-0.3,2.1-1,3.3
		c-0.3,0.1-0.6,0.1-1,0.2c-0.5,0.4-0.9,0.8-0.9,1.7c-0.7,0.5-0.7,1.8-1.2,2.5c0,1.7-0.4,3.4-0.2,4.7c-0.5,0.6-0.6,1.9-0.8,2.7
		c-0.5,0.8-1,1.2-0.9,2.2c0,0.4,0.4,0.6,0.3,1c-0.1,0.5-1.3,1.1-1,2.3c-0.6,0.5-0.7,1.6-1.2,2.3c-0.2,0.3-0.4,0.3-0.5,0.6
		c-0.3,0.9,0.3,2.1,0.7,2.6c0.3,0.6,0.5,1.2,1.3,1.4c0.6,1.5,0.8,3.3,2,4.3c1.5,0,1.8,0.9,3,1.1c1.6-0.7,3.5-1.1,3.9-3.1
		c0.3-0.2,0.5-0.5,1.1-0.4c0.7-0.3,0.9-0.9,1.7-1.2c0.3-0.1,1-0.3,1.2-0.4c0.2,0,0.4,0.1,0.6,0.1c0.4-0.1,0.8-0.5,1.2-0.5
		c0.4,0,0.8,0.3,1.2,0.2c0.4,0,0.7-0.4,1-0.5c0.4-0.1,1,0.2,1.6,0.2c0.6,0,1.7-0.3,2.6-0.1c0.5,0.1,0.9,0.4,1.3,0.5
		c0.2,0,0.5-0.1,0.8-0.1c0.7,0,1.4,0.3,1.9,0.2c0.3,0,0.6-0.4,0.9-0.4c0.1,0,1.3,0.5,1.5,0.6c0.1,0.1,0.1,0.4,0.3,0.6
		c0.2,0.2,0.5,0.2,0.7,0.3c0.4,0.4,0.6,1,1.3,1.1c0,0.3,0.1,0.4,0,0.8c0.9,0.6,2.7,0.5,2.4,2.1c1.6,0.8,2.6,2.2,3.4,3.9
		c1,0.9,1.7,2,2.6,2.9c0.7,0.1,1.3,0.3,1.9,0.4c0.4,2.4,2.1,3.8,4.7,4.4c0.1,0.2,0.3,0.4,0.2,0.8c0.5,0.7,1.5,0.8,2.2,1.3
		c0.4,0.3,0.6,0.6,1.1,0.8c0.5,0.2,1,0.1,1.5,0.2c0.6,0.2,0.9,1.2,1.6,1.3c0.3,0,0.6-0.3,1-0.4c1.2-0.2,1.8,0.5,2.7,0.8
		c0.9,0,0.8-1.2,1.6-1.2c0.4,0,0.6,0.5,1,0.7c0.5,0.3,1.1,0.2,1.7,0.3c0.8,0.2,1.3,0.7,1.8,0.9c1.9,0.1,3.3,1.2,4.8,1.9
		c0.3,1.1,1.6,2.1,2.9,1.4c0.5,0.2,0.8,0.5,1.5,0.4c0.4,0.5,0.8,1.1,1.4,1.4c0.9-0.2,1.7,0.1,2.6,0.2c0.2,0.2,0.3,0.5,0.3,0.8
		c1,0.5,1.5,1.6,2.4,2.3c0.2,0.1,0.4,0.1,0.6,0.2c0.7,0.4,1.5,1.5,2,2.2c0.9,1.2,1.9,2.4,2.7,3.9c-0.2,1.1,0.1,1.9-0.1,2.8
		c-0.1,0.3-0.4,0.6-0.4,0.9c-0.1,0.3,0.1,0.7,0.1,1.1c0,0.2-0.3,0.4-0.3,0.6c0,0.3,0.2,0.5,0.1,0.8c-0.1,0.5-0.8,1.1-1.3,1.3
		c-0.3,0.2-0.7,0.1-1,0.3c-0.8,0.4-0.8,1.2-1.5,1.6c-0.5,1.1-1.5,1.6-1.8,2.9c-0.8,0.4-1.2,1.3-1.8,2c-0.1,0.4,0.1,0.5,0.1,0.8
		c-0.3,0.3-0.3,0.8-0.7,1.3c-0.6,0.9-1.8,1.4-2.2,2.6c-0.1,0.2,0,0.4,0,0.6c-0.2,0.4-0.6,1.1-0.9,1.3c-0.6,0.5-1.4,0.6-0.7,1.7
		c-0.4,0.6-0.7,1.3-1.5,1.4c-0.9,1.8-2.3,2.9-4.3,3.3c-0.3,0.8-1.9,1.2-2.3,2c-0.2,0.5,0,1-0.3,1.6c-1.1,0.6-2.3,0.6-3.1,1.5
		c-0.2,0.2-0.2,0.5-0.4,0.7c-0.4,0.4-1.1,0.5-1.5,1c-0.7-0.1-0.9,0.4-1.7,0.3c-0.7,0.4-1,1.4-1.2,2.3c-0.7,0.4-1.3,0.9-1.7,1.7
		c-1.8,0.9-5.3-0.1-5.2,3c0.3,0.4,1,0.7,1.5,0.7c0.3,0,0.6-0.3,1-0.4c0.5-0.1,1.1,0.1,1.4,0c0.4-0.1,0.3-0.5,0.6-0.6
		c0.2-0.1,1.1-0.4,1.5-0.4c0.3,0.1,0.4,0.3,0.7,0.5c0.7,0.4,1.3,0.3,1.7,0.9c0,1.3,0.9,2.5,0.7,3.8c-0.2,1-0.9,1.8-1.4,2.5
		c0,0.6-0.2,1-0.2,1.6c-0.2,0.4-0.7,0.4-0.9,0.8c0.1,0.9,1.3,0.9,1.2,2c0,0.5-0.4,0.7-0.6,1.2c0.4,1.9-0.6,2.1-1.6,2.8
		c-0.2,0.1-0.3,0.4-0.5,0.6c-0.2,0.2-0.5,0.3-0.6,0.4c-0.1,0.2-0.1,0.4-0.2,0.5c-0.2,0.2-0.6,0.3-0.8,0.5c-0.6-0.4-1-0.2-1.7,0
		c-1.2,0.3-2.5,0-3.3,0.7c-0.6-0.1-1.3-1.1-2.2-1c-0.3,0-0.5,0.3-0.9,0.4c-0.2,0-0.4-0.1-0.6,0c-0.7,0.1-2,0.6-2.2,0.9
		c-0.6,0.6-0.1,1.3,0.3,1.9c1.4,0.6,2.1,1.9,3.1,2.9c0.5,0.2,0.9,0.4,1.2,0.7c2.8-0.3,2.1,3.2,3.7,4.1c0,0.1,0,0.3,0,0.4
		c3.1,1.4,0.4,7.1,1.5,9.9c0.2,1.3-0.7,1.7-1.2,2.3c-0.6,0.8-0.8,1.7-1.4,2.6c0.4,2.3-1.2,3.7-2.6,4.6c0.7,1-0.1,1.9-1,2.3
		c-0.5,1.5-1.2,2.6-1.5,4.3c-0.6,0.5-1.3,0.8-1.8,1.3c-0.7,0.9-0.7,1.8-1.2,2.5c-0.5,0.8-1.4,0.9-2.2,1.5c-0.5,0.4-0.7,1.3-1.4,1.6
		c-0.2,0.6-0.5,1.1-0.6,1.8c-0.6,0.7-1.5,1-2.1,1.7c-0.4,0.5-0.5,1.1-1.1,1.4c-0.5,0.3-1.2,0.3-1.8,0.6c-0.4,0.7-1,1.3-2,1.2
		c-0.3,0.4-0.7,0.7-0.5,1.4c-0.6,1.8-2.9,1.4-4.7,2.3c-0.2,0.1-0.3,0.3-0.5,0.4c-0.6,0.4-1.3,0.3-1.6,1.1c-1.2,0.2-1.9,1.1-2.7,1.9
		c-0.1,0.4,0.3,0.4,0.2,0.8c-0.9,0.8-0.2,2.9-1.1,3.5c0.2,1.2-0.6,1.7-1.4,2.2c-0.5,0.3-0.9,0.8-1.1,0.8c-1.9,0.4-2.4-1.8-2.2-3.8
		c0.3-0.5,0.9-0.5,1.1-1.1c0.3-1-0.1-2.5,0.7-3.2c-0.1-0.5-0.1-1.3,0.1-1.9c0.1-0.2,0.4-0.4,0.5-0.6c0.1-0.2,0.1-0.6,0.2-0.7
		c0.3-0.5,0.9-0.6,1.3-1.3c0.1-0.1,0-0.4,0.1-0.6c0.1-0.2,0.4-0.4,0.4-0.5c0.1-0.4,0.1-0.9,0.2-1.3c0.1-0.3,0.4-0.4,0.4-0.6
		c0.3-1.3-0.6-2.3-1.9-2.1c-0.2,0-0.5,0.3-0.8,0.4c-0.7,0.2-1.2,0.1-1.5,0.7c-0.2,0.2-0.1,0.6-0.3,1c-0.3,0.8-1.2,1.4-1.1,2.6
		c0,0.7,0.8,1.4-0.1,2.1c-1.9,0.6-3,2.1-3.4,4.4c-1,0.6-1.8,1.6-2.2,2.9c-0.2,0.2-0.6,0.2-0.8,0.3c-0.4,0.3-0.8,0.7-0.7,1.5
		c-0.2,0.2-0.4,0.4-0.6,0.6c-1,0.2-1.9,0.6-2.1,1.7c-0.4,0.5-1.3,0.7-1.4,1.4c-0.2,0.6,0.3,1.2,0,1.8c-0.4,0.6-1,0.6-1.4,1.3
		c0,0.8-0.5,1-0.6,1.6c-0.1,0.3,0.3,0.5,0.2,0.8c0,0.5-0.6,0.6-1,1.1c-0.2,0.2-0.7,1.1-0.8,1.4c-0.2,0.5-0.1,1.1-0.2,1.4
		c-0.2,0.5-0.9,0.9-1.1,1.3c-0.3,1,0.2,1.5,0.3,2.1c0,0.2-0.1,0.5,0,0.7c0.1,0.7,0.7,1,1,1.5c0.2,0.3,0.4,0.8,0.6,1.2
		c0.2,0.5,0.5,0.9,0.4,1.3c-0.1,0.8-1.1,1.4-1.5,2.2c0.2,0.8,0.5,1.7,0.4,2.6c-0.1,0.4-0.5,0.6-0.4,1c-0.8,0.5-0.4,1.6-0.8,2.4
		c-0.2,0.5-0.7,0.7-0.8,1.1c-0.2,0.6-0.3,1.5-0.3,2.3c0,0.5,0.2,1.1-0.3,1.5c-0.1,0.3,0.3,0.5,0.3,0.8c0,0.5-0.5,0.7-0.8,1.1
		c-0.1,0.1-0.5,0.8-0.5,0.9c-0.1,0.3,0,0.6-0.1,0.8c-0.3,0.8-1.2,2.1-1.7,2.7c-0.2,0.9-0.7,1.5-1.2,2c-0.2,0.9-0.3,1.5-0.4,2.3
		c-0.1,0.3-0.3,0.5-0.4,0.9c0,0.4,0.3,0.9,0.4,1.5c0.4,1.4,1.5,2.9,0.1,3.6c-0.2,0.1-0.5,0.1-0.7,0.2c-1,0.3-2,0.9-3.1,0.9
		c-0.7,0.5-1,1.2-0.8,2c0.1,0.4,0.5,0.6,0.7,0.9c0.3,0.6,1,2.8,0.7,3.7c-0.2,0.8-0.9,1.3-1.5,1.9c-0.9,0.1-1.5,0.5-2.4,0.7
		c-0.2,0.4-0.4,0.7-0.3,1.2c-0.3,0.9-1.7,0.8-1.8,1.7c-0.1,0.5,0.6,1.3,0.9,1.8c0.3,0.6,0.4,1.4,0.9,1.7c0,0.2,0,0.3,0,0.5
		c1.4,0.8-0.4,2.8-1.5,1.8c-0.4,0-0.6,0.3-0.9,0.4c-0.8-0.4-1.8-0.8-2.2,0.2c0.2,1-0.2,2-0.2,3.1c0,0.9-0.3,1.8-0.3,2.6
		c0,0.2,0.1,0.5,0.1,0.8c-0.1,1-1.4,1.5-1.6,2.2c0,1.5-0.1,3-1,3.7c0.2,0.6,0.4,1.6,0.2,2.3c0.1,0.7,0.8,1.3,0.8,2.2
		c0,0.6-0.2,1-0.1,1.6c0.1,0.5,1,0.9,1,1.4c0,0.8-1.7,0.8-1.8,1.5c-0.1,0.5,0.3,0.7,0.6,1.2c1.8,0.3,3,1.2,3.8,2.4
		c-0.6,1.3-3.4,0.9-2.6,3c1.4,0.1,1.7,1.1,2.4,1.7c0.3,1.4,0.1,2.9,0.6,4.1c-0.5,0.5-0.8,1.2-1.3,2c-0.3,0.4-0.7,0.7-0.7,1
		c-0.1,0.4-0.2,1.2-0.1,1.6c0.2,1.2,1.9,0.9,2.8,1.6c0,1-1.1,1-1,1.9c0,0.6,0.5,0.6,0.5,1.2c-0.2,0.4-0.7,0.3-0.9,0.6
		c-0.1,0.8-0.7,1.2-1.1,1.7c-0.9,0.1-1.4,0.7-2.3,0.8c-1.1,1.2-2.8,1.6-3.7,3.1c-0.1,0.4,0.1,0.5,0,0.8c-2,1-4.6,2.2-7.5,1.8
		c-0.6,0.3-1.2,0.4-2.3,0.3c-0.6,0-1.1-0.4-1.6-0.3c-0.3,0.1-0.3,0.4-0.6,0.6c-0.4,0.3-1.2,0.6-1.4,1.3c0.3,0.9,0.1,2.1-0.5,2.7
		c-0.7,0-0.9,0.6-1.7,0.5c-1.3,0.9-3,1.5-4.2,2.4c-1.4-0.1-3.3,1.1-4.1-0.6c-0.8-0.2-1.7,0-2.5-0.3c-0.3-0.1-0.5-0.4-0.8-0.5
		c-0.6-0.2-1.3-0.3-1.9-0.5c-1-0.8-2-1.7-2.7-2.8c-0.9-0.3-1-1.3-1.4-2.1c0.5-1.1-0.5-2.2-0.2-3.2c0.1-0.5,0.7-0.7,1-1.3
		c0.1-2.1,1.6-2.6,2.4-3.8c0.1-0.3-0.1-0.4,0-0.7c0.7-0.7,2.1-0.5,2.7-1.3c0.2-0.9,0.7-1.6,0.9-2.5c0.9-0.4,1.2-1.6,2.1-2
		c0.3-0.5-0.1-1.7,0.2-2.5c0.2-0.4,0.6-0.6,0.6-0.9c0-0.6-0.6-0.8-0.7-1.3c-0.1-0.5,0.2-0.8-0.1-1.3c0.2-0.2,0.5-0.4,0.8-0.5
		c0-0.5,0.1-0.7,0.1-1.1c0.5-0.5,1.1-0.8,1.7-1.1c0.1-0.6,0.4-0.9,0.5-1.5c1.2-0.3,1.9-1.8,1.6-3.2c0.8-0.7,0.7-2.3,1.3-3.3
		c0.4-0.2,1.1,0.3,1.6,0c0.6-0.4,0.3-1.9,0.9-2.3c-0.2-0.4-0.1-0.9-0.2-1.3c-0.1-0.3-0.3-0.5-0.3-0.8c0-0.4,0.3-0.5,0.4-1
		c0-0.2-0.1-0.5-0.1-0.7c0-0.4,0.4-0.8,0.2-1.3c0.5-0.6,1-1.4,1.5-2.1c-0.2-0.7,0.2-1.6,0.7-2.1c-0.3-0.2-0.6-1.9-0.4-2.6
		c0.1-0.3,0.4-0.5,0.5-0.8c0.3-0.7,0.1-1.4,0.1-2.2c0.1-0.8,0.8-1.3,1.2-1.7c-0.1-0.8,0.4-1,0.6-1.5c-0.8-1.1,0.6-1.5,1-2.6
		c0.2-0.6,0-1,0.5-1.4c0.3-0.9-0.4-1.8-0.2-2.6c0.1-0.5,1.3-1.6,2.1-1c1.1-0.3,0.9-2,1.5-2.8c0.7-0.1,1.3-0.2,1.6-1
		c-0.1-1.4-0.6-2.6,0-4c0.5-0.4,1.2-0.4,1.3-1c0.1-0.6-0.7-1.3-0.2-2.1c-0.1-0.4-0.6-0.5-0.8-0.9c0.2-0.4,0.2-0.9,0.1-1.3
		c0.1-0.4,0.8-0.7,0.9-1.2c0.1-0.7-0.7-1.5-0.8-2.1c-0.1-0.6,0.2-1.6,0.4-2c0.2-0.3,0.5-0.5,0.8-0.8c0.3-0.4,0.3-0.8,0.7-1.1
		c0-2.1,0-4.4,0.5-6.3c0.1-0.5,0.5-1,0.8-1.3c-0.1-1.2,0.6-2.2,1.4-2.6c0.3-1,0.3-2.2-0.3-2.7c-0.2-0.2-0.6-0.1-0.9-0.3
		c-0.5-0.3-0.5-0.7-0.8-1.1c-0.1-1-0.4-2.2-0.7-3.2c-0.3-0.8-0.8-1.1-1.2-1.8c-0.2-0.4,0.1-1.5,0.1-2.2c0-0.4-0.4-0.7-0.4-1.1
		c0-1,1.2-1.7,1.3-2.6c-0.3-0.6-0.5-1.3-0.8-1.8c0-0.3,0.2-0.4,0.3-0.7c-0.1-0.9-0.6-1.5-0.2-2.6c0.2-0.5,0.9-0.9,0.9-1.3
		c0.1-0.5-0.7-0.8-0.7-1.2c-0.1-0.6,1.2-2.4,1.5-2.6c0.2-0.2,0.6-0.2,0.8-0.3c0.7-2.1,2.3-3.1,4.3-3.8c0.3-1.1,1.2-1.4,1.9-2.1
		c0.2-0.7-0.2-1.1-0.2-1.7c0.2-0.3,0.6-0.3,0.9-0.5c-0.1-0.6,0.4-0.8,0.5-1.3c0.2-1.1-0.8-2.5-2-2.4c-1.5,0.2-1.9,2.5-2.7,3.6
		c-0.9,0.5-1.6,1.3-2.3,2c-0.6,1.3-0.9,2.9-1.8,3.8c-1.2,0-1.6,0.9-2.6,1c-1,1-3.1,0.8-4.7,1.2c-1-0.7-1.9-1.4-3.4-1.6
		c-0.4-0.8-0.6-1.2-0.6-1.8c0-0.4,0.2-1.1,0.4-1.5c0.3-0.7,1.5-1.3,1.6-1.9c0.1-0.6-0.4-1.3-0.6-1.9c0-0.2,0.1-0.4,0-0.6
		c-0.2-1.1-0.9-1.9,0.4-2.4c0.7-1,0.8-2.8,0.2-3.8c-0.4-0.8-1.2-1.1-1.6-1.9c-0.2-0.5-0.1-1-0.4-1.6c-0.6-1.8-2.6-2.9-2.9-4.6
		c-1-0.3-2.4-0.4-2.7,0.5c-0.2,0.8,1.3,0.8,1.3,1.5c0,0.3-0.6,0.7-0.7,1c0,0.3,0.3,0.3,0.4,0.7c0.1,0.2,0,0.4,0,0.5
		c0.2,0.5,0.5,0.8,0.8,1.3c0.2,0.3,0.2,0.6,0.4,1.1c0.2,0.4,0.5,0.7,0.7,1c0.5,1,0.5,2.1,0.9,3.2c-0.5,0.8,0.3,1.6-0.1,2.6
		c-1.1,0.4-1.9,1.7-2.8,2.2c-1.6,0.9-1.2-1.4-1.6-2.5c0.2-0.6,0.3-1.2,0.3-1.9c-1-0.9-0.2-3.7-2.3-3.5c-1.4-1-1.8-3.3-3.8-3.9
		c-0.5-0.1-1.1,0-1.6-0.3c0-0.3-0.2-0.5-0.1-0.8c-1.4-1.6-2.4-3.4-4-4.8c-1.1,0-1.7-0.9-1.2-1.8c-0.1-1.2-1.4-1.5-1.9-2.4
		c0.3-1.5-1.4-1.9-0.7-3.3c-0.3-0.7-0.8-1.2-1.6-1.5c-0.1-0.5,0.3-0.4,0.4-0.8c-0.1-0.3-0.4-0.9-0.8-1.3c-0.4-0.3-0.9-0.3-1-0.7
		c-0.1-0.5,0.4-1.1,0.5-1.5c0.1-0.8-0.5-1.7-1.1-2.3c-0.2-0.1-0.5-0.2-0.7-0.3c-0.6-0.5-1-1.3-1.7-1.5c-0.9-0.3-2-0.1-2.6-0.7
		c-0.3-0.2-0.3-0.6-0.6-0.8c-0.8-0.4-1.9,0.2-2.9-0.1c-0.4,0.2-0.9,0.8-1.6,0.3c-0.4-0.3-0.3-1-0.8-1.1c-0.3-0.1-0.7,0.1-1,0.1
		c-0.5-0.1-0.7-0.6-1.3-0.9c-0.1-0.1-0.4,0-0.6-0.1c-0.5-0.2-0.8-0.8-1.1-1c-0.9-0.4-1.7,0-2.5-0.5c-0.5,0.1-0.5,0.3-0.9,0.3
		c-0.9-0.1-1.3-1.9-2.7-0.8c-1.7-1.7-5.2-1.5-7.5-0.6c-0.4,1.2-1.2,2.8,0.9,2.5c0.5,0.4,1.2,0.8,1,1.6c0.4,0.7,1.4,0.9,1.5,1.8
		c1.5,0.9,1.8,2.8,3.1,3.8c0.1,0.7,0.2,1,0.5,1.5c0.1,0.2,0.2,0.6,0.3,0.7c0.2,0.3,0.7,0.3,0.9,0.6c0.1,0.2,0.1,0.5,0.2,0.8
		c0.1,0.3,0.3,0.5,0.3,0.7c0,0.2-0.2,0.4-0.1,0.7c0,0.3,0.3,0.4,0.4,0.8c0.3,0.9,0.5,1.8,1.8,1.9c0.1,1.2,0,2.5,0.5,3.3
		c0,2.3-0.3,4.3-0.4,6.7c-0.5,0.8-1.7,0.7-2.2,1.4c-0.2,0.9-0.8,1.4-1,2.3c0.3,0.3,0.3,0.8,0.5,1.2c0.2,0.2,0.7,0,0.9,0.2
		c0.9,0.8,1,2.5,0.6,4c0.4,0.4,0.4,0.9,0.6,1.5c0.1,0.4,0.5,0.6,0.7,1c0.1,0.2,0,0.4,0,0.7c0.1,0.3,0.3,0.5,0.4,0.9
		c0.1,0.5-0.1,1.1,0,1.7c0.2,0.9,0.6,1.6,1,2.3c-0.2,1.5,0.9,2.4,1.1,3.8c0.6,0.5,1.1,0.9,2,1.2c0.3,0.6,1,1,1.4,1.6
		c-0.5,1.6,0.4,3.1,1.7,2.4c1.8,0.6,4.2,0,5.8,0.5c0.8,0.3,1.1,1,1.7,1.4c1-0.1,1.9,0.7,2.8,0.3c0.9,0.6,2.6,0.5,3.4,1.3
		c-0.1,1.4,1.5,2.1,1.2,3.5c-0.1,0.3-0.3,0.5-0.4,0.8c-0.1,0.4,0,0.9-0.2,1.4c-0.1,0.5-0.5,1-0.6,1.5c-0.1,0.5,0,0.9-0.4,1.2
		c-0.3,2-0.2,4.1-1.1,5.3c-1,0-1.2,1.1-1.1,2.2c-0.2,0.5-0.7,0.3-1,0.6c-0.1,0.1-0.8,1.1-0.8,1.3c-0.1,0.2,0,0.5-0.1,0.7
		c-0.3,0.5-0.9,0.5-1.4,0.8c-1,0.6-1.8,1.6-2.3,2.5c-0.4,0.2-0.7,0.4-1.1,0.5c-0.8,0.5-0.9,1.3-1.8,1.8c-0.6,0.4-1.4,0.3-1.9,0.7
		c-0.7,0.7-0.6,1.9-1.6,2.4c-1-0.2-1.2,0.6-2,0.6c-0.2,0.3-0.2,0.8-0.2,1.3c-0.4,0.4-0.7,1.2-0.6,1.9c-1.1,1.1-1.7,2.7-2.9,3.7
		c0.1,0.6,0,1-0.2,1.5c0.3,1.9-1.5,2.6-2.1,3.9c0.1,0.9,0.1,1.6-0.5,2c0.1,1.2-0.5,1.5-0.7,2.4c-0.8,1.1-2.3,1.5-2.7,3
		c-0.4,0.4-1.2,0.9-2,0.8c-0.5,0-2.1-0.3-2.1,0.8c0,0.3,0.3,0.4,0.4,0.7c0.1,0.7-0.2,1.3-0.1,2.2c-0.5,0.6-1.2,0.9-1.9,1.1
		c-0.5,0.9-1.6,1.1-2.4,1.6c-0.3,0-0.5-0.3-0.7-0.1c-1.9,1.1-4.2,1.6-6,2.8c-0.9-0.2-1.5,0.7-2.4,0.7c-0.3,0-0.6-0.1-0.9-0.1
		c-0.5,0.1-0.8,0.5-1.2,0.7c-1-0.4-1.6,0.3-2.4,0.3c-1.2,0-2.4-1-3.1-1.6c-0.4-0.4-0.7-1-1.2-1.2c-0.6-0.3-1.2-0.1-1.6-0.3
		c-0.3-0.1-0.4-0.5-0.6-0.6c-0.4-0.3-1-0.3-1.2-0.7c-0.5-1.3-1.7-2.9-1-4.6c-0.1-0.7-0.2-1.1,0-1.7c0.1-0.4,0.5-0.6,0.5-0.9
		c0-0.3-0.4-0.7-0.4-1c0-0.3,0.3-0.4,0.4-0.7c0.3-0.5,0.3-1.2,0.6-1.7c1.1-0.7,3.3-2,2.2-3.6c0.2-0.7,0.6-1.5,0.1-2
		c0.2-0.6,0.2-1.2,0.3-1.9c0.2-1.3-0.1-2.5,0.6-3.3c0.6-0.7,1.8-1.4,3-1.5c0.5-0.6,1.3-1,1.7-1.8c-0.2-1.4,1.1-1.7,1.4-2.5
		c0.2-0.4-0.2-0.9,0.2-1.3c-0.7-0.9-0.6-2.7,0.4-3.3c-0.1-0.7-0.4-1.2-0.2-2.1c1.3-0.5,2.4-0.9,2.9-2.2c0.1-0.3,0.1-0.8,0.2-1.2
		c0.3-0.7,1.2-1,1.7-1.5c0.3,0,0.5,0.1,0.7,0.2c1.2-0.7,2.5-0.8,3.8-1.3c-0.3-1.9,1.7-1.4,2.6-2.2c0.2-0.2,0.2-0.5,0.3-0.7
		c0.3-0.3,0.7-0.3,0.7-1c0.4-0.2,0.7-0.5,1-0.8c0.3-1,0.7-2,1.8-2.1c0.8-1.1-0.1-2.2-0.6-2.9c0-1.1-0.9-1.5-0.7-2.6
		c0-0.3,0.4-0.5,0.4-0.9c0.1-0.6-0.1-1.5-0.2-2c-0.1-0.4-0.2-0.9-0.4-1.4c-0.4-1.1-1.6-1.4-0.8-2.7c-0.8-1.8-2-3.2-2.6-5
		c-0.2-0.4-0.7-0.6-1-1c0.1-0.9,0-1.6-0.1-2.6c-0.2-0.4-0.5-0.8-1.1-1c-0.4-1.6-1.1-3-2.1-4c-0.1-0.2-0.6,0-0.7-0.2
		c0.7-1.5-0.7-2.7,0-3.9c-0.2-1.3-1.2-2.1-1.4-3.4c-0.1-0.7,0.3-1.4,0.1-2.2c-0.1-0.4-0.7-0.8-0.9-1.3c-0.3-0.6,0-1.4-0.2-1.8
		c-0.1-0.3-0.5-0.4-0.7-0.6c-0.3-0.3-0.3-0.9-0.5-1.2c-0.2-0.4-0.6-0.6-0.8-0.9c-0.4-0.6-0.3-1.2-0.6-1.8c0.3-0.8,0-1.1-0.2-1.6
		c-0.2-0.4-0.2-0.8-0.4-1.1c-0.5-0.6-1.2-0.9-1.3-1.7c0-0.4,0-0.7,0.4-1.3c-0.1-0.6-0.7-0.8-0.8-1.5c0-0.2,0.2-0.6,0.1-0.8
		c-0.1-0.6-0.5-0.9-1.1-1c-1.7-1.5-2.2-4.2-4.3-5.3c-0.4-0.6-0.4-1.5-0.8-2.2c-0.3-0.1-0.7-0.2-0.9-0.4c-0.1-0.3,0.1-0.7,0-1
		c-0.8-0.5-1.9-0.7-2.1-1.8c-0.7-0.3-1.1-0.9-1.9-1.1c-0.4-1-1.3-1.7-2-2.4c-0.2-0.7-0.2-1.6-0.4-2.4c-0.7-0.7-2.2-1.4-3.4-2.1
		c-0.2-0.1-0.3-0.3-0.5-0.4c-0.2-0.1-0.4,0-0.6-0.1c-0.5-0.3-1.2-1.2-1.3-1.6c-0.1-0.3,0-0.9-0.1-1.3c-0.1-0.5-0.1-0.6-0.1-1.2
		c0-0.3-0.3-0.5-0.3-0.8c0-0.1,0.1-1.1,0.2-1.3c0.2-0.4,0.5-0.4,0.8-0.8c0-0.9-0.2-1.3,0.2-1.9c0.4-0.6,1.5-0.7,1.7-1.3
		c0.1-0.4-0.3-1-0.1-1.5c0.2-0.9,1.7-1,2.1-1.8c-0.3-0.5,0.1-0.8,0.1-1.3c0-0.3-0.3-0.6-0.2-0.9c0.1-0.4,0.8-0.8,1.3-1.3
		c0.5-0.4,0.9-0.9,1.3-1.2c0.7-0.5,1.4-1.2,1.3-2.6c0.4-0.9,2.1,0,2.6-0.9c1.5,0,1.4,1.4,2.5,1.8c0.6,0,1.7-0.6,2.5-0.2
		c0.5,0.3,0.8,0.9,1.4,1c0.7,0.1,1.3-0.2,1.8,0c0.4,0.2,0.6,0.7,0.6,1.1c0.6,0.7,1.4,2,2.8,1.5c0.1-0.7,0.2-1.6,0.9-1.7
		c0.4,0.6,0.9,1.1,1.5,1.4c0.3-0.3,0.7-0.1,1-0.2c0.2,0,0.4-0.3,0.7-0.3c0.6,0,1.4,0.8,2,0.8c0.5,0,0.7-0.4,1-0.8
		c1.2-0.1,1.6,0.8,2.5,1c0.2,0,0.5-0.1,0.8,0c1,0.2,1.3,0.9,2.7,0.9c0.3,0,0.6-0.2,1-0.3c0.5-0.1,1-0.1,1.4-0.2
		c0.8-0.3,1.3-1.4,2.2-1.5c0.3-0.1,0.6,0.1,1,0.1c0.4,0,0.7-0.2,1.1-0.3c1.2-0.2,2.8,0.4,4.1,0.2c0.8-0.1,1.3-0.5,2.2-0.4
		c0.4,0.1,0.9,0.3,1.5,0.3c0.6,0.1,1,0.3,1.5,0.4c0.2,0,0.4,0,0.6,0c0.4,0.1,0.8,0.6,1.2,0.6c0.5,0.8,1.1,1.4,2.2,1.9
		c0.4,0.2,0.9,0,1.4,0.1c0.7,0.1,1.3,0.8,2,1c0.9,0.1,1.5-0.4,2.1-0.7c1.2,0.2,2.1,0,2.5-0.7c0-0.5,0.1-1,0.2-1.3
		c-0.4-1-1.6-1.3-1.6-2.6c-0.4-0.5-1.1-0.6-1.1-1.2c0-0.5,0.6-0.7,0.7-1.2c0.1-0.8-0.6-1.3-1.6-1.5c0.1-1.8-0.9-3.1-1-4.9
		c-0.6-0.4-0.7-1.3-1.5-1.6c-0.6-0.2-1.3-0.1-1.5-0.8c0.8-1.7-0.7-2.2-1.4-3.1c0.3-0.5,0-0.9-0.1-1.6c0-1.1,0.7-2.4-0.2-2.8
		c-0.9-0.4-1.6,0.4-2.5-0.3c-0.4-0.8-1.1-1.6-0.9-2.7c-0.6-0.2-0.6-0.7-1.1-0.9c-0.3-0.1-0.7,0-0.9-0.1c-1.4-0.3-1.6-1.8-2-3.1
		c-0.1-0.4-0.4-0.8-0.4-1.2c0-0.2,0.1-0.4,0-0.5c-0.2-0.6-0.8-1.1-1.4-1.5c-0.3-0.9-0.1-1.9-0.5-2.6c-0.2-0.3-0.6-0.4-0.8-0.7
		c-0.4-0.6-0.5-1.3-1.1-1.6c-1-0.1-1.8-0.7-1.8-1.5c0-0.5,0.6-1,0.4-1.6c-0.4-0.5-1.4-0.6-2-1c-0.2-1.4-1.6-1.7-2.9-2.1
		c-0.5-0.6-1.2-1.1-2.2-1.2c-0.8-1.1-1.1-2.5-1.6-3.7c-0.5-0.2-1-0.4-1.3-0.8c-0.1-0.4-0.1-0.8,0-1.2c-0.5-0.9-1.7-1.2-1.8-2.4
		c-0.4-0.3-0.8-0.6-1.5-0.7c-0.3-1.1-1.1-1.8-2.4-2.1c-0.2-0.4-0.5-0.5-0.6-0.9c-0.1-0.3,0.2-0.7,0.1-1c-0.2-0.9-1.8-1-1.7-2.1
		c-0.7-0.2-0.8-0.9-1.4-1.2c-0.1-0.7,0.4-1.2,0.2-1.8c-1.9-1-3.3-2.3-4.5-3.9c-1.3-0.6-2.9-1.1-3.8-2.1c-0.3-0.3-0.4-0.7-0.8-0.9
		c-0.3-0.3-0.8-0.4-1.2-0.7c-0.4-0.4-0.7-1.1-1.1-1.6c0-0.3,0.3-0.3,0.3-0.7c-0.4-0.7-1.5-0.7-1.9-1.3c0-0.8-0.4-1.1-0.8-1.7
		c-0.3-0.4-0.5-1-0.8-1.3c-1-0.7-3.9,0.2-3.7-1.7c-0.7-0.6-1.4-1.5-2.6-1.4c-0.4-0.2-0.7-0.5-1-0.8c0.3-1.2-0.9-1.7-1-2.5
		c-0.1-0.6,0.4-0.9,0.3-1.6c0-0.6-0.9-0.8-0.9-1.6c0-0.9,0.9-1.4,0.7-2.5c0.3-0.7,1.4-0.3,1.7-1.2c0.1-0.4-0.2-0.7-0.2-1.1
		c0-0.7,0.7-1.8-0.2-2.1c-0.4-0.1-0.6,0.1-1.1,0c-0.9-0.6-1.2-1.7-1.6-2.7c-0.7-0.7-1.5-1.3-1.9-2.3c0.4-0.8,0.6-2,1.6-2.3
		c0.7-0.2,1.4,0,2.1-0.1c1.3-0.2,2.4-1.5,3.6-2c0.8-0.2,1.7-0.4,2-1.1c0.7-1.4-0.6-4-1.5-4.7c-0.3-0.8-0.7-1.4-0.8-2.3
		c-0.5-0.4-1.1-0.7-1.4-1.2c0.1-0.8-0.6-0.9-0.4-1.8c-0.7-1.3-0.9-3-1.2-4.7c-1.3-1.2-2.1-2.8-3-4.3c-1.3,0.2-2.8-0.4-1.9-1.8
		c-0.3-1-1.3-1.4-1.3-2.6c-0.3-0.6-1.1-0.7-1.7-1.1c-0.2-0.5,0.1-0.9,0.3-1.2c-0.4-1.2-0.6-2.1-2.2-2.5c-1.7-0.4-2.3,0.7-3,1.9
		c0.3,1.4-0.8,1.7-1.6,2.2c-1.4,0.9-1.9,2.3-2.7,4c-1.1,0.7-3,0.2-4,1.1c-0.8-0.6-1.6-1.2-2.1-2c0-1.1-0.5-1.8-0.7-2.7
		c0-0.4,0.4-0.4,0.4-0.8c-0.2-0.8-0.5-1.5-1-1.9c0.1-0.5-0.1-0.8,0-1.3c-0.5-0.5-1.1-1-1.5-1.7c0-0.4,0.4-0.6,0.4-1.1
		c0-0.7-0.9-1.2-1.1-1.9c-0.4-1.1,0.1-2.6-0.7-3.3c0.2-0.7-0.3-0.9-0.1-1.6c-0.1-0.3-0.3-0.4-0.3-0.6c0.2-1.7-1.5-2.1-1.9-3.4
		c-0.1-0.5,0-1-0.1-1.4c-0.2-0.7-0.6-1-0.9-1.6c0-0.3,0.1-0.3,0.1-0.6c-0.6-0.9-1.2-1.8-2.1-2.5c0-0.7-0.5-0.6-0.8-1.1
		c-0.4-0.9,0-2.3-0.4-3.1c-0.3-0.6-1.4-0.8-1.9-1.3c-0.4-0.5-0.6-1.3-0.9-1.9c-0.3-0.6-0.8-1.1-0.9-1.9c-0.4-0.2-0.5-0.7-0.8-1
		c-0.4-0.5-1.1-0.8-1.5-1.2c-0.7-0.8-0.7-1.8-1.2-2.8c-0.4-0.2-0.8-0.5-1.2-0.7c-0.1-1-1-1.4-1.5-2.1c0.1-0.3,0.1-0.6,0.2-0.7
		c0.3-0.3,0.8-0.3,1.1-0.5c0.8,0.2,1.6,0.6,1.8,1.4c1.8,0.7,2.5,2.4,4.7,2.9c0.2,1.3,1,2,1.9,2.7c0.3,0.8,0.7,1.8,1.3,2.3
		c0.6,0.5,1.3,0.7,1.6,1.4c0.3,0.7,0.4,1.4,0.8,2.2c1.2,0.8,1.6,2.2,3.1,2.8c0.2,1,0.5,2,1.4,2.4c0.7,1.1,0.2,2.5,0.4,3.8
		c0.1,0.6,0.5,0.8,0.8,1.4c0.2,0.4,0.2,0.9,0.4,1.3c0.6,1.1,1.4,2.8,1.8,4.1c0.5,0.8,0.7,1.8,1.4,2.4c-0.2,0.6,0.3,1.1,0.3,1.6
		c0.1,0.7-0.1,1.2,0,1.8c0.2,0.9,0.8,1.3,1.1,2.1c0.5,0,0.9,0.1,1.1,0.3c1.1-0.1,1.5-1,2.7-1.1c0.3-0.5,0.7-1.1,0.9-1.7
		c1.5,0,1.8-1.4,2-2.9c0.7-0.4,1.5-0.8,1.5-1.6c0-1.1-1.5-1-1.8-2c-0.1-0.5,0.1-0.9-0.1-1.3c-0.3-0.7-0.9-0.8-1.1-1.3
		c0.3-1.1-0.9-1.8-1.3-2.8c-0.2-0.4-0.1-0.8-0.2-1.1c-0.2-0.4-0.8-0.7-1-1c-0.2-0.3-0.3-0.8-0.4-1.3c-0.2-0.8-0.7-2-0.9-2.8
		c-0.1-0.3,0-0.5,0-0.7c-0.4-1.1-2.2-1.6-2.5-2.6c0.7-1-0.1-2.6-0.8-3.5c-1.1-0.3-2.6-1.6-1.6-2.7c-0.1-0.2-0.2-0.4-0.3-0.5
		c0-1.4-0.9-2-1.2-3c-0.5-0.4-0.7-0.9-1.1-1.3c-0.1-2-2.4-2.9-1.2-5.3c2.2,0.2,2.6,2.5,3.8,3.8c1,0,1.5,0,2.1,0.4
		c0.4,0.9,0.5,2.1,1.6,2.4c0.4,0.6,0.5,1.6,1.1,2c0.2,1.1,0.4,2.3,1,3.1c0,0.2,0,0.3,0,0.5c0.5,0.4,0.7,0.9,1.1,1.4
		c0.1,0.2,0.4,0.3,0.5,0.5c0.2,0.4,0.2,0.9,0.4,1.3c0.4,0.7,0.8,1.7,1.4,2.3c0.2,0.3,0.7,0.4,1,0.7c0.3,0.4,0.4,0.9,0.7,1.3
		c0.2,0.3,0.8,0.4,1,0.7c0.3,0.4,0.1,1.2,0.5,1.5c-0.3,1.3,0.2,2,0.4,3c0.3,0.7,1.6,0.6,2,1.2c0.1,1.3,1.1,1.7,1.9,2.5
		c-0.2,2.1,1.7,2.3,2.3,3.5c0.5,0,0.8-0.1,1.3-0.1c0.3-0.1,0.3-0.5,0.5-0.6c0.7-0.4,1.4-0.6,2.2-0.9c0.4-0.2,0.6-0.5,1-0.6
		c0.5-0.1,1.1,0.1,1.4-0.4c1.3-0.1,1.9-1,3.1-1.3c0.3-1.3,0.6-2.9,0.1-3.9c-0.2-0.5-0.9-0.9-1.4-1.4c-0.2-0.2-0.2-0.6-0.4-0.8
		c-0.6-0.7-1.6-1-1.8-2c-0.8-0.3-1.3-1-1.2-2c-0.2-0.5-0.5-0.9-0.7-1.3c-1-0.2-1.1-1.3-2.1-1.5c-0.1-0.5-0.7-0.7-0.7-1.4
		c0-0.5,0.3-0.9,0.1-1.3c-0.2-0.6-0.9-0.6-1.6-0.8c-0.5-0.7-0.5-1.8-0.9-2.6c-0.8-0.9-1.9-1.4-2.1-2.9c-0.5-0.5-1-1.1-1.9-1.3
		c-0.4-0.3-0.5-0.9-0.9-1.3c-0.2-0.3-0.7-0.4-0.9-0.7c-0.4-0.5-0.6-1.4-1.6-1.4c-1.1-1.2-0.9-3.6-0.6-5.4c0.9-0.3,1.6-0.6,2.3-0.2
		c0.8,0.4,1.3,1.4,1.9,1.8c0.2,0,0.5,0,0.8,0c0.7,0.5,1.3,1,1.8,1.5c0.1,1.1,0.9,1.6,1,2.5c1.3,1.4,2,3.4,2.9,5.1
		c0.7,0.2,1.1,0.8,1.5,1.3c0,1.2,0.8,1.6,1.8,1.9c0.7,1.3,1,2.9,1.8,4.2c1.1,0.5,1.5,1.6,2.1,2.5c1.3,0.7,1.9,2,2.7,3.2
		c0.9,0.7,2,0.2,2.5,0.9c0.3,0.5-0.1,0.8,0.1,1.4c0.1,0.6,0.9,0.9,1.6,1.1c1.2,1.5,1.1,5.3-0.3,6.8c-0.4,0.1-0.8,0.2-1.1,0.4
		c-0.2,0.1-0.3,0.4-0.4,0.6c-0.5,0.4-1.2,0.4-1.9,0.8c-0.7,0.3-1.1,0.9-2,1c-0.3,0-0.6-0.1-0.9-0.1c-0.2,0-0.4,0.2-0.6,0.3
		c-0.2,0-0.3-0.1-0.5,0c-0.2,0.1-0.4,0.3-0.6,0.4c-0.9,0.3-1.3,0.2-2.1,0.8c-0.3,0.2-0.5,0.7-0.8,0.9c-0.3,0.2-0.7,0.3-0.9,0.5
		c-0.3,0.3-1,1.4-1,1.7c0,0.6,0.6,0.8,0.7,1.5c-0.4,1.4,0.7,1.7,1.3,2.4c0.3,1.3,1.4,1.8,2.1,2.8c0.1,0.2,0.4,0.4,0.5,0.6
		c0.2,0.5,0.1,1,0.7,1.2c0,1.4,0.7,2.2,1.1,3.2c-0.7,1.3,0.9,1.3,1.4,2c0.1,0.2,0.1,0.6,0.2,0.9c0.3,0.8,1,1.3,1.5,1.6
		c0,0.5,0.2,0.9,0.1,1.4c0.8,1.1,0.9,2.8,1.6,3.9c-0.2,1.5,0.8,1.9,2.3,2c0.6-0.9,1.6-1.3,2-2.4c-0.4-0.9-0.6-2-0.9-2.9
		c0.4-1.1,2.1-0.7,2.6-1.6c0-0.8,0-1.8,0.8-1.9c0.6,0.3,0.9,0.8,1.6,0.9c0.6,0,1.1-0.5,2-0.2c0.5,0.2,0.6,0.7,1.3,0.6
		c0.6,0.9,1,2.1,1.6,3c-0.1,1.3,0.4,2,0.5,3.1c0.6,0.6,1.1,1.3,1.4,2.1c0,0.3-0.2,0.4-0.2,0.7c0.1,0.5,0.7,0.6,0.9,1
		c0.3,1.1-1,1.4-1,2.2c0,0.8,0.8,1,1.7,1.3c0.4,1,1.2,2.8,2.7,1.9c0.4,0.1,0.5,0.4,0.9,0.5c0.3,1.5,1.7,2.9,0.9,4.7
		c0.6,0.5,0.7,1.4,1.3,2c-0.2,0.7,0.2,0.9,0.4,1.2c-0.2,1.2,0.4,1.8,0.7,2.6c-0.1,0.4-0.4,0.5-0.5,0.8c0,1.1,1.6,0.7,1.7,1.5
		c0.1,0.7-0.9,0.9-1.1,1.5c0.1,0.5,0.1,0.8-0.2,1.1c0.1,1.1,0.9,2.5,0.6,3.6c-0.2,0.7-0.9,0.6-1.4,1c-0.2,0.8-1,1.4-1.2,2.3
		c-0.2,1.1,0.4,1.8,0.3,2.7c0.2,1,1.3,0.9,2.1,1.3c0.1,0.5,0.1,1.1,0.4,1.5c0,0.2,0,0.4,0,0.7c0.2,0.7,0.5,1.4,0.8,2
		c0.7,0.5,0.8,1.3,1,2c0.1,0.2,0.2,0.4,0.3,0.7c0,0.2-0.2,0.6-0.1,0.8c0,0.3,0.4,0.8,0.5,1.1c0.3,0.5,0.9,1.2,1.4,1.7
		c0.2,0.2,0.6,0.3,0.7,0.5c0.2,0.2,0.1,0.6,0.2,0.9c0.4,0.7,1.3,0.9,1.2,2c0.2,0.2,0.6,0.3,0.7,0.6c-0.3,1.4,1.4,1.6,1.5,2.6
		c0.1,0.5-0.5,1,0.1,1.5c0.9,0.1,1.8,0.2,2,0.9c-0.3,2.3,1.9,2.4,3.2,3.3c0.5-0.1,1.1-0.3,1.7,0c0.5,0.7,0.3,1.9,1.1,2.3
		c1.1,0,1.7,0.9,2.6,0.9c0.3,0,0.6-0.2,0.9-0.2c0.6,0,1.1,0.4,1.5,0.4c0.8,0.1,1.7-0.5,2.4-0.6c0.5-0.1,1,0.3,1.5,0
		c0.3-0.5,0.5-1,0.9-1.3c0.5-0.1,0.5,0.3,0.8,0.4c1,0.3,2.2,0.3,3,0.8c0.2,1.5-1.1,1.8-1.7,2.5c0,0.8-0.7,0.8-0.7,1.5
		c-0.8,0.2-1.3,0.8-1.9,1.1c-1.1,0-2.1-0.4-3-0.3c-0.4,0.1-0.6,0.4-0.9,0.5c-0.1,0-0.2-0.1-0.4-0.1c-0.4,0-0.7,0.2-1.3,0.1
		c-0.6-0.1-1.1-0.5-1.9-0.4c-0.8,0.3-0.9,2.2-0.3,2.8c-0.3,0.6,0.1,0.9,0.2,1.4c0.1,0.4,0,0.6,0.1,0.8c0.2,0.4,1.1,0.7,1.9,1.1
		c0.4,0.2,0.5,0.5,1,0.6c2.3,0.4,4.8-0.1,5.4-1.6c0.9-0.7,2.2-0.6,2.8-1.5c0.6-0.8-0.1-1.9,0.8-2.8c0.3-0.3,0.9-0.6,1.3-0.9
		c0.4-0.3,0.8-0.8,1.1-1.1c0.2-0.1,0.5-0.2,0.6-0.3c0.5-0.5,0.4-1.2,0.7-1.8c0.5-1,2-0.9,2.2-2.2c-0.1-0.4-0.3-0.7-0.5-1
		c-1.3-0.3-2,0.5-3,0.3c-0.2-1-0.7-1.8-1.1-2.6c0.3-0.7,1.1-0.8,1.5-1.4c0.6,0,1.5-0.3,1.8-1.1c0.2-0.6,0-1.2,0.2-1.7
		c0.6-1.4,2.8-2,1.8-3.9c0.2-0.7,0.8-0.6,1-1.1c0.5-1.2-0.9-2.4,0-3.5c0-0.7-0.8-1.1-0.6-1.6c0.1-0.5,0.8-0.5,1.3-0.9
		c0.1-0.8,0.3-1.5,0.1-2.2c-0.1-0.3-0.3-0.5-0.3-0.8c-0.1-0.7,0-1.4-0.4-1.9c0.2-0.3,0.1-0.7,0.2-1.1c0.1-0.4,0.6-1.3,0.9-1.6
		c0.1-0.1,0.4-0.1,0.5-0.2c0.1-0.1,0.2-0.4,0.3-0.4c0.3-0.2,0.6-0.1,0.8-0.4c0.1-0.2,0.1-0.9,0.1-1.3c0-0.2-0.2-0.4-0.2-0.6
		c0.1-0.6,0.6-1.1,1.1-1.1c0.9,0,1.2,1,1.8,1.7c0.8-0.4-0.1-1.2-0.2-1.7c0.2-0.4,0.4-0.6,0.6-1c1.5-0.4,2.4-1.4,3.5-2.3
		c0.3,0.1,0.5-0.1,0.8,0c1-0.6,2.7-0.5,3.3-1.5c1.5,0.6,3.1-0.4,4.2,0.7c0.8,0.3,1.6-0.3,2.1-0.3c0.4,0,0.8,0.1,1.2,0.1
		c0.6-0.1,1-0.5,1.6-0.3c0.6,0.1,0.9,0.8,1.4,0.9c0.7,0.1,1.7-0.4,2.8-0.3c0.7,0.1,1.5,0.8,2.2,0.7c0.7-0.1,1.1-1.3,1.6-1.6
		c1.5-0.4,1.9-2,2.6-3.3c0-0.9,0.3-1.6,0.1-2.2c0-0.3,0.4-0.4,0.4-0.7c0-0.7-0.5-0.9-1.1-1.1c-0.4-1.7,1.4-1.6,1.2-3.1
		c0-0.3-0.4-0.5-0.5-0.9c0-0.4,0.4-0.9,0.2-1.5c-0.3-0.5-1.5-0.6-2.3-0.9c-0.3-0.1-0.5-0.4-0.8-0.4c-0.4,0-0.5,0.4-0.9,0.4
		c-1.2-1.1-2.6-2-4.3-2.8c-0.1-0.2-0.1-0.3-0.3-0.5c0.4-0.7,0.3-1.5-0.1-2c-0.4,0-0.7-0.1-1-0.2c-0.4-3.1-4.2-3.2-5.4-5.6
		c-0.6-0.3-1.2-0.6-1.7-1c-0.1-0.2-0.1-0.5-0.2-0.8c-0.5-0.5-1.1-0.4-1.6-1c-0.4-0.4-0.4-1-0.9-1.3c-0.5-0.2-1.2,0.1-1.7-0.5
		c-0.2-0.4,0.1-0.8,0.1-1.1c0-0.5-0.4-1.3-0.2-2.1c0.1-0.3,0.5-0.7,0.5-1.1c0.1-0.4-0.2-0.9-0.3-1.5c-0.1-1,0.2-1.8,0-2.6
		c-1.7-1-3.3-2.1-5.2-3c0.2-1.2-0.8-1.2-1.7-1.1c-0.3-0.2-0.4-0.6-0.5-0.9c-0.4-0.4-0.9-0.6-1.1-1.2c-0.3,0-0.4-0.1-0.7-0.1
		c-0.5-0.8-1.3-1.5-1.6-2.5c0-1.7-0.3-3.7,1.3-4c0.1-0.3,0.2-0.8,0.3-1.1c0.6-0.3,1.2-0.5,1.7-0.9c1.1,0.1,2,0.1,2.9,0.3
		c0.7,1.3,1.5,2.5,2.9,3.2c1,0,1.6,0.4,2,0.9c0,0.4-0.2,0.6-0.1,0.8c0.1,0.3,0.5,0.1,0.8,0.4c0.4,0.3,0.4,0.7,0.8,0.8
		c0.7,0.1,1.2-0.3,1.4-1c-0.3-0.8-0.3-1.9-0.8-2.5c0.3-1.3-1.1-1.6-0.7-2.5c0.2-0.5,2-0.8,0.9-2.1c0-0.3,0.2-0.4,0.3-0.6
		c-0.3-0.9-0.1-1.8,0.4-2.5c0.2-0.3,0.8-0.5,0.9-0.8c0.4-1.3-1.7-2.2-2.2-2.8c0.2-2-2-1.9-2.7-3.2c0.2-0.6,0.2-1.2-0.3-1.4
		c-0.3-0.1-0.5,0.1-0.8,0c-1.3-0.5-0.5-3.4-0.2-4.5c-0.5-1.4,0.1-2.5,0-4.3c0.4-0.7,0.9-1.3,1.1-2.2c1.8-0.4,1.9-2.8,3.5-3.5
		c0.6-1.5,1.7-2.4,3.2-2.8c0.7-0.4,1.1-1.2,1.5-1.9c1.1,0,1.8-1.5,3.2-1.7c1-0.2,1.7,0,2.4-0.4c0.3-0.2,0.4-0.6,0.7-0.6
		c0.3,0,1,0.6,1.1,1c0.1,0.3-0.2,0.9-0.2,1.5c0,0.3,0.1,0.5,0.1,0.7c-0.1,0.6-0.7,0.8-0.9,1.2c-0.1,1.3-1.3,1.5-1.9,2.3
		c-0.2,0.5,0.3,1,0.3,1.4c0,0.7-0.8,1.7-1.2,2.4c-0.9,1.5-1.7,3-2.9,4.1c0.6,1.5-1.8,3.6-0.1,4.4c0.1,0,0.4-0.1,0.6,0
		c0.3,0.1,0.4,0.3,0.6,0.3c0.7,0.1,1.1-0.4,1.7-0.4c0-0.8,0.6-0.9,1-1.3c0.1-1.3,0.1-2.4,0-3.5c0.5-0.9,2-0.6,3.1-0.8
		c0.4-0.7,0.9-1.1,0.8-2.3c0.5-0.7,1.1-0.3,2-0.2c0.3,0,0.6-0.1,0.8-0.1c0.5,0.1,0.9,0.5,1.4,0.5c0.6-0.1,1.2-0.9,1.7-1.3
		c0.6-0.5,0.7-0.6,1.4-1c0.3-0.1,0.4-0.3,0.5-0.3c1.1-0.2,1.6,0.8,3,0.6c0.4-0.6-0.2-0.9-0.1-1.4c0.1-1.1,2.4-1.4,3.4-0.9
		c0.5,1.1,1.1,2.2,1.9,3.1c0.5-0.1,1,0.6,1.6,0.8c0.3,0.1,0.8,0,1.2,0.2c0.5,0.2,0.6,0.5,0.9,0.5c0.4,0,0.7-0.4,0.9-0.6
		c0.4-2.3-0.4-3.6-0.8-5.4c-0.6-0.6-1.1-1.3-1.7-2c-1-0.3-2.1-1-2.7-1.8c-0.2-0.3-0.6-1.3-0.5-1.8c0.1-0.5,1-1.3,1.5-1.4
		c0.7-0.1,1.5,0.5,2.1,0.7c0.3,0.1,0.5,0,0.7,0c0.3,0.1,0.5,0.4,0.9,0.5c0.2,0.1,0.5,0,0.7,0c0.6,0.3,0.9,0.9,1.2,1.3
		c0.6-0.2,0.8,0.5,1.3,0.8c0.3,0.2,0.7,0.1,1,0.2c0.2,0.1,0.4,0.7,0.8,0.9c0.2,0.1,0.5,0.1,0.7,0.2c0.2,0.2,0.3,0.7,0.6,0.8
		c1.8,0.1,1.9,1.6,3.8,1.5c0.3,0.2,0.3,0.5,0.5,1c0.1,0.3,0.4,0.4,0.4,0.6c0.1,0.3,0,0.8,0.2,1.1c0.2,0.8,0.9,1.6,1,2.3
		c0.1,0.6,0,1.6-0.2,2.3c-0.1,0.4-0.4,0.7-0.4,1.1c-0.1,1,0.5,2.1,0.2,3.1C295.9,84.1,295.1,84.4,294.9,84.9z M291.7,93.4
		c-0.2-0.1-0.2-0.4-0.4-0.6c-0.3-0.2-0.7-0.4-1.1-0.6c-0.7-0.5-1.2-0.9-2.1-0.7c-0.5,0.1-0.8,0.6-1.3,0.4c-0.7-0.2-1.1-2.2-1.8-2.4
		c-0.3,0-0.4-0.1-0.7-0.1c-0.8-0.7-1-2.4-2.5-2.6c-1.1-0.1-2.4,0.4-2.8,1.5c-0.4,1.1,0.2,2-0.3,3.1c0.1,0.4,0.5,0.6,0.3,1.2
		c0.9,0.7,0.9,1.9,1.8,2.6c0.2,0.2,0.6,0.2,0.9,0.4c0.3,0.3,0.2,0.8,0.4,1.2c0.6,1.2,2,1.7,2.9,2.6c1.1,0.1,1.5,0.8,1.8,1.6
		c1.3,0.8,2.3-0.4,3.7-0.1c0.5-0.3,0.7-1.1,1.5-0.9c0.5,0.1,0.9,1.4,0.6,2.3c-0.1,0.4-0.5,0.4-0.7,0.8c-0.1,0.2-0.1,0.8-0.1,1
		c-0.1,0.9,0.1,1.8,0.1,2.5c0.7,0.3,1.9,0.4,2.7,0.3c0.3,0.2,0.5,0.4,0.8,0.5c1.6,0.5,2.3-1.1,3.5-1.4c0.5-1.4-0.8-1.9-0.7-3.2
		c-0.6-0.6-1.4-1-1.4-2.2c-0.4-1-1.4-0.7-2.4-0.5c-0.3-0.6-0.2-1.6-0.5-2.2c-1-0.6-0.7-1.6,0.1-2.2C293.6,94.6,292.5,94,291.7,93.4z
		 M268.6,92.4c-0.4-0.6-1.1-0.9-1.9-1.4c-1-0.7-1.6-2.1-2.9-1.1c-0.9,0-1.6,0.2-2.1,0.6c-0.9,0.7-0.9,2.1-1.5,3.1
		c0.3,0.8,0.1,1.7-0.6,2c-1-0.1-1.4,0.4-2.1,0.8c-0.5,0.8-0.2,2.4-0.9,2.8c0.1,0.7-0.4,1.2-0.4,1.8c0,0.5,0.4,1,0.5,1.6
		c0.1,0.3,0,0.6,0.1,0.8c0.1,0.3,0.3,0.5,0.4,0.8c0.3,0.9,0.2,1.7,0.8,2.2c1.3-0.2,1.5,1.1,2.4,1.1c1,0,1.1-1.4,2.3-1.4
		c0.4-0.4,0.7-0.9,1.1-1.4c1.2-0.3,1.7-1.4,2.9-1.8c0.3-0.4,0.7-0.8,0.8-1.4c-0.3-0.6-0.5-1.1-0.4-1.7c0.1-0.6,0.8-0.8,1-1.2
		c0.1-0.3,0-0.5,0.1-0.8c0.1-0.3,0.4-0.6,0.5-0.9c0.4-0.9,0.6-1.8,1.1-2.6C269.4,93.6,268.8,93.2,268.6,92.4z M279.1,104.1
		c-0.8-0.9-1.5-2.2-2-3.6c-0.1-0.3-0.1-1-0.4-1.4c-0.2-0.5-0.8-0.6-0.5-1.4c-0.4-0.3-0.6-0.9-1.1-1.1c-0.3,0-0.7,0.2-1.2-0.1
		c-0.7,0.4-1.2,1-1.7,1.5c0.2,1.4,0.2,3.4-0.6,4.3c0,0.3,0.3,0.3,0.2,0.7c-0.5,1.1-0.2,2.1-0.7,3.1c-0.1,0.3-0.6,0.5-0.8,0.9
		c-0.3,0.6,0,1-0.2,1.7c0.4,0.5,0.7,1.2,1.2,1.7c1,0.2,1.5,0.9,1.9,1.6c1.4,0.5,2.6-0.3,3.8-0.5c0.3-0.8,1.4-0.7,1.7-1.5
		c0-0.4,0.1-0.8,0.1-1.3c-0.4-0.2-0.7-0.8-0.4-1.4c0.4-0.3,0.9-0.4,1.2-0.8C279.6,105.6,279.4,104.9,279.1,104.1z M240.9,108.3
		c0.1,0.1,0.3,0.2,0.6,0.2c-0.1-0.3-0.1-0.7-0.6-0.8C241,107.9,241,108.1,240.9,108.3z M291.1,111.5c-0.1,0.3-0.4,0.6-0.4,1
		c0.5,0.4,1.2,0.3,2,0.4c0.4-0.2,0.5-0.8,0.3-1.3C292.5,111.3,291.6,111.3,291.1,111.5z M259.9,111.3c-1.8,0-3.5,0.1-4.2,1.3
		c0.4,1.5-1.1,4.4,0.5,4.9c0.8,0.2,3-1,2.9-2.1c1.4-0.7,2.6-0.4,2.9,0.9c0,0.1-0.1,0.4,0,0.5c0.1,0.7,0.6,1.4,0.7,1.8
		c0.1,0.5-0.1,0.9,0.1,1.1c0.8,0.5,2.3,0.7,1.7,2.2c0.3,0.9,0.9,1.1,1.6,1.7c0.3,0.2,0.5,0.6,0.8,0.9c0.9,0.8,2.2,1.3,2.8,2.1
		c0.8,0.2,1.4-0.2,2.1,0.1c0.8,0.3,0.8,1.3,1.8,1.3c0.3,0,0.5-0.4,1-0.6c1-0.5,1.8-0.9,1.8-2.3c-0.7-0.8-2.6-0.5-3.1-1.5
		c-0.4,0-0.7,0-1.1-0.1c-0.2-0.2-0.4-0.5-0.6-0.7c0.2-1.3-1.1-0.9-1.9-1.3c-0.8-0.4-1-2-2.1-1.9c-0.3-0.6-0.9-0.9-0.9-1.8
		c-0.4-0.6-1.1-0.9-1.6-1.3c-0.2-0.2-0.3-0.5-0.5-0.7c-0.5-0.4-1.2-0.6-1.4-0.9c-0.3-0.4-0.2-0.9-0.4-1.3
		C261.5,113.1,260.9,112.1,259.9,111.3z M288.3,117.8c0.3-0.9,1.2-1.4,0.9-2.6c-0.8-1-3.4-1.3-4.2-0.3c-0.6,1-1.1,3.7-0.1,4.6
		C286.2,119.3,286.8,118,288.3,117.8z M160.2,108.3c-0.2,0-0.3-0.2-0.5-0.1C159.5,108.5,160.2,108.7,160.2,108.3z M278.7,117.9
		c0.2,0,0.3,0,0.3-0.2c-0.1,0-0.2,0-0.2-0.1C278.8,117.7,278.7,117.7,278.7,117.9z M280.6,121c-0.1,0.6,0.5,2,0.8,2.2
		c0.7,0.5,1.1,0.1,1.6-0.1c0.8-0.4,1.4-0.6,1.6-1.6c-0.3-0.4-0.2-1.2-0.3-1.7C283.3,118.8,280.8,120.1,280.6,121z M258.4,121.7
		c0.6,0.5,2.2,0.4,3,0.3C261.7,120.4,258.2,119.8,258.4,121.7z M282.7,131c-0.5-0.2-0.6-0.7-0.8-1.1c-0.5-0.2-1.2-0.4-1.7-0.2
		c-0.1,0-0.9,0.6-0.9,0.6c-0.8,0.8-0.2,1.7,0.6,2.4c1,0.9,2.4,0.9,3.3-0.2C283.1,131.9,282.5,131.8,282.7,131z M290.5,130.4
		c-0.4,0.2-0.4,0.6-0.8,1.2c-0.3,0.4-0.7,0.8-0.8,1.1c-0.1,0.3,0.2,0.6,0,0.8c-0.5,0.4-1.1,0.6-1.8,0.8c-0.6,0.8-1,1.4-2.5,1
		c-0.6,0.5-0.5,1.6-1.3,1.6c-0.6,0.1-1.1-0.6-1.8-0.6c-0.5,0-1,0.5-1.8,0.2c-0.5,0.3-1.2,0.4-2.1,0.3c-1.3,0.9-3.5-0.2-5.3,0
		c-0.7-0.4-0.9-1.2-1.4-1.8c-0.9-0.4-2.3-0.1-2.8,0.4c-0.2,2.1,1.5,2.6,3.1,3.1c0.2,0.3,0.4,0.9,0.7,1.2c0.2,0.1,0.6,0.2,0.9,0.4
		c0.2,0.2,0.4,0.5,0.6,0.6c0.2,0.1,0.6,0,0.9,0.1c0.6,0.2,1,0.5,1.3,0.5c0.3,0,0.6-0.2,0.9-0.2c0.5,0,1,0.3,1.6,0.3
		c1,0,2.3,0,3.3,0.5c0.5-0.1,0.5-0.7,1-0.8c0.6-0.1,1.5,0.3,2.4,0.2c0.7-0.7,1.7-1,2.8-1.2c0.8-1.2,2.1-1.9,2.5-3.4
		c0.4-0.4,1-0.6,1.4-1.1c0.3-0.5,0.3-1.1,0.5-1.7c0.1-0.2,0.3-0.4,0.3-0.6c0.3-0.9,0.3-2,0.2-2.8C291.9,130.4,291,130.2,290.5,130.4
		z M272.4,132.6c1,0.7,2.3,0.2,2.9-0.5c0.1-0.9-0.3-1.2-0.6-1.6C272.9,130.2,271.3,131.1,272.4,132.6z M185,130.7
		c0-1.2-2.8-1.8-2.6-0.1c0.1,0.7,1.1,0.9,2,1.1C184.7,131.3,185,131.1,185,130.7z M181.4,131.7c-0.1,0.3,0.3,0.3,0.4,0.2
		C181.9,131.6,181.6,131.7,181.4,131.7z M178,135.7c-1.1-1.2-2.4-0.4-2.1,1.2c-0.1,0.4-0.6,0.2-0.5,0.8c1.5,1.1,4.5,0.2,3.5-2.1
		C178.5,135.5,178.3,135.7,178,135.7z M188.7,141.9c-0.2-0.1-0.5,0-0.8-0.1c-0.3-0.1-0.5-0.3-0.7-0.4c-0.3-0.1-0.7,0-1-0.1
		c-0.4-0.1-0.6-0.4-0.9-0.5c-0.4-0.1-1.2-0.3-1.7-0.3c-0.2,0-0.5,0.2-0.7,0.2c-1.1,0.1-1.4,0-1.9,0.6c-0.7,0.1-1.3,0-1.9,0.1
		c-0.6,0.1-1.1,0.5-1.7,0.4c-0.3-0.1-0.4-0.4-0.6-0.5c-1.3-0.7-1.6-0.3-2.6,0.2c-1,0.5-1.8,0.7-3.1,0.8c-0.3,0.3-0.6,0.7-1,0.9
		c-0.1,0.1-0.3,0-0.5,0c-0.1,0.1-0.2,0.3-0.4,0.4c-0.7,0.4-1.3,0.3-1.1,1.3c0.1,0.3,0.6,0.3,0.9,0.4c0.5,0.4,0.6,1.3,1.2,1.7
		c0.3,0.2,0.8,0.2,1.1,0.3c0.8,0.4,1.2,1,1.5,1.7c0.1,0.2,0.3,0.3,0.3,0.5c0,0.1-0.1,0.3,0,0.4c0.1,0.4,0.4,0.5,0.4,0.9
		c0,0.9-0.9,2.1-1.3,2.6c-0.6,0.8-1.3,1.5-2.1,1.7c-0.6,1.3,0.1,2.2,0,3.3c0.6,1.1,1.1,2.2,2.1,2.8c1-0.2,2.1,0.1,3.2,0.1
		c0.3,0.2,0.3,0.6,0.9,0.8c0.5,0.2,1.1,0,1.2,0.5c0.2,0.6-0.6,0.4-0.7,1c0.4,0.6,0.3,1.3,0.7,2c0.1,0.2,0.4,0.3,0.5,0.6
		c0.2,0.4,0.3,0.8,0.5,1c0.7,0.6,3.2,0.5,3.2-0.5c0-0.4-1.4-1-1.8-1.5c-0.3-0.5-0.6-1.4-0.8-2.2c-0.1-0.6,0.2-1.3,0-1.8
		c-0.1-0.4-0.8-0.8-0.7-1.4c0.2-0.7,0.8-0.5,1.5-0.7c0.2-0.1,0.4-0.3,0.7-0.4c0.3-0.1,0.7-0.3,0.8-0.3c0.2-0.2,0.2-0.4,0.4-0.5
		c0.6-0.3,1.3-0.4,1.8-0.7c0.2-0.5,0.6-0.8,0.6-1.6c0.6-0.7,1.3,0.2,2,0.1c0.6-0.1,1.2-0.9,2-1.1c0.2-0.1,0.5,0,0.8,0
		c0.2,0,0.5-0.2,0.7-0.3c0.7-0.1,1.3,0.2,2.2,0.1c0.4-0.3,0.6-0.8,0.8-1.4c-0.4-0.5-0.6-1-0.9-1.6c0.5-1,0.5-2.5,0.5-3.4
		c-0.6-0.1-0.9-0.9-1.6-0.9c-0.2,0-0.4,0.3-0.8,0.3c-0.3,0-0.6-0.1-0.8-0.1c-0.3,0.1-0.6,0.5-0.9,0.5c-0.2,0.7-0.7,1.8-1.5,1.9
		c-1.5,0-3.7,0.6-5.1,0.2c-0.2,0.1-0.2,0.2-0.5,0.2c-0.5-0.4-1.2-0.3-1.9-0.3c-1.1-0.1-1.8-1-2.7-1c-0.7-0.6-1.2-2-0.5-3.2
		c1-0.3,1.7-1,2.8-0.9c0.3,0,0.5,0.2,0.8,0.3c0.6,0.1,1.5,0.2,2,0.1c0.3,0,0.6-0.4,1-0.4c0.2,0,0.5,0.1,0.7,0.1
		c0.6,0,1.2-0.2,1.7-0.2c0.6,0,1.2,0.4,1.8,0.4c0.9,0.1,2.2,0,2.8,0.1c0.4-0.3,0.4-1,0.5-1.6C190,142.7,189.2,142.1,188.7,141.9z
		 M277.8,153.1c0-1,0.5-2.2,0.4-2.8c-0.1-0.5-1.4-1.6-1.5-1.8c-0.5,0.5-1.4,0.7-1.8,1.4c-0.1,0.2-0.1,0.5-0.2,0.8
		c-0.2,0.5-0.5,0.8-0.5,1.2c0.1,0.6,1,0.7,1,1.3c0,0.5-0.6,0.8-0.7,1.3c0,0.3,0.3,0.6,0.4,0.9c0.1,0.5-0.1,1.3-0.1,2
		c0.1,1.1,1,1.7,0.3,2.8c-0.7,0.2-1.2,1.1-2,1.4c-1,0.4-2.2,0.2-3.4,0c-0.8-0.6-1.3-1.9-2.3-2c-0.2,0-0.7,0.2-1.1,0.4
		c-0.9,0.4-1.5,0.7-2.1,1.1c-0.5,1.3-1.7,1.7-3.4,1.6c-0.8,0.6-1.4,0.1-2.4-0.2c-0.4-0.1-0.8-0.1-1.1-0.2c-0.7-0.4-0.5-1.4-0.8-2.2
		c-0.2-0.5-0.5-0.8-0.4-1.4c-0.3-0.2-0.5-0.5-1.1-0.5c-0.6,1.2-1.5,2-2.7,2.5c-0.9-0.2-1.7-0.5-2.6-0.2c-0.5,0.2-0.9,0.8-1.3,1
		c-0.4,0.1-0.8,0-1.2,0.1c-0.6,0.1-0.9,0.6-1.3,0.9c0.1,0.7-0.5,1.1-0.6,1.5c-0.1,0.5,0.1,1-0.2,1.5c0.2,0.3,0.6,0.5,1,0.7
		c0,0.2,0.2,0.4,0.3,0.5c0.8,1,1.9,1.7,2.2,3.2c0.7,0.6,1.3,1.2,1.5,2.3c0.5,0.3,1.2,0.6,1.2,1.3c0,0.4-0.4,0.6-0.5,0.9
		c-0.1,0.3,0,0.6-0.1,0.9c-0.3,0.9-1.2,1.3-1.6,1.6c-0.3,0.5-0.2,1.2-0.5,1.6c-0.2,0.3-0.6,0.4-0.6,0.8c0,0.8,1.5,0.7,1.9,1.5
		c0.8,0.1,1.3,0.4,1.6,0.9c0,0.9,0.4,1.3,0.5,2.1c0.5,0.4,1.2,0.7,2.1,0.7c0.4-1.3,2.6-3.8,3.5-1.9c-0.1,0.9,0.3,1,0.6,1.7
		c0.6,1.2,0.8,2.6,1.9,1.3c0.6-0.6,1.1-1.1,1-2.3c0.8-0.9,0.6-2.7,1.7-3c0.4-0.1,0.8,0.2,1.2,0.2c0.9,0.1,2-0.2,2.7,0.4
		c0.3,0.3,1,1.5,1.1,1.9c0.1,0.5,0.2,2-0.1,2.8c-0.1,0.4-0.7,0.6-1,1.1c-0.2,0.4-0.2,1.1-0.4,1.3c-0.2,0.2-0.6,0.1-1,0.2
		c-0.9,0.3-1.4,1.5-2.7,1c-0.9,0.4-1.8,2.4-0.6,2.8c0.5,0.1,1.4-0.2,2.1-0.5c0.4-0.2,0.6-0.6,1-0.8c0.2-0.1,0.4,0,0.6,0
		c0.3-0.1,0.5-0.3,0.8-0.3c0.7,0,1.2,0.3,1.9,0c0.6-0.8,1.1-1.5,2-1.4c0.4,0,0.7,0.4,1.1,0.4c1.8-0.1,0-3.1,2.1-2.8
		c0.5,1.2,1.6,2.8,3.3,1.8c0.2,0,0.1-0.4,0.1-0.6c-0.6-0.5-1.7,0.1-1.7-0.9c0-0.8,2.1-2.1,2.8-2.1c1.3,0,0.9,0.8,1,1.6
		c0,0.4,0.4,1,0.4,1.3c0,1-0.2,1.7-0.6,2.6c0.3,0.8,0.9,1.6,2,1.5c1.3-0.8,1.2-3.5,0.1-4.4c0.1-1.3-0.7-2.3-1.8-2.9
		c-0.3-1-0.2-2.3,0.1-3.4c1.1-0.5,1.2-2.4,2.5-2.5c0.5-0.1,1,0.4,1.5,0.3c1-0.1,1.5-1,2.3-1.3c0.6,0.4,1,0.6,1.2,1.1
		c0.1,0.4,0,0.8,0.1,1.2c0.2,0.7,0.8,1,1.2,1.4c0,0.5,0,0.9,0.1,1.3c0.4,0.4,1.1,0.6,2,0.7c0.8,0.9,2.4,1.1,3.9,1.3
		c0.4,0.9,0.7,1.8,1.3,2.6c1.3,0,1.3,1.7,2.3,1.8c0.6,0,0.7-0.7,1.7-0.4c0.4,0.4,0.5,1,1,1.3c1.1,0,2.2,0.2,3.4,0.2
		c0.8,0.8,2.7,1,4.1,1c0.2,0.2,0.4,0.4,0.7,0.5c0.4-0.1,0.6-0.3,0.9-0.5c0.2-1,0.1-2.3-0.4-3c-0.2-0.3-0.6-0.2-0.9-0.4
		c-0.5-0.4-0.4-1.1-0.8-1.5c-0.4-0.4-1.2-0.5-1.9-0.5c-0.6-0.2-0.8-1.2-1.6-1.5c-0.2-0.1-0.5,0-0.7,0c-1.1-0.3-2.4-3.1-1.1-4.1
		c0.2-0.1,0.5-0.1,0.8-0.1c1-1.1,2.8-1.3,3.1-3.1c0.6-0.2,1.4,0,1.7-0.5c0-0.5,0-1,0-1.5c0.7-0.8,1.8-1.1,2.9-1.5
		c2.2,0.7,4.3,1.7,6.8,1.8c0.7-1.6,0.7-3.4,1.3-5c0.9-1,2.3-1.4,3.4-2.2c1.3,0.3,1.6-0.8,2.7-0.9c0.2-0.1,0.2-0.4,0.4-0.5
		c0.3-0.1,0.7-0.2,1-0.3c0.4-1.1,1.8-1.2,1.5-2.8c-0.6-0.9-0.6-3.1-2.3-2.6c-0.3,1.4-0.1,2.5,0.1,3.6c-0.6,0.7-0.9,1.6-2,1.6
		c-0.8,0-1.6-0.8-2.5-0.2c-0.2,0.7,0,1.6-0.8,1.7c-0.3,0-0.3-0.2-0.7-0.4c-0.2-0.1-0.4,0-0.6-0.1c-0.8-0.5-0.4-1.2-0.6-2.2
		c0-0.2-0.3-0.4-0.3-0.5c-0.2-0.6,0.1-0.7-0.3-0.9c-0.4-0.1-0.9,0.6-1.2,0.7c-1.1,0.1-2.1-1.1-2-1.7c0-0.3,0.5-0.5,0.8-0.9
		c0.6-0.8,1.1-1.1,2-1.5c0.4,0.1,0.8,0.3,1.1,0c0.1-0.6-0.5-1.3-1.2-1.2c-0.6,0.1-0.5,0.7-1.1,0.8c-0.3,0-0.5-0.2-0.9-0.2
		c-0.6,0-1.2,0.6-1.8,0.6c-2-0.1-1.1-3.5-2.3-4.1c-0.2-0.1-0.7-0.1-1-0.2c-0.4-0.2-0.5-0.6-0.9-0.7c-0.4-0.1-0.8,0.2-1.4,0.3
		c-0.4,0.1-0.9,0-1.4,0.1c-0.2,0.1-0.5,0.3-0.8,0.4c-1.6,0.5-2.8,0.6-3.6,1.7c-1.1,0.2-3.3,0.5-2.5,1.9c1.5,0.1,2.2,0.8,2.5,1.6
		c0.1,0.2-0.1,0.4,0,0.7c0,0.3,0.2,0.6,0.2,0.9c-0.2,1.4-2.3,1.2-3.2,1.7c-0.4,0.2-0.7,1.1-1.4,1.1c-0.5,0-1.1-0.7-1.4-0.9
		c-0.5-0.3-1-0.6-1.4-1.1c-0.2-1-0.7-2.7-1.6-2.9c-0.5-0.1-1,0.4-1.5,0.4c-0.3,0-0.5-0.3-0.7-0.3c-0.3-0.1-0.7-0.2-1.1-0.2
		c-2-0.1-2.9,0.6-3,2.4c0.7,1.1,1.1,2.2,0.7,3.6c-0.2,0.7-0.8,1.3-1,1.9c-0.2,0.6,0.1,1.3,0,1.8c-0.2,0.9-2.3,1.9-2.9,2.4
		c-1.1,0.1-2.3,0.2-2.3-1.1c0.1-0.3,0.5-0.2,0.6-0.4c0.7-1.3-0.3-2.4,0.1-3.7c-0.6-0.5-0.8,0-1.4,0.4c-0.4,0.2-0.9,0.4-1.2,0.6
		c-0.5,0.4-1,1.4-1.7,1.3c-0.3,0-0.7-0.9-0.8-1.5c0-0.3,0.1-0.7,0.1-0.9c0-0.2-0.2-0.5-0.2-0.8c-0.1-1.1,0.5-2.6,0.8-3.5
		c0.2-0.9,0-1.9,0.2-2.5c0.1-0.3,0.5-0.8,0.6-1c0-0.2-0.1-0.5-0.1-0.8c0-0.4,0.3-0.8,0.2-1.1c-0.1-0.8-1.2-1.2-1.2-2
		C277.8,154.7,277.8,153.9,277.8,153.1z M313.2,156.2c0.5,0.2,0.8,0.6,1.4,0.7c0.5-0.7,0.9-1.5,1.4-2.3
		C314.5,153.9,313.1,154.9,313.2,156.2z M184.9,147.7c-0.1,0-0.2,0-0.3,0C184.5,147.9,184.9,147.9,184.9,147.7z M322.5,162.3
		c0.3,0.4,0.6,0.7,1.2,0.8c0-0.1,0.1-0.2,0.2-0.2c0-0.7-0.2-1.1,0.1-1.6C323.3,160.2,322.6,161.3,322.5,162.3z M195.2,152.9
		c0,0.1,0,0.2,0.1,0.2c0.2,0,0.2-0.1,0.3-0.2C195.5,152.8,195.3,152.8,195.2,152.9z M319.9,161.8c-0.3,0.1-0.9,0.9-0.9,1.3
		c0,0.5,0.8,0.8,0.9,1.5c1,0,1.8-0.2,2.1-1C321.9,162.5,321,161.2,319.9,161.8z M259.1,157.9c0,0.3,0.4,0.3,0.4,0.1
		C259.4,157.9,259.4,157.9,259.1,157.9z M358.5,174.9c0.2-1.2-1.3-2.5-1.8-1.2c-0.2,0.5,0.1,1,0,1.5c0.4,0.2,0.7,0.5,1,0.7
		C358,175.5,358.4,175.4,358.5,174.9z M181.1,162.4c0-0.1-0.2-0.1-0.3-0.1C180.7,162.6,181.2,162.7,181.1,162.4z M347.5,176.8
		c-0.4-0.1-0.9-0.2-1.4-0.2c-0.5-0.2-0.6-0.8-1-1.3c-0.3-0.3-0.8-0.4-1.1-0.7c-0.4-0.5-0.6-1.3-0.9-1.6c-0.8-0.5-1.2,0.2-1.7,0.4
		c-0.8,0.4-1.6,0.7-2.3,1.1c-0.4,0.9-0.8,1.7-0.6,2.9c0.6,0.3,1.1,0.9,2,1c0.2,0,0.5-0.1,0.7,0c0.3,0.1,0.6,0.4,0.9,0.4
		c0.2,0,0.5,0,0.6,0c0.4,0.2,0.7,0.8,1.1,0.9c0.6,0.2,1.4,0,2.1,0.2c0.5,0.2,1,0.9,1.5,0.9c0.6,0.1,1.1-0.5,1.7-0.4
		c1,0.1,1.2,1.1,1.9,1.4c1,0.1,2.2,0.2,2.9-0.1c1.1,0.6,2.4,1.5,4,1.5c0.5,0.3,1,0.7,1.7,0.6c0.1-1,0.6-1.5,0.8-2.4
		c1-0.3,2.1,0.4,3.2,0.1c0.5,0.7,1.2,1.4,1,2.4c-0.1,0.6-0.8,1.3-1.3,1.4c-1,0.2-2.5-0.6-3.3,0.3c-0.1,1.2,0.2,2.6,0.5,3.7
		c-1.1,1.2,0,3.5-1.7,4c0.1,0.9-0.3,1.3-0.6,1.8c-0.1,0.3,0.1,0.4,0,0.8c-0.4,0.5-0.3,1-0.4,1.5c-0.2,1.1-1.2,1.5-1.6,2.5
		c0.3,0.9,1.3,1.3,2,2c-0.3,1.2-1.5,1.7-1.8,2.8c-0.1,0.4,0.1,0.9-0.2,1.1c-1.2,0.1-2.1,0.6-2.7,1.5c0.2,0.5,0.3,1.1,0.5,1.5
		c0.5,0,1.4,0.1,2-0.1c0.3-0.1,0.3-0.5,0.6-0.7c0.2-0.1,0.4-0.1,0.6-0.2c0.6-0.3,1-1,1.7-1.5c0.2-0.1,0.4-0.1,0.5-0.2
		c0.4-0.3,1-0.8,1.1-1.1c0.1-0.3,0-1.1-0.1-1.4c-0.2-1.1-1.1-2-1.6-2.7c1.2-1.9,3.9-2.1,5.3-3.8c0-0.5-0.1-1,0-1.7
		c0.7-0.6,1.3-1.3,1.7-2.2c0.6-0.4,1.3-0.6,1.9-1c0.1-0.8,0.5-1.2,0.9-1.7c1.1-0.1,1.4-1.2,2.1-1.8c0.1-1.2,1.3-1.9,1.1-3.6
		c-0.3-0.5-0.5-1.1-0.6-1.8c-0.7-0.8-1.8-1.1-2.5-1.7c-0.7-0.6-1.1-1.5-2.1-1.8c-1.5,0.4-2.6-1-4.1-0.8c-0.6-0.6-1.6-0.6-2.7-0.6
		c-1.5-0.8-3.7-1.4-5.4-0.7c-0.6-0.6-1.2-0.2-1.9-0.1c-0.3,0-0.7-0.1-1-0.1c-0.4,0-0.7,0.4-1,0.4c-0.8,0.1-1.4-0.3-2.2-0.1
		C347.9,177.5,347.9,177,347.5,176.8z M319.6,180.8c1.5,0.1,1.2-2.1-0.3-1.9C317.7,179.1,318.8,180.7,319.6,180.8z M347.9,199.3
		c0.6-1.4,1-3,1.9-4.1c0-0.9,0.4-1.4-0.1-2.2c0.2-1,1.5-1.4,1.7-2.5c0-0.2,0-0.6,0-0.8c0.1-1.2,0.4-2.4-0.4-2.9c-2,0-3.3-1-5.3-1
		c-0.6-0.9-2.3-0.9-2.8-1.8c-0.7,0.1-1.3-0.4-2-0.1c-2.2-1.2-4,1.3-5.9,0c-0.6-1.8-3.4-1.8-4-3.6c-1.1-0.6-2,0.2-2.7,0.6
		c0,0.3,0,0.6-0.1,0.8c-0.5,0.5-0.9,0.6-1,1.3c-0.1,0.4,0.1,0.8,0.1,1.2c-0.1,0.6-0.8,1.1-0.6,1.8c-0.8,0.6-0.5,2.1-0.7,3.1
		c-1.1,0.7-0.4,2.1-0.7,3.2c-0.1,0.2-0.3,0.3-0.4,0.6c-0.1,0.2,0,0.4-0.1,0.6c-0.2,0.4-0.8,0.6-1,1c-0.5,0.7-0.4,2-0.3,2.8
		c0,0.5,0.4,1,0.3,1.5c-0.1,0.5-1.1,1-0.9,1.7c-0.7,0.6-1.4,1.2-2.3,1.6c-0.3,1.2-1.2,1.8-1.3,3.1c-0.7,0.4-0.9,1.2-1.2,2.1
		c-0.3,0.4-0.9,0.7-1.4,1.2c-0.3,0.3-1.1,1.4-1.2,1.7c-0.5,1.7-0.1,3.6,0,5.2c-0.3,0.6-0.7,2-0.6,3c0.1,0.7,0.8,1.4,0.3,2.3
		c0.4,0.6,0.8,1.6,1.7,1.5c0,0,1.4-0.5,1.5-0.6c0.7-0.5,0.1-1.2,0.2-1.9c0.1-0.8,1.5-1.4,0.8-2.2c0.7-1.3,0.2-3.6,0.6-5.3
		c0-0.9-1-2-0.8-2.9c0.1-0.2,0.5-0.6,0.7-0.7c0.3-0.2,1.8-0.7,2-0.7c0.3,0,0.4,0.1,0.6,0c0.3-0.1,0.5-0.4,0.8-0.4
		c2.1-0.3,3,1.9,4.5,1.9c0.4,0,0.7-0.5,1-0.4c0.5,0.3,0.5,0.8,0.4,1.5c0.6,0.6,0.4,1.8,0.7,2.6c2.7,0.7,3.3-2.2,6.2-1.7
		c0.5,0.3,1,0.5,1.4,0.8c0.4-0.2,0.8-0.3,1-0.7c0.1-0.4-0.1-0.5,0-0.8c0.9-0.9,2.5-1.1,3.1-2.3c0.3,0,0.5-0.1,0.7-0.2
		c0.5-0.7,0.4-1.5,0.5-2.5c0.3-0.7,1.3-0.5,1.7-1.2c0.4-0.7-0.1-1.5,0.7-1.9c0.3-0.2,0.7,0.1,1.1-0.2
		C346.6,201.3,346.8,199.8,347.9,199.3z M238.1,185.6c0.1-1.1-2.5-1.7-2,0.2c0.3,0.2,0.5,0.5,0.9,0.7
		C237.4,186.2,238,186.1,238.1,185.6z M315.9,191c0-0.2-0.1-0.3-0.4-0.4C315.4,190.8,315.6,191,315.9,191z M288.2,191.5
		c-0.2,0.9-0.4,1.4,0.1,2.1c0.5,0.2,1.2,0.1,1.5-0.2c0.1-0.7,0-1.3,0.1-2C289.5,190.9,288.5,191,288.2,191.5z M281.3,192.6
		c-0.4-0.1-1,0.2-1.2,0.5c0,1,0.8,1.4,1.1,2.2c-0.7,1.2,0.3,3.9,1.6,3.6c1.3-0.3,0.3-2.1,0-2.9c-0.6-0.4-1.2-1.2-0.6-2
		C281.8,193.6,281.7,193,281.3,192.6z M303.2,196.7c-1.1-0.6-1.2-2-2.9-2.1c-0.3,0.2-0.6,0.5-0.9,0.7c-0.4,1.4,0.5,2.4,1.1,3.2
		c1.7,0,1.3,1.7,2.7,1.9C303.6,199.2,303.7,197.6,303.2,196.7z M277.4,199.1c0.3-0.1,0.5-0.6,0.4-1.1c0.5-0.5,0.9-1.6,0.6-2.4
		c-0.1-0.3-0.5-0.4-0.7-0.7c-0.3-0.5-0.2-1.1-0.7-1.2c-0.8,0.1-1.2,1.4-1.3,2.6C276,197,276.2,199.4,277.4,199.1z M244.6,193.3
		c-0.7,0.3-0.8,1.3-1.3,1.9c-1.1,0.3-1.7,1-2.5,1.6c-1.3,0.3-2.5,0.8-3.5,1.4c0.1,1.4-0.8,1.4-1.5,1.7c-0.9,0.5-1.1,1.2-2.2,1.1
		c-0.6,1.1-2.4,1.1-2.1,2.9c-1.5,0.7-1,3.7-2.6,4.3c-0.8,0-1.7-0.2-2.6,0c-0.3,0-0.4,0.2-0.7,0.3c-0.4,0-0.8-0.2-1.2-0.2
		c-0.5,0.1-0.9,0.6-1.3,0.8c-0.1,1.3-1,1.6-1.2,2.8c0.9,1.2,1.8,2.4,2.8,3.6c2,0.4,1.3,3,2,4.6c0.5,0.4,1.3,0.5,1.7,0.9
		c0.1,0.8,0.3,1.6,0.8,2.2c-0.1,0.5,0.1,0.8,0.1,1.2c0.6,0.2,1,0.6,1.4,0.9c0.4,1.4,0.9,2.7,1.2,4.2c0.4,0.5,1.1,0.8,1.4,1.3
		c0.1,0.2,0,0.6,0.1,0.8c0.9,0.8,1.1,2.1,1.6,3.3c0.3,0.2,0.8,0.3,1,0.5c0.1,0.9,0.5,1.3,0.6,2c0.1,0.4,0,0.8,0.2,1.2
		c0.2,0.4,0.7,0.7,1.1,1.1c0.5,0.7,0.9,1.5,1.4,2c0.9,1.1,1.5,0.3,2.4-0.3c1.2-0.8,1.9-1.6,2.7-2.7c0.7-1,0.9-1,1.8-0.4
		c1.1-0.1,1.1-1.4,1.5-2.3c0.7,0,0.8-0.5,1.1-1c0.4-0.7,1.3-0.8,0.9-1.8c0.3-0.4,0.7-0.5,1.1-0.8c0.1-0.8,0.7-1,1.1-1.5
		c0.5-0.5,0.6-1.2,1.1-1.4c0-0.6,0.3-0.7,0.4-1.1c0-0.2-0.1-0.4,0-0.7c0.6-0.9,1.5-1.5,2.7-1.7c1.2-1,0.1-2.7,0-4.1
		c-1.5-0.3-1.1-1.5-1.2-2.9c0-0.5-0.3-1-0.4-1.5c0-0.2,0.1-0.4,0.1-0.5c-0.1-0.6-0.7-1.2-0.8-1.8c-0.1-0.7,0.4-1.3,0.4-2
		c0.1-1.5-1.6-3.5-0.7-5.1c-0.1-0.5-0.8-0.9-0.9-1.6c-0.1-0.6,0.3-1.5,0.4-2.5c0-0.9-0.2-1.8-0.1-2.6c0.2-1.5,0.8-2.9-0.2-3.5
		c-2,0-2.1-1.7-3.8-2c-0.9-0.5-0.5-3.3-2.2-2.2C246.7,193,245.5,193.3,244.6,193.3z M312.2,197.6c-1.1-0.4-1,1-1.2,1.8
		c0.4,0.5,1.5,0.4,1.8-0.1C312.8,198.6,312.7,197.8,312.2,197.6z M365.6,201.5c0.3,0.2,0.5,0,0.6-0.3
		C366,201,365.6,201.1,365.6,201.5z M300.4,205.4c-1.2-2-2-4.3-3.4-6.1c-1.8-0.2-4.1-0.3-5.3,0.4c-1.2,0.1-2.3,0.3-3.4,0.5
		c-0.4,0.6-0.8,1.8-0.4,2.5c-0.3,0.6-0.6,1.3-1.1,1.7c-0.2,0.8-0.1,1.7-0.4,2.5c-0.1,0.3-0.4,0.5-0.6,0.8c-0.3,0.6-0.1,1.4-0.6,1.8
		c-0.1,0.3,0,0.5,0,0.8c-0.9,1.3-1.5,3.6-3.6,2.9c-0.1-0.4-0.7-0.8-0.7-1.3c0-0.5,0.7-0.9,0.9-1.5c0.2-0.9-0.3-1.3-0.3-1.8
		c0.1-0.3,0.5-0.5,0.7-0.9c0.3-0.7,0-1.1,0.2-1.8c1.6-1,0.3-3.5,0.1-4.8c-0.2-0.1-0.6-0.1-0.8-0.1c-0.7,0.9,0.1,2.9-1.1,3.2
		c-1.2,0.2-2.2-0.9-3.2-1.1c-0.9-0.2-2.4,0.2-2.7-0.6c-0.3-0.6,0.1-1.4-0.3-1.8c-0.4-0.4-1.4-0.1-2.2-0.3c-0.8-0.2-1.3-0.8-1.9-0.8
		c-0.4,0-0.8,0.3-1.2,0.5c-0.4,0.2-1,0.2-1.5,0.4c-0.3,0.1-0.6,0.3-0.9,0.4c-0.4,0.1-0.8,0-1.1,0.1c-1,0.3-1.6,1.1-2.3,1.6
		c-0.2,0.1-0.4,0.1-0.7,0.1c-0.2,0.5-0.7,0.6-0.7,1.1c0,0.3,0.2,0.5,0.3,0.8c0.5,1.7-0.3,3.7-1.1,4.8c-0.2,0.3-0.5,0.4-0.7,0.6
		c-0.1,0.2-0.1,0.4-0.3,0.7c-0.2,0.3-0.4,0.5-0.5,0.6c-0.5,1.2,0.5,1.8,0.8,2.8c-0.1,1.5,1.1,1.8,1.1,3.3c0.6,0.9,1.7,1.4,2.7,2
		c-0.2,1.6,0.2,2.8,1.5,3c0.5,0.1,1-0.3,1.4-0.2c0.8,0.2,0.8,1.6,1.7,1.8c0.8,0.2,1-0.4,1.7-0.6c0.6-0.2,1-0.3,1.5-0.5
		c0.4-0.2,0.7-0.2,0.9-0.3c0.4-0.2,0.6-0.7,1.1-0.8c0.6-0.1,1.1,0.2,1.7,0c0.8,0.1,1.7,1,2.4,1.1c0.6,0,1.1-0.7,1.6-0.8
		c1.8-0.2,3,0.9,4.7,1.3c0.6,0.8,1.2,1.8,0.8,3.3c-1.2,1.1-2,0-3.6-0.6c-0.2-0.1-0.5,0-0.7-0.1c-0.5-0.2-0.8-0.6-1.2-0.7
		c-0.3-0.1-0.6,0-1,0c-0.5,0-1-0.3-1.3-0.2c-0.3,0.1-0.4,0.6-0.6,0.8c-0.3,0.3-1.2,0.6-1.8,0.6c-0.4,0-0.8-0.2-1.3-0.2
		c-0.7,0-1.3,0.5-1.9,0.4c-0.6-0.1-1-0.6-1.6-0.8c-0.6-0.2-1.6-0.3-2.3-0.3c-2.1-0.1-4.1,0.2-4.4,2.2c-0.9,0.5-2,1-2.7,1.8
		c-0.1,0.2-0.1,0.5-0.3,0.7c-0.7,1-2,1.4-2.5,2.5c-0.3,0-0.5,0.1-0.7,0.3c-0.6,0.8-1,1.7-1.7,2.4c-0.8,2.1,0.7,3.8-0.1,5.8
		c-0.2,0.2-0.5,0.3-0.7,0.6c-0.1,0.6-0.1,1-0.3,1.5c0.3,0.4,0.1,0.7,0.2,1.1c0.3,0.7,1,1.1,0.9,1.9c0,0.4-0.5,0.8-0.7,1.5
		c-0.2,0.8,0,1.4,0.2,1.9c-0.8,0.6-0.2,1.6-0.5,2.7c-0.1,0.4-0.4,1-0.3,1.5c0.1,0.5,0.8,0.9,0.9,1.3c0.1,0.7-0.3,1-0.1,1.5
		c0.1,0.3,0.5,0.5,0.6,0.8c0.4,0.9,0.1,2.1,0.5,3.2c-0.2,0.4-0.6,0.7-0.9,1c0.4,1.3,0.2,3.2-1.5,3.1c-0.6,1-1.8,1.3-2.2,2.4
		c0.5,0.5,0.3,1.2,0.6,1.9c0.3,0.9,1,1.7,1,2.8c-0.2,0.4-0.5,0.6-0.5,1c-0.1,0.8,0.6,1.1,0.7,1.9c0.1,0.4-0.2,0.7-0.2,1
		c0,0.4,0.3,0.7,0,1.1c0.3,1.5,1.8,2.4,2.3,3.6c0.1,0.1,0,0.3,0,0.5c0.1,0.3,0.4,0.5,0.4,0.8c0,0.2-0.1,0.5-0.1,0.7c0,1,0.6,2,0.9,3
		c1.1,0.4,1.9,1.6,3.2,1c0.1-0.4,0.7-0.8,0.6-1.3c0-0.3-0.3-0.4-0.5-0.7c-0.2-0.3-0.5-0.9-0.6-1.2c-0.1-0.3,0-0.9-0.1-1.4
		c-0.1-0.3-0.2-0.6-0.2-0.8c0-0.2,0.2-0.5,0.1-0.8c-0.1-0.6-0.6-1.1-0.7-1.8c-0.1-0.7,0.2-1.5,0.1-2.2c0-0.5-0.6-1.1-0.2-1.7
		c-0.4-0.9-0.6-1.5-0.4-2.6c0.1-0.5,0.7-0.9,0.8-1.3c0-0.7-0.8-0.9-0.6-1.6c1.2-0.8,0.9-2.5,1-4c0-0.5,0.4-0.9,0.5-1.4
		c0.1-0.4,0-0.8,0-1.2c0.1-1,0.9-1.4,1.3-2.3c0.7-0.3,1.4-0.9,2.4-0.5c1.5,0.5,1.7,3.6,0.4,4.6c-0.1,1.3,0.8,2.1,0.9,3.5
		c1.2,0.5,1,1.7,1.3,2.9c0.3,0.9,0.8,1.4,0.5,2.5c0.1,0.3,0.3,0.4,0.3,0.7c-0.1,1.6,0.6,2.3,1.1,3.4c-0.4,1,0.3,1.5,0,2.7
		c0.2,0.4,0.5,0.8,0.7,1.2c0.4,0.1,0.7,0.1,1.1,0.1c0.5-0.3,0.5-0.7,0.6-1.4c0.1-0.7,0.7-1.7,0.8-2.4c0-0.5-0.4-1.1-0.5-1.7
		c-0.1-1.5-0.7-2.3-0.7-3.6c0.2-0.3,0.7-0.4,1-0.6c0.3-0.5,0.4-1.2,1.1-1.4c0.8-0.1,2.6,0.5,2.8,1c0.3,0.8-0.3,1.5,0.5,2
		c1,0.1,1.6,0.1,2.4,0.1c0.7-0.6,0.2-1,0-1.7c0-0.1,0.1-0.3,0-0.4c-0.1-0.3-0.4-0.8-0.5-1.3c-0.2-0.5-0.3-1.2-0.5-1.4
		c-0.2-0.3-0.6-0.4-0.9-0.6c-0.2-0.2-0.4-0.6-0.7-0.8c-1.1-0.8-3-1.7-2.9-2.6c0.1-0.9,1.7-0.8,2.4-1.2c0.2-0.1,0.6-0.5,0.8-0.5
		c0.9-0.1,1.2,0.9,2.1,0.7c0.4,0.7,0.6,1.4,0.9,2.2c0.8,0.8,1.6,1.7,2.6,2.4c0.3,0.7,0.6,2,1.7,1.8c1-0.1,1-2.8,0.2-3.5
		c-0.4-0.4-1.1-0.4-1.5-0.8c-0.3-0.3-1.1-1.2-1.2-1.4c-0.1-0.3,0-0.5,0-0.8c-0.2-0.6-1.1-0.8-0.8-1.7c0.7-0.5,1.5-0.8,2.2-1.3
		c2.4-0.4,2.6,1.7,4.1,2.3c0,0.7,0.5,0.9,0.5,1.6c1.2,0.9,2.4,1.8,3.7,2.6c-0.1,1,0.7,1.2,1,1.8c0.2,0.3,0.4,0.8,0.5,1.2
		c0.1,0.2,0,0.5,0,0.8c0.1,0.3,0.4,0.5,0.4,0.8c0,0.2-0.2,0.5-0.2,0.9c-0.2,2,0,4.3-0.7,5.5c-0.2,0.3-0.7,0.4-0.7,0.8
		c0,0.2,0.2,0.4,0.2,0.7c0,0.3-0.1,0.5-0.1,0.7c0,0.5,0.4,1,0.4,1.5c0,1.1-1,1.3-1.2,2c-0.1,0.4,0.1,0.9,0.3,1.3
		c0.6,0.1,1.1,0.5,1.7,0.5c0.8-0.1,1.7-1.1,1.7-2.1c0-0.8-0.7-1.5-0.4-2.3c0.5-0.3,1-0.8,1.2-1.4c-0.3-0.7,0.1-0.9,0.2-1.4
		c0.1-0.3,0-0.8,0.1-1.1c0.2-0.7,0.8-0.6,1-1.3c0.1-0.6,0.1-1.2,0-1.6c-0.1-0.7-0.7-1.2-0.8-2.1c0-0.4,0.2-0.9,0.2-1.3
		c-0.1-0.7-0.8-0.9-1.2-1.4c-0.2-0.4-0.5-0.9-0.8-1.3c-0.4-0.5-0.9-1-0.9-1.3c0-0.2,0.3-0.6,0.3-1c0-0.3-0.1-0.5,0-0.6
		c0.2-0.6,0.8-1.9,1.3-2c0.3-0.1,1.7,0.5,2,0.7c0.5,0.4,0.4,1,0.7,1.5c0.4,0.7,1.3,1,2.3,0.9c0.6,0.3,0.8,1,1.7,1.1
		c0.4-0.8,0.3-1.5-0.1-2.3c-0.3-0.5-0.9-0.7-1-1.2c-0.1-0.2,0-0.5,0-0.7c0-0.2-0.3-0.5-0.4-0.9c-0.1-0.3,0-0.6-0.1-0.8
		c-0.3-0.5-1.1-0.7-1.2-1.1c-0.2-0.9,0.8-1.5,0.1-2.2c0.2-0.5,0.5-0.9,0.9-1.1c0.5-0.9,0.9-1.8,1.4-2.7c0.1-1.6,0-3.5-1.1-4.4
		c-0.8-0.1-1.7-0.2-2-0.7c-0.5-1.1,0.3-3.3-0.1-4.6c-0.2-0.7-1.6-2.1-2.1-2.5c-0.5-0.4-1.5-0.7-1.3-1.5c0.1-0.3,0.5-0.4,0.6-0.6
		c0.5-1.1-0.1-1.9-0.6-2.6c-0.5-0.8-1.1-1.3-1.3-2.3c0.5-0.4,0.7-1.1,1.4-1.3c1.5,0,1.9-1.2,3.8-0.7c0.9-0.6,1.9-0.2,2.5,0.4
		c0.2,0.2,0.1,0.5,0.3,0.7c0.3,0.3,0.6,0.3,0.8,0.6c0.3,0.5,0.4,1.3,0.6,1.9c0.2,0.7,0.4,1.3,0.6,1.8c0.4,0.2,0.8,0.4,1.2,0.6
		c0.3,1.5,2.5,1.3,3.3,2.5c0.4,0.6,0.3,1.1,0.7,1.5c0.4,0.3,0.9,0.3,1.2,0.5c0.7,0.6,0.7,1.4,1,2.5c-0.4,0.3-0.7,0.6-1.2,0.7
		c-0.8,0.1-1.2-0.5-2-0.7c-0.8-0.2-1.6-0.2-2.4-0.4c-0.4-0.6-0.8-1.3-1.5-1.7c-0.2-0.7-0.8-1-1.1-1.5c-0.3,0-0.5,0-0.7-0.1
		c-0.2-1.2-1.6-3-2.8-1.7c0,1.1,0.6,1.7,0.8,2.6c0.6,0.5,1.9,0.4,2.3,1.1c0.3,1.5,0.7,2.9,0.7,4.7c0.9,2.1,2,4.1,2,7
		c0.5,0.7,0.4,1.6,0.8,2.4c0.2,0.3,0.5,0.5,0.6,0.8c0.9,1.6,1.1,3.4,1.8,5.2c0.4,0.2,1.1,0.3,1.7,0.3c0.7-0.6,1.2-2,0.9-2.8
		c-0.4-1.2-1.9-2.3-1.9-3.8c-0.2-0.5-0.8-0.8-0.9-1.4c-0.1-0.6,0.1-1.1-0.1-1.7c-0.3-0.7-1.1-0.9-1-1.8c1.3-1.4,3.8-2.3,5.9-2.5
		c0.6,0.4,0.9,1.1,1,1.9c0.7,0.7,1.7,1,1.8,2.2c0.4,0.2,0.7,0.5,1.3,0.6c0.1,1,1.1,1,1.6,1.6c0.2,0.3,0.5,0.9,0.6,1.2
		c0.3,0.7,0.3,1.6,0.8,2.2c0.2,1.3,0.7,2.6,0.5,4.1c0.5,0.5,1.2,0.8,1,1.8c0,0.2-0.4,0.6-0.5,0.9c-0.1,0.4,0,1,0,1.6
		c0,1.1-0.2,2,0.6,2c0.2,0,1.4-0.7,1.5-0.8c0.6-0.6,0.4-1.6,0.8-2.6c0.2-0.4,0.5-0.6,0.5-0.8c0.1-0.6-0.2-1.6-0.3-2.3
		c0-0.2,0.1-0.5,0-0.7c-0.1-0.4-0.3-0.6-0.4-0.9c-0.1-0.5,0.1-0.9-0.1-1.3c0.1-0.3,0.2-0.4,0.3-0.7c0-0.5-0.4-0.7-0.4-1.1
		c0-0.2,0.3-0.4,0.3-0.7c0-1.6-1.5-2.1-2.8-2.7c0-0.3-0.1-0.4-0.1-0.6c-0.6-0.4-1.4-0.9-2-1.6c-0.2-0.2-0.2-0.5-0.4-0.7
		c-0.3-0.2-0.7-0.2-1-0.4c-0.4-0.3-1.2-1.7-1.1-2.2c0-0.3,0.5-0.7,0.5-1.2c0-0.3-0.2-0.6-0.2-0.9c0.2-0.8,1.7-0.3,2.7-0.4
		c1-0.1,2.2-0.7,2.1-1.4c-0.1-0.6-1.1-0.7-1.6-0.9c-0.9-0.5-1-1-0.7-2.3c-0.8-0.4-0.3-2-0.8-2.6c-1.9,0.1-2.7-0.9-4.5-0.8
		c-0.8-0.7-2.1-1-3.2-1.4c-0.3-0.1-0.4,0.2-0.7,0.2c-0.6-0.6-2-0.3-2.6-0.9c0.1-0.5-0.1-0.7-0.1-1.1c-1-0.7-1.2-2.1-2.1-2.8
		c-0.3-0.5-0.4-1-0.7-1.6c-0.3-0.6-1-1.1-1.1-1.7c0-0.3,0.1-0.6,0.1-0.9c0-0.5-0.5-1.1-0.1-1.7c-0.2-0.8-0.8-1.3-0.9-2.2
		c-0.8-1.1-2.7-1.2-3.2-2.5c0.5-1.4-0.9-1.4-1.6-2c-0.5-0.5-0.3-0.9-0.7-1.5c-0.7-0.3-1.4,0.2-2,0.2c-0.5,0-0.9-0.3-1.3,0
		c-0.8-0.9-2.5-1.2-3.9-1.4c-1.1-1.1,0.4-2.6,1.8-2.9c0.7-0.2,1-0.4,1.5-0.4c0.9-0.1,1.8,0.2,2.6,0.2c0.6,0.5,0.6,1.6,1.4,2
		c0.7-0.2,1.7-0.3,2.6,0c0.3,0.1,0.5,0.5,0.9,0.6c0.2,0.1,0.5,0,0.8,0c0.5,0.1,0.8,0.6,1,0.8c0,0.9,0.6,1.1,1,1.6
		c1.1-0.1,1.4,0.7,2.3,0.5c1.1-0.2,1.7-2.7,1.4-3.4c-0.6-1.7-2.1-3.2-2.7-4.8c0.1-2-0.8-3.3-1.3-4.8c-0.4-0.4-1.1-0.6-1.5-0.9
		C300,206.4,300.3,206,300.4,205.4z M309.6,202.9c-0.4-0.9-1.1-1.6-2.2-1.6c-0.8,0.8-1.5,1.9-1,3.1c0.2,0.6,0.8,0.7,1.3,1.2
		c0.3,0.3,0.4,0.7,0.8,0.8c0.5,0.2,1-0.1,1.4-0.5C310.2,204.7,310,203.8,309.6,202.9z M210,200.9c0.1,0.1,0.2,0.1,0.4,0.1
		C210.4,200.7,210.1,200.7,210,200.9z M350.2,211.4c-0.1,0.4,0.2,0.5,0.2,0.8C352.5,212.4,350.7,209.9,350.2,211.4z M257.9,208.3
		c0.1,0.2,0.6,0.3,0.6,0C258.4,208,258,208.1,257.9,208.3z M341.3,216.4c-0.4,0-1.2,0.6-1.2,0.9c-0.1,0.9,2.1,1.4,2.1,0
		C341.9,217,341.8,216.4,341.3,216.4z M325.4,221.9c0.6-0.6,0.3-1.5,0.5-2.5c0.2-1,0.5-1.7-0.3-2.2c-0.7,0-1.6,0.4-1.9,1
		c0,0.3,0.2,0.4,0.1,0.8c-0.7,0.5-0.4,1.8-0.8,2.6c-1.1,0.5-1.4,2.2-1.5,3.6c0.6,0.6,2,0.3,2.9,0.3
		C325,224.6,325.4,223.3,325.4,221.9z M336.8,219.4c-1.1,0.3-1.4,1.5-2.2,2.1c0.2,0.7-0.3,0.7-0.4,1.2c0.1,0.4,0.5,0.6,0.5,1.1
		c0.9,0.2,2,0.3,2.7-0.1c0.6-0.4,0.4-1.2,0.7-1.8c0.3-0.7,1.2-0.6,1.4-1.4C339.4,219.4,337.5,217.9,336.8,219.4z M308.4,224.6
		c-0.2,0.2-0.7,1.1-0.7,1.3c0,0.6,0.8,1,1.7,1.2c0.9,0.2,1.6-0.5,1.6-1.2c0-0.4-1.1-1.6-1.5-1.7c-0.1,0-0.1,0.1-0.2,0.1
		C308.9,224.3,308.5,224.5,308.4,224.6z M322.4,230c-0.4,1.3,0.4,3.1,0.3,4.3c1,0.1,1.2,1,2,1.2c0.5,0.1,1.3-0.1,1.6-0.3
		c1.2-0.8,1.5-4.8,0.7-6c-0.6-0.2-1.4-0.2-1.9-0.1C324.3,228.1,322.6,229.3,322.4,230z M343.5,237.3c0.2-0.7-0.4-1.5-0.8-1.6
		c-0.3-0.1-1.2-0.3-1.6-0.3c-0.9,0-1.5,0.6-2.1,0.8c-0.3,0.1-0.7,0-1.1,0.1c-0.9,0.2-1.9,0.4-2.8,0.5c-0.9,0.1-1.8-0.1-2.6,0.1
		c-0.5,0.1-0.9,0.4-1.3,0.3c-0.7,0.3-1.7,0.8-1.3,1.9c0.2,0.6,1.4,1.1,2.3,1.1c0.3,0,0.7-0.4,1.2-0.4c0.4,0,0.8,0.2,1.3,0.2
		c0.6-0.1,1.3-0.7,2.1-0.8c1.2-0.3,2.9-0.3,4.1,0.3C341.5,238.7,343.3,238,343.5,237.3z M312.4,236.2c-0.2,1.4,2.7,1.8,2.7,0.5
		c0-0.4-0.5-0.8-0.5-1.3C313.7,234.9,312.9,235.5,312.4,236.2z M326.6,246.5c0,0.6,0.2,1.1,0,1.7c1,0.8,3.7,0.8,3.7-0.9
		C329.6,246.5,327.6,245.1,326.6,246.5z M234,241.5c-0.1,0-0.2,0-0.3-0.1C233.6,241.8,234,241.9,234,241.5z M246.4,257.4
		c-0.6,0.3-1.3,0.1-1.7,0.6c-0.2,0.2-0.2,0.7-0.4,1c-0.3,0.6-0.6,0.9-0.6,1.7c-0.4,0.5-0.7,1-0.9,1.6c0.4,0.5-0.1,1-0.1,1.6
		c0,0.4,0.2,0.7,0.1,1.1c-0.1,0.4-0.4,0.5-0.6,0.8c-0.4,0.8-0.1,1.5,0,2c0.1,0.8,0.1,2.5-0.2,3.2c0.2,0.4,0.5,0.7,0.6,1.1
		c0.8,0.5,2,0.3,2.4-0.4c0.1-0.1,0-0.5,0.1-0.7c0.2-0.5,0.8-1.1,0.8-1.4c0-0.1-0.2-1.1-0.3-1.2c-0.2-0.4-0.5-0.4-0.6-0.8
		c0-0.5,0.5-0.7,0.7-1.2c0.2-0.4,0.1-0.8,0.2-1c0.5-1.1,1.7-1.7,1.6-3.4c0.3-0.3,0.5-0.8,0.8-1.1c0.7-0.4,1.8-0.7,2.5-1.1
		c0.2-0.1,0.5-0.5,0.6-0.7c0.2-0.8-0.2-1.2-0.5-1.6c-0.3-0.5-0.8-1.2-1.1-1.7c-0.1-0.2-0.1-0.5-0.2-0.6c-0.2-0.4-0.6-0.4-0.7-0.9
		c-0.1-0.4,0.1-0.7,0-1.1c-0.2-0.7-0.7-1.1-1.4-1.2c-0.8-1.3-1.7-2.9-1.6-4.8c-0.7-0.8-0.9-1.9-2.3-1.9c-0.3,0-1.1,0.2-1.4,0.4
		c-0.6,0.5-0.1,1.3-0.4,2.1c-0.1,0.3-0.5,0.5-0.6,0.9c-0.1,0.4,0,1-0.1,1.4c-0.4,1.5-1.2,2.4-2.2,3.1c-0.5,1.3-1.3,2.9-1.2,4.6
		c0,0.3,0.2,0.5,0.3,0.8c0.1,0.4-0.2,0.9,0.2,1.1c1,0.2,1.6-0.7,2-1.3c0.1-0.2,0.3-0.3,0.4-0.4c0.3-0.7,0-1.7,0.4-2.4
		c0.2-0.4,0.7-0.5,1-0.8c0.7-0.8,0.8-2.3,0.4-3.1c1-0.5,1.4,0.6,2,1c0.9,0.1,1.4,0,2.2,0.1C247.9,253.8,248.1,256.8,246.4,257.4z
		 M232.2,253.4c0-0.5-0.4-0.8-0.4-1.4c-0.4-0.6-1.1-0.9-1.8-1.1c-0.2-0.4-0.4-0.8-0.6-1.2c-0.6,0-1-0.6-1.6-0.8
		c-0.4-0.1-1,0.1-1.5,0c-0.5-0.1-0.8-0.5-1.2-0.5c-0.5-0.1-1.2,0-1.7-0.2c-0.4-0.1-0.5-0.4-0.9-0.4c-0.6,0-1.1,0.4-1.7,0.3
		c-0.2-0.1-0.3-0.3-0.6-0.4c-0.7-0.3-1.4-0.1-1.9-0.4c-0.6-0.2-0.6-0.9-1-1.5c-1.2-0.6-3-1.7-5-1.2c-0.2,0-0.4,0.2-0.6,0.3
		c-1,0.2-2.2,0.1-3.2-0.1c-0.5-0.1-0.9-0.4-1.4-0.5c-0.7-0.1-1.3,0.1-2,0c-0.3,0.8-1.4,0.9-1.4,1.9c0,0.5,0.4,0.5,1,0.9
		c0.2,0.2,0.4,0.5,0.6,0.6c0.2,0.1,0.6,0.3,0.7,0.4c0.2,0.2,0.2,0.5,0.4,0.8c0.4,0.5,0.9,0.9,1,1.5c1.2,0.9,2.8,0.8,4,0.1
		c0.3-0.2,0.4-0.5,0.7-0.6c0.8-0.2,1.9,0.2,2.7,0.2c0.5,0,0.8-0.1,1.1,0c1.2,0.3,1.6,1.7,2.9,1.8c0.5-0.3,1.1-0.4,1.9-0.3
		c0.8-0.3,1.6-0.8,2.4-0.6c0.8,0.2,1,1.1,1.6,1.3c0.3,0.1,1.1,0.2,1.5,0.2c0.3,0,0.6-0.4,1.1-0.3c0.3,0,0.8,0.4,1.1,0.7
		c0.2,0.3,0.2,0.9,0.5,1.2c0.1,0.2,0.4,0.3,0.6,0.5c0.6,0.5,0.7,0.9,1.8,0.7C231.4,254.5,232.2,254.1,232.2,253.4z M323.4,252.6
		c0.3,0.3,1,0.6,1.5,0.3c0-0.2,0.1-0.2,0.1-0.4C324.8,251.9,323.4,251.8,323.4,252.6z M179.3,255.2c0.5,0.8,0.6,2.3,1.8,2.2
		c0.2,0,0.3-0.3,0.6-0.4c0.2-0.1,0.5,0.1,0.5-0.3c0.2-0.5-0.3-1.1-0.2-1.6c0.1-0.4,0.4-0.5,0.5-0.8c0.2-1.1-0.8-1.4-1-2.4
		c0-0.4,0.2-0.7,0.3-1.1c0.1-1-0.5-1.7-0.7-2.7c0.4-0.9,0.8-2.8,0.6-3.9c-0.2-1.6-3.2-1.2-4.6-1.4c-0.9,0.9-2.5,1.4-2.4,3.3
		c-0.8,0.7-1,2.1-1.6,3.1c-0.1,0.4,0.2,0.4,0.2,0.8c-0.1,0.8-0.7,1.5-0.8,2.1c-0.3,1.7,1.2,2.3,1.3,3.8c2.1,0.7,1.8-1.9,2.2-3.2
		c-1.1-0.4-1.5-2.3-0.5-3.3c0-0.3-0.3-0.9,0.1-1.1c1.3,0.5,2.5,1.4,2,3.2C178.6,252.4,179.7,253.2,179.3,255.2z M189.8,245.6
		c-0.3,0-0.5-0.2-0.8-0.1c-0.7,0.8-1,2.7,0.1,3.2c0.8,0.1,1.4,0.1,1.5-0.6c0-0.3-0.3-0.4-0.3-0.7c0-0.3,0.3-0.3,0.3-0.6
		C190.3,246.4,190,246.1,189.8,245.6z M227.9,267.1c0.1-0.3-0.2-0.2-0.4-0.3C227.5,267.1,227.7,267.1,227.9,267.1z M284.1,275.8
		c0.8,0.1,1.7-1,1.8-1.7c0-0.2-0.3-0.6-0.4-1.2c-0.1-0.8-0.3-1.6-0.6-1.8c-0.6-0.4-1.2-0.2-1.7,0.4c0,0.6-0.2,0.9-0.4,1.3
		C283.4,273.8,282.6,275.7,284.1,275.8z M300.9,273.6c0.8,0.3,1.5-0.1,1.4-1C301.7,272.1,301,272.9,300.9,273.6z M323.6,275.6
		c-0.1,0.9,1.8,2.1,2.1,0.7c-0.2-0.4,0-1-0.1-1.4C325,274.3,323.7,274.9,323.6,275.6z M305,285.8c-1.2,0.8-1.8,1.3-0.8,2.6
		c0.9,0.3,1.9,0.9,2.9,0.7c0.6-0.1,1.4-0.9,1.4-1.5c0.1-0.9-0.6-1.6-1-2.3C306.5,284.8,305.7,285.3,305,285.8z M247.8,286.4
		c-0.4-0.4-0.9-1.2-1.9-1.2c-0.5,0-1.3,0.5-1.3,1c0,0.5,0.9,1.3,1.6,1.5c0.8,0.2,2.4,0,2.6-0.8C248.7,286.5,248.2,286.5,247.8,286.4
		z M206.1,287c0-0.2,0-0.3-0.2-0.3C205.8,286.8,205.9,287,206.1,287z M202.3,292.2c-0.1,1.3,2.1,1.5,2.5,0.3
		c-0.1-0.4-0.3-0.6-0.5-0.9C203.3,291.3,202.3,291.4,202.3,292.2z M295.5,301.4c0.1-0.6-0.8-1.1-1.1-1
		C292.5,300.6,295.2,302.9,295.5,301.4z M195.2,297.7c0.2,0,0.4,0,0.5-0.1C195.6,297.5,195.2,297.5,195.2,297.7z M284.7,304.4
		c-0.2,0.7-0.8,0.9-1.1,1.4c-0.1,0.2-0.1,0.5-0.2,0.7c-0.3,0.4-1.8,1.3-2,1.4c-1.3,0.3-1.7-0.9-2.6-0.9c-0.3,0-0.7,0.4-0.9,0.5
		c-0.5,0.3-1.1,0.4-1.5,0.7c0.4,2.6-1.1,3.1-2,4.3c0.2,0.6-0.3,0.9-0.4,1.3c0,0.1,0.1,0.4,0,0.6c-0.3,0.8-1.2,1.2-1.5,1.8
		c-0.1,0.2,0.1,0.5,0,0.7c-0.1,0.3-0.5,0.4-0.6,0.7c0,0.1,0.1,0.4,0,0.7c0,0.3-0.2,0.5-0.3,0.7c-0.1,0.5,0.2,1.1,0,1.7
		c0.3,0.3,0.9,0.4,1.4,0.5c0.4-0.1,0.5-0.6,1.1-0.4c0.4,0.6,0.4,1.3,1.2,1.4c1,0,1-1.4,1.3-2.3c1.1-0.3,1.6-1.2,2.2-2.1
		c2.1,0.1,2.2-2,2-3.8c0.8-0.5,1.5-1.2,2.4-1.6c0.4-1.2,1.6-1.9,1.3-3.6c1-0.8,2.2-3,1.1-4.6C285.2,304.2,285,304.4,284.7,304.4z
		 M207.7,310.7c0,0.2,0.1,0.2,0.3,0.2C208,310.8,207.8,310.6,207.7,310.7z M284.5,325.4c0.2,0,0.2-0.2,0.3-0.3
		c0-0.4-0.2-0.7-0.7-0.7C283.9,324.8,283.9,325.5,284.5,325.4z M218.4,323.3c-0.3,0.1-0.2,0.7-0.3,1c0.5,0.7,0.1,2.2,0.7,2.9
		c-0.3,0.5-0.8,0.8-1.3,1c-0.1,0.8-0.3,1.6,0.3,1.9c0.9,0.2,1.4,0,2-0.2c0.8,1.1,1.6,1.6,2.8,0.9c0.7-0.4,0.7-0.6,1-1.1
		c0.3-0.4,0.8-0.4,0.9-0.8c-0.1-0.3-0.2-0.6-0.2-0.9c0.1-0.8,1.4-1.3,1.6-2.2c0.1-0.6-0.1-1.5-0.9-1.6c-0.6,0.5-1.5,2.3-2.7,2.1
		c-0.6-0.1-1.2-1-0.6-1.9C221.2,323.4,219.3,322.9,218.4,323.3z M207.8,327c0.5,0.2,1.2,0.2,1.9,0.3c0.3-0.2,0.7-0.4,0.7-0.9
		c-0.4-0.3-0.8-0.7-1.1-1.1C207.9,324.8,207.3,326.1,207.8,327z M222.1,334.9c0.3-0.6,0-1.5-0.3-2.1c-0.8-0.5-1.4-1.1-2.2-0.5
		c-0.3,0.2-0.3,0.7-0.7,0.9c0,0.8-0.3,1.8,0.1,2.3C219.9,335.7,221.7,335.9,222.1,334.9z M202.7,338.8c-0.4,1.1-1.9,1.4-2.4,2.4
		c-0.2,0.4-0.1,0.8-0.2,1.2c-0.3,0.8-1.2,1.4-1.1,2.4c0.3,0.4,0.6,0.7,1.2,0.8c0.6,0,2.4-1,2.7-1.4c0.2-0.3,0.2-0.7,0.4-1
		c0.4-0.8,1.2-1.4,1.4-2c-0.2-0.5,0-0.8,0.1-1.3C204.4,339.1,203.8,338.4,202.7,338.8z M197,341c0-0.2-0.2-0.2-0.4-0.2
		C196.6,341,196.8,341,197,341z M196.9,347c-1,1.1-1.5,2.6-2.5,3.7c0.1,2-2.4,1.3-1.9,3.4c-0.6,0.8-1.2,1.5-1.8,2.3
		c-1,0-2,0.3-2.9,0.2c-0.9,0.5-1.4,0.5-2,1.4c-0.3,0.5-0.2,0.8-0.2,1.3c-0.1,1.6-0.4,2.1,0.6,2.7c1.3-0.1,1.9,1.2,3,1
		c0.3-0.1,0.7-0.6,1.1-0.7c0.4-0.1,0.9,0,1.2-0.1c0.7-0.2,1-1.1,1.7-1.2c0.4,0.4,1.4,0.7,1.6,1.3c0.3,0.9-0.3,1.1-0.6,1.5
		c-0.5,0.7-0.7,1.4-1.3,1.7c-0.5,0.3-1.3,0.4-1.7,0.8c-0.4,0.4-0.7,1.5-1.2,1.7c-0.5,0.2-0.8-0.1-1.4,0c-0.4,0-0.7,0.3-1.1,0.4
		c-1,0.1-2-0.1-2.8,0c-0.6,0.3-1.1,0.8-1.7,1.1c-0.2,0.7-0.5,1.4-0.7,2.1c0.5,0.6,0.8,1.4,1.5,1.9c0.8,0.1,1.6,0.1,2.3,0.1
		c0.3,0.1,0.4,0.5,0.8,0.6c1,0.3,1.7-0.3,2.1-0.5c0.8-0.5,2.3-1,2.6-1.6c0.3-0.8-0.1-1.4,0.6-1.8c1.4-0.6,2.8-1.3,4.2-2.1
		c0.2,0,0.4,0,0.5,0c0.8-0.7,1.7-1.2,2-2.6c0.5-0.7,1.8-0.5,2.1-1.5c-0.5-1.2,0.8-1.7,1.1-2.5c0.1-0.9-0.2-1.5-0.5-2.1
		c0-0.3,0.5-0.5,0.6-0.8c0.1-0.2-0.1-0.4,0-0.6c0.1-0.2,0.4-0.4,0.4-0.6c0.1-0.3,0-0.8,0.1-1.2c0.1-0.6,0.5-1.2,0.5-1.7
		c0-0.2-0.2-0.5-0.2-0.8c0-0.7,0.1-1.2-0.3-1.7c-1-0.3-1.8-0.1-2.4,0.4c0.1,0.7-0.1,1.5-0.4,2.1c-0.5,0.8-1.8,1.1-2.1,1.8
		c-0.2,0.5,0.1,1.2-0.1,1.8c-0.2,0.6-1.2,0.9-1.6,1.4c-1.3,0.2-2.3-0.8-2-1.9c0.4-1.4,1.7-1.5,2.4-2.6c0.1-0.1,0.1-0.4,0.2-0.6
		c0.3-0.6,0.9-0.9,1-1.5c0.1-0.6-0.2-1.2-0.1-1.7c0.2-0.8,1.3-1,1.6-1.7c0.3-0.5,0.2-1.2,0.3-1.6c0.2-0.5,0.6-0.7,0.6-1.2
		C199.5,346,198,347,196.9,347z M271.6,362.6c-0.1-0.4-0.7-0.9-0.7-1.4c-0.1-0.8,0.6-1.6,0.7-2.1c0.1-0.3,0.1-0.6,0.1-0.8
		c0.1-0.4,0.4-0.6,0.4-0.9c0-0.3-0.4-0.6-0.3-0.9c0-0.5,0.5-0.6,0.6-0.9c0-0.2-0.1-0.5,0-0.7c0-0.4,0.3-0.9,0.3-1.2
		c0.2-2.9-3.8-2.2-4-0.3c0,0.2,0.2,0.4,0.2,0.7c0.1,1,0.3,1.3,0.5,2.1c1.2,0.3,1.1,1.9,0.8,3.4c-0.3,0.5-1.4,0.9-1.3,1.7
		c0.1,0.4,0.7,0.4,0.7,0.9c0.1,1-1.7,1.9-1.8,2.9c0.6,1.1-0.6,2-0.7,3c0,0.2,0.1,0.5,0.1,0.8c0,0.6-0.4,1.2-0.2,1.9
		c-0.4,0.9-0.9,1.7-1.4,2.6c-1.2,0.9-2.2,2-2.6,3.9c0.7,2-2,2.3-2.4,3.5c-0.2,0.7,0,1.6-0.2,2.5c-0.9,0.6-0.7,2-0.7,3
		c0.4,0.3,0.4,0.9,0.8,1c0.4,0.1,0.7-0.2,1.1-0.2c0.5-0.1,1,0.1,1.3-0.2c0.1-1.1,0.2-2.2,0.3-3c0.9-0.3,1-1.6,1.4-2.4
		c0-0.3-0.2-0.5-0.2-0.8c0.3-0.3,0.6-0.6,1-0.8c0.3,0,0.4,0.2,0.7,0.1c0.2-0.2,0.4-0.4,0.7-0.5c0.1-1,1.4-1.1,1.3-2.1
		c-0.2-0.4-0.9-0.3-0.9-0.8c0.5-0.5,0.4-0.8,0.6-1.7c0.1-0.3,0.4-0.6,0.4-0.9c0-0.2-0.1-0.4,0-0.5c0.1-0.4,0.6-0.5,0.7-0.9
		c0.1-0.2-0.1-0.5,0-0.8c0.1-0.3,0.3-0.6,0.4-0.8c0-0.4-0.4-0.8-0.4-1.1c0-0.3,0.5-0.5,0.6-0.8c0.3-1.1,0-2.3,0.3-3.4
		c0.3-0.4,0.8-0.6,1.3-0.7C271.5,364,271.8,363.6,271.6,362.6z M258.3,392.8c-0.9,0.7-1.9,1.3-1.8,2.7c0,0.8,0.6,1.5,0.6,2.4
		c1.3,0.3,3,0.3,3.5-0.8c0.2-0.5,0-1.4,0.1-2.1c0.1-0.9,0.8-1.5,0.9-2.1c0.1-0.9-0.3-2.2-0.5-2.7
		C259.4,389.8,258.6,391.2,258.3,392.8z M262.8,403.1c0.1,0.5-0.6,0.5-1,0.8c-0.2,0.2-0.6,0.9-0.6,1.1c-0.3,2.1,2.6,1,3.4,0.5
		c0.1-0.5,0.4-0.9,0.6-1.3c-0.5-0.8,0.1-1.7,0.2-2.5c0.6-0.2,1.1-0.9,1.1-1.4c0-1.1-2.1-1.1-2.5-2c-0.8,0.1-1.5-0.2-2.2,0.3
		c-0.7,1-0.1,2.1-0.4,3.4C261.6,402.7,262.8,402.5,262.8,403.1z M262,407.4c-1.2-0.2-1.9-0.4-2.5-1.3c-0.1-0.1-0.2-0.6-0.4-0.8
		c-0.9-0.7-1.4,0.6-2.2,0.7c-0.3,0-0.8-0.4-1.1-0.2c-0.2,0.2,0,0.9-0.2,1.1c-0.6,0.4-1.1-0.1-1.7,0c-0.8,0.1-0.8,0.6-1.3,1
		c-0.2,0.2-0.8,0.4-1.1,0.8c-0.5,0.5-0.6,1-1.2,1c-0.8,0.6-0.4,1.8-0.8,2.9c-0.1,0.3-0.5,0.6-0.7,1c-0.1,0.3-0.1,0.6-0.2,0.8
		c-0.3,0.7-0.8,1.2-1,1.8c-0.1,0.3,0,0.7-0.1,1c-0.3,0.5-1.3,0.4-1.5,1c0.1,0.9-0.4,1.3-0.4,2.2c-0.5,0.3-0.6,1-1.4,1
		c-0.3,0.8-0.9,1.3-1.9,1.4c-0.7,0.4-1,1.8-0.2,2.3c1,0.1,2.1,0.1,2.8-0.1c0.3,1,1.9,0.2,2.4,0.2c0.6-0.1,1.2,0.2,1.8,0.1
		c0.3-0.3,0.6-0.6,0.9-0.9c-0.2-0.5,0.1-1,0.1-1.6c0-0.5-0.2-0.8-0.1-1.2c0.1-0.5,0.4-0.4,0.7-0.7c0.1-0.2,0.1-0.5,0.3-0.6
		c0.2-0.2,0.8-0.6,1.3-0.8c0.9-0.5,1.7-0.9,2.7-0.7c0.4,0.5,0.8,1.1,1.2,1.7c0,1.1,1.1,1.3,1.4,2.1c1.5,0.6,5,1.4,5.3-0.3
		c0.3-1.5-0.6-2.1-0.8-3.1c-0.1-0.3,0.1-0.9,0-1.4c0-0.4-0.3-0.7-0.2-1c0.1-0.4,0.8-0.9,1.3-0.9c1.8-0.2,3.2,2,5.2,1.5
		c0.7-0.9,0.6-2.3,1.5-3.1c-0.4-1.5-0.9-2.9-2.9-3c-0.6-0.6-1.8-0.6-2.7-1c-0.3,0.1-0.7,0.2-1,0c-0.2-0.4-0.1-1.4,0-1.9
		C262.7,408,262.4,407.4,262,407.4z M248.6,408.7c0-0.2-0.1-0.2-0.3-0.2C248.2,408.7,248.4,408.7,248.6,408.7z M241.5,429.8
		c1,1.1,3.3,2.2,4.9,1.1c0.1-1.4-0.1-2.5-1-3.1C243.5,427.8,241.3,427.7,241.5,429.8z"/>
</g>
</svg>
