<?xml version="1.0" encoding="utf-8"?>
<!-- Generator: Adobe Illustrator 24.2.1, SVG Export Plug-In . SVG Version: 6.00 Build 0)  -->
<svg version="1.1" id="Layer_1" xmlns="http://www.w3.org/2000/svg" xmlns:xlink="http://www.w3.org/1999/xlink" x="0px" y="0px"
	 viewBox="0 0 500 500" style="enable-background:new 0 0 500 500;" xml:space="preserve">
<style type="text/css">
	.st0{fill-rule:evenodd;clip-rule:evenodd;}
</style>
<path class="st0" d="M176.1,202c1.5,1.5,2.9,3.1,4.7,4.3c0.5,0.4,0.9,0.9,1.4,1.4c0.5,0.5,1.1,1,1.4,1.4c0.3,0.4,0.3,0.8,0.6,1.2
	c0.2,0.4,0.5,0.7,0.6,1.2c0.2,0.6,0.3,1.2,0.6,1.8c0.3,0.6,0.8,1.1,1,1.6c0.3,0.8-0.3,1.4-0.2,2.1c0.2,1,1.5,1.9,2,3.1
	c0.2,0.5,0.2,1.1,0.4,1.8c0.2,0.6,0.4,1.3,0.5,1.8c0.1,0.4,0.5,0.8,0.6,1.1c0.6,1.4,0.4,2.7,0.2,3.8c-0.1,1.3-0.1,2.8-0.3,4.1
	c-0.1,0.8,0.1,1.5,0.1,2.2c0,0.5-0.2,1.1-0.3,1.7c-0.2,1.1-0.7,2-0.9,3.2c-0.1,0.6-0.3,1.2-0.3,1.7c0,0.8,0.4,1.7,0.6,2.6
	c0.1,0.8,0.1,1.8,0.5,2.5c0.1,0.2,0.5,0.5,0.8,0.9c0.7,0.7,1.3,1.7,2.1,2.1c0.7,0.4,1.6,0.3,2.1-0.1c0.5-0.5,0.4-1.4,1-2
	c0.7-0.6,1.8-0.7,2.8-1.2c0.9-0.5,1.1-1.5,1.6-2.1c0.2-0.3,0.7-0.6,1-0.9c0.3-0.3,0.6-0.8,1-0.9c0.3-0.1,1,0,1.4-0.2
	c0.5-0.3,0.5-1.1,0.7-1.8c0.2-0.6,0.7-1.3,0.8-1.7c0.1-0.6,0-1.3,0.1-2c0.1-0.5,0.4-1.5,1-1.5c1,0,0.9,1.8,1.4,2.4
	c0.4,0.5,0.8,0.3,1.4,0.7c0.4,0.3,0.6,0.9,1.1,0.9c0.9-0.1-0.3-2-0.4-2.9c-0.1-0.5-0.1-1-0.1-1.4c0-0.4,0.1-0.9,0-1.3
	c-0.1-0.3-0.4-0.7-0.5-1.1c-0.3-1-0.5-2.8,0.2-2.8c1.2-0.1,1.2,3.2,2.9,2.6c1.1-0.4,0.1-2.2-0.2-3.6c-0.2-0.9-0.2-2.1-0.4-2.8
	c-0.3-0.9-1.1-1.7-1.4-2.7c-0.6-1.7,0.4-2.6,1.8-1.2c0.5,0.5,1,1,1.3,1.5c0.7,1.3,1.5,2.8,1.7,4.2c0.1,0.4,0,0.7,0.1,1.1
	c0.3,1.1,1.3,1.9,2.1,1.8c1.3-0.1,1.7-2,1.8-3.1c0-0.5-0.2-1-0.1-1.5c0.1-0.7,0.8-1.2,1-1.8c0.2-0.4,0-1.4,0.3-1.7
	c0.4-0.4,1-0.5,1.7-0.3c1.5,2,0.8,4.3,2.3,6c0.4,0.5,1.9,1.3,2.7,0.8c0.4-0.2,0.5-0.6,0.8-1c0.3-0.4,0.7-0.7,0.5-1.3
	c-0.4-1-1.6-1.7-2.3-2.4c-0.4-0.4-0.7-0.8-1.1-1.1c-0.6-0.6-1.6-1-2.1-1.7c-0.3-0.4-0.5-1-0.8-1.6c-0.3-0.5-0.7-1-0.8-1.5
	c-0.1-0.5,0.1-0.6,0.1-1.1c0-0.4-0.2-0.8,0-1.1c0.3-0.6,1.8-0.4,1.8-1.3c0-0.9-1.4-2.9-0.2-3c0.9-0.1,1.7,1.2,2.4,1.8
	c0.9,0.8,1.7,1.2,2.5,1.5c1,0,1.8-0.7,2.7-0.4c1.1,1,1.9,2.7,3.3,2.6c0.8-0.1,1.2-0.9,1.1-1.3c-0.3-0.9-1-1.1-1.3-2
	c-0.3-1.1,0-2,0.3-2.9c0.1-0.3,0.2-0.6,0.2-0.9c0-0.9-0.9-2.3-0.4-3c0.4-0.6,1.7-0.3,1.8-1.1c0.1-0.5-0.4-1.2-0.7-1.7
	c-0.5-0.7-1.2-1-1.3-1.6c-0.2-1,1.6-0.5,2.2,0c0.6,0.5,1,1.5,1.7,1.4c0.6-0.1,0.3-0.9,0.9-1.1c0.5-0.2,1.8,0.2,2.5,0.4
	c1.7,0.4,3.2,0.8,4.9,1.1c0.8,0.1,1.5,0.6,2.3,0.7c0.9,0.2,1.8,0,2.7,0.2c1.6,0.2,3.3,1.1,4.9,1.6c1.3,0.4,2.7,1.3,4.1,0.4
	c0.2-0.2,0.7-1.2,0.5-1.8c-0.2-0.7-0.9-1.8-1.3-1.9c-0.4-0.1-0.9,0.2-1.3,0.2c-1.2,0-2.5-0.6-3.7-0.6c-0.3,0-0.6,0.1-0.8,0.1
	c-0.6,0-1.1-0.4-1.7-0.6c-0.6-0.2-1.1-0.6-1.7-0.8c-0.4-0.1-0.9,0-1.4-0.1c-0.7-0.1-1.5-0.4-2.2-0.4c-0.8,0-1.5,0-2.2-0.2
	c-1.1-0.3-1.8-0.8-2.8-1.3c-0.4-0.2-0.9-0.2-1.3-0.4c-0.4-0.2-0.9-0.6-1.4-1c-0.5-0.4-1.2-0.8-1.5-1.2c-0.6-0.9-1.2-1.8-1.9-2.6
	c-0.7-0.8-1.5-1.5-2-2.4c-1.3-2.1-1.3-4.6-2.6-6.2c-0.3-0.3-0.6-0.6-0.9-0.9c-0.4-0.3-0.6-0.6-1-0.9c-0.6-0.6-1.5-0.9-2.1-1.4
	c-1-0.9-1.9-1.6-3-2.4c-0.4-0.3-0.7-0.6-1-0.8c-1.4-0.9-3.6-1.2-5.2-1.9c-0.6-0.3-1.3-0.5-2-0.7c-1.4-0.5-2.3-1.7-3.6-2.4
	c-0.7-0.4-1.9-1.1-2.7-1.1c-0.6,0-1.3,0.2-2,0.2c-0.5,0-1.2-0.1-1.8-0.2c-1.4-0.1-2.6,0.2-3.9,0.4c-1.2,0.1-2.3,0.1-3.6,0
	c-1.4-0.2-2.7,0-3.7-0.3c-0.7-0.2-1.2-0.8-1.9-1.2c-0.8-0.5-1.6-0.7-2.1-1.3c-0.2-0.3-0.4-0.6-0.7-0.8c-1.5-1.5-3.4-3.3-4.9-4.9
	c-1-1.1-2-1.7-2.9-2.5c-0.6-0.5-0.9-0.9-1.5-1.2c-0.5-0.2-1.1-0.2-1.8-0.6c-0.8-0.4-1.7-1.1-2.7-1.2c-0.4,0-0.8,0.1-1.2,0.1
	c-0.4,0-0.8-0.1-1.1-0.1c-0.6,0-1.1,0.3-1.8,0.3c-0.6,0-1-0.3-1.6-0.3c-1.8-0.1-3.4,0.8-4.8,1c-0.4,0.1-1,0-1.6-0.1
	c-0.6-0.1-1.2,0-1.7-0.1c-0.6-0.1-1.2-0.4-2.1-0.6c-0.8-0.2-1.9-0.2-2.4-0.7c-0.9-0.9-1.4-2-2.4-2.8c-0.5-0.4-1.4-0.9-2.1-1.3
	c-0.8-0.4-1.4-0.9-2.1-1.2c-0.8-0.4-1.9-0.4-2.9-0.7c-1-0.3-2-0.7-2.8-0.8c-0.5-0.1-0.9,0.1-1.5,0c-0.4-0.1-0.8-0.4-1.4-0.5
	c-0.4-0.1-1.2,0-1.9,0c-0.7,0-1.3-0.1-1.7-0.1c-0.3,0-0.7,0.3-1.3,0.3c-0.5,0-1.1-0.4-1.7-0.4c-0.6-0.1-1.2,0-1.9,0
	c-0.7-0.1-1.3-0.1-1.9,0c-0.5,0-0.9-0.3-1.4-0.4c-0.8-0.2-1.9,0-2.8-0.2c-0.4-0.1-0.8-0.3-1.3-0.4c-1.6-0.3-3.4,0.1-5.1,0
	c-0.5-0.1-1.1-0.4-1.8-0.4c-1.1-0.1-1.9,0.5-3.1,0.7c-1.7,0.3-4.7-0.2-4.8-2.7c0-0.8,2.2-1.8,3.3-2.5c0.6-0.4,1.2-0.7,1.7-1.1
	c0.3-0.2,0.6-0.4,0.9-0.6c0.4-0.2,0.8-0.2,1.2-0.3c0.3-0.1,0.5-0.5,1-0.7c1.8-0.9,4.1-1.1,6.3-0.9c0.4,0,0.9,0.2,1.3,0.2
	c1.5-0.1,2.9-0.7,4.4-0.8c0.9,0,1.9,0.1,2.9,0.1c0.7,0,1.3-0.3,2-0.3c0.7,0,1.4,0.1,2.1-0.1c0.7-0.1,1.4-0.1,2.2-0.2
	c1.5-0.1,2.9-0.3,4.4-0.5c0.6-0.1,1.3,0,1.9,0c0.4,0,0.7-0.2,1.1-0.2c0.6,0,1.2,0,1.8,0c0.6-0.1,1.3-0.1,1.8,0
	c0.5,0.1,1.1,0.4,1.5,0.3c1.2-0.1,2.4-0.6,3.5-0.6c0.4,0,0.9,0.3,1.2,0.2c0.5,0,0.8-0.3,1.2-0.4c0.6-0.1,1.6,0.2,2.5,0.1
	c0.5-0.1,0.9-0.2,1.4-0.2c0.6,0,1.2,0.2,1.7,0.1c0.7-0.1,1.3-0.4,1.9-0.4c1.2-0.1,2.4-0.1,3.6-0.1c0.6,0,1.3,0,1.9,0
	c0.4,0,0.8-0.2,1.2-0.2c0.8,0,1.5,0.2,2.3,0.2c1.5-0.1,3.1-0.2,4.8-0.3c0.8,0,1.5-0.2,2.3-0.3c0.5-0.1,0.9,0.1,1.4,0.1
	c0.3,0,0.6-0.2,1-0.2c0.4,0,0.8,0.1,1.2,0.1c0.5,0,0.9-0.2,1.3-0.2c0.8-0.1,1.6,0.3,2.3,0.3c0.6,0,1.2-0.4,1.7-0.4
	c0.5-0.1,1.1,0.1,1.6,0c0.6-0.1,1.2-0.3,1.8-0.4c0.5,0,1.1,0.1,1.7,0.1c1.2-0.1,2.3-0.3,3.4-0.2c0.9,0,1.7,0.3,2.6,0.2
	c0.9,0,1.9,0.1,2.7,0c1.1-0.1,1.9-0.4,2.9-0.4c0.4,0,0.9,0,1.3,0c0.4,0,0.8,0.2,1.3,0.2c0.5,0,0.9-0.1,1.4-0.1
	c0.7,0.1,1.4,0.6,2,0.6c0.5,0,0.9-0.1,1.4,0c0.9,0.1,1.9,0.5,2.8,0.6c0.6,0,1,0,1.5,0.1c0.4,0.1,0.8,0.3,1.3,0.5
	c1,0.3,1.9,0.4,2.9,0.5c0.5,0.1,0.9,0.3,1.4,0.3c0.5,0.1,1,0,1.5,0.1c0.9,0.2,1.8,1.1,3.1,1.2c0.5,0,0.9-0.1,1.5-0.1
	c0.7,0.1,1.7,0.6,2,0.9c0.4,0.4,0.6,1.1,0.9,1.4c0.4,0.3,1.4,0.2,2,0.4c1,0.4,1.7,1.7,2.6,2.2c1.4,0.7,2.6,0.7,4.3,0.5
	c0.5-0.1,1-0.2,1.6-0.3c0.4,0,0.9,0.1,1.3,0.1c0.9-0.1,1.4-0.3,2.1-0.3c0.8,0,1.6,0.5,2.5,0.4c0.5,0,1.1-0.3,1.6-0.3
	c0.6,0,1.4,0.4,2.2,0.6c0.8,0.2,1.6,0.2,2.3,0.3c0.6,0.1,1.2,0.3,1.8,0.4c0.6,0.1,1.3,0.2,1.8,0.3c0.5,0.1,1,0.4,1.4,0.5
	c0.6,0.1,1.1,0.1,1.7,0.3c1.1,0.3,2.2,0.3,3.3,0.7c0.5,0.2,0.9,0.5,1.5,0.7c0.8,0.2,1.6,0.2,2.4,0.5c1.6,0.5,3.2,0.5,4.7,1.1
	c0.7,0.3,1.5,1,2.4,1.2c0.8,0.2,1.5,0.2,2.2,0.6c0.6,0.3,1.2,0.7,1.9,1c0.6,0.3,1.3,0.5,1.9,0.8c0.6,0.3,1.1,1,1.8,1.3
	c0.7,0.3,1.2,0.2,1.9,0.3c1.4,0.4,2.1,1.4,3.3,2.5c0.5,0.4,0.9,1,1.4,1.4c0.6,0.5,1.8,0.2,2.5,0.8c0.5,0.5,1.1,1.1,1.7,1.7
	c0.6,0.6,1.5,1,1.8,1.6c0.7,1.2,0,2,0.3,3c0.2,0.8,1.1,1.6,1.3,2.3c0.1,0.3,0,0.9,0.1,1.5c0.2,0.9,0.9,1.7,0.9,2.5
	c0,0.9-0.8,1.9-0.9,2.8c0,0.3,0.1,0.7,0.1,1.1c0,0.4-0.3,0.8-0.3,1.3c-0.1,1.4-0.5,2.7-1,3.9c-0.2,0.4-0.1,0.9-0.2,1.4
	c-0.1,0.4-0.4,0.8-0.6,1.2c-0.4,0.8-0.7,1.6-1,2.4c-0.3,0.8-1,1.4-1.2,2.3c-0.5,1.7-1.2,3.2-1.7,5c-0.1,0.4-0.3,0.9-0.5,1.2
	c-0.2,0.4-0.5,0.7-0.7,1.1c-0.3,1-0.1,2.1,0,3.2c0,0.5-0.3,1.1-0.1,1.7c0.1,0.4,0.5,0.8,0.7,1.2c0.3,0.6,0.2,1.3,0.4,2
	c0.1,0.3,0.3,0.6,0.4,1c0.1,0.3,0,0.6,0.1,0.8c0.2,0.9,0.5,1.8,0.6,2.7c0.2,1.2,0.3,2.3,1.1,3.6c0.2,0.3,0.5,0.6,0.7,1
	c0.7,1.3,1.1,2.3,1.8,3.3c0.3,0.4,0.7,0.6,1,1c0.3,0.3,0.4,0.7,0.7,1c0.4,0.4,1.1,0.8,1.6,1.2c0.7,0.6,1.1,1,1.9,1.1
	c0.3,0,0.6,0,0.9,0c0.6,0,1.1,0.3,1.5,0.5c0.5,0.3,0.9,0.8,1.4,0.8c1.1-0.2,0.5-1.5,0.2-2.6c-0.1-0.4-0.1-0.8-0.2-1.2
	c-0.1-0.4-0.4-0.9-0.5-1.3c-0.3-0.9-0.2-1.4-0.3-2.2c0-0.7-0.3-1.6-0.5-2.4c-0.2-0.7-0.2-1.5-0.3-2.2c-0.1-1.5-0.1-2.8-0.1-4.2
	c0.1-1.2-0.1-3.4,1.5-3.3c0.6,0.4,0.7,1.1,0.9,1.7c0.2,0.6,0.5,1.3,0.6,1.9c0,0.4-0.2,0.7-0.2,1.1c0,0.7,0.2,1.4,0.2,2.2
	c0,0.6-0.2,1.4-0.1,2c0.2,1,0.7,2.2,0.9,3.3c0,0.3,0,0.6,0,0.9c0.2,1,0.9,2,1.5,3c0.3,0.5,0.4,1,0.7,1.5c0.2,0.5,0.6,1.1,0.8,1.5
	c0.5,1.2,0.6,2,1.4,3.1c0.6,0.8,1.3,1.6,2.1,2.3c0.5,0.4,2.7,1.3,2.5,2.6c0,0.3-0.7,0.6-1.3,0.7c-0.5,0-0.9-0.3-1.3-0.3
	c-0.6,0-0.8,0.1-1.3,0.1c-0.6,0-2.3-0.4-2.8-0.8c-0.7-0.5-1-1.2-1.8-1.4c-0.8-0.2-1.6,0-2.6-0.1c-0.8-0.5-1.3-1.2-2.1-1.8
	c-0.7-0.6-1.5-0.9-2.2-1.5c-0.7-0.6-1.4-1.1-2-1.7c-2-1.7-4-3.9-5.9-5.8c-0.7-0.7-1.4-1.1-2-1.7c-1.1-1-2.6-2.4-3.3-4.1
	c-0.2-0.6-0.2-1.2-0.3-1.8c-0.1-0.7-0.6-1.2-0.9-1.9c-0.2-0.5,0.3-1.4,0.7-1.8c0.5-0.4,1.1-0.5,1-1.2c-0.1-0.5-0.7-0.9-0.8-1.4
	c-0.2-0.7,0.7-1.3,0.7-1.9c0-0.4-0.4-0.9-0.6-1.4c-0.1-0.4,0.3-1-0.1-1.7c-0.3-0.6-0.8-1-1-1.5c-0.2-0.5-0.2-2.2,0-2.5
	c0.7-0.9,3.2-1.2,2.6-2.7c-0.2-0.4-0.8-0.9-0.9-1.2c-0.2-0.7,0.8-0.8,1.4-1c0.8-0.4,1.8-1.1,1.3-1.9c-0.9-1.4-3.3,1.3-4.4,0.1
	c-0.6-1.2,1.5-1.2,2.7-1.5c1.3-0.4,2.7-1.5,1.2-2.8c-0.2-0.2-0.5-0.3-0.7-0.5c-0.2-0.3-0.2-1-0.4-1.5c-0.3-0.5-0.9-0.7-1-1
	c-0.1-0.3,0.4-0.7,0.3-1.3c0-0.7-0.5-1-0.5-1.7c1-0.5,2.6-0.7,3.7-1.3c0.4-0.2,0.6-0.4,0.4-0.8c-0.4-0.7-2.4-0.4-3.2-0.2
	c-0.7,0.2-2.2,0.6-2.6,0c-0.5-0.8,1.2-1,1.8-1.1c0.9-0.2,2-0.8,2.2-1.4c0,0,0-0.1-0.1-0.1c-0.5-0.4-1.6-0.3-2.5-0.2
	c-1.4,0.3-3.1,0.6-4.3,0.9c-0.7,0.2-1.8,1.2-2.3-0.1c-0.5-1.2,2.2-1.7,3.6-2c0.5-0.1,1.1-0.3,1.6-0.4c0.5-0.1,1.2-0.1,1.6-0.2
	c0.7-0.2,1.4-0.7,2.1-1.1c0.6-0.4,1.5-1,1.2-1.7c-0.4-0.7-1.1-0.9-1.7-0.9c-0.6,0-1.6,0.5-1.8,0c-0.2-0.4,0.6-0.6,0.9-0.7
	c0.3-0.2,0.6-0.5,0.3-1.1c-0.3-0.5-0.8-0.5-1.6-0.5c-0.7,0-1.4,0-1.8,0.1c-0.4,0.1-0.9,0.4-1.5,0.5c-1.2,0.3-1.9,0.7-2.8,1
	c-0.5,0.2-1.1,0.3-1.5,0.4c-0.7,0.3-1.6,0.8-2.4,1.2c-0.5,0.3-1.4,1-1.8,0c-0.1-0.4,0.5-1.1,0.9-1.2c0.4-0.2,1-0.2,1.4-0.4
	c0.4-0.2,0.9-0.3,1.3-0.5c0.4-0.2,0.6-0.7,1-0.9c0.4-0.2,1.4-0.3,1.2-0.8c-0.2-0.4-1.5-0.2-2-0.1c-1.4,0.3-2.3,1.2-3.2,0.1
	c0.8-1,2.8-1,4.2-1.7c1.3-0.6,0.6-1.7-1-1.5c-0.9,0.2-1.7,0.4-2.7,0.6c-1,0.2-1.3,0.7-1.9,1.1c-0.2,0.1-0.6,0.1-0.8,0.2
	c-0.2,0.1-0.5,0.4-0.8,0.6c-0.3,0.1-0.7,0.2-1,0.4c-0.5,0.3-1.5,0.9-2,0.4c-0.8-0.7,0.8-1.3,0.3-2.1c-0.4-0.7-1.9-0.1-2.8,0.1
	c-0.9,0.2-2.3,1.1-2.6,0c-0.1-0.4,0.3-0.8,1-1.1c0.6-0.3,1-0.5,1.6-0.7c2.4-0.8,4.7-0.7,6.8-1.7c1.1-0.6,3.7-1.4,1.4-2.5
	c-1,0.4-2.1,0.6-3.3,1c-0.3,0.1-0.6,0.3-0.9,0.4c-0.9,0.2-1.9-0.5-2.7-0.1c0.3-0.8,1.8-0.7,1.3-1.7c-0.2-0.5-1.5-0.8-2.2-0.6
	c-1,0.3-2.6,0.6-3.8,0.9c-0.5,0.2-1.2,0.7-1.5,0.3c-0.3-0.4,0.7-1.1,0.9-1.3c0.9-0.4,3-0.5,2.6-1.5c-0.3-0.7-2.5-0.8-3.3-0.6
	c-0.9,0.2-1.2,0.7-1.9,1.1c-0.7,0.3-1.3,0.6-1.8,1c-0.5,0.4-1,0.9-1.9,0.8c-0.8-1.2,2.1-1.8,1.4-3c-0.7-1-3.1,0.5-3.6,0.8
	c-0.3,0.2-0.5,0.5-0.8,0.7c-0.3,0.2-0.8,0.3-1,0.4c-0.6,0.4-1.1,1.4-2.1,0.9c-0.7-1.7,3-1.5,2-3.2c-0.6-1.1-1.6-0.2-2.1,0.2
	c-0.3,0.2-0.6,0.4-1,0.5c-0.8,0.3-1.3,0.9-2.2,0.7c-0.3-0.6,0.6-1.9-0.7-2.1c-0.7-0.1-0.9,0.4-1.4,0.6c-0.3,0.1-0.6,0.1-0.9,0.3
	c-0.7,0.3-1.6,0.8-2.4,0.1c-0.4-0.4-0.4-1.1-0.9-1.4c-0.4-0.3-1.2,0.1-1.9,0.2c-0.7,0.1-1.5,0.2-1.9,0.1c-0.9-0.1-1.3-0.6-2-0.8
	c-0.5-0.1-0.9,0-1.3-0.2c-0.8-0.3-1.3-1-2.1-1.2c-0.6-0.2-1.2-0.2-1.9-0.4c-1.2-0.3-2.4-0.7-3.5-1.2c-1.2-0.4-2.4-1.1-3.8-1.2
	c-0.4,0-0.8,0.1-1.2,0c-0.6-0.1-1.3-0.7-2-0.9c-0.5-0.1-1-0.1-1.4-0.2c-0.4,0-1-0.1-1.2,0.4c0,0.7,1.6,1.5,2.7,1.7
	c0.5,0.1,0.9,0,1.4,0.1c0.8,0.2,1.7,1,2.8,1.4c0.4,0.1,1,0.4,1.5,0.5c0.6,0.1,1.1,0.2,1.5,0.4c0.7,0.6,1,1.8,2,2
	c0.8,0.2,2-0.3,2.8-0.3c0.6,0,1.2,0.3,1.7,0.4c0.6,0.2,1.1,0.4,1.6,0.6c0.9,0.3,1.7,0.4,2.5,0.8c1.3,0.7,1.9,1.8,3.3,2.3
	c0.4,0.1,1,0.3,1.2,0.5c0.3,0.4,0.3,0.9,0.4,1.2c0.4,0.7,1,1.1,1.7,1c0.7-0.1,0.9-0.7,1.5-0.9c0.5-0.1,1,0.1,1.5,0.2
	c0.7,0.2,1.3,0.1,1.8,0.5c0.4,0.3,0.7,0.7,1,1.1c0.6,0.7,0.9,1.5,1.8,1.7c0.6,0.2,1.1,0.1,1.7,0.3c0.5,0.1,1,0.4,1.5,0.6
	c1,0.5,2.2,0.8,2.6,2.1c-0.4,0.7-1.3,0.8-2.2,1c-1,0.1-2-0.3-3,0c-0.4,0.1-0.7,0.4-1.1,0.5c-0.7,0.1-1.6-0.2-2.5-0.1
	c-1.3,0.1-2.6,1.4-3.6,0.7c-0.7-0.5-0.4-1.2,0.4-1.3c0.7-0.1,1.5,0.2,2.4-0.1c0.4-0.1,0.9-0.4,1.4-0.6c0.6-0.2,1.1-0.4,1-0.8
	c-0.3-1-2.1-0.2-3.1-0.1c-1.2,0.2-2.1,0-2.9-0.4c0-0.6,0.8-0.7,1.2-0.9c0.4-0.3,0.6-0.7,0.9-1.1c-0.8-0.2-1.8-0.9-2.9-0.7
	c-0.6,0.1-1.2,0.5-2,0.6c-0.7,0.1-1.4,0.1-2.1,0.2c-1.1,0.2-2.1,0.6-3.2,0.2c-0.3-0.7,0.9-0.7,0.6-1.3c-0.3-0.8-3.6-0.5-4.7-0.3
	c-0.9,0.2-1.6,0.4-2.5,0.4c-0.9,0-1.7,0-2.4,0.3c-0.4,0.2-0.6,0.6-0.9,0.7c-0.5,0.2-1.1,0.1-1.4,0.3c-0.6,0.4,0.1,1.1-0.3,1.7
	c-0.2,0.3-0.9,0.5-1.4,0.7c-0.6,0.3-0.9,0.6-1.4,0.7c-0.5,0.1-1.2,0.1-1.8,0.3c-0.6,0.2-1,0.5-1.6,0.6c-0.6,0.1-1.3,0.3-1.8,0.5
	c-0.6,0.2-1.3,0.2-1.8,0.3c-0.5,0.1-0.7,0.6-1.2,0.2c0-0.5,0.6-0.5,0.9-0.8c0.5-0.3,0.6-0.9,0.9-1.3c0.9,0.2,1.8-0.2,2-0.8
	c-0.5-0.2-1-0.3-1.5-0.2c-0.5,0.1-0.5,0.6-0.8,0.7c-0.4,0.1-1.6-0.2-2.3-0.1c-0.5,0.1-1.4,0.6-2.1,1c-0.5,0.3-1.5,1-2.1,0.5
	c-0.5-0.5-0.2-1-0.6-1.4c-1-1-2.7,1.3-3.7,0.6c-0.5-1,0.5-1.9,1.4-2.2c0.2-0.1,0.7-0.1,1-0.2c0.7-0.2,1.3-0.6,2-0.9
	c0.7-0.3,1.4-0.5,2.1-0.8c0.8-0.2,1.5-0.6,2.3-0.7c0.8-0.2,1.4-0.6,2-0.7c0.6-0.2,2.1-0.3,1.8-1c-0.3-0.7-2.4-0.5-3.1-0.5
	c-1.6,0.2-2.2,0.9-3,1.1c-1.2,0.4-2.5,0.5-3.6,0.8c-1.2,0.4-2.6,1.3-3.7,1.9c-0.5,0.3-1.1,0.7-1.6,1c-0.5,0.3-1.2,0.8-2,0.5
	c-0.4-0.9,0.1-1.1,0.6-1.4c0.4-0.3,0.8-0.8,1.2-1c0.3-0.2,0.7-0.2,1-0.3c0.3-0.1,0.5-0.3,0.8-0.5c0.4-0.2,0.9-0.2,1.3-0.4
	c0.6-0.2,1.2-0.6,1.9-0.8c1.2-0.4,2.8-1,3.9-1.5c0.6-0.3,1.1-0.6,2-0.7c0.6-0.1,2.5,0.1,2-0.9c-0.3-0.6-1.1-0.7-1.8-0.6
	c-0.5,0.1-0.7,0.4-1,0.5c-0.5,0.2-1.4,0.1-2.1,0.3c-0.6,0.1-1.1,0.5-1.7,0.7c-0.4,0.1-0.7,0.1-1,0.2c-0.4,0.1-0.7,0.4-1,0.5
	c-0.5,0.2-1.2,0.2-1.6,0.3c-0.7,0.3-1.3,0.7-1.9,1c-0.7,0.4-1.5,0.6-2.1,0.9c-0.4,0.2-0.6,0.5-0.9,0.8c-0.6,0.5-1.2,0.9-2.2,1.3
	c-0.4,0.2-1,0.5-1.4-0.1c-0.7-1.1,1.1-1.3,1.8-1.8c0.5-0.4,0.8-1,0.5-1.4c-0.5-0.7-1.4,0-1.9,0.3c-0.6,0.4-1.1,0.9-1.8,1.1
	c-0.5,0.1-0.9,0-1.2,0.1c-0.3,0.1-1.6,1.7-2.2,0.8c-0.6-0.8,1.4-1.4,0.1-2.2c-0.6-0.1-0.8,0.4-1.2,0.6c-0.4,0.2-1.2,0.4-1.6,0.7
	c-0.6,0.3-1.3,0.7-1.8,0.2c-1-1.1,1.4-2.7,2-3.3c0.3-0.4,0.5-0.8,0.7-1.1c0.3-0.3,0.8-0.8,1.2-0.9c0.5-0.2,1.4-0.3,1.7-0.4
	c1.1-0.4,1.9-1.1,3.3-1.7c0.6-0.2,3.2-1.1,3.1-1.8c-0.1-0.5-1-0.8-1.7-0.6c-0.8,0.2-1.7,0.9-2.7,1.3c-0.4,0.2-0.9,0.2-1.2,0.4
	c-0.3,0.2-0.5,0.5-0.8,0.7c-0.3,0.2-0.7,0.2-1,0.4c-0.5,0.3-0.6,0.9-0.9,1.1c-0.2,0.2-0.8,0.2-1.2,0.4c-0.6,0.3-1.6,1-2.5,1.3
	c-0.4,0.1-0.7,0.2-0.9,0c-0.7-0.9,2.1-1.6,1.4-2.8c-0.5-0.9-1.7-0.1-2.2,0.3c-0.7,0.4-0.9,1.2-2,1c-0.6-0.4-0.4-1.5-1.1-1.8
	c-1,0.2-2,1-2.9,0.3c-0.8-0.6-0.7-1.7-1.8-1.5c-0.7,0.1-1.2,0.7-1.6,1c-0.4,0.4-0.7,0.9-1.6,1.1c-2.9-1.7,0.4-3.5,2.2-4.3
	c0.6-0.3,1.4-0.3,2-0.5c0.4-0.1,0.8-0.4,1.4-0.7c0.5-0.2,1.2-0.4,0.9-0.9c-0.3-0.7-1.3-0.2-2.1,0c-0.4,0.1-1,0.1-1.2,0.1
	c-0.8,0.2-1.7,0.8-2.6,1.3c-0.8,0.5-1.8,0.9-2.6,1.2c-0.2,0.1-0.6,0.1-0.8,0.2c-0.9,0.4-1.4,1.8-2.7,1.2c-0.2-0.6,0-1.1,0.4-1.5
	c0.4-0.4,1.1-0.5,0.8-1.1c-0.1-0.2-0.4-0.5-0.6-0.6c-0.8-0.2-1,0.6-1.5,0.8c-0.5,0.2-1.2,0.2-1.8,0.4c-0.7,0.2-1.1,0.6-1.7,0.5
	c-0.7-0.9-0.3-1.6-1.2-1.9c-0.5-0.2-2.2,0.4-2.7,0.9c-0.5,0.5-0.5,1.5-0.9,1.7c-0.6,0.3-1.7,0-1.9-0.4c-0.3-0.5-0.1-1.1,0.2-1.4
	c0.4-0.4,1.2-0.6,1.8-0.9c0.8-0.5,2.5-1.3,2-2.3c-0.6-1.4-3.1-0.1-4,0.3c-1.1,0.5-2.3,1.9-3.6,1.5c-0.8-0.2-0.7-0.9-1.6-1.3
	c-1,0.2-1.6,0.7-2.3,1c-1.5,0.5-3.5,0-5-0.5c-0.8-0.2-1.5-0.7-2.3-0.9c-0.5-0.1-2.7-0.2-2.5,0.6c0.1,0.6,1.4,1,2,1.1
	c0.8,0.2,1.5,0.3,2.2,0.5c0.4,0.1,1,0.7,1.5,0.9c0.4,0.1,0.8,0.1,1.2,0.2c0.5,0.2,1.3,0.6,1.6,1c0.3,0.4,0.4,0.9,0.7,1.3
	c0.9,1.1,2.2,0.5,3.4,1.3c0.6,0.4,1.1,1.1,1.7,1.4c0.8,0.3,1.9,0.2,2.8,0.1c2.1-0.3,4.4-1,6.2-0.5c0.8,0.3,1.5,1.4,2.3,1.7
	c1.7,0.6,3.4-1.3,5.2-0.9c0.5,0.1,1.1,0.3,1.7,0.5c1.5,0.3,3.4,0.9,4.7,1.7c1.6,0.9,2.9,1.5,4.3,2.8c0.4,0.4,0.7,0.9,1.2,1.4
	c0.4,0.4,0.9,0.6,1.3,1.1c0.8,0.9,1,1.5,1.9,2.2c0.7,0.5,1.3,0.5,2.6,0.4c1.4,0.8,2.3,2.6,3.5,3.8c0.6,0.6,1.8,1.4,2.7,1.4
	c0.8,0,1.1-0.7,1.8-0.9c0.3-0.1,0.8-0.1,1.1-0.2c0.3-0.1,0.7-0.5,0.9-0.6c1.5-0.5,2.8,0,4.1,0.2c0.7,0.1,1.5,0.2,2.1,0.3
	c1.4,0.2,3.4,0.4,4.2,1.6c0.3,0.5,0.4,1,0.7,1.4c0.2,0.3,0.6,0.6,0.9,0.9c0.6,0.7,1,1.7,1.9,1.6c0.8,0,1.8-1,2.7-1.2
	c0.4-0.1,0.9,0,1.4,0.1c0.7,0.2,1.7,0.1,2.3,0.6c0.8,0.7,1.8,1.7,2.7,2.6c0.3,0.3,0.6,0.5,1,0.7c0.3,0.3,0.6,0.6,0.9,0.9
	c0.4,0.4,0.9,0.6,1.3,1c0.8,0.7,1.5,1.5,2.3,2.3c0.4,0.4,0.7,0.8,1.1,1.3c0.6,0.6,1.5,1.1,2,1.7c0.7,0.9,0.9,1.8,1.7,2.4
	c0.4,0.3,1.1,0.5,1.5,0.9c0.5,0.6,1.5,1.5,1.7,1.9c0.6,1.1-0.2,1.4,0,2.3c0.1,0.3,0.3,0.7,0.4,1.1c0.1,0.6,0.1,1,0.6,1.3
	c0.9,0.7,2.9,0,4.3,0.2c0.7,0.1,1.8,0.5,2.3,1.1c0.4,0.7,0.3,1.5,0.9,1.7c0.8,0.3,1-1,1.8-1.2c0.7-0.2,1.7,0.3,2.5,0.5
	c0.5,0.1,1.1,0.1,1.4,0.2c0.6,0.3,1.2,1,1.7,1.4c0.5,0.4,1.2,0.6,1.9,1c0.6,0.3,1.2,0.6,1.9,0.8c0.7,0.2,1.4,0.1,2.2,0.3
	c1,0.3,3.1,2.1,4,3.2c0.7,0.9,0.8,2.3,2.1,2.4c1.4,0.1,2.3-0.9,3.2-1.2c1-0.4,2.2-0.3,3.3-0.4c0.7-0.1,1.2-0.2,1.7-0.2
	c0.5,0,1,0.3,1.5,0.1c0.7-0.2,0.6-0.9,1.4-1.1c0.7-0.2,3.2,0.8,2.8-0.3c-0.2-0.7-0.9-0.9-1.6-1.2c-0.5-0.2-1.5-0.6-1.7-0.9
	c-0.2-0.5,0.5-0.6,0.3-1.1c-0.5-0.4-1-0.4-1.5-0.5c-0.4-0.1-1-0.3-1.4-0.5c-0.5-0.1-1.1-0.2-1.3-0.6c-0.4-0.6,0.2-1-0.1-1.6
	c-0.4-0.7-1.7-0.6-2.5-0.4c-0.7,0.1-2.2,0.7-2.6-0.3c-0.4-1.1,2.1-1,1.7-1.9c-0.3-0.9-1.9-0.3-2.1-1.4c0.1-0.4,0.8-0.7,1.5-0.8
	c1.9-0.4,4.4-0.2,6.3,0c0.7,0.1,1.4,0.4,2.1,0.4c0.6,0,1.7-0.3,1.6-0.8c-0.3-1.4-2.6-0.9-3.5-0.9c-0.8,0-1.5-0.4-2.2-0.5
	c-0.9-0.1-2,0.3-2.1-0.5c-0.1-0.4,0.7-0.5,1.1-0.5c0.6,0,1,0.3,1.4,0.3c0.5,0.1,1.2,0.1,1.9,0c0.5,0,1-0.4,1.8-0.4
	c0.7,0,1.4,0.2,1.6-0.1c0.4-0.6-1.2-1.5-1.9-1.7c-1-0.3-1.9-0.2-2.9-0.3c-0.9-0.1-2-0.2-3-0.1c-0.6,0.1-1.1,0.2-1.6,0.2
	c-0.5,0-1-0.2-1.4-0.1c-0.9,0.1-1.1,0.6-1.8,0.4c-0.6-0.2-1.1-1.1-1.2-1.7c-0.1-0.6,0.4-1,0.2-1.5c-0.3-0.8-1.1-1.2-0.8-1.9
	c0.2-0.5,1.4-0.8,2.4-0.8c0.9,0,3.8,0.3,3.4-0.9c-0.4-1-2.9-0.6-4-0.7c-1.2-0.1-2.6,0.1-4.3,0.5c-0.9,0.2-2.1,0.6-2.4-0.2
	c-0.4-0.9,1.7-1.1,2.8-1.1c0.5,0,1.3-0.1,1.8-0.2c0.7-0.1,1.4,0,1.7,0c0.9-0.1,1.3-0.6,2-0.7c0.7-0.1,1.4,0.4,1.9,0.5
	c0.5,0.1,1.4-0.1,2.1-0.1c0.6,0.1,2.2,0.6,2.1-0.3c-0.1-1-2.1-1.3-2.9-1.4c-1.4-0.1-2.8,0.1-4.2,0c-0.5,0-1-0.2-1.3-0.2
	c-0.7,0-3.7,1.1-3.9,0c-0.1-0.5,2.2-0.7,3.3-0.9c1.3-0.2,2.5,0,3.4-0.2c0.6-0.1,1.3-0.5,1-1c-0.4-0.9-2-0.2-3.1-0.1
	c-0.5,0-1-0.1-1.6-0.1c-0.6,0-1.1,0.1-1.8,0.1c-0.5,0-2-0.4-2-1.1c0.1-0.8,2-0.1,2.4-0.9c0.3-0.7-0.7-1-0.9-1.9
	c-0.1-0.5,0.6-1.2,0.8-1.4c0.3-0.3,0.9-0.6,1.1-0.8c0.3-0.3,0.6-1,1-1c0.5-0.1,1,0.6,1.6,1.1c0.4,0.3,1,0.7,1.5,1
	c0.5,0.3,1,0.8,1.4,1.1c0.4,0.2,0.9,0.3,1.3,0.5c0.2,0.1,0.5,0.5,0.9,0.7c0.8,0.6,1.2,1.2,2.1,1.9c0.7,0.6,1.6,1.3,2.3,2.2
	c0.4,0.5,1,1,1.2,1.4c0.2,0.3,0.3,0.7,0.5,1c0.3,0.4,0.8,0.8,1.1,1.3c0.4,0.6,0.7,1.2,1.1,1.6c0.3,0.4,0.9,0.7,1.2,1.1
	c0.2,0.3,0.3,0.9,0.5,1.3c0.2,0.4,0.6,0.8,0.9,1.2c0.3,0.6,0.5,1.2,0.9,1.9c0.8,1.2,1,1.8,1,2.8c0,0.4,0.1,0.8,0,1
	c-0.1,0.4-0.6,0.6-0.5,1.2c0.1,0.4,0.5,0.8,0.6,1.3c0.1,0.4-0.3,1-0.3,1.5c0,0.8,0.5,1.5,0.4,2c-0.1,0.9-1.3,1.1-0.9,2.1
	c0.2,0.6,1.1,0.8,1.3,1.3c0.4,1.2-2.3,0.5-2.6,1.2c0.4,0.9,1.7,0.9,1.8,1.9c0.1,0.5-0.7,0.6-0.8,1.1c0.5,0.9,0.6,1.6,0.8,2.4
	c0.1,0.4,0.2,0.8,0.2,1.1c0,0.4-0.2,0.6,0,1.1c0.3,0.9,0.8,1.5,0.9,2.3c0.1,0.8-0.1,1.5,0.1,2.3c0.1,0.3,0.4,0.7,0.5,1.1
	c0.2,0.6,0,1.1,0.2,1.7c0.2,0.6,0.8,1.3,1,1.9c0.5,1.2,0.5,2.3,0.8,3.3c0.3,0.8,0.7,1,1.3,1.5c0.4,0.3,0.7,0.8,1,1
	c0.7,0.5,1.7,0.9,2.2,1.4c0.4,0.4,0.5,0.9,0.9,1.4c-0.6,0.1-1.1,0.3-1.8,0.4c-0.8,0.1-1.5-0.4-2.1-0.2c-0.7,0.2-0.6,1.5-1.3,1.6
	c-0.3,0.1-1-0.3-1.3-0.9c-0.5-0.8-0.2-1.4-0.5-2.4c-0.3-0.9-0.8-2-1.1-2.6c-0.1-0.3-0.6-0.8-0.9-1.2c-0.4-0.5-0.5-0.9-1-0.8
	c-0.9,0.1-0.2,1.3-0.4,1.9c0.5,0.9,0.1,1.7,0.5,2.7c0.6,1.8,1.9,3.8,1,4.9c-0.7-0.8-1.3-2.1-1.7-3.3c-0.1-0.3-0.1-0.7-0.2-1
	c-0.1-0.4-0.4-0.8-0.6-1.1c-0.4-1-1.5-4.7-2.6-4.4c-1.3,0.4-0.4,2.4-0.1,3.9c0.1,0.7,0.1,1.4,0.2,1.9c0.1,0.7,0.7,1.5,1,2.3
	c0.2,0.6,0.6,1.8,0.2,1.9c-0.8,0.2-1-1.2-1.3-2c-0.2-0.4-0.4-0.8-0.6-1.2c-0.5-1.3-0.5-2.5-1-3.9c-0.3-0.7-0.8-1.2-1.3-1.8
	c-0.4-0.5-0.8-1.1-1.2-1.1c-0.9,0-0.5,1.5-0.4,2.2c0.2,0.9,0.9,2.3,0.2,2.5c-0.7,0.2-1.6-1-1.9-2.2c-0.1-0.4-0.1-0.9-0.2-1.2
	c-0.6-1.3-2-1.2-2.4-0.3c0.2,1.3,1.3,3.1,1.5,4.5c0.1,0.4-0.1,0.8,0,1.2c0,0.2,0.2,0.6,0.3,0.9c0.3,0.9,0.2,1.9,0.4,2.6
	c0.2,0.8,0.8,1.7,0.1,1.8c-0.8,0.1-1.3-2.5-1.7-3.3c-0.2-0.3-0.6-0.7-0.7-1.2c-0.4-1.4-0.3-2.6-1.3-3.6c-0.5-0.5-1.3-0.8-1.6-1.1
	c-1-1-1.7-3.3-3.1-2.8c-0.5,0.2-0.5,0.9-0.5,1.4c0,0.4,0.1,1.4-0.4,1.5c-1,0.3-1.7-2.4-2.7-2.5c-2.5-0.1,0.3,4.2,0.9,6.1
	c0.2,0.5,0.2,1,0.5,1.6c0.5,1.1,1.2,1.9,1.8,3c0.1,0.2,0.5,1.2,0,1.3c-1,0.2-2.2-3.7-2.4-4.4c0,0,0-0.1-0.1-0.1
	c-0.3-0.6-1.1-1.6-1.5-2.3c-0.5-1-1.1-1.8-1.6-2c-0.3-0.2-1.1-0.2-1.3,0.1c-0.2,0.3,0.1,0.7,0.2,1.4c0.1,0.5,0.1,1,0.2,1.4
	c0.3,1,0.8,2,1.4,3c0.6,1,1.4,2.3,0.6,2.5c-0.7,0.2-2.1-2.1-2.5-3.4c-0.2-0.5-0.2-1.3-0.6-1.9c-0.3-0.6-0.9-1.4-1.6-1.4
	c-1.6,0.1-0.2,1.7-1,2c-1,0.4-1.7-1.5-2.2-2.5c-0.3-0.7-0.8-1.2-1-1.8c-0.6-1.2-1.4-3.1-2.4-2.7c-1.1,0.4-0.4,1.4-0.1,2.7
	c0.1,0.6,0.3,1,0.6,1.6c0.5,1.1,0.6,2.3,1.1,3.4c0.3,0.6,0.6,1.1,0.9,1.7c0.6,1.1,1,2.2,1.5,3.3c0.2,0.5,0.7,1.1,0.4,1.6
	c-0.9-0.2-1.1-1.3-1.5-2.1c-0.4-0.8-1-1.6-1.4-2.2c-0.4-0.7-0.8-1.6-1.2-2.3c-0.3-0.4-0.5-0.8-0.7-1.2c-0.1-0.4-0.1-0.8-0.3-1.2
	c-0.1-0.3-0.5-0.6-0.7-1c-0.6-1.1-1-3-2.2-2.8c-0.9,0.2-0.5,1.9,0.1,3.1c0.6,1.3,1.1,2.6,1.6,3.8c0.2,0.4,0.2,0.9,0.5,1.6
	c0.2,0.6,0.7,1.1,0.8,1.4c0.2,0.5,0.1,1.1,0.5,1.8c0.2,0.4,0.6,0.8,0.9,1.4c0.5,0.9,0.9,2,1.5,2.8c0.3,0.4,0.7,1.1,0.4,1.2
	c-0.7,0.4-1.9-1.9-2.1-2.4c-0.8-1.6-1.3-2.8-2.4-4.3c-0.4-0.5-0.9-1-1.4-1.7c-0.4-0.6-1-1.5-1.6-1.3c-0.7,0.2-0.2,1,0.1,1.9
	c0.2,0.6,0.3,1.3,0.5,1.9c0.3,0.9,0.8,1.2,1.2,1.9c0.3,0.6,0.8,2,1.1,2.9c0.3,1,1.4,2.5,0.8,2.7c-0.7,0.2-1.7-2-2.2-2.6
	c-0.3-0.3-0.5-0.5-0.7-0.8c-0.6-0.8-1.3-2.8-1.8-3.4c-0.4-0.6-1.6-1.7-2.2-1.3c-0.9,0.6,1.1,3.1,1.6,3.9c0.3,0.5,0.5,1.1,0.7,1.5
	c0.3,0.9,0.4,1.7,0.3,2.2c-0.8,0-1-0.8-1.4-1.3c-0.4-0.6-0.9-1.1-1.2-1.7c-0.3-0.7-0.4-1.1-0.8-1.6c-0.5-0.7-1.3-1.4-2-2.3
	c-0.3-0.4-0.7-0.9-0.9-1.3c-0.4-0.8-0.5-1.5-1-2.2c-0.5-0.6-2-1.7-2.7-1.2c-0.7,0.5,0.2,1.5,0.7,2.3c0.3,0.5,0.4,1.3,0.8,1.9
	c0.4,0.7,0.9,1.1,1.2,1.9c0.3,0.8,0.4,1.7-0.1,1.8c-0.4,0-1.4-1.3-1.9-1.9c-0.6-0.7-1.3-1.8-1.9-1.7c-0.8,0.1,0,1.3,0.2,2.1
	c0.3,1,0.8,1.8,1.1,2.4c0.5,0.9,0.9,1.8,1.3,2.4c0.9,1.3,2.9,2.6,3,4.5c-0.8,0.2-1.9-0.9-2.4-1.7c-0.2-0.4-0.2-0.8-0.5-1.1
	c-0.3-0.5-0.9-1.1-1.4-1.6c-0.5-0.5-0.9-1.1-1.3-1.6c-0.3-0.3-0.8-0.7-1.3-1.2c-0.5-0.4-1.1-0.9-1.5-0.7c-0.6,0.3,0.2,1.9,0.6,2.7
	c0.4,0.7,1.2,1.6,1.6,2.1c0.4,0.5,1,1.3,1.2,1.7c0.4,0.7,0.6,1.3,1,1.8c0.3,0.5,0.9,1.1,0.7,1.6c-1.1,0.3-1.5-1.7-2.3-2.5
	c-0.3-0.3-0.7-0.5-1.2-0.9c-0.6-0.5-1.2-1.7-1.8-2.3c-0.6-0.6-1.8-1.5-2.2-1.4c-0.9,0.3,0.8,2.4,1.1,3c0.3,0.6,0.4,1.4,0.6,2.1
	c0.3,0.8,0.8,1.5,0.7,2c-0.8,0.2-1.3-1-2-0.9c-0.5,0.1-0.3,0.9-0.9,1c-1,0.2-2.2-2.5-3.1-2.2c-0.7,0.2,0.1,1.7,0.6,2.5
	c0.5,0.8,1.1,1.9,1.7,2.6c0.5,0.5,0.9,0.8,1.5,1.6c0.4,0.5,1.3,1.6,0.9,2c-0.5,0.5-1.7-0.8-2.1-1.2c-1.5-1.3-2.4-1.9-3.8-3.7
	c-0.4-0.6-1.6-2.1-2.1-1.5c-0.4,0.5,0.6,1.2,0.8,1.7c0.2,0.5,0.2,0.9,0.4,1.3c0.5,1.1,3,2.5,2.2,3.9c-0.6,0.5-1.9-0.5-2.5-1.1
	c-0.6-0.6-1-2-1.8-1.8c-0.6,0.2,0,1.3,0.4,2c0.5,1,1.7,2.4,1,2.8c-0.4,0.2-1.3,0-1.5-0.1c-0.9-0.4-1.4-1.5-2.3-2.5
	c-0.6-0.7-1.9-2.2-2.7-1.8c-1.2,0.5,2.2,4.3,1.4,4.7c-1.1,0.6-2.7-1.6-3.7-1.3c-0.1,1.1,2.5,3.2,0.7,3.7c-0.9,0.2-3.3-1.2-2.5,0.8
	c0.4,1,1.4,1.9,2,2.7c0.3,0.4,0.4,0.8,0.9,1.4c0.3,0.4,0.8,1,0.4,1.2c-0.6,0.4-1.7-1.3-2.4-2.2c-0.4-0.5-3.1-1.7-2.9-0.3
	c0.1,0.5,1.3,2.1,1.8,2.6c0.6,0.7,2.2,1.6,1.3,2.4c-0.4,0.4-1.3,0.3-2.2,0.5c-1.1,0.3-2.5,0.3-3,0.9c-0.4,0.5,0.3,1.6-0.6,1.8
	c-1.1,0.2-1.2-0.6-1.7-1.6c-0.4-0.8-1.1-1.4-0.9-2c0.2-0.6,1.3-0.4,1.2-1c-0.1-0.7-1-0.8-1.3-1c-0.4-0.2-1-0.7-1.4-0.6
	c-0.6,0.1-1.4,1.6-1.4,2.2c0,0.7,0.2,1.9-0.9,1.2c-0.6-1,0.5-1.1,0.2-1.9c-0.1-0.4-0.5-0.8-0.7-1.2c-0.3-0.7,0.2-2-0.9-1.9
	c-1.3,0.1-0.5,2.6-2.4,2.5c0-0.1-0.1,0-0.1,0c-1.3-0.6-0.4-3-1.9-3.4c-2.4-0.6,0,3.1-1.9,3.1c-0.2,0-0.5-0.2-0.6-0.4
	c-0.7-0.9,0.4-1.9,0-3c-0.2-0.5-0.6-1-1.2-1c-1.1,0-0.8,0.8-2,0.9c-0.8-0.5-1.2-1.8-2.2-1.8c-0.6,0-0.8,0.5-1.5,0.4
	c-1.3-0.6-2.2-3.4-3.4-4.4c-0.7-0.6-1.8-0.3-1.6,0.5c0.1,0.6,0.6,1,0.8,1.7c0.2,0.5,0.4,1.6,0.3,2.1c-0.1,0.6-0.6,0.7-0.6,1.3
	c-0.2,2.1,2.9,1.9,3.6,3.8c0.1,0.3,0,0.7,0,1c0,0.5,0.5,1.4-0.2,1.6c-0.6,0.2-1.2-0.2-1.8-0.4c-1.3-0.5-1.9-0.8-3.3-1.3
	c-0.6-0.2-1.4-0.7-1.7-0.5c-0.7,0.4,0.6,1.3,1.1,1.6c1,0.6,1.3,1.1,2.1,1.4c0.6,0.2,1.3,0.3,1.9,0.5c0.7,0.2,1.3,0.5,1.8,0.7
	c0.6,0.2,1.2,0,1.9,0.5c0.9,0.8,1.6,2.8,2.6,2.8c0.5,0,1-0.5,1.7-0.5c0.8,0,1.5,0.6,2.1,0.5c0.7-0.2,0.2-1.1,1.1-1.1
	c0.8,0.6-0.2,1,0,1.6c0.2,0.7,1.5,1.4,1.8,2.2c0.2,0.4-0.1,1,0.1,1.4c0.2,0.5,1.1,1.1,1.5,1.3c0.7,0.4,2,0.9,2.6,0.3
	c0-1.3-1.6-1-2-2.1c-0.3-0.7,0.7-0.9,0.5-1.6c-0.2-0.7-1.3-1.3-0.6-1.8c0.4-0.3,1.1,0,1.6,0.2c0.3,0.1,1,0.2,1.4,0.8
	c0.5,0.8-0.5,1.3-0.1,2.2c0.2,0.5,0.9,0.9,1,1.2c0.2,0.6-0.8,1-0.6,1.5c0.2,0.6,2.2,1.1,3,1.3c0.7,0.1,1.3-0.2,2,0
	c0.5,0.1,1,0.4,1.5,0.5c1.6,0.3,2.8,0.6,4.9,0.2c0.5-0.1,1.3,0.5,1.8,0.4c0.3,0,0.6-0.3,1.1-0.4c0.5-0.1,0.9,0,1.2-0.1
	c0.3-0.1,0.5-0.7,0.9-0.9c0.3-0.1,0.7,0,1.3,0c0.5,0,0.9-0.1,1.3-0.1c0.6,0.1,1.1,0.5,1.7,0.4c0.5,0,0.8-0.4,1.2-0.5
	c0.9-0.3,2-0.1,2.7-0.2c0.4-0.1,0.7-0.3,1-0.5c0.4-0.2,0.8-0.2,1-0.4c0.7-0.5,0.3-1.5,0.7-2.2c1.9-0.3,3.6-0.6,5.3-1.3
	c0.6-0.3,2-0.8,2.5,0c0.6,0.9-0.2,1.2,0.1,2c0.2,0.7,0.9,0.8,1,1.5c0.1,0.5-0.7,0.9-1.5,1.1c-0.7,0.2-1.5,0.1-2.2,0.2
	c-0.6,0.1-1.3,0.3-1.9,0.5c-1.1,0.4-2.1,0.2-2.6,0.9c-0.2,0.3-0.4,1.8-0.2,2.4c0.1,0.5,0.6,0.9,1,1.5c0.4,0.5,0.5,0.9,0.9,1.2
	c0.4,0.2,1.3,0.3,1.9,0.2c0.4-0.1,0.6-0.5,1-0.6c0.2-0.1,0.6,0,0.9-0.1c0.7-0.2,1.4-0.6,2.1-0.9c1.3-0.5,2.5-1.6,4.1-1.9
	c0.9-0.2,1.6-0.4,2.3-0.7c0.6-0.2,1.9-0.5,2.2,0c0.6,1-2,1.1-1.4,2.1c0.5,0.8,2.7-0.8,3-1.1c0.4-0.3,0.8-0.6,1.2-0.9
	c0.4-0.3,0.7-0.7,1.1-1c0.5-0.3,1.1-0.3,1.7-0.6c0.5-0.3,0.7-0.7,1.1-1c0.5-0.4,1.6-0.7,2-0.2c0.7,0.8-0.4,1.1-0.9,1.6
	c-0.3,0.3-0.7,0.8-1.3,1.1c-0.6,0.4-1,0.9-0.9,1.4c0.3,1.3,2.1,1.8,2.8,0.8c0.5-0.7,0.9-2.4,1.5-2.9c0.3-0.3,0.7-0.3,0.9-0.5
	c0.2-0.2,0.3-0.6,0.8-0.5c1,0.8-0.1,1.4-0.3,1.9c-0.1,0.3,0,0.8-0.1,1.1c-0.1,0.4-0.4,0.8-0.6,1.1c-0.2,0.4-0.5,0.6-0.8,1
	c-0.2,0.3-0.2,0.9-0.5,1.2c-0.2,0.2-0.6,0.4-0.8,0.7c-0.3,0.5-0.4,1.1-0.7,1.7c-0.3,0.5-0.6,1.3-1,1.5c-0.4,0.2-1.3,0.1-1.6-0.4
	c-0.5-0.9,0.5-1.4,0.2-2.1c-0.8,0-0.9,0.7-1.2,1.1c-0.2,0.3-0.6,0.4-0.8,0.7c-0.2,0.3-0.2,1.1,0,1.6c0.2,0.5,0.7,0.9,1,1.5
	c0.2,0.5-0.1,1,0.1,1.6c0.2,0.6,0.8,0.8,0.8,1.4c0.1,1-1.4,0.7-2.3,0.6c-0.7-0.1-1.4-0.4-1.9-0.4c0,0-0.1,0-0.1,0
	c-1.6,0.3-2.8,0.2-4.1,0c-1.2-0.2-2.4-0.6-3.8-0.8c-0.7-0.1-1.4,0-2-0.1c-0.6-0.1-1.2-0.3-1.9-0.4c-1.1-0.2-3.2-0.5-3.5-1.4
	c-0.3-0.7,0.6-0.9,1.4-0.8c0.9,0.1,1.4,0.4,1.9,0.5c0.6,0.2,1.3,0.2,2,0.4c0.4,0.1,1.6,0.6,1.9,0.2c0.3-0.4-0.6-0.8-0.7-1.3
	c-0.1-0.4,0.7-1,1.2-1.2c0.5-0.2,1.1,0,1.6-0.1c0.6-0.2,1.2-1,2-1.4c2.5-1.3,6.9-1.2,6.2-4.2c-0.8-0.6-1.3-0.2-1.8,0
	c-0.6,0.2-0.8,0.8-1.4,1c-0.5,0.1-1,0.2-1.5,0.3c-0.5,0.2-0.7,0.6-1.2,0.8c-0.8,0.4-1.7,0.6-2.6,0.9c-0.5,0.2-0.8,0.6-1.2,0.8
	c-1.1,0.6-2.6,0.3-3.6,0.5c-0.7,0.2-0.9,1-1.4,1.2c-0.5,0.2-1-0.1-1.7,0c-0.4,0.1-0.7,0.3-1,0.4c-1,0-1.8-1.6-2.9-1.7
	c-0.8-0.1-1.9,0.1-2.3,0.7c0.4,1,1.7,0.4,2.5,0.8c0.6,0.3,0.8,1.1,0.3,1.4c-0.8,0.6-2.5-0.3-3.5-0.5c-0.6-0.1-1.2-0.3-1.7-0.4
	c-0.7-0.1-1.3,0-1.9,0c-0.6,0-1.4-0.5-1.8,0c-0.1,0.8,1,0.7,1.8,1.1c0.5,0.2,1.3,0.8,1.8,0.9c0.4,0.1,1.1-0.1,1.4-0.1
	c0.7,0,1.5,0.6,2.4,0.7c0.4,0.1,0.8,0,1.2,0.1c0.4,0.1,1,0.4,1.6,0.5c0.6,0.1,1.3,0.2,1.9,0.4c0.7,0.2,1.3,0.6,1.9,0.8
	c0.8,0.3,1.6,0.3,2.3,0.5c0.8,0.2,1.5,0.8,2.2,1c1,0.2,1.8-0.2,2.8-0.1c0.3,0,0.7,0.3,1.1,0.4c0.4,0.1,0.9,0.1,1.1,0.3
	c0.4,0.2,0.8,0.9,1.2,1.1c0.9,0.4,2.1-0.4,3-0.5c0.5-0.1,1.1-0.1,1.7-0.1c0.6,0,1.1-0.1,1.7-0.2c0.4-0.1,0.8,0.1,1.1-0.1
	c0.8-0.3,1.6-0.6,2.4-0.8c0.8-0.3,1.7-0.3,2.6-0.5c1.6-0.4,2.9-1.1,3.6-2.3c0.5-0.8,0.2-1.7,0.4-2.8c0.1-0.6,1.1-1.1,1.5-1.9
	c0.3-0.5,0.9-1.1,0.4-2c-0.8-0.4-1.7,0.4-1.8,0.9c-0.1,0.5,0.2,1,0,1.4c-0.1,0.2-0.4,0.7-0.6,0.9c-0.2,0.2-0.5,0.2-0.7,0.4
	c-0.3,0.3-0.4,0.9-0.8,1.3c-0.3,0.3-0.8,0.5-1.2,0.7c-0.3,0.2-0.5,0.8-1.1,0.6c-0.4-1.1,0.9-1.1,1.4-1.9c0.2-0.2,0.1-0.5,0.2-0.8
	c0.1-0.3,0.3-0.5,0.4-0.7c0.2-0.6,0.1-1.4,0.5-1.8c0.3-0.4,0.9-0.5,1.2-0.8c0.3-0.3,0.4-0.9,0.7-1.5c0.2-0.5,0.5-1,0.7-1.4
	c0.1-0.5,0.2-1,0.3-1.4c0.1-0.3,0.3-0.6,0.5-0.9c0.2-0.3,0.3-0.6,0.4-0.9c0.4-0.6,1-1,1.2-1.6c0.2-0.5,0.1-1.2,0.2-1.7
	c0.2-0.5,0.5-0.9,0.7-1.4c0.2-0.5,0.7-1.2,0.6-1.6c-0.4-1.3-1.4-2.5-1.7-3.8c-0.1-0.6-0.1-1.1-0.2-1.6c0-0.4-0.4-1.1,0.2-1.4
	c0.8,0.7,1,2.1,2.2,1.8c1.4-0.3-0.6-3.1,0.7-3.1c0.5,0,0.6,0.5,1.1,1.1c0.4,0.5,1.5,1.9,2.1,1.8c0.4-0.1,0.6-1,0.6-1.5
	c0-0.8-0.5-1.7,0.2-1.8c1.1-0.2,2.4,2.8,3.2,3.7c0.4,0.4,0.8,0.7,1.1,1.1c0.6,0.8,0.9,1.8,1.7,1.7c0.5-0.1,0.7-0.8,0.7-1.4
	c0-0.7-0.4-2.3,0.5-2.3c0.8,0,0.9,1.1,1.2,2c0.2,0.6,0.5,1.1,0.7,1.6c0.3,1,0.5,2.4,1.7,2.2c1.3-0.2,0.4-2.2,0.1-3.5
	c-0.2-1-0.4-2-0.6-2.8c-0.2-0.9-0.4-1.8-1.1-2.9c-0.6-0.9-1.2-2.4-0.5-2.5c0.9-0.2,1.4,2,1.9,3.1c0.4,0.8,0.9,1.7,1.1,2.4
	c0.1,0.3,0,0.7,0.1,1c0.2,0.6,0.6,0.9,0.8,1.4c0.1,0.4,0,0.9,0.1,1.4c0.2,0.6,0.7,1.5,1,2.1c0.3,0.8,0.8,1.6,1.3,1.6
	c0.6,0,0.4-0.6,0.5-1.1c0.1-0.7,0.3-1,0.2-1.7c-0.2-0.9-0.6-2-0.8-2.9c-0.3-1-0.6-1.9-0.9-3c-0.2-0.5-0.2-1.7,0.1-1.7
	c0.4,0,1.1,1.6,1.3,2.1c0.2,0.4,0.3,1,0.6,1.6c0.3,0.5,0.6,1,0.8,1.6c0.5,1.4,0.3,3.4,1.6,3.7c1,0.2,1.3-0.6,2.4-0.6
	c0.6,0,1.2,0.4,1.7,0.4c1.9,0,2.3-1.2,2.5-2.3c0.1-0.8,0.4-1.5,0.3-1.9c-0.2-0.6-0.8-1.1-1.2-1.8c-0.5-1.1-0.7-2.6,0-2.7
	c1-0.2,1.6,1.8,1.7,2.6c0.1,0.6,0,1.3,0.2,1.8c0.2,0.5,0.6,1.1,1,1.5c0.6,0.9,1.7,2.4,2.5,1.4c0.5-0.6-0.2-1.5-0.6-2.9
	c-0.2-0.6-0.4-1.3-0.6-1.9c-0.4-1.2-1.2-3.1-0.5-3.3c0.9-0.2,1.5,1.5,1.8,2.3c0.4,1,0.9,2.4,1.6,2.4c0.6,0,0.9-0.8,1.5-0.7
	c0.7,0.1,0.9,1.1,1.4,1.7c0.4,0.5,1.3,0.5,1.8,0.8c0.4,0.2,0.8,0.7,1.3,1.1c1.1,0.9,2.6,2.7,3.9,2.7c-0.1-1.2-1.2-2-2-2.7
	c-0.4-0.4-0.8-0.8-1.2-1.3c-0.7-0.9-1.8-1.6-2.1-2.7c0.6-0.2,1.2,0.5,1.6,0.8c0.5,0.4,0.9,0.7,1.5,1.1c1.1,0.7,1.8,1.7,2.7,2.7
	c1.3,1.4,2.8,2.4,4.2,3.6c0.5,0.4,1,0.6,1.5,1c0.6,0.6,0.9,1,1.5,1.4c1,0.7,2.1,1.2,3.3,1.9c0.6,0.4,1.2,0.5,1.8,0.9
	c0.6,0.5,1.1,1.2,2,1.7c0.3,0.2,0.7,0.4,1.1,0.6c0.4,0.3,0.7,0.6,1.1,0.5c0.8-0.1,0.8-0.8-0.1-1.2c-0.4-0.2-0.6-0.2-0.9-0.3
	c-0.4-0.2-0.9-0.7-1.3-1c-0.4-0.2-0.8-0.3-1.2-0.5c-0.3-0.1-0.6-0.4-0.9-0.6c-0.3-0.2-0.7-0.4-0.9-0.6c-0.6-0.5-1-1.1-1.5-1.5
	c-0.6-0.5-1.1-1-1.6-1.3c-0.4-0.2-1-0.3-1.3-0.6c-0.3-0.2-0.7-0.8-1-1.2c-0.4-0.4-1-0.7-1.5-1.1c-0.4-0.3-2.1-1.5-1.2-2
	c0.6-0.3,1.2,0.4,1.7,0.7c0.4,0.2,1.4,0.8,1.8,0.6c0.4-0.2-0.1-1.1,0.5-1.4c0.9-0.4,1.4,0.3,2.3,0.9c1,0.7,2.3,1.4,3.2,2.2
	c0.4,0.3,0.7,0.8,1.1,1.1c0.4,0.3,0.9,0.5,1.2,0.8c0.7,0.5,1.1,1.1,1.8,1.5c1.2,0.8,2.4,1.8,3.7,2.7c0.7,0.5,1.2,0.9,1.8,1.4
	c0.6,0.5,1.3,0.8,1.9,1.3c1.2,0.9,2.5,1.8,3.8,2.5c0.7,0.3,1.4,0.6,2,1c0.8,0.6,1.7,1.4,2.6,2.1c0.9,0.7,1.5,1.6,2.4,2.3
	c0.5,0.4,1.2,0.6,2,1c0.8,0.4,1.8,0.9,2.3,0.5c-0.4-1.6-2.3-2.4-3.1-3.6c0.7-0.1,1.4,0.5,2,0.9c1.2,0.9,2.6,1.4,3.8,2.4
	c0.6,0.5,1.3,0.8,1.8,1.3c0.7,0.5,1.2,1,1.8,1.4c0.6,0.4,1.3,0.5,2,0.9c0.4,0.2,1.4,0.9,1.9,1.3c0.5,0.4,1.9,1.5,2.2,0.8
	c0.2-0.5-1.2-2-1.5-2.2c-0.5-0.4-1.4-0.5-1.9-0.8c-0.5-0.3-1-0.7-1.4-1.1c-0.5-0.4-0.9-0.7-1.4-1c-0.5-0.3-1-0.6-1.5-0.9
	c-0.5-0.3-0.9-0.7-1.4-1.1c-0.6-0.4-1.2-0.5-1.7-0.9c-0.5-0.4-1.1-0.7-1.6-1.1c-0.5-0.5-0.8-1.2-1.4-1.7c-0.2-0.2-0.5-0.4-0.8-0.6
	c-0.4-0.4-0.7-0.7-1.1-1c-0.6-0.3-1.2-0.4-1.8-0.7c-0.9-0.4-1.4-1.2-2.3-1.9c-0.8-0.6-1.9-1.2-2.7-2c-0.8-0.9-1.5-1.7-2.3-2.2
	c-0.3-0.2-0.9-0.3-1.2-0.6c-0.7-0.5-1.3-1.4-2-2.1c-0.7-0.6-1.6-1-2.2-1.5c-0.6-0.5-1.1-1.1-1.6-1.6c-0.5-0.5-1.2-0.8-1.8-1.3
	c-1-0.8-2.9-2.5-3.2-3.5c-0.2-0.8,0.9-0.9,0.7-1.6c-0.1-0.4-0.6-1-0.7-1.4c-0.3-0.8-0.1-1.5-0.1-2.2c0-0.8-0.2-1.7,0.6-1.7
	c0.7,0.1,0.9,1.3,1.1,2c0.2,0.8,0.1,1.6,0.4,2.2c0.2,0.4,0.6,0.8,1,0.8c0.6,0,0.6-0.9,1.2-1.2c0.5-0.3,1.3-0.3,1.7-0.5
	c0.6-0.4,0.1-1.7,0.6-1.9c0.4-0.2,1.2,0.3,1.7,0.3c1.4-0.2,0.6-1.5,0.5-2.8c0.5-0.6,1.3,0.3,2-0.1c1.4-0.7-1.5-3.8-2.2-4.5
	c0.3-0.1,0.3-0.3,0.5-0.4c1.1,1.2,2.1,2.2,3.5,2.2c1.1,0,1.1-0.8,1.8-1.4c0.2-0.2,0.6-0.3,0.9-0.5c0.7-0.5,1.9-1.7,1.7-2.7
	c-0.1-0.6-0.6-1.7-1.3-2.2c-0.3-0.2-1-0.3-1.3-0.6c-0.8-0.5-2.2-2.4-3.3-2.1c-1.4,0.3-0.2,2.4-0.6,3.3c-0.8,0.1-1-0.9-1.3-1.5
	c-0.4-0.6-1-1-1.3-1.5c-0.3-0.4-0.4-0.9-0.7-1.3c-0.3-0.4-0.8-0.7-1-1.1c-0.4-0.7-0.7-1.5-1.1-2.1c-0.4-0.7-0.5-1.5-1-2.2
	c-0.3-0.5-0.9-0.7-1.4-1.2c-0.7-0.7-0.7-1.6-1.1-2.3c-0.2-0.3-1.6-1.8-0.9-2.1c0.4-0.2,1.3,0.8,1.6,0.8c1.3,0.2,2.1-1.2,3.7-1.2
	c0.7,0,2.3,0.5,2.8,1.1c0.4,0.4,0.5,1,0.9,1.4c0.3,0.4,0.6,0.8,0.9,1.2c0.3,0.4,0.7,0.6,1,1c0.4,0.4,0.6,0.8,0.9,1.2
	c0.6,0.7,1.5,1.1,2.1,1.8c0.9,1.1,2,1.6,2.8,2.9c0.7,1.2,0.8,1.8,1.9,2.3c0.5,0.2,1.1,0.4,1.7,0.6c0.8,0.3,1.7,1.1,2.5,0.7
	c1-0.5-0.8-1.7-1.2-2c-1.1-0.7-2.1-1.3-3.3-2c-0.8-0.5-1.4-0.5-1.9-1.2c-0.2-0.3-0.3-0.6-0.5-0.9c-0.3-0.4-0.8-0.8-1.2-1.2
	c-1.1-1.2-2-2.9-3.1-4.4c-0.3-0.4-0.8-0.8-1.2-1.2c-1.1-1.2-2.2-3.5-3.4-4.3c-0.4-0.3-1.4-0.2-1.7-0.7c-0.3-0.5-0.2-1.1-0.6-1.7
	c-0.9-1.2-2.1-1.2-3.4-2.4c-0.7-0.6-1-0.9-1.6-1.4c-0.6-0.4-1.3-1.1-1.8-0.9c-0.9,0.4,0.8,1.8,0.8,2.3c-0.9,0.4-1.7-1-2.4-1.7
	c-0.3-0.3-0.9-0.6-1.4-1c-0.4-0.4-0.8-0.9-1.2-1.3c-0.7-0.6-2-2.3-2.7-2.1c-0.8,0.2,0.1,1.4,0.3,2.3c-1-0.4-1.5-2.3-2.2-3.5
	c-0.2-0.4-0.6-0.7-0.8-1.1c-0.2-0.5-0.3-1-0.4-1.6c-0.1-0.5-0.4-1-0.6-1.7c-0.3-0.8-0.6-2.7,0-2.7c0.6-0.1,1.5,1.2,2,1.9
	c0.6,0.8,1.3,1.7,1.8,2.2c0.6,0.6,1.4,1.1,2,1.8c0.7,0.7,1.3,1.6,1.9,1.9c0.3,0.2,1,0.4,1.2,0.1c0.2-0.4-0.6-1.6-1-2.1
	c-0.5-0.7-0.9-1.5-1.2-2.2c-0.7-1.9-1.9-3.7-2.6-5.5c-0.3-0.6,0-1.1-0.1-1.8c0-0.5-0.3-1.3,0.1-1.4c0.4-0.2,1.1,0.2,1.4,0.7
	c0.3,0.5,0.2,1.2,0.6,1.7c0.6,0.9,1.3,1.6,1.9,2.8c0.5,1,1.2,2.1,1.8,2.9c0.5,0.6,1.2,1.1,1.8,1.7c0.6,0.6,1.1,1.2,1.7,1.8
	c0.5,0.6,1.2,1.1,1.7,1.7c0.5,0.7,1,1.4,1.5,2.1c1.1,1.4,2.2,2.4,3.5,3.3c0.7,0.5,1.2,1,1.8,1.4c0.6,0.4,1.3,0.5,2,0.9
	c1.2,0.7,2.5,2.3,3.4,3.7c0.9,1.5,2.3,2.7,3.2,4.1c0.5,0.7,0.8,1.5,1.5,2.1c0.7,0.7,1.9,1.3,1.8,2.4c-0.5,0.6-2.1-0.4-2.7-1
	c-0.3-0.3-0.4-0.6-0.6-0.9c-0.4-0.6-1.2-0.9-1.5-1.4c-0.8-1.5-2.1-2.9-3.2-4.1c-0.5-0.6-1-1-1.7-1.7c-0.6-0.7-1.3-1.6-1.8-1.5
	c-0.6,0.2,0.3,1.8,0.5,2.3c0.3,0.7,0.9,1.3,1.3,1.9c0.5,0.7,1.1,1,1.4,1.5c0.2,0.4,0.2,0.8,0.6,1.3c0.3,0.5,1,1,1.5,1.5
	c0.5,0.5,0.9,1.2,1.4,1.8c0.5,0.5,1,0.9,1.6,1.4c0.6,0.5,1.1,1,1.6,1.5c0.3,0.3,0.7,0.5,1,0.8c0.7,0.7,1,1.3,2,1.4
	c1.4-0.1,1.4-0.8,2.1-1.5c0.7-0.6,1.9-1.1,1.3-2.3c-0.3-0.6-1.2-1.1-1.7-1.7c-0.6-0.6-1.1-1.7-1.7-2.1c-1-0.9-2.2-1.5-3.2-2.6
	c-0.5-0.5-1.1-1-1.5-1.5c-0.4-0.5-2-2.2-1.5-2.8c0.4-0.4,1.8,0.4,2.8-0.1c0.6-0.3,0.2-0.9,0.4-1.6c0.1-0.4,1.1-0.9,0.6-1.6
	c-0.4-0.6-1.2-0.5-1.7-0.8c-0.8-0.5-1.6-1-2.5-1.4c-0.4-0.2-0.9-0.4-1.3-0.7c-1.2-0.7-2.4-1-3.8-2c-0.3-0.2-2.9-2.3-2.7-0.8
	c0.2,1.2,1.8,1.6,2.2,2.5c-0.2,0.2-0.6-0.2-0.9-0.4c-0.4-0.2-0.8-0.3-1.1-0.5c-0.6-0.4-1.2-1-1.8-1.5c-0.7-0.6-1.1-1.2-1.7-1.8
	c-0.5-0.4-1-0.7-1.4-1.1c-0.2-0.2-0.4-0.6-0.6-1c-0.5-0.7-1.6-1.9-2-2.6c-0.3-0.6-0.3-1.5-0.1-1.6c0.4-0.3,1.2,0.5,1.8,0.8
	c0.8,0.4,1.3,0.5,1.9,0.8c1.4,0.8,2.7,1.4,3.9,1.5c0.7,0,1.4-0.2,1.3-0.8c-0.2-1.2-2.6-1.9-3.3-2.6c-0.4-0.4-0.8-0.9-1.3-1.4
	c-0.9-0.9-1.8-1.9-2.7-2.8c-0.5-0.5-1.1-0.8-1.4-1.2c-0.3-0.3-1.2-1.6-1.4-1.9c-0.3-0.5-0.3-1.5-0.8-2.1c-0.2-0.2-0.5-0.4-0.7-0.7
	c-0.2-0.3-0.3-0.6-0.6-0.9c-0.3-0.5-0.9-0.8-1.2-1.3c-0.2-0.4-0.3-0.9-0.5-1.3c-0.4-0.7-0.7-1.3-0.9-2c-0.2-0.8-0.3-1.5,0.1-1.6
	c0.6-0.2,1.4,1.1,2.1,1.9c0.6,0.9,1.3,2.2,1.7,2.7c0.6,1.1,1.1,1.9,1.7,2.7c0.9,1.2,1.9,2.2,2.9,3.2c0.9,1,2,2.2,3.1,2.8
	c0.9,0.5,1.6,0.7,2.3,1.2c0.7,0.5,1.3,1.2,2.1,1.8c0.5,0.3,1.1,0.6,1.6,1c1,0.8,2,1.6,3.2,2.1c0.6,0.3,1.1,0.7,1.6,1
	c0.4,0.2,1.2,0.4,1.7,0.6c0.6,0.2,1.4,0.2,1.8,0.8c0.9,1.5-0.4,2.1-1.1,3c-0.4,0.6-0.3,1.8-0.7,2c-0.4,0.2-1.5-0.2-1.8-0.3
	c-0.5-0.2-1.1-0.6-1.7-0.8c-0.5-0.2-2.2-0.8-2,0.1c0,0.3,0.3,0.6,0.4,0.7c0.3,0.4,0.6,0.5,1.3,0.9c0.5,0.3,0.7,0.7,1.2,1
	c0.7,0.5,1.5,0.5,2.6,0.9c0.7,0.2,1.3,0.9,2.1,0.7c0.6-0.2,0.9-1,1.1-1.4c0.2-0.5,0.6-1,0.7-1.6c0-0.6-0.1-1.2-0.1-1.8
	c-0.1-0.9-0.6-2.8,0.8-2.7c0.5,0,0.8,0.3,1.1,1.3c-0.1,1.1-0.5,2.3-0.7,3.4c-0.1,0.4-0.3,0.7-0.3,1.1c0.1,0.9,0.8,2.4,1.5,2.5
	c0.9,0.1,1.5-1.1,1.6-1.7c0.1-0.4,0.1-0.8,0.1-1.2c0.1-0.4,0.2-0.7,0.2-1.1c0.1-0.9-0.4-2-0.1-3c0.1-0.3,0.4-0.6,0.6-1
	c0.2-0.4,0.3-0.8,0.5-1.1c0.2-0.3,0.5-0.6,0.7-1c0.3-0.5,0.3-0.9,0.9-1.2c1.2-0.6,3.9-1.1,4,0.9c0.1,1-1.1,1.2-1.2,2.1
	c0,0.3,0.3,0.7,0.4,1.2c0.2,0.6,0.1,1.3,0.1,1.9c0,0.6,0,1.2-0.1,1.8c-0.1,0.6-0.4,1-0.5,1.7c-0.2,1.1-0.6,2.2-0.6,3.5
	c0,0.7,0.3,2.3,1.2,2.5c0.7,0.1,1.4-0.6,1.8-1c1.2-1.2,0.4-3.2,0.6-4.8c0-0.3,0.2-0.6,0.2-0.9c0-0.4-0.2-1.1-0.1-1.5
	c0.1-0.4,0.4-0.5,0.5-0.8c0.3-0.9-0.3-1.8-0.3-2.9c0-0.5,0.2-1.4,0.4-1.8c0.2-0.3,0.8-0.7,1.4-0.5c1.2,1.1-0.3,1.6-0.3,2.4
	c0,0.3,0.1,0.6,0.1,1c0,0.4-0.2,0.8-0.2,1.2c0,0.5,0.2,1,0.2,1.5c0,1.3-0.1,2.6-0.2,3.9c0,0.8,0,1.8-0.3,2.5c-0.2,0.4-0.5,0.6-0.6,1
	c-0.1,0.7,0.5,2.3,1.4,2.4c0.8,0.1,1.3-0.7,1.4-1.4c0-0.4-0.1-0.8-0.1-1.1c0.1-0.4,0.8-0.7,0.9-1.2c0.1-0.8,0-2.2-0.1-3.1
	c0-0.4-0.1-0.8-0.1-1.1c0-0.5,0.3-0.9,0.3-1.5c0-0.5,0-1.1,0.1-1.6c0.1-0.5,0.2-1,0.3-1.5c0.1-0.5,0.1-1.1,0.2-1.5
	c0.2-0.8,1.1-1.6,2.1-1.6c0.2,0.7-0.4,1-0.6,1.6c-0.5,1.1-0.7,2.5-0.6,4.2c0,0.8-0.1,1.5,0,2.2c0.1,0.8,0.2,1.7,0.4,2.5
	c0.2,0.9,0.5,1.7,0.7,2.6c0.3,1.1,0.5,2.6,1.8,2.9c0.6,0.1,1.3-0.4,1.2-0.9c-0.2-0.8-1.1-1-1.4-1.8c-0.3-0.6-0.1-1.3,0-2
	c0.1-1.3-0.4-2.7-0.1-3.9c0.1-0.6,0.4-1.1,0.5-1.6c0.1-0.7,0.1-1.2,0.2-1.8c0.2-0.6,0.4-1,0.5-1.6c0.1-0.5,0.3-1.1,0.5-1.6
	c0.7-1.2,1.1-2.3,2.4-3.3c0.3-0.3,0.7-0.5,1-0.8c0.3-0.3,0.5-0.6,0.8-0.9c0.6-0.6,1.5-0.9,2.1-1.6c0.6-0.6,1.3-1.4,2.4-0.9
	c0.6,0.6,0.1,1.1-0.2,1.5c-1,1.1-2.4,1.9-3.7,2.9c-0.4,0.3-0.7,0.7-1,1.1c-0.9,1.1-2.2,2.1-3,3.2c0,0.9-0.5,1.6-0.8,2.3
	c-0.3,0.6-0.3,1.8-0.3,2.6c0,1.4-0.2,2.7,0.1,4.2c0.1,0.5,0.2,1.1,0.4,1.6c0.3,0.7,1.2,2.1,1.8,2c0.7-0.1,0.3-1.2,0.3-1.7
	c0-0.5,0.2-1,0.2-1.5c0-1.1,0-2.1,0.1-3.2c0.1-1,0-2,0.6-2.7c-0.1-2.1,0.9-3.7,2.2-5.2c0.3-0.4,1-1.4,1.6-0.8c0.4,0.4,0,1.2,0,1.5
	c-0.1,0.5-0.1,1.1-0.4,1.4c-0.2,0.3-0.8,0.4-1.1,0.7c-0.3,0.3-0.4,0.9-0.7,1.5c-0.2,0.5-0.5,1.1-0.6,1.5c-0.2,0.5-0.1,1.1,0,1.8
	c0,0.7-0.3,1.3-0.3,1.7c0,0.4,0.2,1.1,0.3,1.6c0.1,0.6,0.2,1.3,0.4,1.6c0.4,0.8,1,1,1.4,0.9c0.9-0.2,0.2-2,0.2-3
	c0-0.3,0.5-1.8,0.6-2.1c0.2-0.2,0.9-0.5,1-0.7c0.4-0.5,0.2-1.8,0.1-2.5c-0.1-0.9-0.1-1.8,0.3-2.4c0.3-0.4,0.9-1.1,1.5-0.9
	c0.7,0.2,0.7,1.3,0.7,1.8c-0.1,1-0.2,1.7-0.2,2.6c0,0.6,0,1.1,0,1.8c0,0.3-0.1,0.7,0,0.9c0,0.2,0.2,0.7,0.3,1c0.1,0.8-0.2,2,0.6,2.7
	c0.1,0.1,0.2,0,0.2,0.1c1.1-0.3,2.1-0.2,3,0.5c0.4,0.3,0.8,1,1.4,1c1.4-0.1,1-2.8,0.8-3.8c-0.4-1.8,0-2.8-0.2-4.4
	c-0.2-1.1,0.4-1.8,0.6-2.9c0-0.3,0-0.7,0-1.1c0.1-0.7,0.3-1.3,0.6-1.8c0.3-0.6,0.9-0.9,1.1-1.5c0.3-0.6,0.2-1.4,0.6-1.9
	c0.3-0.3,0.7-0.5,1-0.9c0.6-0.9,0.9-2.7,2.4-2.9c1.5,1.2,0,1.9-0.6,2.7c-0.4,0.5-0.6,1.3-0.9,1.7c-0.3,0.4-0.7,0.6-0.9,1
	c-0.2,0.4-0.2,1-0.4,1.5c-0.3,0.9-1,1.8-1.1,2.8c0,0.6-0.1,1-0.3,1.5c-0.4,1-0.3,2.1-0.4,3.2c-0.1,1.2,0.4,2.4,1.1,4
	c0.3,0.7-0.5,1.3,0.4,2c1-0.4,0.5-1.5,0.6-2.4c0.1-0.6,0.3-1.2,0.4-1.9c0-0.7,0-1.4,0-2.1c0.2-1.3,0.2-2.7,0.5-3.9
	c0.2-0.6,0.7-1,0.9-1.6c0.3-0.6,0.3-1.3,0.5-1.8c0.3-0.6,0.6-1.1,0.9-1.6c0.4-0.5,1-0.7,1.6-1.1c0.3-0.2,0.6-0.7,0.9-1
	c0.3-0.3,0.7-0.7,1.1-0.9c0.7-0.2,1.5,0.2,2.3,0c0.6-0.2,1.1-1,0.9-1.7c-0.5-1.7-2.6-1.5-3.5-1.9c-0.3-0.1-0.6-0.5-1-0.8
	c-0.9-0.8-2.3-1.3-3.1-2.2c-1.2-1.2-1.3-2.8-0.9-3.8c0.5-1.3,0.9-2.1,2.3-2.9c0.6-0.4,1-0.9,1.4-1.3c0.9-0.8,2.9-1.5,4.4-1.3
	c1.5,0.3,2.4,2.4,4.1,2.2c0.9-0.1,1.5-0.9,1.2-1.9c-0.3-0.7-0.7-1.8-1.2-2.3c-0.5-0.6-1.2-0.7-2.1-1.1c-0.9-0.4-1.5-0.7-2.4-0.8
	c-0.8,0-1.4,0.3-2.3,0.6c-1.4,0.5-2.8,0.8-3.8,1.4c-0.7,0.4-1.6,0.6-2.1,1.1c-0.3,0.3-0.4,0.9-0.7,1.4c-0.5,0.9-1.1,1.8-1.7,2.6
	c-0.4,0.6-1.5,1-1.5,1.8c0,1.1,0.9,1.9,1.4,2.7c0.2,0.3,0.2,0.6,0.4,0.9c0.3,0.5,0.8,0.7,0.9,1.2c0.2,0.6-0.1,1.6-0.4,2
	c-0.4,0.5-0.9,0.8-1.3,1.4c-0.3,0.5-0.6,1-0.9,1.6c-0.3,0.4-0.4,1.1-0.9,1.6c-0.3,0.3-1.4,1.1-1.9,0.5c-0.2-0.3,0.1-0.6,0.3-1
	c0.1-0.4,0.1-0.8,0.3-1c0.1-0.3,0.3-0.6,0.4-1c0.1-0.5,0.1-0.9,0.4-1.2c0.5-0.7,1.8-1.1,1.5-2.2c-0.1-0.5-0.5-0.8-1-0.8
	c-0.6,0.1-0.7,0.8-1.1,1.2c-0.3,0.3-0.8,0.6-1.2,1.1c-0.6,0.7-0.9,1.9-2.5,1.3c-0.5-1.2,1-1.7,1.4-2.6c0.3-0.6-0.1-1.4,0.2-1.8
	c0.3-0.5,1.6-1,0.9-2c-0.3-0.5-0.9-0.4-1.3-0.1c-0.6,0.3-0.9,0.9-1.3,1.5c-0.5,0.9-1,2.1-2.7,2.2c-0.8,0.1-1.4-0.6-2.3-0.3
	c-0.4,0.1-0.7,0.6-1.1,0.9c-0.4,0.2-0.8,0.3-1.1,0.5c-0.3,0.2-0.5,0.7-0.8,1c-0.5,0.4-1.1,0.6-1.6,1c-0.5,0.5-0.7,1.1-1.2,1.6
	c-0.5,0.4-1.2,0.8-1.6,1.3c-0.8,0.9-1.2,2.6-2.8,3c-0.6-0.8-0.5-1.7-0.1-2.2c0.4-0.6,0.9-0.9,1.2-1.6c0.3-0.6,1-0.9,1.5-1.4
	c0.9-0.9,1.8-1.9,2.9-2.9c1.1-1,2.2-1.7,3.9-2.3c0.8-0.3,1.4-0.8,2.1-1.1c1-0.4,4.2-0.9,2.9-2.2c-0.5-0.5-1.7,0.1-2.1-0.3
	c-0.2-0.5,0.3-0.6,0.5-0.9c0.4-0.4,0.9-1,1.2-1.6c0.1-0.3,0.3-0.6,0.5-0.8c0.4-0.5,1.2-0.8,1.7-1.3c0.8-0.8,0.9-2.2,1.7-2.9
	c0.4-0.4,1.2-0.8,1.7-1.2c0.5-0.4,1-0.8,1.5-1.3c0.5-0.4,1.1-0.8,1.6-1.2c1-0.9,1.7-1.7,3.8-1.7c0.4,0,0.9,0.2,1.4,0.2
	c1-0.1,1.8-0.5,2.7-0.5c0.8,0,1.6,0.2,2.4,0.1c0.4,0,0.6-0.3,1-0.3c0.3,0,0.7,0.4,1.2,0.6c0.4,0.2,0.8,0.2,1.1,0.3
	c0.6,0.3,1.4,1,2,1.4c0.3,0.3,0.7,0.5,1,0.8c0.4,0.3,0.7,0.5,1,0.7c0.6,0.5,1.2,1.6,1.9,1.4c0.7-0.2,1.1-1.5,0.7-2.4
	c-0.2-0.5-0.7-0.8-1.1-1.5c-0.5-0.8-0.6-1.7-1-2.1c-0.3-0.3-0.8-0.5-1.2-0.9c-0.9-0.8-1.2-1.8-2.2-2.2c-0.8-0.3-2.4-0.6-2.9-0.5
	c-0.4,0.1-0.6,0.3-0.9,0.3c-0.6,0-1.1-0.6-1.8-0.7c-0.4,0-0.9,0.1-1.5,0.1c-0.6,0-1.4-0.3-1.9-0.2c-0.2,0-0.4,0.2-0.6,0.2
	c-1,0.2-2.4,0.1-3.6,0.2c-1.2,0.2-2.5,0.3-3.7,0.4c-0.4,0-0.8-0.1-1.1,0c-0.3,0-0.7,0.2-1.1,0.2c-1.3,0-3-0.3-4.4-0.3
	c-0.8,0-1.5,0-2.2-0.2c-1.3-0.3-2.8-0.4-3.8,0.5c-0.4,0.3-0.5,0.8-0.3,1.3c0.6,1.2,2.1,1,3.2,1.4c0.4,0.1,1,0.4,1.7,0.6
	c0.7,0.2,1.4,0.4,1.6,0.8c0.4,0.8-1.3,1.6-1.9,2.1c-0.8,0.7-1.4,1.3-1.8,2.1c-0.6,1.3-1.1,2.5-1.7,3.7c-0.2,0.4-0.4,0.9-1,0.8
	c-0.8-0.7,0-1.1,0.1-1.7c0.2-1.8-2-5.1-3.3-6.2c-0.8-0.7-2.1-1.2-3.1-1.9c-0.5-0.3-1-0.6-1.5-1c-0.5-0.3-1.1-0.6-1.5-1
	c-0.5-0.4-0.7-0.8-1.2-1.2c-1.2-0.8-2.7-1.9-4-2.4c-0.4-0.2-0.9-0.2-1.3-0.4c-1.1-0.5-2.3-1.1-3.5-1.5c-0.8-0.3-1.6-0.4-2.5-0.7
	c-2.4-0.8-4.9-1.6-7.6-1.9c-1.3-0.1-2.5-0.6-3.8-1c-0.9-0.3-1.5-0.2-2.5-0.4c-0.8-0.1-1.3,0-2.3-0.1c-0.8,0-1.8-0.4-2.8-0.5
	c-0.7,0-1.4,0.1-2.1,0.1c-0.8,0-1.5,0-2.3,0.1c-0.6,0-1.3-0.2-2-0.2c-1,0-1.8,0.4-2.7,0.3c-0.4,0-0.9-0.2-1.3-0.3
	c-0.9-0.1-1.8-0.1-2.8-0.2c-1.2-0.2-3.7-0.7-3.5,0.7c0.1,0.8,0.8,1.2,1.3,1.8c0.3,0.3,0.5,0.7,0.8,1c0.5,0.6,1.2,1.1,1.8,1.7
	c1.2,1.3,2.3,2.7,3.5,3.7c0.7,0.5,1.3,0.7,1.8,1.2c0.4,0.4,0.6,0.9,1,1.3c0.3,0.4,0.9,0.8,1.4,1.2c0.6,0.5,0.9,1.1,1.4,1.6
	c0.6,0.6,1.4,0.8,2,1.4c0.3,0.3,0.6,0.6,0.9,0.9c0.3,0.3,0.5,0.6,0.8,1c1,1.1,2.7,2,3.8,3c0.6,0.5,1.3,0.9,2,1.4
	c0.6,0.5,1.3,0.9,1.9,1.4c0.6,0.4,1.3,0.7,2,1.2c0.6,0.5,1.4,1.2,1.9,1.5c0.4,0.2,1,0.1,1.4,0.3c0.3,0.1,0.5,0.4,0.7,0.5
	c1.2,0.7,2.6,1.3,4,1.7c0.6,0.2,1.1,0.1,1.8,0.2c1.4,0.2,2.3,1.3,3.5,2.2c0.9,0,1.4-0.6,2.5-0.7c0.5,0.2,2.4,0.4,2.6,1.2
	c0.1,0.3-0.4,0.6-0.7,0.8c-0.6,0.6-1.6,1.6-2.7,1.9c-1,0.4-2.3,0.1-2.9-0.6c-0.6-0.6-0.5-1.2-1.2-1.4c-0.8-0.2-1.8,0.4-2.5,0.3
	c-0.5-0.1-1.2-0.3-2-0.4c-0.7-0.1-1.4-0.2-2-0.4c-1.4-0.6-2.6-1.6-3.8-1.3c-0.6,0.1-0.7,0.6-0.5,1c0.3,0.6,1,0.7,1.7,0.9
	c0.7,0.2,1.2,0.6,1.6,0.8c0.6,0.3,1.2,0.4,1.7,0.7c0.5,0.2,1.2,0.5,1.4,1.2c-0.9,0.7-2.3-0.3-3.5-0.6c-0.4-0.1-0.9,0-1.3-0.1
	c-0.6-0.2-1.9-1.5-2.6-1.8c-0.9-0.5-1.8-0.7-2.6-1.3c-0.3-0.2-2.1-2.2-2.4-1c-0.1,0.4,0.7,0.9,1.2,1.3c0.9,0.7,1.6,1,2.5,1.7
	c1.2,0.9,2.2,1.6,3.9,1.3c0.6,1,1.8,1.4,2.3,2.5c-1.5,0.6-2.6-1.1-4-1.6c-0.4-0.1-0.8-0.1-1.2-0.3c-0.9-0.4-1.8-1.4-2.9-2
	c-0.7-0.4-2.4-1.5-3.2-1.1c-1.2,0.6,1.8,2.6,2.5,2.9c1.2,0.7,2,1.5,3,2c1.1,0.4,2.3,0.8,3.3,1.3c0.5,0.3,1.1,0.4,1.6,0.7
	c0.6,0.3,1.1,0.7,1.5,0.9c0.6,0.2,1.9,0.2,2.2,0.7c0.3,0.5-0.2,0.9-0.7,1c-0.7,0.1-1.9-0.7-2.5-0.9c-1-0.4-1.8-0.5-2.5-1
	c-0.4-0.3-0.7-0.6-1.1-0.9c-1.1-0.7-2.4-1.1-3.6-1.8c-1.2-0.7-2.2-1.5-3.3-2.3c-0.4-0.3-0.6-0.6-1-1c-0.4-0.3-0.9-0.5-1.3-0.9
	c-0.5-0.4-0.8-0.9-1.3-1.2c-0.9-0.7-1.7-1.8-2.4-2.8c-0.4-0.6-0.5-1.2-0.9-1.9c-0.2-0.5-0.7-0.9-1-1.4c-0.5-0.8-0.6-1.9-1.2-2.9
	c-0.2-0.4-0.5-0.5-0.7-0.8c-0.5-0.8-1.5-2.7-0.6-2.9c0.2-0.1,0.6,0.2,1.1,0.4c0.4,0.2,0.7,0.3,1,0.5c1.1,0.5,2.2,1.8,3.3,0.8
	c0.9-0.8-1.1-2.2-1.9-2.9c-0.3-0.3-0.7-0.6-1.1-0.9c-0.4-0.3-0.9-0.6-1-0.8c-0.2-0.3-0.3-0.8-0.6-1.1c-0.6-0.8-1.6-1.8-2.4-2.5
	c-0.4-0.4-0.9-0.7-1.2-1.1c-0.4-0.5-0.6-1-1-1.6c-0.6-0.9-2-1.9-2.9-2.6c-0.5-0.4-1-0.7-1.5-1.1c-0.5-0.4-1.2-0.6-1.6-1
	c-1.1-1.1-1.7-2.5-2.7-3.6c-0.3-0.3-0.8-0.6-1.2-1c-0.4-0.4-0.8-0.8-1.2-1.1c-1-0.7-2.2-0.7-3.2-1.2c-1.1-0.5-2.4-0.9-3-1.5
	c-0.8-0.8-1.2-2.4-0.3-2.6c0.6-0.1,2.3,1,3,1.2c1.2,0.3,2.4-0.1,3.9,0c0.8,0.1,1.6,0.6,2.5,0.7c0.9,0.1,1.9,0,2.7,0.2
	c0.9,0.1,1.8,0.6,2.7,0.7c1,0.1,1.9,0,3,0c0.7,0,1.3,0.4,2,0.4c0.6,0.1,1.2,0,1.8,0.1c0.6,0.1,1.2,0.3,1.7,0.3
	c0.8,0,1.4-0.1,2.1-0.1c0.6,0,1.2,0.3,1.8,0.3c0.7,0,1.4-0.1,2.1-0.1c0.5,0,1,0.2,1.4,0.3c1,0.1,1.9-0.1,2.8,0
	c1.3,0.1,2.7,0.1,3.9,0.3c0.8,0.1,1.7,0.2,2.5,0.4c0.8,0.1,1.7,0.2,2.5,0.4c0.7,0.2,1.3,0.6,2,0.8c0.4,0.1,0.9,0.1,1.3,0.2
	c0.5,0.1,1.1,0.4,1.6,0.5c1.5,0.4,3.1,1.4,5,1c0.9-0.8-1.9-2.7-1-3.3c0.5-0.3,2.1,0.6,2.7,0.9c0.9,0.4,2.1,0.9,2.8,0.5
	c0.8-0.5-0.5-2-1.4-2.7c-0.7-0.6-1.4-0.8-2-1.4c-0.3-0.3-0.6-0.9-1-1.2c-0.7-0.7-1.7-1.2-2.4-1.9c-0.4-0.4-0.6-0.8-1-1.3
	c-0.3-0.4-0.8-0.7-1.1-1.1c-0.2-0.3-0.3-0.7-0.5-1c-0.4-0.6-1-1.2-1.5-1.8c-0.5-0.6-1-1.1-1.5-1.7c-0.7-0.9-1.4-1.9-2.1-3
	c-0.7-1-1.5-1.9-2.1-2.9c-0.7-1.1-1.3-2.1-2-3.1c-0.8-1-1.5-2-2-3.1c-0.3-0.7-0.6-1.3-0.9-1.9c-0.3-0.6-0.7-1-1-1.6
	c-0.7-1.2-1.2-2.5-1.7-3.7c-0.2-0.6-0.4-1.2-0.7-1.8c-0.4-0.6-0.7-1-0.9-1.7c-0.2-0.6-0.3-1.2-0.5-1.7c-0.2-0.5-0.7-1.1-0.6-1.7
	c0.4-0.3,0.9,0.2,1.2,0.5c0.4,0.3,0.8,0.6,1.2,0.9c0.4,0.3,0.7,0.7,1.1,1c0.4,0.3,0.8,0.6,1.1,0.9c1.1,1,1.9,2.7,3.1,3.6
	c0.4,0.3,0.9,0.4,1.2,0.7c0.5,0.5,0.7,1.1,1,1.5c0.6,0.7,1.5,1.4,2.4,1.9c0.4,0.3,0.9,0.4,1.3,0.7c0.6,0.5,1.1,1.3,1.7,1.9
	c0.4,0.4,1.1,0.6,1.7,1c0.5,0.4,0.9,1,1.4,1.3c0.4,0.3,0.9,0.4,1.3,0.7c0.6,0.4,1.2,0.9,1.8,1.3c0.7,0.4,1.3,0.8,1.9,1.1
	c0.4,0.2,0.9,0.3,1.3,0.5c0.8,0.4,1.7,0.8,2.4,1.3c0.4,0.3,0.7,0.7,1.1,0.9c1.2,0.8,2.8,1,4.3,1.6c0.8,0.3,1.6,0.8,2.3,1.2
	c0.8,0.4,1.6,0.6,2.4,0.9c1.7,0.6,2.9,2.2,4.6,2.9c0.6,0.3,1.4,0.3,2,0.6c0.4,0.2,1.7,1.1,2,1.4c0.5,0.7,0.9,1.6,1.5,2.3
	c0.2,0.3,0.6,0.5,1,0.8c0.3,0.3,0.6,0.6,0.9,0.9c0.6,0.7,1,1.5,1.6,2.1c0.4,0.4,1.1,1.2,1.7,2c0.7,0.8,1.4,2,2.2,1.4
	c0.6-0.5,0.2-2.7,0.1-3.9c0-0.6,0.1-1.2,0.2-1.9c0.1-0.7-0.1-1.4-0.1-2c0-0.6,0.2-1.3,0.3-1.8c0.1-0.4,0.3-0.7,0.4-1
	c0.1-0.3,0.1-0.8,0.2-1.1c0.2-0.7,0.4-1.5,0.4-2.3c0-0.4-0.6-1.5-0.5-1.8c0.1-0.3,0.8-0.4,1.2-0.6c1.3-0.6,0.8-1.7,1.3-2.8
	c0.3-0.7,1.1-1.3,1.8-1.7c0.8-0.5,2-0.8,2.9-0.9c0.9,0.9-0.1,1.7-0.4,2.3c-0.1,0.3-0.1,0.5-0.3,0.8c-0.5,0.8-1.1,1.6-0.9,2.7
	c0.1,0.5,0.6,1,0.5,1.5c-0.1,0.5-1.4,0.7-1.7,1.2c-0.2,0.4-0.5,1.2-0.7,1.8c-0.3,0.8-0.7,2.1,0.6,2.6c1.3-0.5,2.2-1.6,3.2-2.4
	c0.4-0.3,0.9-0.5,1.1-0.9c0.2-0.4,0.1-0.8,0.2-1.2c0.3-1.1,1.4-1.8,2.3-2.7c0.5-0.5,0.9-1.2,1.5-1.7c0.6-0.6,1.2-1.1,1.7-1.6
	c0.5-0.5,1.1-0.9,1.9-1.5c0.5-0.3,1.8-1.3,2.4-0.5c0.4,0.6-0.2,1.2-0.5,1.5c-0.4,0.4-1,0.7-1.4,1c-1.1,0.7-1.6,1.6-2.6,2.1
	c-0.3,0.1-0.8,0.2-1.1,0.3c-0.7,0.3-1.1,1-1.3,1.8c-0.2,0.7-0.4,1.5-0.6,2.2c-0.1,0.4-0.3,0.7-0.4,1.1c-0.1,0.4-0.1,0.7-0.2,1.1
	c-0.3,0.9-1.2,2.2,0.1,3.1c1.3,0,1.1-1.3,1.4-2c0.2-0.4,0.6-1,1-1.4c0.7-1,1.4-1.8,2.2-2.7c0.4-0.4,1-0.7,1.6-1.1
	c0.4-0.3,2-2.3,2.7-1.1c0.5,0.8-0.4,1.7-0.8,2.1c-0.6,0.7-0.7,1.3-1.1,1.9c-0.5,0.8-1.4,1.4-1.6,2.4c-0.1,0.3,0,0.9-0.1,1.3
	c-0.2,0.5-0.7,1.9,0.5,2c1,0.1,1.1-1.2,1.4-1.5c0.7-0.7,1.2-1.5,2.2-2.1c0.4-0.6,1-1,1.4-1.6c0.5-0.6,1.1-1,1.6-1.5
	c0.5-0.4,0.5-1.3,1.4-1.2c0.6,0.1,1,1.1,1.6,1c0.8-0.2-0.2-1.3,0.2-1.5c0.5-0.2,0.9,0.9,1.5,0.9c0.7,0,1.9-1.2,2.3-1.5
	c0.6-0.5,1.4-1.3,2.1-1.6c0.4-0.1,0.9-0.2,1.3-0.3c0.7-0.3,1.6-0.9,2.7-0.7c0.4,0.1,1.9,0.9,2.1,1.4c0.4,0.9-1.2,1.9-1.9,2.4
	c-0.5,0.4-1.1,0.9-1.5,1.4c-0.2,0.3-0.2,0.6-0.4,0.9c-0.3,0.6-0.9,1-1.3,1.5c-0.3,0.4-0.4,0.9-0.7,1.3c-0.2,0.2-0.3,0.4-0.5,0.6
	c-0.1,0.2-0.1,0.5-0.3,0.7c-0.4,0.5-2.6,2.5-1.1,3.4c0.9,0.5,1.2-0.3,2.1-0.6c1.4-0.4,3.2,0.3,4.5-0.4c0.7-0.3,1.2-1,2.2-1.2
	c0.6-0.1,1.2-0.2,1.7-0.3c0.4-0.1,1-0.4,1.6,0c0.9,1.1-0.2,1.3-1.1,1.7c-0.7,0.3-1.1,0.6-1.7,0.9c-0.4,0.2-1.1,0.6-1.5,0.9
	c-0.4,0.4-1.3,0.9-1.2,1.3c0.1,0.5,0.7,1.1,0.6,1.6c-0.1,0.4-0.8,1.2-1.2,1.6c-0.4,0.6-0.7,1.2-1.2,1.6c-0.4,0.2-0.9,0.3-1.2,0.6
	c-0.3,0.3-0.7,1-0.8,1.5c-0.1,0.4,0.2,1.1,0.1,1.5c-0.3,1.1-1.1,2.3-0.2,3.5c0.3,0.5,1.1,0.8,1.8,1.3c0.6,0.4,1.2,0.8,1.9,0.9
	c0.7,0.1,2.1-0.1,2.5,0.7c0.5,1.1-1.9,1.6-1.4,2.6c0.5,1,3,0.3,4.3,0.2c1.5-0.2,3.1,0.1,4.3-0.1c1-0.2,1.9-0.5,2.9-0.4
	c1,0,1.9,0.1,2.8-0.1c1.9-0.4,4,0,5.7-0.4c0.5-0.1,1.3,0.1,1.9,0c0.4,0,0.8-0.2,1-0.1c0.8,0,1.8,0.8,2.8,1.1
	c1.6,0.4,3.3,0.4,4.3,1.8c0.4,0.6,0.7,1.3,1.1,2c0.3,0.7,0.7,1.2,1.1,1.8c0.6,0.9,1.1,2.3,1.7,3.3c0.3,0.5,0.2,1.2,0.5,1.9
	c0.3,0.7,0.8,1.2,0.9,1.8c0.1,0.7-0.1,1.2-0.1,1.8c0,0.3,0.5,1,0.6,1.4c0.2,0.5,0,1,0.2,1.5c0.1,0.5,0.6,1.1,0.7,1.7
	c0.1,0.5-0.3,0.9-0.2,1.5c0.1,0.7,0.3,1.4,0.3,2c0,0.6,0.1,1.3,0.2,2c0,1-0.3,2.2-0.4,3.2c-0.1,0.4,0,0.8-0.1,1.1
	c-0.1,0.3-0.4,0.5-0.6,0.9c-0.2,0.5-0.2,1-0.5,1.2c-0.9,0.8-2.4,0.3-3-0.7c-0.4-0.7-0.8-2-1-2.8c-0.5-1.7-0.5-3-1.9-4.4
	c-0.4-0.4-1.9-1.7-2.6-1.6c-0.9,0.2-0.5,1.6-0.6,2.5c0,0.3-0.2,0.6-0.1,0.8c0.1,0.3,0.4,0.8,0.5,1.1c0,0.3-0.3,0.8-0.4,1.2
	c-0.1,0.4-0.1,0.9-0.1,1.3c-0.2,0.9-0.6,1.8-0.6,2.5c0,0.7,0.4,1.5,0.4,2.3c0,0.8-0.9,2.1-1.8,1.4c-0.8-0.6-1.4-3.1-1.7-4
	c-0.4-1.2-1.3-2.8-2.2-3.8c-0.7-0.7-1.3-1.4-1.7-2c-0.6-0.9-1-2.5-2-2.2c-0.8,0.2-0.3,1.5-0.2,2.2c0,0.3,0,0.6,0,0.9
	c-0.1,0.6-0.3,1.1-0.4,1.6c0,0.3,0.1,0.7,0.1,1c0,0.4-0.2,0.7,0,1.1c1,1.9,0.6,3.7,0.4,5.1c-0.1,0.5-0.4,1-1.1,1
	c-0.6-0.1-0.7-0.5-1-1.4c-0.2-0.6-0.6-1-0.8-1.4c-0.2-0.5-0.3-1-0.5-1.4c-0.2-0.5-0.5-0.8-0.8-1.3c-0.5-0.6-1-1.6-1.7-2.6
	c-0.6-0.9-1.4-1.8-2-1.7c-1.2,0.2-1,2.2-0.2,3.7c0.4,0.7,0.2,1.8,0.1,2.6c0,0.8,0.1,1.6,0.3,2.5c0.2,0.7-0.1,0.9-0.2,1.6
	c-0.1,0.4,0.2,1.1-0.2,1.2c-0.4,0.1-0.9-0.7-1.4-1.6c-0.8-1.3-1.1-1.6-1.7-2.7c-0.3-0.6-0.9-1.2-1.4-1.8c-0.8-1-1.6-2.5-2.9-2
	c-0.7,0.2-0.9,1.5-0.9,2.2c0,0.7,0.5,1.2,0.7,1.9c0.1,0.3,0.2,0.7,0.3,1.1c0.1,0.3,0.4,0.7,0.5,1.2c0.2,0.8,0,1.8-0.6,2
	c-0.7,0.2-1.8-0.8-2.2-1.2c-0.6-0.7-1-1.6-1.7-2.3c-0.3-0.3-0.7-0.6-1-0.9c-0.8-0.8-1.8-2.4-3.2-1.7c-0.7,0.4-0.1,2.3,0.4,3.4
	c0.2,0.4,0.5,0.7,0.7,1.1c0.3,0.7,0.5,2.4,0.1,2.5c-0.4,0.2-1.3-0.5-1.7-0.7c-0.6-0.4-1.1-1-1.5-1.3c-0.3-0.3-0.9-0.7-1.2-0.6
	c-0.6,0.1-0.6,0.9-0.4,1.4c0.3,0.9,1.1,1.4,1.3,2.1c0.2,0.8-1.2,0.9-0.8,2c0.3,0.9,2.2,2.2,3.4,3c0.6,0.4,1.3,0.6,1.9,1
	c0.3,0.2,0.6,0.5,0.9,0.6c0.3,0.2,0.7,0.2,1,0.3c0.7,0.3,1.3,0.9,1.9,1c0.5,0.1,1,0.1,1.4,0.3c1.3,0.3,2.7,0.8,4.2,0.8
	c0.7,0,1.7,0.6,2.5,0.5c0.6-0.1,0.8-0.4,1.4-0.5c0.6,0,1.2,0.4,1.9,0.3c0.8-0.1,1.7-0.3,2.5-0.5c0.5-0.2,0.9-0.5,1.4-0.6
	c1.1-0.3,2.4,0.2,3.3,0c0.5-0.1,0.8-0.5,1.4-0.5c0.6-0.1,1.1-0.1,1.6-0.2c0.5-0.1,0.9-0.4,1.3-0.5c1.4-0.3,3.4-0.1,4.8,0
	c0.6,0.1,1.2-0.1,1.7-0.1c0.5,0.1,1.1,0.3,1.7,0.4c0.8,0.1,1.5-0.2,2,0c0.5,0.1,1.2,0.5,1.8,0.7c0.6,0.2,1.4,0.3,1.9,0.5
	c1.2,0.5,2.3,1.3,3.5,1.5c0.4,0.1,0.9,0.1,1.4,0.1c0.4,0.1,0.8,0.3,1.2,0.4c0.7,0.1,1.6-0.2,2.3,0c0.4,0.2,0.8,0.6,1.2,0.9
	c0.5,0.2,1,0.1,1.6,0.3c0.6,0.2,1,0.7,1.4,0.9c0.4,0.1,1,0,1.3,0.1c0.6,0.3,1.7,2.5,2.3,3.3c0.4,0.5,1.5,1.5,1.1,2
	c-0.1,0.1-0.9,0.4-1.5,0.2c-0.5-0.1-1.2-0.5-1.9-0.6c-0.6-0.1-1.4-0.3-2-0.2c-0.9,0.1-1.3,0.3-1.9,0.2c-0.5-0.1-1-0.3-1.4-0.3
	c-0.4-0.1-0.9,0-1.4-0.1c-0.4-0.1-0.8-0.4-1.2-0.4c-0.5-0.1-1.2,0-1.9,0.1c-0.6,0.1-1.4,0-1.8,0.1c-0.4,0.1-0.6,0.4-1.1,0.4
	c-0.7,0.1-1.8-0.4-2.5-0.5c-0.9-0.1-1.7-0.3-2.5-0.5c-0.6-0.2-1.3-0.5-2-0.6c-1.2-0.3-2.3-0.9-3.6-0.3c-0.5,0.2-0.7,0.7-1.4,0.7
	c-0.7,0-0.9-0.3-1.6-0.6c-0.4-0.2-1.4-0.5-1.5-1.2c-0.1-0.6,1-1.1,0.7-1.8c-0.2-0.5-1.7-0.6-2.4-0.5c-0.5,0.1-1,0.4-1.6,0.5
	c-0.5,0.1-1.1,0.3-1.7,0.4c-1.6,0.3-3.2-0.3-4.1,0.6c-0.4,0.4,0,1.1-0.9,1.2c-0.7,0-0.9-0.9-1.5-1.3c-0.8-0.6-2.5-0.4-3.8-0.6
	c-1-0.1-2.1-0.7-2.9-0.8c-1.7-0.3-2.8-0.7-4.4-1.3c-0.5-0.2-1-0.4-1.4-0.5c-1-0.2-1.9-0.3-2.8,0c0,1.4,1.7,1.4,2.1,2.5
	c0.2,0.6-0.3,0.9-0.4,1.5c-0.2,0.6,0,1.2-0.2,1.6c-0.2,0.4-0.9,0.5-0.7,1.1c0.3,0.7,1.8,1.1,2.6,0.9c0.7-0.2,0.6-0.8,1-1.2
	c0.2-0.2,0.7-0.5,1-0.7c0.3-0.1,0.7-0.1,1.1-0.2c0.6-0.2,1-0.6,1.5-0.6c0.8,0,1.5,0.7,1.7,1.6c0.1,0.4-0.1,0.9-0.1,1.4
	c0,0.5,0.3,1.1,0.4,1.7c0.1,0.7-0.3,1.4,0.2,2c0.3,0.4,0.8,0.9,1.6,0.8c1.6-0.2,2-1.7,2.7-2.4c0.4-0.4,0.9-0.8,1.4-1.2
	c0.5-0.5,0.8-1,1.5-1.2c0.6-0.2,1.8,0,2.2,0.5c0.5,0.6,0.9,2,1,2.7c0.1,0.6-0.1,1.1,0,1.7c0,0.6-0.2,1-0.2,1.5
	c0,0.7,0.1,1.5,0.1,2.2c0,0.8-0.4,1.5-0.3,2.1c0.1,0.7,0.4,2.6-0.2,3c-0.3,0.2-0.6,0.3-0.9,0.6c-0.4,0.3-0.6,1-1,1.3
	c-0.3,0.2-0.9,0.3-1.4,0.6c-0.4,0.3-0.6,0.8-1,0.8c-0.5,0.1-1.1,0-1.7-0.1c-0.6-0.1-1.3-0.1-1.7-0.1c-0.4-0.1-0.9-0.4-1.4-0.5
	c-0.5-0.1-1-0.2-1.5-0.4c-1-0.4-2.1-0.4-3-0.7c-0.6-0.2-1.2-0.7-1.9-0.8c-0.4-0.1-0.8,0-1.2-0.1c-0.4,0-0.7-0.2-1.1-0.3
	c-1-0.2-2.1-0.3-3-1c-1.5-0.2-3.2-0.9-4.9-1c-0.6,0-1.1,0.1-1.7-0.1c-0.7-0.2-1.5-0.5-2.1-0.8c-0.5-0.2-1-0.7-1.5-0.8
	c-0.3-0.1-0.8,0-1.2,0c-0.4-0.1-0.8-0.3-1.1-0.3c-0.8-0.1-1.6,0.1-2.4,0.1c-0.5,0-1-0.2-1.6-0.2c-0.6,0-1-0.1-1.6-0.2
	c-1-0.2-2-0.6-3-0.6c-0.6,0-1.1,0.1-1.7,0.1c-0.5,0-1-0.2-1.5-0.2c-1.1,0-2.2,0.1-3.3,0.2c-1.2,0.1-2.6-0.2-3.9-0.3
	c-1.5-0.1-2.7,0.5-4.3,0.6c-0.7,0.1-1.7-0.4-2.6-0.4c-0.4,0-0.8,0.1-1.3,0.1c-1.1,0-2.5,0-3.7,0.2c-1.4,0.2-2.6,0.5-3.8,0.4
	c-0.8-0.1-2.1-0.7-2.9-1.1c-0.3-0.2-0.6-0.4-0.9-0.6c-0.5-0.2-1-0.3-1.4-0.5c-0.4-0.2-0.8-0.7-1.2-1c-0.6-0.4-1-0.9-1.5-1.2
	c-0.6-0.3-1.2-0.4-1.8-0.6c-0.8-0.3-2.5-1.6-3.6-0.7c-0.1,0.1-0.3,0.4-0.1,0.8c0.2,0.5,0.6,0.6,1,1c0.4,0.3,0.7,0.8,1,1
	c0.5,0.5,1.2,0.9,1.8,1.2c0.6,0.4,1.5,0.6,1.5,1.4c0.1,0.1,0,0.1,0,0.2c-1.2,0.6-2.4-0.8-4-0.2c-0.2,0.1-0.6,0.4-0.9,0.6
	c-0.4,0.2-0.8,0.4-1,0.5c-0.6,0.6,0.3,1.4,0.4,2.3c0.1,0.5-0.3,0.7-0.4,1.1c-0.1,0.5,0,1.3,0.4,1.8c0.6,0.9,1.6,0.7,2.2,1.6
	c0.3,0.4,0.5,1,0.9,1.4c0.6,0.7,1.5,1,2.4,1.3c1.5,0.6,3.2,1.3,4.9,1.9c0.7,0.2,1.3,0.3,2,0.6c0.7,0.2,1.3,0.5,2,0.7
	c0.7,0.2,1.4,0.2,2.1,0.4c1.4,0.5,2.8,0.4,4.2,0.8c0.5,0.1,1,0.6,1.4,0.6c0.3,0,0.7,0,1,0c0.4,0.1,0.9,0.3,1.3,0.3
	c0.6,0.1,1.2,0.1,1.7,0.2c0.7,0.2,1.6,0.5,2.4,0.7c0.8,0.2,1.8,0.3,2.4,0.6c0.6,0.2,1.1,0.7,1.7,0.9c0.4,0.1,0.7,0,1.1,0.1
	c0.9,0.1,2.1,0.5,3.1,0.5c0.4,0,0.8-0.2,1.3-0.2c0.4,0,0.9,0.3,1.4,0.4c0.6,0.1,1.4,0,2.3,0.1c0.7,0.1,1.5,0.3,2.1,0.3
	c0.7,0,1.5,0,2.3,0c0.7,0,1.6,0.2,2.2,0.2c1.2-0.1,2.2-0.6,3.5-0.4c0.4,0,0.9,0.3,1.3,0.3c0.4,0,0.8-0.2,1.2-0.2
	c0.3,0,0.7,0.1,1.1,0.1c1-0.1,1.9-0.4,2.8-0.4c0.4,0,0.9,0,1.3,0c0.4,0.1,0.8,0.2,1.2,0.2c1,0,2-0.3,3-0.5c1-0.3,2.1-0.4,3.1-0.7
	c0.9-0.2,1.5-0.7,2.3-1.1c1.2-0.6,3-0.8,4.4-0.9c0.4,0,0.9,0.1,1.4,0.1c1.6-0.1,2.9-0.7,4.3-0.5c0.9,0.1,1.8,0.2,2.7,0.2
	c0.5,0,1,0,1.4,0.1c0.6,0.1,1,0.5,1.7,0.6c0.6,0.1,1.2-0.1,1.7,0c0.9,0.1,1.8,0.4,2.7,0.5c0.9,0.1,1.8,0,2.8,0.2
	c0.5,0.1,1.2,0.5,2,0.8c0.7,0.3,1.3,0.6,1.9,1c1.1,0.9,2.4,1.7,3.5,2.5c1.1,0.8,2.5,1.7,3.4,2.8c0.6,0.7,1,1.3,1.5,1.8
	c0.5,0.6,1.2,1,1.6,1.5c0.3,0.3,0.5,0.8,0.8,1.1c0.5,0.6,1.1,1,1.6,1.5c0.5,0.6,1.3,0.9,1.7,1.5c0.7,1,1.6,2.1,2.5,3.1
	c0.4,0.5,0.9,0.9,1.3,1.5c0.4,0.6,1,1,1.3,1.5c0.3,0.4,0.4,0.8,0.6,1.1c0.4,0.6,1,1,1.5,1.8c0.5,0.9,0.8,1.6,1.1,2.2
	c0.3,0.5,2.2,2.4,1.3,2.8c-0.5,0.2-1.5-1-1.7-1.3c-1.1-1.3-2.2-2-3.1-3.6c-0.8-1.3-1.1-2.3-1.9-3.4c-0.8-1.1-1.2-2.1-2.2-2.8
	c-0.9-0.7-2.4-0.5-3.1-1.4c-0.2-0.3-0.6-0.8-0.9-1.1c-0.4-0.4-1.1-0.7-1.6-1.1c-0.4-0.3-0.6-0.7-0.9-1c-0.9-0.7-2-0.9-3.1-1.5
	c-1.1-0.6-2.1-1.4-3-1.9c-1-0.5-2-0.9-3.2-1.4c-0.9-0.4-4.4-1.2-3.6,0.6c0.4,0.9,1.4,1.4,1.9,2.2c0.3,0.5,0.5,1.1,0.8,1.4
	c0.3,0.4,0.7,0.6,1,0.9c0.5,0.7,0.8,1.5,1.4,2.1c0.5,0.6,1,1.1,1.5,1.7c0.6,0.7,0.9,1.4,1.3,2.2c0.4,0.7,1,1.4,1.3,2.2
	c0,0.7,0.2,1.6,0.5,2.4c0.3,0.7,1.2,1.5,1.8,2.3c0.9,1.4,1.4,2.9,1.9,4.2c-0.5-0.1-0.8-0.5-1.1-0.8c-0.7-0.6-1.5-1.3-2.1-2
	c-0.3-0.4-0.5-0.9-0.9-1.4c-0.6-0.9-1.6-1.5-2.4-2.2c-0.5-0.5-0.7-0.9-1.2-1.3c-0.4-0.3-0.9-0.5-1.3-0.9c-0.5-0.4-0.7-0.7-1.2-1
	c-0.5-0.3-0.8-0.7-1.2-1c-0.4-0.3-0.9-0.4-1.3-0.7c-0.3-0.2-0.4-0.6-0.7-0.8c-0.2-0.2-0.7-0.3-1.1-0.5c-1.6-0.7-3.1-2-4.8-2.9
	c-1.1-0.6-3.1-1.9-3.8-0.4c0.9,1.5,2.1,2.9,3.2,4.3c1,1.5,2.4,2.6,3.3,4.1c0.2,0.4,0.3,0.8,0.5,1.2c0.2,0.3,0.5,0.6,0.6,0.9
	c0.8,1.4,1.2,3,2.2,4.2c0.4,0.5,1.1,1.1,1.3,1.6c0.2,0.3,0.1,0.7,0.3,1.1c0.2,0.4,0.7,0.9,0.9,1.4c0.7,1.5,0.9,3.4,1.9,5.2
	c0.2,0.3,0.5,0.6,0.6,0.9c0.2,0.4,0.3,0.8,0.5,1.3c0.2,0.4,0.4,0.9,0.6,1.4c0.2,0.7,0.8,2.2,0.4,2.3c-0.4,0.1-0.9-0.4-1.1-0.6
	c-0.8-0.9-1.4-2.3-2.1-3.5c-0.2-0.4-0.5-0.8-0.7-1.1c-0.3-0.6-0.4-1.1-0.7-1.7c-0.3-0.4-0.6-0.8-1-1.3c-0.7-0.9-1.3-1.8-2-2.7
	c-0.6-0.7-1.4-1.1-2-1.7c-0.4-0.4-0.6-0.9-1-1.3c-0.4-0.4-0.9-0.7-1.1-1.1c-0.4-0.5-0.6-1.1-0.9-1.7c-0.4-0.7-1.1-1.6-1.6-2.1
	c-1-0.9-1.9-1.1-2.9-2c-0.6-0.5-1-1.2-1.6-1.8c-0.3-0.3-0.7-0.4-1.2-0.7c-0.4-0.3-0.7-0.6-1.1-0.7c-0.7-0.3-1.8-1.1-2.5-0.9
	c-1.8,0.3-0.2,2.2,0.7,3.6c1.1,1.7,1.2,3.6,2.1,5.3c0.4,0.9,1.1,1.7,1.4,2.5c0.1,0.4,0,0.9,0.2,1.3c0.2,0.8,0.7,1.6,0.9,2.4
	c0.1,0.6,0.2,1.3,0.1,1.9c-0.1,0.5-0.3,0.7-0.5,1.2c-0.1,0.4-0.1,0.9-0.4,1.2c-0.4,0.4-1,0.6-1.1,1.2c-0.1,0.3,0.2,1.5-0.4,1.6
	c-0.5,0-0.6-0.3-0.8-0.9c-0.2-0.6-0.2-1.4-0.4-2.1c-0.2-0.7-0.4-1.4-0.6-2.1c-0.2-0.7-0.5-1.5-0.8-2.3c-0.2-0.7-0.4-1.5-0.7-2.2
	c-0.6-1.3-1.4-2.7-2-4c-0.3-0.7-0.5-1.4-0.8-2.1c-0.3-0.7-0.8-1.6-1.2-2.2c-0.5-0.7-1.1-0.7-1.7-1.3c-0.6-0.7-0.7-1.7-1.3-2.4
	c-0.6-0.7-1.6-1.5-2-2.4c-0.3-0.5-0.2-1-0.7-1.6c-0.3-0.4-1.1-0.9-1.7-1.2c-0.6-0.3-1.3-0.5-1.9-0.7c-0.7-0.2-1.3-0.5-1.9-0.7
	c-0.6-0.2-1.2-0.6-1.8-0.7c-0.7-0.2-1.5-0.1-2.3-0.1c-1.6,0-3.2,0.1-4.7,0c-0.8-0.1-1.6-0.3-2.2-0.3c-0.3,0-0.6,0.2-1,0.2
	c-0.4,0-0.8-0.1-1.1-0.1c-0.7,0-1.2,0.2-2,0.1c-1.3-0.2-2.5,0.1-3.8-0.1c-0.6-0.1-1.2-0.2-1.9-0.1c-0.4,0.1-0.7,0.2-1.1,0.3
	c-0.5,0.1-1.1,0-1.6,0.2c-0.5,0.1-1,0.3-1.6,0.3c-1,0.1-2.2,0.1-3.2,0.2c-0.6,0.1-1.1,0.2-1.6,0.2c-1,0-1.9-0.2-3.1,0.3
	c-0.5,0.2-1,0.3-1.4,0.5c-0.4,0.2-0.7,0.6-1.1,0.8c-0.5,0.2-1.1,0.3-1.7,0.6c-0.5,0.3-0.9,0.7-1.4,0.9c-0.9,0.3-2.3,0.4-3.4,0.5
	c-0.4,0.1-0.7,0.3-1.1,0.2c-1.1-0.1-2.5-0.9-3.6-1.5c-0.7-0.3-1.3-0.8-2-1.1c-1.2-0.5-2.2-0.8-3.3-1.5c-0.5-0.3-1-0.7-1.5-1
	c-0.5-0.3-1-0.7-1.6-0.9c-0.8-0.4-2-0.6-2.7-1.2c-0.8-0.6-1.5-1.3-2.3-1.8c-0.4-0.2-0.9-0.3-1.3-0.5c-0.4-0.3-0.8-0.7-1.3-1
	c-0.5-0.3-0.9-0.5-1.3-0.8c-0.8-0.6-1.8-1-2.7-1.6c-0.5-0.3-0.8-0.6-1.3-0.8c-1-0.5-3.3-1.7-4.5-1.5c-0.7,0.1-1.2,0.9-1.1,1.4
	c0.2,0.6,0.6,1.1,1.1,1.7c0.4,0.5,0.8,1.1,1.2,1.5c0.5,0.5,1.3,0.9,1.9,1.5c1.3,1.1,2.4,2.1,3.8,3c0.6,0.4,1.5,1.1,2,1.3
	c0.4,0.2,1,0.2,1.2,0.4c0.4,0.2,0.8,0.7,1.2,1c0.4,0.3,0.9,0.6,1.3,0.8c0.9,0.6,1.9,1.1,2.7,1.6c1.1,0.8,2,1.8,3.3,2.5
	c0.6,0.4,1.2,0.6,1.8,1c0.6,0.4,1,0.9,1.5,1.4c0.4,0.3,0.8,0.5,1.3,0.8c0.5,0.3,0.9,0.8,1.3,1.1c0.5,0.4,1.4,0.8,2,1.1
	c1.9,1,3.9,2.3,5.7,3.9c1.9,0.6,3.7,1.7,5.5,2.6c1,0.5,1.9,0.7,2.8,1.1c0.4,0.2,0.9,0.5,1.3,0.8c0.4,0.2,0.8,0.6,1.2,0.9
	c0.5,0.3,1.2,0.5,1.7,0.8c0.7,0.3,1.4,0.8,2,0.9c1.5,0.3,2.7,0.4,4.1,1c0.4,0.2,0.8,0.4,1.3,0.5c0.8,0.2,1.7,0.2,2.6,0.4
	c1.1,0.3,2.3,1.1,3.6,1.2c0.4,0.1,0.9,0,1.3,0c0.6,0,1.4,0.3,2.2,0.5c0.7,0.2,1.5,0.3,2.2,0.4c0.3,0.1,0.7,0.3,1,0.3
	c0.4,0.1,0.7,0.1,1.1,0.1c0.7,0.1,1.4,0.4,2,0.6c0.7,0.2,1.4,0.2,2.1,0.3c0.8,0.1,1.4,0.2,2.2,0.3c0.7,0.1,1.4,0.1,2.2,0.2
	c0.6,0,1.2,0.4,1.8,0.5c0.5,0.1,1,0,1.5,0.2c1.2,0.6,1.7,1.5,2.7,1.9c0.4,0.1,1,0.3,1.6,0.4c0.5,0.1,1.2,0.2,1.7,0.2
	c0.4,0,0.8-0.3,1.3-0.1c0.3,0.1,0.8,0.5,1.2,0.7c0.4,0.2,0.9,0.3,1.2,0.5c1,0.4,1.6,1.4,2.5,1.6c0.7,0.2,1.7-0.1,2.4,0.4
	c1.3,0.9,2.1,2.5,3.2,3.9c1.1,1.5,2.4,2.6,3.2,3.8c0.3,0.4,0.4,0.8,0.6,1.1c0.3,0.6,1,0.9,1.3,1.5c0.3,0.4,0.4,0.9,0.6,1.4
	c0.2,0.4,0.6,0.7,0.9,1.1c0.4,0.6,0.4,1.4,0.7,2.1c0.2,0.5,0.7,1.1,1,1.6c0.3,0.6,0.5,1.3,0.8,1.9c0.3,0.6,0.7,1.1,0.9,1.7
	c0.4,1.2,1,2.3,1.4,3.6c0.2,0.5,0.4,1.1,0.1,1.5c-1.7-0.4-2.6-2.5-3.8-4c-0.4-0.5-1-0.8-1.3-1.3c-0.2-0.3-0.4-0.7-0.6-1
	c-0.2-0.3-0.4-0.6-0.7-0.9c-0.4-0.6-0.9-1-1.4-1.6c-0.4-0.5-0.7-1.1-1.1-1.6c-0.4-0.5-0.8-1.2-1.2-1.7c-0.4-0.4-1.1-0.5-1.6-0.8
	c-0.6-0.4-1.1-1-1.8-1.4c-1.2-0.8-2.5-1.6-3.6-2.6c-0.6-0.5-1.1-1.1-1.7-1.6c-1.1-0.9-2.4-1.3-3.8-1.8c-0.9-0.3-2.9-0.7-2.4,0.7
	c0.2,0.7,1.2,2,1.4,2.3c0.5,0.5,1.2,0.5,1.8,0.9c0.4,0.3,0.9,0.8,1.3,1.1c0.5,0.6,0.7,1.3,1.3,2.1c0.4,0.5,1.2,0.8,1.4,1.4
	c0.1,0.4,0.1,0.8,0.2,1.2c0.3,0.8,1,1.7,1.4,2.6c0.4,0.9,0.7,1.7,0.9,2.7c0.3,0.9,0.8,1.8,1.1,2.7c0.2,0.9,0.4,1.7,0.6,2.5
	c0.2,0.5,0.3,0.6,0.5,0.9c0.6,1.5,0.8,3.1,1.3,4.9c0.2,0.7,0.7,1.7,0.7,2.5c0,0.3-0.1,0.6-0.1,0.9c0,0.6,0.1,0.8-0.1,1
	c-0.9,0.7-1.5-0.5-2-1.3c-0.3-0.4-0.6-0.8-0.8-1.1c-0.5-0.9-0.7-1.8-1.2-2.7c-0.2-0.3-0.6-0.6-0.8-0.9c-0.8-1.8-2-3.4-3-5.1
	c-0.3-0.6-0.8-1-1.1-1.5c-0.2-0.4-0.3-0.8-0.5-1.2c-0.3-0.5-0.7-0.9-1-1.4c-0.6-1-1.4-1.7-2.1-2.5c-0.4-0.4-0.6-0.9-1-1.3
	c-0.4-0.5-0.9-0.6-1.2-1c-0.5-0.5-0.6-0.9-0.9-1.2c-0.3-0.3-0.6-0.6-1.1-0.8c-0.4-0.2-1.2-0.2-1.8-0.7c-0.4-0.3-0.8-1-1.2-1.5
	c-0.3-0.4-0.9-0.6-1.4-0.9c-0.6-0.4-0.9-0.9-1.4-0.8c-0.4,0.1-0.7,0.7-0.5,1.2c0.4,1.2,2.2,2.2,2.9,3.9c0.2,0.4,0.3,0.9,0.5,1.3
	c0.2,0.5,0.6,0.7,0.8,1.3c0.2,0.4,0.2,0.8,0.4,1.2c0.2,0.3,0.4,0.6,0.6,1c0.2,0.4,0.3,0.9,0.5,1.4c0.2,0.5,0.6,0.9,0.7,1.3
	c0.1,0.4,0.1,0.7,0.2,1.1c0.1,0.4,0.3,0.8,0.5,1.2c0.2,0.7,0.1,1.4,0.4,2.1c0.2,0.5,0.5,0.9,0.7,1.4c0.5,1.1,0.5,2.2,0.7,3.3
	c0,0,0,0.1,0,0.1c0.3,0.8,1,1.8,1.3,2.9c0.2,0.9,0.5,2.3,0.1,2.4c-0.5,0.2-1.3-0.4-1.6-1c-0.7-1-0.5-1.9-0.9-2.8
	c-0.3-0.6-0.9-1.1-1.2-1.6c-0.4-0.7-0.7-1.4-1-2c-0.3-0.6-0.8-1.2-1.1-1.8c-0.4-0.7-0.7-1.3-1.1-1.8c-0.9-1-1.8-1.9-2.5-2.9
	c-0.5-0.6-0.8-1.1-1.1-1.7c-0.4-0.6-0.7-1.4-1.2-2c-0.5-0.6-1.5-1.3-2.3-1.7c-0.8-0.4-2.4-1.2-3-0.7c-0.7,0.7,0.1,1.9,0.5,3.2
	c0.1,0.4,0.1,0.9,0.2,1.2c0.4,1,1.2,2,1.4,2.9c0.2,1-0.1,1.8,0.3,3c0.1,0.3,0.4,0.7,0.5,1.1c0.2,0.8,0,1.4,0.1,2.3
	c0.2,0.9,0.3,1.6,0.2,2.3c-0.1,0.6,0.2,1.6,0.2,2.4c0,0.7-0.2,2.2-1.1,1.8c-0.6-0.2-0.9-1.8-1.2-2.7c-0.4-0.9-1-2-1.4-2.7
	c-1.4-1.9-2-3.7-2.8-5.5c-0.3-0.6-0.2-1.1-0.6-1.6c-0.4-0.5-0.9-1-1.3-1.6c-0.4-0.7-0.6-1.4-1-2.1c-0.2-0.3-0.5-0.6-0.7-1
	c-0.2-0.3-0.3-0.7-0.5-0.9c-0.6-0.8-1.4-1.7-1.8-2.5c-0.3-0.5-0.3-1.1-0.6-1.5c-0.2-0.3-0.5-0.6-0.9-0.9c-0.8-0.8-1.5-2.1-2.4-3
	c-0.7-0.7-1.2-1.1-1.6-2c-0.4-0.8-0.6-1.7-1.2-2.7c-0.3-0.5-0.9-1-1.3-1.4c-0.5-0.4-1.1-0.6-1.4-1.1c-1-1.1-1.5-3-1.9-4.2
	c-0.2-0.5-0.8-0.7-1.4-1c-0.7-0.4-1.1-0.8-1.6-1.1c-0.6-0.1-1.1-0.2-1.5-0.5c-0.7-0.5-1.1-1.3-1.7-1.9c-0.3-0.3-0.7-0.5-1.1-0.9
	c-0.3-0.3-0.5-0.6-0.7-0.8c-0.7-0.6-1.8-1-2.9-1.4c-1-0.4-2-1-2.9-1.4c-1-0.5-2.1-0.6-3-1.1c-0.5-0.2-1-0.5-1.4-0.8
	c-0.5-0.2-0.8-0.6-1.3-0.9c-0.5-0.3-1-0.3-1.5-0.6c-0.5-0.2-0.9-0.6-1.4-0.8c-0.5-0.2-1.2-0.3-1.8-0.5c-1.8-0.6-3.6-1.1-5.4-1.7
	c-1.2-0.4-2.3-1.1-3.5-1.4c-0.6-0.2-1.2-0.2-1.9-0.4c-0.7-0.2-1.3-0.2-1.9-0.3c-0.6-0.1-1.1-0.6-1.7-0.7c-0.6-0.1-1.1,0-1.6-0.1
	c-0.5-0.1-0.9-0.3-1.4-0.4c-0.5-0.1-1-0.1-1.5-0.3c-0.4-0.2-0.8-0.5-1.3-0.6c-0.4-0.1-0.7,0-1.1-0.1c-0.4-0.1-1.6-0.7-2-1
	c-0.5-0.3-0.7-0.8-1.1-0.9c-0.3-0.1-0.6-0.1-1-0.2c-0.7-0.2-1.4-0.7-2.2-1c-0.8-0.3-1.6-0.5-2.3-0.7c-0.7-0.2-1.6-0.8-2.4-1.2
	c-0.8-0.5-1.6-0.6-2.4-1c-0.7-0.3-1.2-0.8-1.9-1c-0.8-0.3-1.7-0.5-2.5-0.8c-0.4-0.2-0.8-0.5-1.2-0.6c-0.4-0.2-0.9-0.1-1.3-0.4
	c-0.6-0.4-1.7-1.2-1.9-1.6c-0.6-1.1,0-1.8-0.5-2.7c-0.3-0.6-0.9-0.8-1.5-0.6c-0.7,0.3-0.5,1.4-1,1.6c-0.8,0.3-2.7-0.7-3.3-1.1
	c-0.5-0.3-1-0.6-1.5-0.9c-0.5-0.3-1.2-0.4-1.6-0.7c-0.1-0.1-0.5-0.6-0.7-0.8c-0.6-0.5-1.6-0.8-2.5-1.1c-1.1-0.4-1.7-1-2.6-1.1
	c-0.6-0.1-1.2-0.1-1.9-0.2c-2-0.3-3.6,0.5-5.8,0.8c-2.1,0.3-4.1,0.7-6,0.7c-0.7,0-1.3,0.2-2,0.2c-0.5,0-0.9-0.1-1.3-0.1
	c-0.7,0-1.1,0.2-1.6,0.2c-1.1,0-2.1,0-3.1-0.5c-0.5-0.2-0.9-0.6-1.5-0.8c-0.5-0.2-1.1-0.2-1.6-0.4c-0.5-0.1-1.1-0.4-1.5-0.5
	c-0.4-0.1-0.8,0-1.2-0.1c-0.8-0.2-1.5-0.9-2.2-1.2c-0.7-0.3-1.6-0.5-2.4-0.7c-0.8-0.2-1.5-0.6-2.4-0.9c-0.4-0.1-0.8-0.1-1.3-0.2
	c-0.5-0.1-0.9-0.3-1.4-0.4c-0.5,0-0.7,0.1-1.2,0.1c-0.5-0.1-0.9-0.4-1.4-0.5c-2-0.5-6.2-0.2-7.2,1.4c-0.5,0.9-0.3,2.4-0.6,3.5
	c-0.1,0.3-0.5,0.7-0.5,1c-0.1,0.3,0,0.7,0,1c-0.1,1.1-0.5,2-0.6,3c-0.6,0.6-1.2,1.6-1.2,2.6c0,0.8,0.1,1.4-0.3,2
	c-0.2,0.4-0.7,0.6-1,1c-0.3,0.4-0.4,1-0.6,1.2c-0.3,0.3-0.8,0.4-1.1,0.7c-0.3,0.2-0.4,0.6-0.7,0.8c-0.9,0.8-2.3,1.3-1.6,2.9
	c0.3,0.6,0.8,0.7,1.2,1c0.3,0.3,0.3,0.5,0.5,0.8c0.1,0.2,0.4,0.3,0.6,0.4c0.4,0.3,0.7,0.7,1.2,1c0.6,0.4,1.5,0.7,2.3,1
	c0.8,0.3,1.5,0.8,2.2,1.1c1.4,0.6,2.8,1,4.2,1.6c0.7,0.3,1.4,0.5,2.1,0.9c0.7,0.4,1.3,0.8,2,1.1c0.3,0.1,0.7,0.2,1.1,0.3
	c1,0.4,2,0.9,3,1.3c0.7,0.3,1.3,0.5,2,0.9c0.3,0.2,0.6,0.5,0.9,0.6c0.4,0.2,0.7,0.3,1.1,0.5c1.1,0.6,2.2,1.5,3.3,2.1
	c0.8,0.4,1.7,0.7,2.5,1.2c0.8,0.5,1.5,1.2,2.2,1.8c0.8,0.6,1.6,0.8,2.4,1.3c0.6,0.3,1.2,0.9,1.8,1.3c0.6,0.4,1.3,0.8,1.9,1.2
	c1.1,1,2.3,2,3.5,2.8c0.6,0.4,1.1,0.9,1.8,1.4c0.6,0.5,1.2,1,1.7,1.6c0.6,0.7,1.1,1,1.7,1.5c0.3,0.2,0.6,0.5,0.9,0.7
	c0.4,0.3,0.7,0.3,1.1,0.8c0.4,0.5,0.8,0.9,1.2,1.4c0.8,0.9,1.6,1.7,2.1,3.1c0.2,0.6,0.2,1.3,0.3,2c0.1,0.7,0,1.3,0.1,2
	c0.1,0.4,0.3,0.7,0.4,1.1c0.2,1-0.3,1.9,0.2,3.1c-0.3,1.1-0.4,2.1-0.9,3.1c-0.2,0.5-0.5,1.2-1.3,0.8c-0.5-0.2-1.2-1.8-1.6-2.5
	c-0.2-0.5-0.4-1-0.7-1.3c-0.3-0.4-0.6-0.8-0.8-1.1c-0.2-0.4-0.1-0.6-0.3-1c-0.2-0.4-0.4-0.7-0.6-1.1c-0.2-0.4-0.2-0.8-0.4-1.2
	c-0.3-0.6-0.6-1.1-1.1-1.4c-0.3-0.3-0.9-0.4-1.2-0.9c-0.7-1-1.4-1.7-2.2-2.3c-0.8-0.5-1.5-1.2-2.3-1.9c-0.6-0.5-1.7-1.1-2.5-1.5
	c-0.8-0.4-1.9-1.4-2.6-1.2c-0.8,0.2-0.4,1.7,0.4,2.8c0.2,0.3,0.6,0.5,0.8,0.7c0.7,0.8,1.9,2.6,2.4,3.7c1.2,3,0.5,5.7-0.2,7.8
	c-0.2,0.8-0.3,1.6-0.5,2.3c-0.2,0.5-0.6,0.9-0.8,1.4c-0.4,1-0.3,2-0.6,3.2c-0.1,0.6-0.4,1.5-1,1.3c-0.7-0.2-0.6-1.4-0.9-2
	c-0.2-0.6-0.5-1.1-0.7-1.5c-0.2-0.5-0.2-1-0.3-1.5c-0.1-0.6-0.3-1.1-0.5-1.6c-0.1-0.5,0-0.9-0.1-1.4c-0.2-0.6-0.5-1.3-0.7-1.9
	c-0.2-0.4-0.5-0.7-0.8-1.1c-0.2-0.3-0.2-0.6-0.4-0.9c-0.3-0.5-0.8-0.7-1-1.1c-1.2-1.9-0.5-2.9-1.4-4.7c-0.2-0.5-0.8-1.4-1.2-1.9
	c-0.5-0.7-1.5-1.5-2.3-1.4c-0.8,0.2-0.6,1.1-0.7,1.7c-0.1,0.4-0.5,0.7-0.5,1.3c0,0.5,0,1.1-0.1,1.6c-0.1,0.6,0,1.2-0.1,1.6
	c-0.1,0.5-0.6,0.9-0.8,1.4c0,1.2-0.4,2.1-1.2,2.9c0.1,1-0.5,1.5-0.7,2.3c-0.2,0.7-0.3,1.9-1.6,1.6c-0.3,0-0.6-0.2-0.8-0.4
	c-0.7-0.8-0.3-1.7-0.4-2.4c0-0.4-0.3-0.9-0.3-1.1c-0.1-0.6,0.3-1,0.1-1.7c-0.1-0.6-0.4-1.1-0.5-1.6c-0.1-0.5,0.1-1,0.1-1.6
	c-0.1-0.4-0.2-0.8-0.2-1.1c0-0.8,0.1-2.1-0.5-3.4c-0.4-0.9-1.3-2-1.6-2.9c-0.4-0.9,0-1.6-0.1-2.5c-0.2-1.2-1-1.8-1.9-1.5
	c-0.7,0.2-0.5,0.9-0.9,1.3c-0.2,0.2-0.6,0.3-0.9,0.6c-0.9,0.9-0.9,2.7-1.6,3.9c-0.3,0.6-1,1-1.5,1.6c-0.8,1.2-1.2,2.5-2.8,3.1
	c-0.5,0.2-1.3-0.1-1.8-0.3c-0.6-0.2-1.4-0.4-1.5-1.3c-0.1-0.6,0.6-0.7,0.7-1.1c0.1-0.3-0.1-0.8,0-1.2c0.1-1.1,0.7-1.9,1-2.9
	c0.2-0.7,0.4-1.3,0.6-2c0.1-0.7,0-1.5,0.2-2.2c0.3-0.8,1.3-1.1,1-2.2c-0.4-1.4-1.9-2.4-3-2.2c-1.1,0.2-1.1,1.4-1.8,2
	c-0.4,0.4-0.9,0.6-1.3,0.9c-0.6,0.6-1.4,1.4-1.8,2.1c-0.2,0.4-0.3,0.9-0.6,1.2c-0.2,0.2-0.5,0.4-0.7,0.7c-0.4,0.5-0.6,1.1-1.8,1.1
	c-0.6-0.2-0.7-1-0.8-1.7c-0.1-0.6-0.5-1.2-0.6-1.7c-0.2-0.6,0-1.7,0-2.4c0-0.4,0-0.8,0-1.2c0-0.4,0.2-0.8,0.2-1.1
	c0-0.3-0.1-0.7-0.1-1c0-0.7,0.3-1.4,0.2-2.3c-0.1-1.3,0-2.3,0-3.5c0-0.5,0.1-0.9-0.1-1.3c-0.2-0.4-0.5-0.9-0.6-1.4
	c-0.2-0.7-0.3-1.4-0.8-2.1c-0.4-0.5-1-0.8-1.6-1.2c-0.6-0.5-1.8-1.4-2.4-0.5c-0.3,0.4,0.2,1.5-0.3,1.8c-0.4,0.3-2.1-0.3-2.4-0.4
	c-0.5-0.3-1.1-0.9-1.6-1.3c-1-0.8-1.9-1.5-2.2-3c-0.1-0.5,0.1-1,0.2-1.3c0.2-0.8,1-1.3,0.5-2.3c-0.5-1-2.9-1.6-3.8-1.9
	c-0.7-0.2-1.4-0.4-2-0.7c-0.6-0.3-1.3-0.8-1.9-1c-0.4-0.1-1,0-1.4-0.1c-0.4-0.1-0.8-0.4-1.3-0.6c-1.1-0.4-2.4-0.3-3.7-0.6
	c-0.7-0.2-1.3-0.7-2-0.8c-0.8-0.1-1.5,0-2.3-0.3c-0.8-0.3-1.3-0.6-2.1-0.7c-0.8-0.1-1.5-0.1-2.3-0.3c-0.8-0.1-1.6-0.4-2.2-0.4
	c-0.3,0-0.8,0.1-1,0.2c-1.2,0.1-2.8-0.5-4.1-0.1c-0.6,0.2-1.1,0.8-1.8,1.1c-0.7,0.3-1.7,0.3-2.1,0.9c-0.3,0.4-0.5,1.1-0.7,1.7
	c-0.1,0.3-0.2,0.6-0.3,0.9c-0.1,0.3-0.4,0.5-0.4,0.8c-0.1,0.4,0,1-0.3,1.4c-0.4,0.5-1,0.7-1.2,1.1c-0.2,0.3-0.2,0.7-0.3,1
	c-0.1,0.3-0.4,0.6-0.5,0.9c-0.1,0.5,0,1-0.1,1.5c-0.1,0.4-0.5,0.7-0.8,1.2c-0.5,0.8-0.6,1.7-0.9,2.7c-0.1,0.5-0.5,0.8-0.5,1.2
	c-0.1,0.7,0,1.2-0.2,1.8c-0.2,0.5-0.3,1-0.6,1.6c-0.2,0.5-0.2,1.1-0.4,1.7c-0.6,1.6-0.3,3.6-0.5,5.6c-0.1,0.6-0.2,1.2-0.3,1.8
	c0,0.6-0.2,1.3-0.1,1.8c0,0,0,0.1,0,0.1c0.4,1.1,0.3,2.3,0.7,3.6c0.2,0.6,0.3,1.2,0.3,1.8c0.1,0.6,0.3,1.3,0.3,1.8
	c0,0.7-0.2,1.5-0.1,2.3c0.1,0.8,0.3,1.7,0.2,2.5c-0.1,1.5,0.1,3.6-0.6,4.4c-0.3,0.3-0.7,0.4-0.9,0.8c-0.2,0.4-0.4,1.1-0.4,1.5
	c0,0.6,0.3,1,0.3,1.5c0.1,0.9-0.2,1.6-0.5,2.4c-0.2,0.4-0.2,0.8-0.3,1.1c-0.2,0.4-0.4,0.6-0.7,1c-0.2,0.3-0.5,0.5-0.8,0.9
	c-0.2,0.2-0.3,0.6-0.4,0.8c-0.3,0.5-0.7,1-1.2,1.4c-0.2,0.2-0.6,0.3-0.8,0.6c-0.6,0.6-0.5,1.9-2.1,1.9c-0.4,0-0.9-0.2-1.4-0.3
	c-1.4-0.3-2.9-0.2-4.2-0.5c-0.3-0.1-0.9-0.3-1.1-0.6c-0.4-0.7,0.7-2,0.9-2.4c0.9-1.4,1.5-3,2.6-4.3c0.5-0.7,1.2-1.4,1.5-2.1
	c0.1-0.3,0.1-1,0.1-1.6c0.1-0.9-0.1-2.8-1.4-3c-0.9-0.1-1,0.7-1.5,1.1c-0.3,0.3-0.9,0.5-1.3,0.8c-0.8,0.5-1.4,1.1-2.6,1.5
	c-0.6,0.2-1.1,0.6-1.7,0.7c-0.5,0.1-1.2,0-1.8,0c-1.8,0.1-3.5,0.3-5.5,0.6c-1.1,0.2-2.4,0.4-3.7,0.4c-1.1-0.1-2.7-0.4-3-1.1
	c-0.4-0.7,0.9-1.9,1.6-2.4c1-0.7,1.7-1.4,2.4-2c0.3-0.2,0.8-0.3,1.1-0.5c0.5-0.3,0.5-0.8,0.9-1.2c0.3-0.3,0.7-0.4,1-0.7
	c0.4-0.4,0.6-1,1-1.3c0.3-0.2,0.7-0.3,1.1-0.5c0.4-0.2,0.6-0.7,0.9-1c0.3-0.4,0.7-0.7,0.9-1c0.2-0.3,0.1-0.7,0.3-1.1
	c0.4-0.6,1.1-1,0.9-1.8c-0.3-1.6-1.9-1.5-3.2-1.2c-0.5,0.2-1,0.6-1.5,0.9c-0.5,0.3-0.9,0.6-1.4,0.9c-0.5,0.3-0.8,0.7-1.2,1
	c-0.4,0.3-0.9,0.8-1.3,1c-0.4,0.1-1.8,0.3-2.4,0.3c-0.7,0-1.6-0.4-2.4-0.5c-0.8-0.1-1.6-0.1-2.4-0.2c-0.8-0.1-1.6-0.2-2.5-0.2
	c-0.9,0-1.9,0-2.5-0.1c-0.4-0.1-2.3-0.9-2.5-1.5c-0.2-0.7,1.2-1.2,2-1.5c2.2-1,3.6-2.4,5.8-3.3c0.4-0.2,1-0.2,1.6-0.4
	c0.3-0.1,0.5-0.4,0.9-0.6c0.5-0.2,1.3-0.2,1.6-0.5c0.6-0.5,1.2-1,2-1.5c0.8-0.5,1.7-1,2-1.4c0.3-0.4,0.4-1.6-0.3-2.2
	c-1-0.8-2.4,0-4,0c-0.5,0-0.9-0.2-1.4-0.1c-0.7,0.1-1,0.7-1.6,0.7c-0.5,0-1-0.4-1.7-0.5c-0.5,0-0.9,0-1.4-0.1
	c-1.4-0.3-2.8-0.3-4.3-0.9c-0.7-0.3-1.8-0.5-2-1.2c-0.2-0.5,0.4-1.1,1.2-1.3c0.5-0.2,1.2,0,1.7-0.2c0.3-0.1,0.6-0.4,1-0.6
	c0.4-0.2,1-0.2,1.4-0.3c0.6-0.2,1.4-0.5,2.3-0.7c0.5-0.1,0.9-0.4,1.4-0.5c0.6-0.1,1.3,0,1.9-0.1c1.1-0.2,2-0.7,3-0.9
	c1.3-0.3,2.7,0.3,4,0.1c0.6-0.1,0.8-0.5,1.3-0.6c0.6-0.2,1.4,0,2.1-0.3c0.5-0.2,0.8-0.6,1.3-0.8c0.8-0.3,1.7-0.4,2.3-0.7
	c0.6-0.3,1.1-0.8,1.8-1.1c0.7-0.3,1.3-0.6,1.9-1c0.6-0.3,1-0.8,1.6-1.1c0.6-0.3,1.1-0.4,1.4-0.7c0.3-0.2,0.6-0.6,0.8-1
	c0.4-0.6,0.7-1.5,1.2-2.2c0.4-0.6,1-1,1.4-1.6c0.2-0.3,0.2-0.7,0.3-1.1c0.2-0.5,0.5-1.1,0.9-1.6c0.5-0.6,1.3-1.1,1.4-1.8
	c0-0.6-0.3-1.1-0.2-1.6c0.1-1,1.6-1.6,1.9-2.6c0.1-0.3,0.1-0.8,0.1-1.2c0.1-0.4,0.3-0.7,0.4-1.1c0.1-0.4,0.1-1,0.2-1.4
	c0.1-0.6,0.7-1,0.8-1.5c0.1-0.5-0.1-1.1-0.1-1.7c0-0.6,0.3-1.2,0.4-1.9c0-0.6,0.2-1.3,0.6-1.7c0.5-0.5,1.3-0.7,0.9-1.7
	c-0.5-1.2-2.1-1.9-3.1-2.2c-0.4-0.1-0.8-0.1-1.2-0.3c-0.8-0.3-1.5-1.1-2.2-1.5c-0.4-0.2-0.9-0.2-1.3-0.5c-0.6-0.3-1.3-0.9-2-1.3
	c-0.7-0.5-1.4-0.7-2-1.1c-0.7-0.5-1.5-1-2.3-1.5c-0.9-0.5-1.6-0.8-2.3-1.4c-0.7-0.7-1.4-1.2-2.2-1.6c-0.4-0.2-0.7-0.5-1.1-0.8
	c-0.4-0.3-0.8-0.5-1.1-0.8c-1.1-1-1.6-2.5-2.7-3.7c-0.4-0.4-0.9-0.6-1.4-1.1c-0.4-0.4-0.9-0.8-1.3-1.2c-0.4-0.5-0.8-1.4-1.2-2
	c-0.3-0.4-0.7-0.7-1-1.1c-0.3-0.4-0.6-0.8-0.9-1.2c-0.5-0.7-1.3-1.6-1.8-2.5c-0.6-1.1-1.1-2.4-1.8-3.7c-0.6-1.2-1.3-2.3-1.8-3.4
	c-0.9-1.9-1.3-3.7-2.5-5.2c-0.3-0.5-0.9-1.1-1-1.5c-0.2-0.6,0.5-1.4,0.7-2c0.6-1.9-1.7-4.9-2.2-7.5c-0.2-0.9,0.5-1,0.5-1.8
	c0-1.2-0.1-2.4,0-3.6c0-1.1,0.5-2,0.6-3.2c0.1-0.4-0.1-0.8-0.1-1.2c0.1-1,0.6-2.1,0.7-3.1c0.1-0.5,0.1-1,0.1-1.5
	c0.1-1,0-1.5-0.4-2.9c-0.4-1.2-1.1-1.9-2.2-2.1c-0.8-0.2-1.8,0-2.7,0c-0.9,0-1.9-0.1-2.6-0.1c-0.9,0.1-1.7,0.5-2.3,1
	c-0.5,0.4-0.9,1-1.4,1.4c-0.9,0.7-2.3,0.8-3.4,1.1c-1.4,0.5-0.9,1.7-1.9,2.6c-1.3-0.1-1.5,0.8-2,1.2c-0.7,0.6-1.9,0.7-2.6,1.3
	c-0.4,0.4-0.7,0.9-1.1,1.2c-0.5,0.4-1.1,0.6-1.5,1c-0.3,0.3-0.5,0.7-0.8,1c-0.6,0.5-1.4,0.7-2,1.2c-0.5,0.5-0.9,1.1-1.4,1.5
	c-0.3,0.3-0.8,0.4-1.3,0.7c-0.4,0.2-0.7,0.6-1,0.8c-0.7,0.5-1.6,0.9-2.3,1.5c-0.6,0.5-1.1,1.4-1.8,1.8c-0.1,0.1-0.4,0.2-0.6,0.2
	c-0.7,0.2-1.2,0.4-1.8,0.8c-0.5,0.3-1.1,0.5-1.7,0.8c-0.6,0.3-1.1,0.8-1.7,1.1c-0.6,0.4-1.3,0.6-1.8,1c-0.9,0.6-2,0.8-3.2,1.3
	c-0.3,0.1-0.6,0.4-0.9,0.5c-0.8,0.3-1.8,0.2-2.6,0.4c-0.4,0.1-0.5,0.4-0.9,0.6c-0.7,0.2-1.7,0-2.4,0.1c-0.5,0.1-0.9,0.6-1.4,0.8
	c-0.5,0.2-1.1,0.6-1.7,0.7c-0.4,0.1-1,0-1.4,0.1c-0.4,0.1-0.8,0.4-1.2,0.5c-0.8,0.2-1.6,0.5-2.5,0.6c-1,0.1-2-0.2-2.9-0.1
	c-0.8,0.1-1.3,0.6-2.1,0.7c-0.6,0.1-1.4-0.1-2.2,0c-0.4,0.1-0.7,0.3-1.1,0.3c-0.4,0.1-0.9-0.1-1.3,0c-0.6,0.1-1.2,0.3-1.7,0.3
	c-0.5,0-1.1-0.3-1.7-0.4c-0.6-0.1-1.1-0.2-1.7-0.3c-1-0.3-2.2-0.7-3.4-0.6c-0.5,0-1,0.2-1.5,0.2c-0.5,0-1.1-0.1-1.6-0.2
	c-0.5-0.1-1-0.4-1.5-0.5c-0.5-0.1-1-0.1-1.5-0.3c-0.7-0.3-1.2-1-1.9-1.1c-0.5-0.1-1,0.1-1.5,0c-0.5-0.1-1-0.4-1.5-0.5
	c-0.5-0.1-1.2-0.2-1.7-0.2c-0.9,0-1.8,0.5-2.6,0.4c-0.9-0.1-2.2-0.8-2.8-1.5c-0.3-0.3-0.4-0.7-0.7-1.1c-0.6-0.6-1.6-0.6-2.7-0.7
	c-0.5-0.1-0.9-0.3-1.4-0.3c-0.5,0-1,0.1-1.6,0.1c-0.7,0-1.6-0.2-2.3-0.4c-0.7-0.3-1.4-0.4-2.1-0.7c-0.4-0.2-0.9-0.6-1.4-0.8
	c-0.5-0.2-1-0.4-1.4-0.7c-0.4-0.3-0.7-0.8-1.1-1.1c-0.3-0.3-0.7-0.4-1.1-0.7c-0.4-0.3-0.7-0.7-1-0.9c-0.3-0.2-0.7-0.3-1-0.4
	c-0.8-0.4-1.9-0.9-2.7-1.6c-0.4-0.3-0.6-0.7-1.1-1.3c-0.4-0.4-0.9-0.7-1.2-1c-0.5-0.4-1-0.5-1.4-0.9c-0.2-0.2-0.3-0.5-0.6-0.8
	c-0.3-0.3-0.7-0.5-0.9-0.7c-0.5-0.5-0.7-1-1.2-1.4c-0.5-0.4-0.8-0.8-1.3-1.1c-0.9-0.5-2.1-0.9-2.9-1.7c-1.2-1.1-2.1-2.8-2.6-4.6
	c-0.1-0.4,0-0.9-0.3-1.4c-0.3-0.5-0.7-1-1-1.5c-0.4-0.6-0.7-1.2-1.1-1.8c-0.5-0.8-1.2-1.4-1.7-2.1c-0.3-0.4-0.5-1-0.8-1.6
	c-0.5-1.1-1.1-2.1-1.7-3.2c-0.3-0.5-0.7-1-0.9-1.5c-0.5-1-0.6-2-1-3c-0.2-0.5-0.4-1-0.6-1.6c-0.1-0.5-0.2-1-0.4-1.5
	c-0.3-0.7-0.8-1.2-1-1.8c-0.5-1.3-0.7-2.4-1-3.5c-0.1-0.6-0.4-1.1-0.5-1.7c-0.2-0.7,0.1-1.5-0.1-2.3c-0.1-0.4-0.3-0.8-0.3-1.1
	c0-0.9,0.8-1.5,0.8-2.4c0-0.4-0.3-0.9-0.3-1.3c0.2-1.1,0.2-2.3,0.4-3.4c0.1-0.5,0.4-1.1,0.7-1.4c0.1-0.1,0.5-0.3,0.6-0.4
	c0.3-0.3,0.9-1.2,0.9-1.8c0.1-1.4-0.4-2.6,0.2-3.7c0.2-0.4,0.5-0.6,0.7-1c0.6-0.9,0.8-2.3,1.5-3.2c0.3-0.4,0.8-0.5,1-0.9
	c0.3-0.3,0.4-0.7,0.7-1.1c0.3-0.4,0.9-0.7,1.4-1c0.5-0.3,0.9-0.8,1.3-1.1c0.7-0.4,1.5-0.7,2.3-1c1.3-0.6,2.6-1.7,3.7-2.5
	c0.6-0.4,1.3-0.8,1.9-1.3c0.5-0.4,0.9-0.9,0.3-1.8c-0.3-0.4-1.8-1.9-2.3-2.2c-0.4-0.3-1-0.3-1.5-0.6c-0.5-0.3-1.3-1-1.8-1.4
	c-0.8-0.6-1.5-0.8-2-1.3c-1.8-1.8-1.9-3.8,0.3-4.5c1.1-0.3,2.5-0.4,3.9-0.8c1.3-0.4,2.8-0.6,3.8-0.6c0.8,0,1.7,0.2,2.2,0.5
	c0.5,0.3,0.6,0.7,1,1c0.3,0.3,1.1,0.5,1.6,0.8c1.2,0.8,2.5,2.1,3.7,2.8c0.3,0.2,0.6,0.2,0.9,0.4c0.7,0.3,1.9,1.1,2.6,1.4
	c1.1,0.4,2.6,0.5,4,0.8c0.5,0.1,0.9,0.3,1.4,0.3c0.6,0.1,1.3,0,1.9,0.1c0.6,0.1,1.2,0.3,1.8,0.4c1.2,0.1,2.5,0.2,3.6,0.7
	c0.5,0.2,1,0.5,1.5,0.7c0.5,0.2,1,0.4,1.5,0.6c0.7,0.3,1.5,0.8,2.3,1.1c0.8,0.4,1.6,0.9,2.3,1.1c0.3,0.1,0.7,0,1.1,0.1
	c0.7,0.1,1.3,0.1,2.1,0.2c0.4,0.1,0.8,0.3,1.3,0.3c0.6,0,1.5,0,2,0c1.6-0.1,2.9-1,4.1-1.4c0.6-0.2,1.2-0.1,1.7-0.4
	c0.6-0.3,1.2-1,1.7-1.5c0.5-0.6,1-1.5,1.8-1.5c1.6,0,1.7,2,1.8,3.1c0.1,0.6,0.2,1.3,0.2,1.8c0,0.5-0.2,1.1-0.2,1.5
	c-0.1,0.5,0,1.1-0.1,1.5c-0.1,0.7-0.8,2.1-1.3,2.6c-0.4,0.4-0.7,0.7-1,1.1c-0.3,0.4-0.4,0.9-0.7,1.3c-0.4,0.5-1,0.9-1.3,1.6
	c-0.3,0.7-0.5,1.3-1,1.8c-1,1.1-1.7,2.4-2.9,3.2c-0.7,0.4-1.7,0.6-2.5,0.9c-0.4,0.1-0.7,0.4-1.1,0.6c-0.4,0.2-0.9,0.3-1.2,0.5
	c-0.7,0.3-1.1,0.9-1.8,1.3c-0.3,0.2-0.7,0.3-1.1,0.5c-0.3,0.2-0.6,0.5-0.9,0.6c-0.4,0.1-0.8,0.1-1.2,0.2c-0.4,0.2-0.7,0.6-1.2,0.8
	c-0.7,0.3-1.5,0.5-2.3,0.7c-0.7,0.2-1.3,0.5-2,0.7c-1.1,0.3-2.4,0.4-3.4,0.7c-0.4,0.2-0.7,0.5-1,0.8c-0.3,0.3-0.7,0.5-0.8,0.8
	c-0.3,0.5,0.1,1.2-0.1,1.8c-0.2,0.4-0.7,0.5-0.9,0.8c-0.6,0.6-1.2,1.3-0.6,2.7c0.3,0.8,1,1.2,1.2,1.9c0.2,0.6-0.1,1.4-0.3,1.9
	c-0.2,0.4-0.5,0.6-0.7,1c-0.3,0.6,0,2.2-1.3,2.3c-0.6,0.1-2-0.7-2.4-1.2c-0.3-0.4-0.4-0.9-0.7-1.3c-0.5-1.1-1.6-2.6-2.1-3.7
	c-0.4-0.7-0.4-1.3-0.9-2c-0.3-0.5-0.8-0.7-1.2-1.2c-0.4-0.5-0.6-1.1-1-1.6c-0.8-1-2.1-1.7-2.2-2.9c-0.1-1,0.7-2.1,1-3.2
	c0.2-0.5,0.2-0.9,0.5-1.6c0.1-0.3,0.6-1.2,0.2-1.8c-0.6-0.8-1.7,0.3-2.5,0.5c-0.5,0.1-1,0-1.4,0.2c-0.7,0.2-1.1,0.8-1.6,1.3
	c-0.5,0.4-0.7,1.1-1.1,1.5c-0.5,0.5-1.1,0.7-1.4,1.3c-0.3,0.5-0.3,1.3-0.8,1.7c-0.3,0.3-0.8,0.5-1.1,0.9c-0.3,0.3-0.7,0.7-1,1.1
	c-0.2,0.3-0.3,1.4-0.4,2.1c-0.1,0.7-0.1,1.7,0.1,2.3c0.3,1,0.9,1.6,1.2,2.2c0.5,1.3,0.5,2.6,0.2,3.7c-0.2,0.7-0.8,1.6,0.1,2.6
	c0.5,0.5,1.3,1.1,1.9,1.6c0.7,0.5,1.2,1.1,1.8,1.7c0.7,0.6,1.3,1,1.9,1.7c0.5,0.7,1,1.4,1.6,2.1c1.1,1.3,2.3,2.7,3.4,4.1
	c0.6,0.7,1,1.2,1.8,1.8c0.7,0.5,1.2,1.1,1.9,1.6c0.5,0.3,1.1,0.5,1.6,0.8c0.6,0.3,1,0.6,1.5,0.9c0.5,0.3,1,0.4,1.6,0.7
	c0.5,0.3,1.1,0.4,1.6,0.6c0.8,0.4,1.5,1.1,2.2,1.6c0.4,0.3,0.8,0.5,1.1,0.8c0.4,0.3,0.8,0.6,1.2,0.9c0.5,0.3,0.9,0.3,1.3,0.5
	c0.4,0.2,0.7,0.5,1.1,0.7c1.1,0.6,2.2,1,3.4,1.5c0.6,0.2,1.1,0.6,1.7,0.8c0.6,0.2,1.2,0.3,1.8,0.5c2.2,0.7,4.9,0.9,7.3,1.5
	c1.3,0.4,2.5,0.1,3.8,0.3c2.6,0.5,5.4-0.3,7.9-1.2c1.3-0.5,2.7-0.6,4-1.1c0.6-0.2,1.2-0.5,1.8-0.7c0.6-0.2,1-0.8,1.6-0.8
	c0.5-0.1,0.9,0,1.4-0.2c0.9-0.3,1.6-0.8,2.5-1.1c0.9-0.3,1.8-0.7,2.6-1.1c0.9-0.5,1.8-1.3,2.7-1.8c0.5-0.3,1.7-0.2,2.3-0.5
	c0.4-0.2,0.8-0.5,1.2-0.7c0.4-0.2,0.7-0.5,1-0.8c0.7-0.6,1.5-0.8,2.6-1.2c0.6-0.2,1.1-0.7,1.6-1.1c0.6-0.4,1.3-0.7,1.8-1
	c0.5-0.3,0.8-0.8,1.3-1.1c1-0.6,2.1-1.2,3.3-1.8c1-0.5,1.9-1.4,3.1-2c0.6-0.3,0.9-0.6,1.4-1c0.4-0.4,0.7-0.9,1.2-1.2
	c0.6-0.3,1.2-0.4,1.7-0.9c0.5-0.4,0.5-0.9,0.8-1.2c0.7-0.8,1.7-1.5,2.7-2c1-0.6,2-1.2,3.1-1.7c1.1-0.5,2.3-1,3.2-1.7
	c0.5-0.3,0.9-0.7,1.4-1c1.3-0.8,2.8-2.1,4.8-2.3c0.7-0.1,1.4-0.1,2-0.2c1.4-0.3,2.7-0.3,4-0.2c0.7,0,1.3-0.1,1.9,0
	c0.6,0.1,1.2,0.2,1.8,0.4c1.2,0.2,2.4-0.1,3.5,0.1c0.4,0.1,0.9,0.2,1.3,0.3c0.5,0.1,0.9,0.4,1.5,0.4c0.7,0,1.4-0.4,2.1-0.2
	c0.6,0.2,1.3,0.8,2,0.9c0.9,0.2,1.6,0.1,2.4,0.3c0.7,0.2,1.5,0.5,2.1,0.8c0.5,0.2,0.9,0.6,1.4,0.9c0.6,0.3,1.3,0.4,1.8,0.9
	c0.7,0.6,1.3,1.4,2.1,1.8C174.5,201.2,175.3,201.5,176.1,202z M37,153.9c0.4,1.3,2.8,1.2,2.4,0c-0.3-0.9-1.5-1-2.1-0.6
	C37,153.5,36.9,153.5,37,153.9z M47.2,157.8c0.3,1.2,2.2,1.6,3,1.3c0.2-0.1,0.3-0.4,0.3-0.6c-0.3-0.8-0.9-0.6-1.7-0.9
	c-0.6-0.3-1-0.8-1.5-0.4C47.1,157.3,47.1,157.6,47.2,157.8z M34.3,174.1c-0.1,0.5,0,0.9-0.4,1.2c-0.6,0.4-1.9,0.3-1.3,1.5
	c0.3,0.6,1.3,0.9,2,0.8c0.6-0.1,1.1-0.6,1.6-0.9c0.3-0.2,0.7-0.2,0.9-0.4c0.3-0.1,0.4-0.4,0.7-0.5c1-0.3,2,0.4,2.8,0.2
	c0.7-0.1,0.9-0.7,1.5-1c0.6-0.3,1.4-0.3,1.6-0.7c0.7-0.9-0.5-2.5-1.7-2.2c-0.7,0.2-0.7,0.9-1.3,1.2c-0.8,0.4-1.6-0.2-2.5,0.2
	c-0.4,0.2-0.2,0.9-0.9,1c-1,0.1-1.6-2.9-2.9-2C34.2,172.9,34.4,173.6,34.3,174.1z M45.5,170.9c-1,0.1-0.9,1.2-0.2,1.8
	C46.5,172.9,46.4,171.4,45.5,170.9z M53.2,173.7c0.4,1.1,1.7,1.4,2.3,1.2c0.9-0.3,0.6-1.7-0.2-2.2c-0.3-0.2-1-0.4-1.6-0.1
	C53.2,172.8,53.1,173.4,53.2,173.7z M26.3,189.7c0.1,0.8-1.5,0.9-1.4,1.7c0,0.6,0.5,1,0.9,1.4c0.2,0.2,0.9,0.6,1,0.9
	c0.1,0.4-0.6,0.8-0.8,1c-0.4,0.3-0.6,0.6-0.5,1.2c0.2,0.9,1.1,1,1.4,1.9c0.3,0.9-0.7,0.9-0.6,1.7c0.1,0.7,0.9,1.2,1.4,1.6
	c0.5,0.3,1.3,0.9,1.9,0.6c0.9-0.4-0.3-2.8-0.4-3.6c0-0.7,0.7-1.1,0.7-1.8c-0.1-0.8-1.2-1.5-1.2-2.1c-0.1-0.7,1.9-0.7,1.7-1.7
	c-0.2-0.8-0.9-0.9-1.1-1.8c-0.2-0.7,1-0.9,1.1-1.5c0.1-0.6-0.9-2.1-0.8-2.7c0.1-0.7,0.8-1.5,0.9-2.5c0.1-1-0.1-2.3,0.1-2.9
	c0.2-0.7,1.9-1.4,1.3-2.5c-0.4-0.6-1.3-0.7-2-0.4c-0.3,0.5,0.1,1-0.1,1.6c-0.3,0.6-1.5,0.7-1.7,1.2c-0.3,0.5,0.1,1.3-0.3,1.5
	c-0.9,0.7-2.5,0.2-2.5,1.4c0.1,0.9,0.9,1.2,1.5,2.1c-0.2,0.7-1.5,0.7-1.7,1.4C24.9,188.5,26.1,188.7,26.3,189.7z M69.6,171.7
	c-0.6,0.2-1.6,0.3-2.2,0.5c-0.4,0.1-0.8,0.4-1.2,0.5c-0.6,0.1-1.3,0-1.8,0.3c-0.2,0.1-1.6,1.2-2,0.6c-0.1-0.1,0.2-0.3,0.3-0.5
	c0.6-1.7-2.7-1.6-1.6,0c0.3,0.4,0.7,0.3,1.2,0.6c-1.6,1-3,1.7-5.3,2.5c-0.3,0.1-0.7,0.4-1,0.5c-0.9,0.3-2,0.4-2.7,1.2
	c-0.4,0.4-1.2,1.7-0.6,2.3c0.4,0.4,1.1,0.2,1.6-0.1c0.4-0.2,0.8-0.5,1.3-0.8c0.8-0.6,2-1.1,2.6-1.6c0.5-0.4,1-0.8,1.8-1
	c1.6-0.3,3-0.6,4.6-1c0.7-0.2,1.2-0.6,1.7-0.7c0.4-0.1,1.1,0,1.5-0.1c0.4-0.1,0.6-0.4,1-0.6c0.5-0.2,1.1-0.3,1.6-0.5
	c0.8-0.4,1.8-0.9,2.6-1.4c0.8-0.5,1.8-1.1,0.9-2.2C71.6,169.3,70.8,171.3,69.6,171.7z M208.5,146c0.3,0.6,1.5,0.7,2.1,0.8
	c0.8,0.2,1.6,0.5,2.2,0.7c0.4,0.1,1,0.1,1.3,0.3c0.7,0.5,0.9,1.2,1.5,1.4c1.4,0.5,3.6-0.9,3.2-1.9c-0.4-0.9-1.9-1-2.8-1.2
	c-1-0.2-2.2-0.6-3.1-0.6c-0.2,0-0.6,0.1-0.8,0.1c-1.1,0-2-1.2-3.2-0.5C208.6,145.4,208.3,145.6,208.5,146z M204.7,159.1
	c0.6-0.3,0.9-0.6,1.4-0.9c0.4-0.2,1.2-0.5,1.7-0.6c0.6-0.2,2.3-0.2,1.9-0.9c-0.3-0.7-1.1,0-1.7,0.1c-0.5,0.1-1,0-1.3,0.2
	c-0.3,0.1-0.4,0.5-0.8,0.7c-0.3,0.2-0.7,0.2-1.1,0.3c-0.5,0.2-0.8,0.6-1.2,0.7c-0.8,0.3-1.8,0.3-1.4,1.2
	C203.4,160.6,204,159.6,204.7,159.1z M225.2,159.6c0.4,0.7,1.9,0.3,1.4-0.5c-0.2-0.3-0.6-0.4-1.1-0.1
	C225.2,159.2,225,159.3,225.2,159.6z M28.5,204.6c0.7,1.3,3.3,0.5,2.4-1.1c-0.3-0.6-0.9-0.8-1.7-0.4
	C28.7,203.3,28.2,203.9,28.5,204.6z M30,208.4c0.6,1.2,3,0.4,3.5,1.6c0.3,0.8-1.3,1.2-0.9,2c0.3,0.5,1.4,0.6,2,0.5
	c0.9-0.2,1.9-0.9,1.6-1.8c-0.3-1-1.4-1.4-1.8-1.9c-0.2-0.2-0.3-0.6-0.5-0.8c-0.6-0.7-2-1.5-2.7-1.3C30.5,206.9,29.6,207.5,30,208.4z
	 M276.6,156.4c-0.5-1-2.7,0.1-2.7,0.8C274.5,157.6,277,157.4,276.6,156.4z M275.5,161.8c-0.6,0.2-1.8,0.8-1.3,1.5
	c0.6,0.8,2.3-0.2,3.3-0.4c0.4-0.1,1.2,0.1,1.6,0c0.5-0.2,1.1-0.9,0.7-1.5c-0.3-0.5-1-0.3-1.4-0.3
	C277.6,161.3,276.5,161.5,275.5,161.8z M289,164.9c-0.2-1.1-1.8-1.2-2-0.3C287.2,165.8,289.1,165.7,289,164.9z M346.6,155
	c0.8,1.1,1.9,2.2,2.5,3.2c0.4,0.7,0.6,1.3,1,1.9c0.3,0.4,0.7,0.8,1,1.3c1,1.4,2.2,2.4,3.2,3.7c0.2,0.3,0.4,0.7,0.6,0.9
	c0.5,0.5,1.2,1.1,1.7,1.5c0.6,0.5,1.3,0.7,1.9,1.2c0.9,0.9,1.6,1.9,2.5,2.6c0.5,0.4,1.1,0.6,1.6,1c0.3,0.3,0.5,0.6,0.8,0.9
	c0.4,0.4,0.9,0.6,1.4,1c0.4,0.4,0.8,0.8,1.2,1.2c0.4,0.4,0.7,1,1.2,1.4c0.4,0.4,0.8,0.5,1.2,0.9c0.5,0.5,0.8,1.2,1.5,1.5
	c0.9,0.5,2.3,0.6,3.2,0.9c0.4,0.2,0.7,0.4,1.1,0.5c0.5,0.1,2,0.2,2.5,0c0.5-0.2,1.1-1.2,0.9-1.7c-0.2-0.5-0.8-0.9-1.3-1.5
	c-0.5-0.6-0.8-1.5-0.2-1.6c0.6-0.1,1.3,1,1.5,1.8c0.1,0.4,0,0.7,0.2,1c0.4,0.7,1.8,0.8,2.4,0.9c0.9,0.2,1.9,0.7,2.7,0.4
	c0.9-0.3,0.5-2-0.2-3.2c-0.6-1.1-1.3-1.1-2-1.7c-0.6-0.5-1-1.2-1.6-1.8c-0.4-0.3-0.9-0.5-1.3-0.8c-0.3-0.2-0.5-0.5-0.8-0.7
	c-0.5-0.4-1-0.7-1.5-1.1c-0.5-0.4-0.9-0.9-1.4-1.4c-0.6-0.5-1.4-0.7-2.2-1.1c-0.6-0.3-1.2-0.8-1.8-1.2c-0.3-0.2-0.7-0.3-1-0.4
	c-0.4-0.2-0.7-0.5-1.1-0.8c-1-0.6-2.3-0.9-3.3-1.3c-0.6-0.2-1.1-0.4-1.7-0.7c-0.7-0.4-1.3-1-2-1.3c-0.3-0.2-0.8-0.2-1.2-0.4
	c-0.4-0.2-0.9-0.6-1.4-0.9c-0.5-0.3-1-0.5-1.5-0.8c-0.8-0.5-1.6-1.2-2.4-1.6c-0.4-0.2-0.9-0.3-1.3-0.5c-0.8-0.5-1.7-1.5-2.5-2.3
	c-0.9-0.7-1.7-1.6-2.5-2.2c-0.7-0.6-1.9-1.2-2.5-0.8C345.7,153.6,346.2,154.5,346.6,155z M155.2,200.6c-0.2-0.4-0.7-1.1-1.1-1.4
	c-1.1-0.7-1.5,0.4-1.8,1c-0.2,0.3-0.8,0.7-0.7,1.1c0.1,0.4,0.5,0.7,0.8,1.2c0.3,0.5,0.6,0.9,0.8,1.2c0.7,0.8,2.6,0.9,3.8,1
	c0.4,0,0.9,0.2,1.2,0.2c1.4,0.1,1.1-0.6,1-1.6c-0.1-0.6,0.2-1.2-0.2-1.9c-0.8-1.6-2.5-0.8-2.8,0.1c-0.1,0.3,0.2,1-0.4,1.1
	C155.4,202,155.7,201.4,155.2,200.6z M142.9,205.2c0,0.4-0.2,0.9,0.3,1.6c0.2,0.3,1.5,1.4,1.9,1.6c0.5,0.3,3.9,0.8,3-0.6
	c-0.2-0.3-0.8-0.3-1.2-0.7c-0.3-0.4-0.4-0.9-0.8-1.3c-0.2-0.2-0.6-0.4-0.8-0.6c-0.8-0.7-1.3-1.7-2.1-1.3
	C142.7,204.1,142.9,204.7,142.9,205.2z M140.8,207.4c1.9,0.2,0.2-3.4-1-2.6C139.2,205.2,140,207.4,140.8,207.4z M148,205.8
	c0.8,0.3,1.9-0.3,1.8-0.9c-0.2-1-1.3-1.1-1.9-1C146.9,204.2,147.1,205.5,148,205.8z M137.9,209.4c0.5,0.6,0.9,1.1,1.2,1
	c0.6-0.1,0.6-1.3,0.2-2.2c-0.5-0.9-2-2-2.6-1.8C135.5,206.9,137.4,208.9,137.9,209.4z M160.7,203.6c-0.1,0.6-0.3,1.2-0.2,1.5
	c0.2,0.9,1.6,1.7,2.4,1.4c0.4-0.2,0.6-1.9,0.3-2.9c-0.4-1-1-2-1.7-1.7C160.9,202,160.9,202.8,160.7,203.6z M164.9,204.8
	c0,0.1,0.1,0.9,0.1,1.1c-0.1,0.4-0.5,0.9-0.3,1.4c0.3,0.8,1.3,1.2,1.8,0.9c0.7-0.4-0.3-1.6,0.6-1.8c1.2-0.3,1.5,1.3,2.4,1.8
	c1.1,0.7,2.1-0.4,2.6-1c0.3-0.3,0.7-0.9,0.3-1.5c-0.5-0.7-2-0.1-2.4-1c-0.2-0.4,0.4-0.9,0.5-1.2c0.3-1.3-1.2-1.7-2.2-1.3
	C166.7,202.8,165.1,203.6,164.9,204.8z M157.6,206.7c-0.6-0.1-1.3-0.2-1.9-0.1c-0.3,0-0.6,0.2-0.9,0.2c-0.9,0-1.5-0.8-2.4-0.6
	c-0.3,0.1-0.5,0.4-0.8,0.5c-0.6,0.2-1.4,0.2-1.3,0.7c0.1,0.8,0.9,0.6,1.6,0.6c0.3,0,0.6,0.1,0.8,0.1c0.9-0.1,1.1-0.6,2.1-0.6
	c1.1,0.5,2.9,0.7,4.1,0.3C158.9,206.9,158.1,206.7,157.6,206.7z M273.6,181.6c-0.2-0.4-1.6-0.5-1,0.5
	C273.1,182.3,273.9,182.1,273.6,181.6z M152.2,210.2c0.4,0.4,1.6,0.2,1.7-0.3C153.6,208.6,151.3,209.2,152.2,210.2z M166.2,210.8
	c-0.3-0.4-0.6-1-0.9-1.4c-0.5-0.6-1.3-0.7-2-1.1c-0.9-0.4-1.7-0.8-2.6-0.8c-1.4,0.1,0.8,1.4,1.1,1.6c0.6,0.4,1,0.8,1.4,1
	c0.9,0.5,1.8,0.7,2.6,1.3c0.3,0.2,0.5,0.7,1,0.5C167,211.6,166.5,211.2,166.2,210.8z M163.2,211.1c-0.2-0.2-1.4-0.7-1.9-0.9
	c-0.3-0.1-0.6-0.1-0.9-0.2c-0.5-0.2-0.8-0.5-1.2-0.7c-0.5-0.2-2.3-0.5-2.2,0.3c0.1,0.7,1.1,0.7,1.6,0.8c0.6,0.1,1.2,0.5,1.7,0.6
	c0.6,0.6,1.3,0.7,1.9,1c0.5,0.2,1,0.6,1.5,0.9c0.5,0.3,1,0.8,1.5,0.5C165,212.7,164,211.7,163.2,211.1z M129.4,223
	c-1.5-0.5-0.4,2.5,0.6,1.2C130.1,223.8,129.8,223.2,129.4,223z M126.9,226.3c0.8-0.3,0-2.7-1.2-2
	C124.8,224.7,125.7,226.8,126.9,226.3z M123.3,226.2c-1-0.7-1.2,0.9-0.3,1.6C124.3,228.3,124,226.7,123.3,226.2z M120.6,228.9
	c0.2-0.7-1-2-1.7-1.6C118.1,228.2,120.3,230.3,120.6,228.9z M278.5,195.1c-0.4-0.1-0.8-0.4-1.2-0.6c-0.6-0.2-1.6-0.3-2.1-0.3
	c-0.6,0-1.3,0.3-1.2,0.6c0.2,0.7,1.6,0.4,2,0.5c0.3,0.1,0.7,0.4,1,0.5c0.4,0.1,0.9,0,1.3,0c0.5,0.1,1.2,0.6,1.6,0.1
	c0-0.1,0-0.2,0-0.2C279.8,194.9,279.1,195.2,278.5,195.1z M165.9,219.7c-0.2,0.7-0.7,1.8-0.7,2.5c0,0.4,0.2,0.9,0.1,1.3
	c-0.1,0.5-0.5,0.8-0.8,1.2c-0.4,0.8-0.4,1.6-0.3,2.6c-0.3,0.8-1.3,1.9-0.2,3c0.9,0.4,1.3-1.2,1.3-2c0-0.3-0.2-0.7-0.1-0.9
	c0.1-0.3,0.5-0.5,0.7-0.8c0.1-0.2,0.1-0.6,0.2-0.9c0.2-0.7,0.5-1,0.1-1.9c0.6-1,1-2.1,1.1-3.5c0-0.6,0.2-1.4-0.3-2
	C165.9,218.2,166.1,219.1,165.9,219.7z M172.2,220.3c0.4,0.1,1-0.1,1.6,0c0.4,0.1,1,0.5,1.4,0.5c1,0,2.5-0.8,2.3-1.5
	c-0.1-0.4-1-1-1.5-1.1c-0.5-0.1-0.8,0.1-1.2,0.1c-1.5-0.1-2.3-1.2-3.4-0.5C170.4,218.1,170.9,220,172.2,220.3z M87.4,239.6
	c0.9,1.3,3.9,0.4,3.4-0.9c-0.4-1.1-1.8-1.3-2.8-0.9C87.2,238,86.7,238.6,87.4,239.6z M97.4,236.1c-0.9,0.4-2.2,0.7-1.8,1.8
	c0.6,1.4,2,0.9,3.4,0.7c0.5-0.1,0.9,0,1.3-0.1c1-0.3,1.6-1.2,1.1-2.2c-0.5-1.1-1.7-1.2-2.8-0.8C98.2,235.7,97.9,236,97.4,236.1z
	 M276.8,198.5c0.4,0.8,2.5,0.4,2.3-0.4c-0.3-0.8-1.3-0.7-1.9-0.4C276.7,198,276.6,198.1,276.8,198.5z M238.6,210
	c1.2,1.2,1.9,2.6,3.2,3.6c0.6,0.5,1.6,0.9,2.4,1.4c0.5,0.3,0.9,0.8,1.3,1c0.7,0.3,2.5,0.1,2.8-0.5c0.2-0.5-0.1-1.9-0.7-2.6
	c-0.3-0.3-0.9-0.7-1.2-0.9c-0.4-0.3-0.8-0.7-1.2-1c-0.3-0.2-0.9-0.4-1.4-0.8c-0.3-0.2-1-1-0.3-1.3c0.6-0.2,1.2,0.5,1.8,0.8
	c0.3,0.1,0.7,0.2,0.9,0.3c0.4,0.2,1,0.6,1.6,1c0.5,0.3,1.1,0.6,1.6,1c0.9,0.6,1.8,1.7,2.7,1.9c0.9,0.2,2.3-0.3,2.5-0.8
	c0.2-0.6-0.6-2.4-1.3-3.1c-1-1.1-3.1-1.1-4.4-1.5c-0.6-0.2-1.3-0.6-2-0.9c-1.2-0.4-2.8-1.1-4.2-0.7c-1,0.2-1.3,1.2-2.2,1.3
	c-1,0.1-2.3-1.1-3.5-0.4C235.7,208.2,237.8,209.2,238.6,210z M171.6,223.2c0.4,0.7,1,0.5,1.7,0.7c0.6,0.1,1.5,0.8,2,0.8
	c1.1,0,2.7-0.9,2.5-1.6c-0.3-0.9-1.8-1.5-2.3-1.9C174.2,221.9,170.6,221.4,171.6,223.2z M279.2,200.6c-0.7,0.1-0.7,0.6-0.3,1.1
	c0.4,0.5,1.6,0.4,2.3,0.4c0.7,0.1,1.5,0.2,1.9-0.3C282.5,201.1,280.2,200.5,279.2,200.6z M167.6,226.1c-0.1,0.3-0.4,1.4-0.2,1.7
	c0.5,0.8,1.4-0.3,1.5-0.6c0.2-0.5,0.6-2.7-0.6-2.2C167.9,225.2,167.7,225.9,167.6,226.1z M171.2,227c0.3,0.6,1.3,0.7,2.1,1
	c0.3,0.1,0.7,0.4,1.1,0.5c0.7,0.1,3.2-0.1,3.5-0.7c0.6-1.1-1.5-1.9-2.3-2.1c-0.6-0.1-1.7,0.2-2.1,0.1c-0.6-0.1-1-1-1.8-0.7
	C171.2,225.2,170.9,226.4,171.2,227z M236,214.3c0.2,0.5,0.3,0.8,0.5,1.3c0.7,1.3,1.7,2.9,2,4.4c0.1,0.7-0.2,0.9,0.2,1.6
	c0.4,0.6,1.5,1.1,2.4,0.7c0.5-0.2,0.7-1,1-1.3c0.5-0.6,1.2-1.3,1.1-2c0-0.6-1-2.7-1.5-3.4c-0.3-0.5-1.2-1.3-1.7-1.7
	c-0.4-0.3-1.3-0.6-1.9-0.9c-0.8-0.4-1.7-0.9-2.3-0.7C234.9,212.6,235.6,213.4,236,214.3z M267.2,208c-0.3,0.4-0.1,1.5,0.5,1.9
	c0.3,0.2,1.3,0.2,1.9,0.1c1-0.1,2.5-0.4,3.4-0.7c0.3-0.1,0.6-0.4,1-0.5c1-0.3,2.5-0.4,2.4-0.9c-0.1-0.3-0.9-0.6-1.3-0.7
	c-1.1-0.2-2.1,0.2-3.2,0.3c-1.2,0.1-2.4-0.3-3.7,0.1C267.6,207.8,267.3,207.8,267.2,208z M224.7,219.1c0.6,1.2,1.1,1.8,1.8,2.8
	c0.5,0.6,0.9,1.5,1.4,2c0.6,0.7,1.6,1.4,2.2,1.6c2,0.8,3.7-0.8,3.6-2.2c-0.1-0.9-1-1.8-1.7-2.4c-1.1-0.9-2.7-1.7-3.9-2.4
	c-0.9-0.5-1.7-1.1-2.3-1.3c-0.5-0.2-1.3-0.3-1.6-0.1C223.5,217.5,224.2,218.2,224.7,219.1z M167.4,231.7c0.2-0.5,0.6-0.9,0.4-1.3
	c-0.3-0.4-1-0.3-1.3,0c-0.4,0.5-0.4,1.4-0.3,2.1C167,233.2,167.2,232.2,167.4,231.7z M175.4,232c0.5,0,1.5-0.3,1.4-0.7
	c-0.1-0.9-2.4-1.4-3.1-1.1C172.6,230.9,174.7,231.9,175.4,232z M280.7,208.7c-0.1-0.6-0.9-0.9-1.3-0.6
	C278.5,208.8,280.9,209.9,280.7,208.7z M267.8,212c0,1.4,1.3,1.3,2.4,1.2c0.7-0.1,1.3,0,1.8-0.1c0.3-0.1,0.6-0.2,1-0.3
	c0.7-0.2,1.7-0.2,2.2-0.3c0.7-0.2,1.3-0.8,2.2-0.8c0.6,0,1.8,0.3,1.7-0.4c-0.1-0.5-1.4-0.8-2.2-0.8c-1.4,0-2.6,0.5-3.5,0.6
	c-0.6,0.1-1.4,0-2,0.1c-1,0-2-0.1-3,0.3C268.1,211.5,267.8,211.6,267.8,212z M266.6,214.7c-0.4,0.3-1.2,1.3-1.2,1.8
	c0,0.3,0.3,0.7,0.5,1.1c0.1,0.3,0.1,0.8,0.2,1.1c0.2,0.4,0.7,1.3,1,1.5c1.1,0.8,1.7-0.4,2.4-0.6c0.7-0.2,1.7,0,2.4-0.1
	c0.3-0.1,0.4-0.3,0.9-0.4c0.9-0.2,2.4-0.1,3.2-0.4c0.3-0.1,0.7-0.5,1.1-0.6c1-0.3,3.4,0.3,3.2-0.9c-0.3-1.7-2.8-0.9-4.2-0.7
	c-1.2,0.2-3.5,0.2-4.5,0.6c-0.5,0.2-2.1,1.4-2.6,0.6c-0.6-1.1,2.3-1.2,3.1-1.4c0.5-0.1,1-0.6,1.4-0.7c0.5-0.1,1-0.1,1.5-0.1
	c0.9-0.1,4.3-0.3,4.1-1.2c-0.2-0.8-1.3-1.1-2.1-1c-1.3,0.2-2.6,0.8-3.7,0.9c-0.4,0-0.9-0.1-1.3-0.1c-1.3,0-3.1,0-4.1,0.4
	C267.6,214.4,266.9,214.5,266.6,214.7z M220.2,232.5c0.3,1.1,0.4,1.9,1.1,2.5c1.5,1.3,3.8-0.1,3.2-1.7c-0.4-0.9-2.3-2.6-3.2-3.1
	c-0.4-0.2-0.9-0.3-1.1-0.3C219.2,230.2,219.8,231.3,220.2,232.5z M161.7,243.7c0.4,1.2,2.8,0.9,1.8-0.3c-0.3-0.4-1.1-0.4-1.4-0.3
	C161.7,243.3,161.6,243.4,161.7,243.7z M170.6,244.4c0.5,0.3,1.9,0,2.5-0.2c0.4-0.2,0.8-0.6,0.6-1c-0.4-0.9-2.3-0.9-3-0.6
	C169.9,242.8,169.5,243.8,170.6,244.4z M333.1,208.6C333.7,207.9,332.1,208.2,333.1,208.6L333.1,208.6z M171.7,248.2
	c0.8,1.3,2.3-0.1,3.1-0.2c0.5-0.1,1.6,0.5,1.4-0.4c-0.2-0.9-1.4-1.2-2.4-1c-0.2,0-0.4,0.2-0.6,0.2c-0.5,0.1-1-0.1-1.2,0
	C171.6,247.1,171.2,247.5,171.7,248.2z M436.7,208.3c0.3-0.1,0.6-0.4,1.1-0.5c0.5-0.2,1.3-0.2,1.8-0.4c0.3-0.1,0.7-0.4,1-0.6
	c0.7-0.4,1.3-0.8,0.7-1.7c-0.2-0.3-1-0.6-1.2-1c-0.2-0.6,0.8-0.7,1.1-1c0.5-0.5,0.4-2.5-0.8-3.5c-0.5-0.5-1.5-0.6-2.5-0.7
	c-0.9-0.1-1.8,0.1-2.8,0c-0.4,0-0.8-0.2-1.2-0.3c-1.8-0.2-3.7,0.4-5.8,0.4c-1.1,0-1.9-0.6-2.9-0.4c-0.5,0.1-0.8,0.4-1.3,0.4
	c-0.8,0.1-1.4-0.3-2.1-0.5c-0.5-0.1-3.8-0.5-3.5,0.6c0.2,0.8,1.4,0.9,2.2,0.9c0.8,0,1.9,0.2,2.6,0.1c0.5,0,0.9-0.2,1.2-0.2
	c0.7,0,1.4,0.6,1.9,0.7c0.3,0,0.6-0.1,1.2-0.1c0.4,0,1,0.2,1.6,0.2c1.1,0,3.6-0.9,3.9,0.2c0.2,0.8-1.9,0.5-2.4,0.6
	c-1.4,0.2-2,0.4-3.1,0.1c-0.3-0.1-0.7-0.3-1-0.4c-1.4-0.3-2.9,0.2-4.5,0.4c-0.8,0.1-1.9-0.1-2.4,0.3c-0.6,0.4-0.1,1.4-0.7,1.6
	c-0.2,0.1-0.6,0-1,0c-0.3,0.1-0.6,0.3-0.9,0.3c-0.6,0.1-1.2-0.1-1.8,0c-0.5,0.1-1.1,0.4-1.4,0.7c-0.4,0.3-1.1,0.8-0.8,1.5
	c0.5,0.4,1.1,0,1.6,0c0.4-0.1,0.9,0,1.3,0c1-0.1,1.4-0.6,2-0.9c0.6-0.2,0.9-0.1,1.5-0.1c1,0,3.5-0.1,3.7,0.8c0.1,0.7-2,0.4-3.1,0.8
	c-0.5,0.2-0.7,0.5-1.1,0.6c-0.8,0.2-1.6-0.3-2.2-0.3c-0.8,0-1.9,0.5-1.4,1.4c0.4,0.6,1.8,0.3,2.8,0.1c0.5-0.1,1.4-0.6,1.6,0.1
	c0.1,0.3-1,0.9-1.4,1c-0.6,0.2-1,0-1.6,0.1c-0.5,0.2-1.2,0.6-1.8,1c-0.6,0.4-1.1,0.9-1.7,1.2c-0.7,0.4-2.1,0.5-1.4,1.5
	c0.2,0.4,0.8,0.4,1.5,0.1c0.8-0.3,1.6-0.5,2.3-0.7c0.8-0.2,1.5-0.9,2.3-1.3c0.8-0.4,2.7-0.4,3.3-0.9c0.3-0.2,0.3-1,0.8-1.4
	c0.4-0.3,1.3-0.3,1.9-0.5c0.3-0.1,0.6-0.4,0.9-0.5c0.4-0.1,0.8-0.1,1.2-0.3c0.8-0.2,1.4-0.8,2.1-1.1c1-0.3,2-0.3,3.2-0.4
	c1-0.1,2.6-0.4,2.9,0.2c0.3,0.5-0.3,0.8-0.6,1.2C435,207.7,435.7,208.5,436.7,208.3z M177.2,251.2c-0.3-0.5-1.6-0.4-2.1-0.3
	c-0.6,0.1-1.2,0.6-1.1,1c0,0.4,0.5,0.8,0.7,1.2c0.1,0.2,0,0.5,0.1,0.7c0.1,0.5,0.4,1.3,0.5,1.6c0.4,0.7,1.6,1,2.1,0.4
	c0.4-0.5-0.2-1.5-0.5-1.8c-0.3-0.3-0.8-0.4-1.4-1C175.8,252.2,177.8,252.2,177.2,251.2z M173.7,259.2c0.2,0.1,0.5,0,0.6-0.2
	C174.1,258.3,173.1,258.7,173.7,259.2z M176,259.6c-0.4,0.1-1,0.1-1.2,0.3c-0.4,0.5,0.6,1.8,1.3,2.4c1.5,1.6,2.6,0.7,2.9-0.9
	c0.2-1.1-0.6-2.9-2-2.4C176.7,259.2,176.5,259.5,176,259.6z M354.2,224.6c-0.2,0.4-0.4,0.8-0.5,1.2c-0.3,0.8-0.9,1.8-1,2.4
	c-0.1,0.6,0.4,1.2,0.6,1.9c0.3,0.8,0.4,1.6,1.3,1.6c1.4,0,1.1-1.8,1.2-2.7c0.1-0.9,0.2-1.6,0.4-2.4c0.1-0.4,0.1-0.9,0.2-1.3
	c0.2-0.7,0.8-1.4-0.1-2.2C354.9,223,354.5,223.8,354.2,224.6z M425.6,209.5c-0.4,0.1-0.8,0-1.3,0.1c-0.7,0.2-1,1-2.2,1.5
	c-0.8,0.3-1.9,0.7-1.4,1.5c0.3,0.5,1.9,0.3,2.5,0c0.4-0.2,0.7-0.8,1.1-1.1c0.5-0.3,1.1-0.6,1.8-0.8c0.7-0.2,1.4-0.6,2-0.7
	c0.8-0.2,2.1-0.2,1.4-1.2c-0.4-0.5-2,0-2.4,0.1C426.5,209.1,426.1,209.3,425.6,209.5z M431.6,208.7c0.1,0,0.1,0,0.1,0.1
	c0.9,0.1,1.7-0.5,2-1.1C433,207.9,431.1,207.5,431.6,208.7z M406.5,218c0.4-0.2,1-0.3,1.5-0.5c0.3-0.2,0.5-0.4,0.8-0.6
	c0.7-0.4,2.7-1.2,2-2.3c-0.2-0.3-0.6-0.4-1.1-0.3c-0.4,0.1-0.7,0.7-1.2,0.8c-1,0.2-2,0.5-2.7,1.1c-0.2,0.2-0.3,0.6-0.5,0.9
	c-0.4,0.6-1.3,1.2-0.5,2C405.9,219.3,406,218.3,406.5,218z M437.8,209.4c-0.4,0.1-0.8,0.4-1.1,0.7c-0.4,0.2-0.6,0.7-1,0.8
	c-0.5,0.1-1.1,0-1.5,0.1c-0.8,0.2-1.5,0.8-2.4,1.2c-0.8,0.4-1.6,0.8-2.4,1.1c-0.5,0.2-1,0.2-1.4,0.4c-0.2,0.1-0.4,0.3-0.7,0.5
	c-0.3,0.2-0.7,0.2-0.9,0.3c-0.5,0.3-0.7,0.9-1.2,1.1c-0.4,0.1-0.8,0-1.2,0.1c-0.4,0.1-0.7,0.5-1.1,0.7c-1.2,0.6-2.6,1.2-3.4,2
	c-0.3,0.3-0.4,0.8-0.8,1c-0.3,0.2-0.7,0.1-1.1,0.3c-0.4,0.2-0.7,0.6-1,0.8c-0.5,0.2-0.9,0.1-1.3,0.3c-0.7,0.3-0.8,0.8-1.3,1.2
	c-0.3,0.3-0.7,0.5-1,0.8c-0.3,0.3-0.6,0.6-0.9,0.9c-0.6,0.4-1.2,0.7-1.6,1.2c-0.5,0.5-1.1,0.8-1.5,1.3c-0.5,0.5-0.8,1.4-1.3,2
	c-0.5,0.6-1.1,1.1-1.5,1.6c-0.2,0.3-0.3,0.7-0.5,1.1c-0.2,0.4-0.5,0.7-0.6,1c-0.6,1.3-0.4,3.2-0.7,4.7c-0.1,0.4-0.4,0.8-0.4,1.2
	c-0.1,1.2,0.2,2.3-0.2,3.3c-0.2,0.5-0.9,1-0.7,1.6c0.3,0.9,1.2,1.3,1.7,1.3c1.1,0,2.1-1.2,2.2-1.7c0.2-0.7-0.3-1.3-0.3-2.2
	c0-0.5,0.3-1.1,0.4-1.7c0.1-0.6,0.4-1.1,0.5-1.6c0.1-0.5,0.2-1.1,0.4-1.7c0.2-0.6,0.2-1.2,0.5-1.7c0.3-0.5,0.8-0.7,1.1-1.2
	c0.2-0.4,0.2-0.9,0.4-1.3c0.2-0.3,0.4-0.7,0.6-1c0.2-0.2,0.5-0.4,0.7-0.7c0.3-0.3,0.4-0.8,0.6-1.1c0.3-0.3,0.7-0.5,0.9-0.8
	c0.3-0.3,0.5-0.6,0.8-0.8c0.4-0.3,1-0.4,1.4-0.7c0.7-0.5,1.1-1.4,1.7-2c0.4-0.4,0.8-0.8,1.4-1.2c0.5-0.4,1.2-0.5,1.9-0.8
	c0.4-0.3,0.5-0.7,1-0.9c0.3-0.2,0.7-0.1,1-0.3c0.4-0.2,0.7-0.5,1-0.6c0.4-0.1,0.8-0.1,1.2-0.2c1-0.3,1.4-1.2,2.4-1.6
	c0.9-0.4,2-0.6,2.9-1.1c1.2-0.5,2.2-1.4,3.4-1.8c1.3-0.4,2.4-0.7,3.5-1.2c1.1-0.5,2.3-0.7,3.5-1.1c0.3-0.1,1.4-0.5,1.8-0.8
	c0.6-0.4,0.8-1.5,0.6-2.1c-0.4-1.1-1.3-1.5-2.2-1.2C439,209.1,438.4,209.2,437.8,209.4z M397.2,219.1c-0.2,0.3-0.1,0.8-0.3,1.2
	c-0.3,0.6-0.8,1.2-1.3,1.7c-0.2,0.2-0.5,0.4-0.6,0.6c-0.2,0.3-0.2,0.8-0.3,1.2c-0.3,0.8-0.9,1.6-1,2.4c-0.1,0.4,0,0.8,0,1.2
	c0,0.4-0.2,0.8-0.1,1c0,0.5,0.4,1.2,0.5,1.7c0,0.2-0.5,1.9,0.6,2.1c0.9,0.1,0.6-1.1,0.6-1.5c0.1-0.8,0.9-2.3,1-3.2
	c0-0.2-0.1-0.7-0.1-1c0-0.6,0.4-1.1,0.7-1.8c0.3-0.6,0.4-1.4,0.7-1.8c0.4-0.6,1.4-1,2-1.7c0.3-0.5,1.1-1.6,0.7-2.4
	c-0.4-0.7-1.4-0.7-2.1-0.4C397.8,218.5,397.3,218.8,397.2,219.1z M414.5,215.9c-0.5-0.8-1.9,0.1-0.9,0.9
	C414.3,216.9,414.8,216.4,414.5,215.9z M410.3,218.4c-0.8-0.5-1.4,0.6-1.4,1.2C409.8,219.8,411.3,219,410.3,218.4z M208.3,265.9
	c0.2-0.6-0.8-1-1.2-0.7C205.9,265.7,208,266.9,208.3,265.9z M348.8,239.1c1.2,1.3,2.9,3.7,4.3,4c0.9,0.2,1.7-0.5,1.4-1.2
	c-0.1-0.3-0.6-0.6-1-1c-0.2-0.2-0.5-0.5-0.7-0.7c-0.3-0.2-0.7-0.3-1.2-0.5c-0.7-0.4-1.5-1.3-2.1-1.8c-0.3-0.2-0.6-0.5-1-0.9
	c-0.5-0.5-1-1.1-1.4-0.8C346.2,236.7,348.3,238.6,348.8,239.1z M352.6,237.9c0.5,0.9,2,2,2.7,2c1.5-0.1,0.2-1.5-0.4-2.2
	c-0.6-0.6-1.2-1.7-2.1-1.2C352.2,236.7,352.2,237.3,352.6,237.9z M381.2,236.3c0.1,0.6,1,1.4,1.3,1.6c0.4,0.3,1.9,1.1,2.4,0.8
	c0.8-0.4-0.4-1.3-0.8-1.6c-0.6-0.5-1.1-1.2-1.6-1.6C381.8,235.4,381.1,235.9,381.2,236.3z M375.2,239.1c0.3,0.2,0.5,0.5,0.8,0.6
	c0.7,0.2,1.4-0.1,1.4-0.5c0.1-1.6-2.9-2.3-3.5-1C374.2,238.7,374.8,238.8,375.2,239.1z M369,241.7c0.6,0.2,3.3,1,2.7-0.3
	c-0.1-0.4-0.7-0.6-1.2-0.9c-0.2-0.1-0.6-0.5-0.9-0.7c-1-0.5-2.5-0.4-2.7,0.4C367.5,241.3,368,241.4,369,241.7z M344.5,253.4
	c0.2-0.2,0.2-1-0.1-1.5c-0.3-0.4-0.9-1.2-1.5-1.7c-0.5-0.5-1.3-0.8-1.8-1.2c-0.7-0.5-1.6-1.4-2.3-1.3c-0.3,0.1-0.5,0.4-0.4,0.7
	c0.5,1.3,2.4,2.7,2.8,4.3C342,253.1,343.6,254.3,344.5,253.4z M356.3,249.4c-0.1-0.4-0.5-0.5-0.8-0.3
	C355,249.6,356.5,250.2,356.3,249.4z M399.7,241.7c0.2,0.2,0.7,0.2,0.9,0c0.1-0.3-0.1-0.6-0.4-0.8
	C399.7,240.7,399.2,241.1,399.7,241.7z M353.6,252.5c-0.7-0.1-1.3,0.3-1.2,0.8c0.3,1.2,2.4,1.5,3.1,0.7
	C355.3,253.2,354.3,252.5,353.6,252.5z M347.2,257c0.7,0.3,1.3,0.6,2.2,0.9c0.5,0.2,2.2,0.8,2.7,0.5c0.6-0.3,0-1.8-0.6-2.2
	c-0.3-0.2-1-0.2-1.3-0.3c-0.9-0.3-1.3-0.8-2-0.9c-0.4-0.1-1.3,0-1.7,0.2C345.2,255.7,346.4,256.6,347.2,257z M385.5,250.3
	c0.3,0.5,1.1,0.6,1.4,0.4c0.6-0.4-0.6-1.8-1.3-1.5C385.2,249.4,385.2,249.8,385.5,250.3z M373.3,253.8c0.3,2,2.7,0.8,3.3,0.2
	C376.3,251.8,373.8,253,373.3,253.8z M345.8,261.2c0.2,0.3,1.8,1.1,2.5,1.1c1.1-0.1,1.3-1.3,0.2-2.2c-0.6-0.5-1.8-0.5-2.5-0.2
	C345.5,260.1,345.2,260.4,345.8,261.2z M239.9,285.1c0.3,0.8,2,0.3,1.5-0.5c-0.3-0.4-0.7-0.3-1.1-0.1
	C239.9,284.7,239.8,284.8,239.9,285.1z M231.8,288.8c0.5,0,0.9,0.2,1.3,0.1c0.9-0.2,1.3-1.1,2.2-1.3c0.3-0.1,0.7,0,0.9,0
	c1-0.1,2-0.7,1.7-1.4c-0.4-0.9-1.6,0-2.1,0.1c-0.4,0.1-0.9,0.1-1.3,0.2c-0.6,0.2-1.1,0.7-1.8,0.9c-1.1,0.3-2.3,0.3-2.8,1.1
	C230.2,289.2,231.1,288.8,231.8,288.8z M222.5,289.7c0,0.1,0.1,0.2,0.2,0.3c0.2,0,0.3-0.1,0.2-0.4
	C222.8,289.5,222.5,289.6,222.5,289.7z M216.5,291.1c0.1,0.4,0.6,0.3,0.4-0.1C216.8,290.9,216.6,291,216.5,291.1z M385.9,256.1
	c-0.2-0.3-0.7-0.4-1.1-0.1C383.6,256.8,386.8,257.5,385.9,256.1z M328.6,271.5c1.6,0,0.6-2.2-0.6-1.7
	C327,270.2,327.8,271.5,328.6,271.5z M352.8,269.7c-0.7-0.3-1.2-0.8-1.8-1c-0.5-0.6-1.1-0.7-1.6-1.1c-0.2-0.2-0.4-0.5-0.7-0.7
	c-0.4-0.3-2-0.9-2.6-0.8c-0.5,0.1-0.7,0.3-0.6,0.6c0.3,1,1.9,1.1,2.6,1.7c0.4,0.3,0.7,1,1.2,1.3c1,0.6,2.4,0.3,3.5,0.6
	c0.5,0.3,1.2,0.9,1.6,0.4C354.3,269.9,353.4,269.9,352.8,269.7z M460.8,244c-0.3-0.2-0.9,0-1.5-0.1c-0.8-0.1-1.2-0.6-2.2-0.2
	c-0.5,0.2-1.1,0.5-1.7,0.7c-0.8,0.3-1.4,0.9-1.2,1.4c0.2,0.6,1.6,1.2,2.1,1.3c0.6,0.1,1.4-0.1,2.1-0.1c0.8,0,1.5,0.1,2,0
	c0.8-0.2,1.3-0.9,1.4-1.5C461.5,244.9,461.2,244.2,460.8,244z M286.1,282.6c0,0.4-0.1,0.7,0.1,1.1c0.5,1.3,1.9,2.7,2.5,2.7
	c0.5,0,1-0.6,0.8-1.3c-0.2-0.7-1.3-1.4-1.6-2.1c-0.6-1.1-0.7-2.2-1.6-1.7C285.7,281.5,286,282,286.1,282.6z M346.8,269.7
	c-0.1-0.4-0.3-0.6-0.5-0.7C345.1,269.1,346.5,270.6,346.8,269.7z M326.2,286.7c-0.9-0.7-1.9-1.1-2.7-1.8c-0.7-0.6-1.3-1-2-1.4
	c-0.4-0.2-0.7-0.6-1.1-0.8c-1-0.6-2-1-2.9-1.7c-0.4-0.3-0.8-0.9-1.2-1.2c-0.4-0.3-1-0.3-1.4-0.5c-0.4-0.2-0.7-0.7-1.1-1
	c-0.3-0.2-0.6-0.3-0.8-0.5c-0.2-0.2-0.3-0.5-0.4-0.7c-0.3-0.3-1.1-0.6-1.3-0.4c0,0.8,0.9,1.1,1.5,1.4c0.4,1.2,1.3,1.5,2,2.1
	c0.6,0.6,1.3,1.2,1.8,1.9c0.6,0.8,1.1,1.6,1.8,2.1c0.4,0.3,0.9,0.4,1.4,0.7c0.4,0.2,0.7,0.5,1,0.7c0.6,0.3,1.2,0.4,1.8,0.8
	c0.3,0.2,0.5,0.5,0.8,0.6c0.5,0.3,1.1,0.4,1.8,0.6c0.8,0.3,1.7,0.9,2.1,0.3C327.2,287.4,326.7,287,326.2,286.7z M320.6,278.2
	c0.2,0.6,1,0.9,1.6,1c0,0,0-0.1,0.1-0.1C322.5,278.2,320.1,277,320.6,278.2z M295.4,286.1c0.3,0.9,1.4,1.9,2.4,1.4
	c0.8-0.4,0.8-1.8,0-2.9C296.4,284,295,284.9,295.4,286.1z M358.1,276.7c0.3-0.1,0.6-0.3,0.6-0.6c0.1-1.4-3.2-2.3-4.1-2.2
	c-0.1,0-0.2,0.1-0.2,0.2C354.4,275.3,356.9,277,358.1,276.7z M327.4,282.1c-0.3-0.3-1.2-1.3-1.6-1.1c-0.6,0.3,0.7,1.2,1,1.4
	c0.6,0.4,1.2,0.5,1.7,0.7C328.3,282.7,327.9,282.5,327.4,282.1z M246.3,301.7c0.6,0.9,2,0.1,2.4-0.4c0.2-0.2,0.5-0.7,0.3-1.2
	c-0.4-0.8-1.2-0.8-1.8-0.5C246.4,300,245.7,300.8,246.3,301.7z M316.8,286.2c0.2,0.4,1.2,0.3,0.8-0.4c0,0-0.1,0-0.1-0.1
	C317.1,285.6,316.7,285.9,316.8,286.2z M371.3,278.8c-0.6-0.4-1-0.8-1.5-1.2c-0.5-0.4-1-0.4-1.6-0.6c-0.3-0.1-0.7-0.3-0.9-0.2
	c-0.9,0.1-0.6,0.9-0.3,1.4c0.3,0.4,0.8,0.7,1.4,1c0.5,0.3,0.9,0.8,1.4,1c0.4,0.2,0.9,0,1.4,0.1c0.6,0.1,1.5,0.5,1.7-0.1
	C372.5,279.6,371.8,279.2,371.3,278.8z M249.3,303.3c-0.5,0.5-1.2,0.9-0.9,1.6c0.3,0.5,0.8,0.6,1.4,0.5c1.1-0.2,2.8-1.4,2.5-2.2
	c-0.3-1-1.5-1.2-2.1-0.9C249.7,302.5,249.7,302.9,249.3,303.3z M193.7,315.8c0.1-0.2-0.2-0.4-0.4-0.3
	C193.3,315.8,193.5,315.9,193.7,315.8z M329.7,286.6c0.4,0.4,0.9,0.9,1.5,0.9C331.7,286.8,330,285.8,329.7,286.6z M369.6,281.3
	c-1.3-0.7-1.9-1.6-3-1.5c-0.5,0-0.5,0.4-0.4,0.7c0.3,1,1.3,1,2.1,1.2c0.8,0.7,1.8,1.2,2.7,1.6c0.2-0.1,0.6-0.1,0.7-0.2
	C372.3,281.8,370.6,281.8,369.6,281.3z M337,289.4c-0.7-0.8-1.6-1.8-2.4-2.2c-1-0.4-2.8,0.1-1.4,1.2c0.5,0.4,1.5,0.5,2.2,0.8
	c0.9,0.3,1.4,0.8,2.1,1C337.7,289.9,337.2,289.6,337,289.4z M252.6,307.1c0.3,0.6,0.9,0.7,1.3,0.6c0.7-0.1,1.3-1.2,0.7-2.1
	c-0.2-0.3-0.5-0.5-0.9-0.4C253,305.5,252.2,306.5,252.6,307.1z M333.3,291.7c0.4,0.9,2.6,1.3,2.3,0.3c-0.2-0.8-1.5-1.4-2.2-0.8
	C333.2,291.3,333.2,291.5,333.3,291.7z M255.8,309.3c0.2,0.8,1.2,1,1.8,0.9c1.2-0.3,1-2.1-0.3-2.4
	C256.3,307.9,255.6,308.6,255.8,309.3z M259.2,313.2c0.6,0.4,1.5-0.1,1.7-0.6c0.3-0.5,0.1-1.2-0.3-1.8
	C259.1,309.9,257.9,312.4,259.2,313.2z M263.6,313.7c0.4,0,0.4-0.2,0.2-0.5C263.4,313,263.2,313.4,263.6,313.7z M346.6,296.1
	c-0.2-0.3-0.7-0.4-0.9,0C345.9,297,346.9,296.7,346.6,296.1z M266.4,317.3c0.1,0.1,0.4,0.3,0.5,0.3c1.3,0,1.4-2.5,0.2-2
	C266.7,315.7,265.9,316.6,266.4,317.3z M436.9,281.7c0.2,0.6,2.2,0.7,3,0.4c0.8-0.3,0.6-1.1-0.2-1.6
	C438.9,280.6,436.7,281.2,436.9,281.7z M269.5,319.3c-0.2,0.4-0.5,1-0.2,1.5c0.7,1.2,2.1-0.1,2.5-0.6c0.4-0.5,0.8-1.4,0.3-2.1
	c-0.4-0.7-1.2-0.7-1.8-0.4C269.7,318,269.8,318.6,269.5,319.3z M424.4,289.1c0.4,0.3,0.7,0.6,1.1,0.8c0.4,0.2,0.8,0.2,1.2,0.4
	c0.6,0.2,1.1,0.7,1.5,0.5c0.5-0.2,0.5-1.1,0.1-1.6c-0.4-0.5-1.1-0.5-1.7-0.9c-0.3-0.2-0.9-0.8-1.2-0.9c-0.5-0.2-1.5,0-1.8,0.2
	C422.9,288.1,423.9,288.7,424.4,289.1z M273.3,322.5c1,1.9,2.4-0.4,3.5-0.4c0.5,0,1.2,0.6,1.7,0.8c0.6,0.2,1.1,0.1,1.6,0.2
	c0.4,0.1,0.6,0.3,0.9,0.4c0.7,0.2,1.2,0.2,1.7,0.4c0.4,0.2,0.9,0.5,1.2,0.8c0.4,0.3,0.7,0.8,1.2,1c0.2,0.1,0.6,0.1,1,0.2
	c0.3,0.1,0.7,0.3,0.9,0.4c0.8,0.3,2.4,0.9,2.5,0c0.2-1.2-1.5-1.6-2.3-2c-1.1-0.6-1.9-1.2-2.9-1.3c-0.4,0-0.9,0.2-1.3,0.1
	c-0.4-0.1-0.8-0.5-1.4-0.8c-0.4-0.2-1.2-0.5-1.5-0.6c-0.3-0.1-0.6,0-1-0.1c-0.3-0.1-0.7-0.3-1.1-0.4c-0.6-0.1-1.2-0.1-1.5-0.3
	c-0.7-0.3-1.2-1.2-1.9-1.3c-0.4-0.1-0.9,0-1,0.1C273.2,320.1,272.8,321.7,273.3,322.5z M437,287.2c0.4,0.5,1.4,0.1,1.8-0.2
	c0.5,0.5,3.8,1.2,3.1-0.3c-0.5-1.1-2.8-0.6-3.3,0.1C438.2,286.2,436.3,286.2,437,287.2z M430.9,290.3c0.3,0.6,1.1,0.5,1.6,0.6
	c0.6,0.1,1.4,0.4,2.2,0.7c0.6,0.2,1.7,0.8,2.3,0.6c0.3-0.1,0.6-0.6,0.2-1.3c-0.3-0.4-1.8-1.2-2.8-1.5c-0.5-0.1-1.1,0.1-1.7,0
	c-0.6-0.1-1.1-0.4-1.5-0.2C431,289.5,430.7,289.9,430.9,290.3z M429.9,292.2c-0.2-0.3-0.5-0.4-0.7-0.2
	C428.5,292.7,430.5,293.2,429.9,292.2z M286.3,331.3c-0.6-0.6-2.4-1.8-3.1-2.6c-0.6-0.6-1.3-1.5-1.7-1.7c-0.9-0.4-2.4,0-2,0.9
	c0.2,0.6,1.4,1.1,1.9,1.5c0.6,0.6,0.9,1.4,1.4,1.9c0.5,0.6,1.3,1.2,1.9,1.7c0.7,0.6,1.3,1.2,2.1,1.4
	C288.5,334.3,287.3,332.4,286.3,331.3z M406.6,333.1c-0.2,0.7,1,1.9,1.8,1.2C408.8,333.5,406.9,332.2,406.6,333.1z"/>
</svg>
