<?xml version="1.0" encoding="utf-8"?>
<!-- Generator: Adobe Illustrator 24.2.1, SVG Export Plug-In . SVG Version: 6.00 Build 0)  -->
<svg version="1.1" id="Layer_1" xmlns="http://www.w3.org/2000/svg" xmlns:xlink="http://www.w3.org/1999/xlink" x="0px" y="0px"
	 viewBox="0 0 500 500" style="enable-background:new 0 0 500 500;" xml:space="preserve">
<g>
	<path d="M140.3,184.7c9.4-6.5,3.2-15.8,1.5-17.4c-1.4-1.3-5-2.9-6.5-2.9C115.6,163.6,122.8,194.3,140.3,184.7z M129.8,172.4
		c1.5-4.7,8-1.3,8-1.3c4.4,5.1-2.3,12.1-5.6,10C128.3,176.9,129.5,175.4,129.8,172.4z"/>
	<path d="M447.4,218.7L447.4,218.7c-0.8,0.9-0.4,2.7-2.3,2.9c-6.3-1.4-28.5-1.8-28.3-10.8c1-1.2,1.9-2.5,3.7-3.3
		c8.7,0.4,20.5,0.9,29.9-3.8c3.6-5.4,3.9-12.7,4.8-20.1c0.1-0.3,1.2-9.1,6.6-9.8c1.2,4.2,4.2,5.5,6.3,8.4
		c11.1,0.2,12.1-8.6,9.6-18.3c-1.7-1.1-2.6-3.5-3.3-6.1c-3.6-2.1-6.5-5.4-10.4-7c-11.6-0.9-17.4,6.1-21.7,12.2
		c0.1,2.4-0.7,4.1-1.7,5.7c-8.6-5.6-22.5,1.8-19.6,12.7c0.5,1.3,2.8,3.2,1.6,5c-24.3,1.4-261.5,3.2-271.3,1.5
		c-8.6,1.8-20-0.8-25.6,5.7c-5.8,21.4,3.6,56.9-23.7,64.4l-1.7-1.1c-1.3-1.9-2.7-6.9,0.3-7.4c2.3,0.3,5,4,5,4l2.8-3.8
		c3.2-3.9-8.1-9.2-11.1-8.3c-8.9,2.7-6.2,15.7-1.1,21.3c10.4,5.1,18.9-3.1,22.6-8c2.7-3.5,2.5-3.5,4.3-7.3
		c0.5-1.3,5.5-18.4,5.8-19.9c1.1-5.7-0.1-13.6,1.5-17.4c-0.5-5.7,0.2-10.5,2.7-14.3c14.2-1.4,28-2.2,40.4-0.7
		c0.6-0.2,206.1-3.1,222.9-2c-3,2.4-4,6-6.9,8.4c-5.3,0.6-216.1,0.9-225,1c-2.4,0-17.9-1.4-23.9,2.4c-1.3,4.5-4.8,26.1-6.1,31.7
		c-0.9,3.7-3.7,8.5-5.1,12.4c-0.4,1.2-6.5,20.7-26.1,22.9c-28.1-5.4-16.6-30.5-16.6-30.5c4.6-6.7,11.8-6.1,18.5-9
		c2.6-1.1,4.3-4.5,6.2-5.3c1.5-19.2,2.4-46.1,0.6-67.1c-0.3-3.9-1.5-5.7-3.9-6.5c-2.9,2.4-6.4,11.1-6.6,12.2
		c-0.8,5-1.9,10.6-2.1,14.6c-0.4,8.4-0.7,13.9-0.5,21.6c0.1,5.9,1.1,12.2,2.8,14.5c0.6,0.9,2.9-0.8,3.5,0.2c2.3,3,0.5,6-0.7,8
		c-2.6,2.2-8.1,2.6-12.4,3.7c-11.1,6.4-17,16.1-12.3,32.6c1,13.1,20.7,16.1,23.7,16.2c37.2,1.9,40.6-64,42.6-67.2
		c2.9-4.5,232.3-4.9,243.6-3.1c-0.3,4.1,1.4,4.7,0.8,8.1c1.8,3.2,3.8,6.2,5.6,9.5c12.5,8.7,29.6,10,43,17.3c0.8,1.7,2.2,3,0.5,4.3
		c-6.4,0.7-10.2-2.8-15.9-3.3c-0.5,0.6-0.6,1.5-1.6,1.8c2.6,7.8,11.3,6.2,17.5,8.3c4.1-2,7.7-4.4,7.2-9.4c-3.6-11.6-32-18-37.3-18.1
		c-3-3.2-7.5-4.2-10.8-6.9c-3.1-5.5-3.2-11.7-1.8-16.7c4.9-6.1,13.1-10.4,24-10.7c4.7,1.4,12.8,0.7,15.8,0.9c0,0,3.1,1,4.4-2.4
		c6.5-11.3,4.2-34.9,24.5-32.4c3.7,4.5,8.1,7.8,9.1,16.5c-0.9,2.1-3.6,3.3-6,1.8c-1.4-3.6-3-7-5.8-8.5c-18.9,1-5.6,28.8-21.1,34.5
		c-10.2-0.2-31.8-3-31.7,11c-2.2,6.5,23.2,13.5,34.6,12.8c0,1.7,0.9,4,1.7,4.1c3.3,1.9,40-0.5,41.3-8.3
		C477,216.2,461.6,218.4,447.4,218.7z M435.7,185.7l-2.3,0.5c-10.4,0.3-7.8-17,3-12.9C438.7,177.1,440,183.2,435.7,185.7z"/>
	<path d="M434,162.4c2.9-1.6-2.1-7.3,0.3-9.2c2.6,0.4,4.2-1.6,5.9,0.2c0.3,2.8-0.6,5-0.8,7.5c1,0.1,2.3,0.8,2.9-0.2
		c0.6-3.4,2-6.2,1.6-10.1c-3.3-2.2-8.7-3.6-13.9-0.8C429.8,153.3,430.1,161.1,434,162.4z"/>
	<path d="M419.9,167.7c0,0,1.1-0.4,0.8-0.7c0.3-3.4-5.4-7-3.4-11l4.2-0.9c1.4,3.1,2.7,6.2,4.4,8.8c0.9-0.2,1.9-0.4,2.8-0.6
		c1.4-4.7-3.5-8.1-4.8-12.6c-7.3-1.9-8.2,1.9-12.3,4.2C411.7,161.2,415.6,166.1,419.9,167.7z"/>
	<path d="M414.6,179.7c-3.6-2.7-16-8.2-7.1-10.7c2.4,2.6,5.7,6.8,9.8,4.7c-1.4-5.1-5.4-6.1-8-9.5c-6.6-1.8-9.1,3.8-11.1,9
		C399.2,177.1,411.4,186.8,414.6,179.7z"/>
	<path d="M373.1,172.3c-0.4-6.5-4.5-11.7-11.8-11h0c-2.9,0.2-4.2,0.9-4.2,0.9c-5.1,3.5-7.9,8.5-5,17.2
		C358.9,186.3,373.6,182.3,373.1,172.3z M364.3,165.9c1.9,1.7,3.6,3.5,4.1,7.4c-1.6,5-8.4,5.5-11.7,2.1
		C356,170.3,358.3,166.9,364.3,165.9z"/>
	<path d="M200.4,166.9c-3.2-1.7-5.7-4.4-9.3-4.3c-11,0.3-12.4,13.5-6.1,20.9C195.7,188,205.7,178.9,200.4,166.9z M196,171.3
		c3.2,9.6-9.4,9.4-9.7,2.6C186.2,169.9,193.3,167.7,196,171.3z"/>
	<path d="M153.4,222c-7.2,18.7-9,40.8-21.6,56.1c-4.1,2.8-6.6,6.8-10.8,8.8c-8.4,4.1-25.4,2.7-31.9-0.7c-4.9-2.5-10.5-8.3-14-14.5
		c-5.2-8.9-5.8-19.2-2.4-28.3c3-7.3,15.5-12.4,14.8-21.4c-0.3-4.4-4.2-6.1-2.4-10.7c-7.8-10.9-17.1-19.6-27.4-26.6
		c-3.4-2.2-6.1-5.6-10.6-5.9c-2.6,3,0.5,6.9,2.2,9.8c1.9,3.2,22.3,25.6,22.8,27.6c3.6,0.7,5.6,4.4,8.8,2.4c3,6.1-3.9,9.5-6.8,13.3
		c-3.1,4.1-5.2,8.3-7.5,12.4c-4.5-0.6-5.4-3.2-6.7-8.3c-14.2-4-30.3-5.1-47.4-4.5c0.6,8.7,38.8,22.1,41.9,21.4c2.9-0.6,2.9-2.8,5-4
		c2.5-1.6,2.8-1,6.2-0.9c-1.7,7.4,0.3,18.1,4.3,25.9c-3,4.2-6,2.9-9.6,0.7c-10.1,5.7-18.9,15.1-26.4,24c-2.7,3.2-5.2,6.5-6.7,9.3
		l0.7,3.3c6.2,1.4,12.2-3.2,17.6-6.4c9.4-5.4,17.9-13.2,25.3-17.9c-0.6-1.8-3-4-1.9-6.4c4.3-3.4,6.8,1.3,9.1,3.4
		c2.5,2.3,14.1,9.5,17.9,10.2c-0.3,3.7-0.7,7-5.3,7c-2.7,8.5-3.5,43.2,0.9,50.1c0.9-0.4,1.5-0.2,1.6,0.6c6.9-3.4,7.9-11.9,9.8-21.7
		c0.7-3.7,5.2-22.6,4.2-24.9c-1.3-3-6-2.4-7.3-4.2c0.6-1.8,1-3.6,0.6-6c10.3,0.6,23.8-0.9,29.9-8.2c1.7,0.7,2.9,2.2,4.6,2.9
		c1.5,2.3-2,4.3-1.3,7.1c0.4,1.7,25.8,22.8,32.5,25c1.8,0.6,3.3,1.8,5.1,0.8c1.9-3.9-1.8-5.7-2.8-10.1c-7.9-8.4-13.4-20.4-21.9-27.9
		c-2.4-0.2-6.1,1.9-7.3,2.1c-1.5-1.2-3-2.5-4.3-3.9c4.1-6.3,9.4-12.4,12.2-19.8c2.8-7.5,5.1-16.3,6.7-24.5c0.8-4,0.5-9.2,4.8-11.3
		c1.6-0.8,13.8-2.6,15.1-0.4c3,4.8-3.7,4.8-6.6,7.8c1.8,17.2,0.4,36.4,7.2,54.1c3.9-1.9,4.4-7.5,5.2-11.9c1.5-8.8,6.1-37.8,4.8-41.6
		c-1.2-3.5-7.2-4.1-5.6-7.5c1-2.2,1.4-1.6,3.5-1.8c2.7-0.2,9.9,0.6,12.8,0.6c6.3-0.1,11.8-1.7,16.3,0.8c2.3,5.6-5.5,5.2-7.3,9
		c-1.2,2.5,2.8,43.2,8.1,51.4c6.1-6.2,9.5-43.2,9.9-52c-2.5-4.1-7.9-3.2-6-9.4c4.3-1,7,0.4,11.5-1.1c7,2.3,17.9-1.8,23.9,2
		c1.6,4.7-2.4,2.8-4.8,5c-4.1,3.8-1.7,18.2-0.7,27.5c1.2,10.9,3.3,21.3,5.9,28.5c4.5-3,10.6-49.9,8.2-55.1c-0.8-1.8-4.9-3-5.1-5.2
		c-0.4-4.1,15.9-2.6,20-2.5c8.3,0.1,14.7,0.2,21.3,1.1c2.8,5.2-4.2,4.2-6.2,7.2c-1.6,2.5,2.4,24.1,2.8,27.7c1,8.4,0.8,20.3,6.1,25
		c3.8-1,2.5-5.3,4.7-7.4c0-15.9,4.5-30.5,1.2-47.2c-1-3.1-3.5-0.7-3.1-5.2c10-1.5,22.4-1.3,32.2-0.4c3.2,6.5-3.9,4.8-6.3,8.7
		c-1.9,3,2.1,43.4,7,53.2c3.4-0.6,3.6-5,4-8.2c1.3-8.7,6.5-41.1,4.6-45c-1.1-2.2-3.5-1.9-4.7-3.4c0.9-1.2-1.6-4.5,0.4-5
		c2.9-1.8,10.5-0.2,14.7,0.1c6.1-1.1,11.6-1.1,16.9-0.9c3.5,6.9-4.2,5.8-6.2,9.7c-0.7,1.4,3.4,32.1,3.2,42.8c1.6,0.4,1.1,5.5,4,6.9
		c5.8-4.7,9.9-45.7,8-49.7c-1.1-2.2-3.2-1.2-4.7-3.4c-0.1-2-0.2-4.1,0.2-5.9c2.3-1.8,7,1,9.5-1.1c2.1-0.6,0.5-5.5-0.5-6.7
		C371.7,219.4,162.1,218.5,153.4,222z"/>
	<path d="M254.4,181.2c1.3-3.9,2.6-10.1-0.1-15.6c-4.8-2.4-11.8-4.2-19,0.3c-4.5,7.8-0.2,14.6,1.1,15.9
		C240.1,185.4,247.7,183.9,254.4,181.2z M247.6,168.6c1.7,1.8,2.2,5,2.2,7.8c-3.6,2.6-11.7,4.5-11.4-2.8
		C239.2,167.2,246.3,168.3,247.6,168.6z"/>
	<path d="M305.8,181.9c7.6-3.1,7.9-10,4.3-18.1c-7.6-3.7-18.4-3.7-22,4.4C288.9,180.9,296.7,185.7,305.8,181.9z M301.9,166.7
		c9.5,4,1.6,16-6.7,9.3C293.6,170.4,296,167.4,301.9,166.7z"/>
</g>
</svg>
