<?xml version="1.0" encoding="utf-8"?>
<!-- Generator: Adobe Illustrator 24.2.1, SVG Export Plug-In . SVG Version: 6.00 Build 0)  -->
<svg version="1.1" id="Layer_1" xmlns="http://www.w3.org/2000/svg" xmlns:xlink="http://www.w3.org/1999/xlink" x="0px" y="0px"
	 viewBox="0 0 500 500" style="enable-background:new 0 0 500 500;" xml:space="preserve">
<style type="text/css">
	.st0{fill:#231F20;}
</style>
<g>
	<path class="st0" d="M43.2,113.5c0,0,4.1-3.4,10.9-5.7c6.8-2.1,14.9-1.8,17.8-2.9c2.9-1,6.6-1.3,13.3,0.8
		c6.6,2.1,10.5,3.7,13.8,5.8c3.2,2.1,5.2,4.1,5.2,4.1l-2.3-5.7c0,0,6.5-3.1,15.1,0.6c8.6,3.9,8.8,9.2,8.9,14.4
		c0.2,5.2-1.9,10.2-1.9,10.2l-6.8-3.7c0,0,6,6,9.4,10.4c3.4,4.5,3.6,8.3,2.9,13.8s-2.1,13.3,1.6,14.4c3.7,1.3,34.2-15.6,48.2-27.4
		c13.9-11.8,43.5-37.6,74.4-42.6s68.4-1.5,97.4,26.8c28.9,28.2,39.7,56.1,47.3,80.1c7.6,24,9.7,32.8,9.7,32.8s74.3,39.1,63.4,94.4
		c-10.9,55.3-77.7,64.5-130,67.3c-52.2,2.8-123.7-4.9-125.5-11.8c-1.8-7,20.9-11.8,35.5-11.2c14.6,0.6,21.6,3.9,48.5,6
		c26.8,2.1,82.2-0.6,109.1-12.2c26.9-11.5,41.5-25.1,42.3-43.1c0.6-18.2-16.2-36.3-24.2-42.3c-7.9-6-14.1-9.1-14.1-9.1l-7-14.1
		c0,0,3.2,20.3,6.3,32.6c3.1,12.3,3.4,31.8,2.6,40.4c-1,8.6-6.8,14.9-9.1,20.3c-2.3,5.4-9.1,10.7-12.2,10.4
		c-3.1-0.2-2.8-1.1-8.6-0.5c-5.8,0.6-11.4,2.1-14.6-2.8c-3.2-4.9-0.5-10.2,3.9-12.2c4.4-1.8,4.2,1.5,7-3.9
		c2.8-5.4,2.6-15.7,2.6-18.2c0-2.4-10.1-2.1-30.6-13s-35.8-31-35.8-31s13.3,23.7,18.5,27.6c5.2,3.9,7.6,6,7.6,6s-16.1,0-26.1-1.8
		s-15.4-4.9-15.4-4.9l15.4,10.4c0,0-2.1,10.9-7.6,14.9s-33.1,9.1-42.5,7.6c-9.4-1.5-12.2-4.2-20.6-1.8c-8.4,2.4-19.5,1.8-21.2-1.8
		c-1.8-3.4,2.4-10.9,11.2-13.3c8.8-2.4,18.2-2.8,26.8-1.5c8.8,1.5,20.3-2.8,20.3-2.8l-9.1-3.9c0,0,1.8-5.2-5.2-12.5
		c-7-7.3-9.1-27.6-9.1-27.6l25.5,8.4c0,0-26.1-17.8-42.5-20.6c-16.4-2.8-16.4-3.4-33.7,4.2c-17.3,7.6-34.2,7.3-34.2,7.3l-6.3-16.7
		c0,0,3.1,14.9-3.1,37.9c-6.3,23-12.5,36.3-20.6,47.7s-10.4,18.8-16.1,26.1c-5.5,7.3-12.2,8.4-21.9,7.9c-9.7-0.3-17,3.4-22.7,3.4
		c-5.7,0-14.3-7.6-8.4-11.5c6-3.9,14.9-5.5,23.3-9.1s12.5-15.7,13.3-32.8c0.8-17-3.4-12.5-4.2-17.8c-0.6-5.2-6.6-10.4-6.6-10.4
		s6.3,15.4,6.3,21.1c0,5.7-2.4,17.7-3.4,21.2c-1,3.7-1.3,9.1-4.5,10.9c-3.2,1.8-9.7-0.2-14.1,0.8s-10.2,3.1-19.3,2.4
		c-9.1-0.6-13.3-2.3-11.8-6.3c1.5-4.1,4.9-7.8,13.9-9.4c9.1-1.6,13-2.4,16.9-8.3c4.1-5.7,3.2-28.4-4.1-46.5
		c-7.3-18.2-8.8-20.9-23-34.5c-14.3-13.6-20.4-37.3-22.9-48.3c-2.4-11-3.9-22.5-4.1-28.2s0-7.3,0-7.3l7.1,8.3
		c0,0-9.2-13.6-11.4-23.8s0.5-28.5,1.9-37.5s5.4-14.9,10.2-15.7c4.9-0.8,7.6,2.9,7.6,2.9L43.2,113.5z"/>
</g>
</svg>
