<?xml version="1.0" encoding="utf-8"?>
<!-- Generator: Adobe Illustrator 24.2.1, SVG Export Plug-In . SVG Version: 6.00 Build 0)  -->
<svg version="1.1" id="Layer_1" xmlns="http://www.w3.org/2000/svg" xmlns:xlink="http://www.w3.org/1999/xlink" x="0px" y="0px"
	 viewBox="0 0 500 500" style="enable-background:new 0 0 500 500;" xml:space="preserve">
<path d="M266.4,289.7c12.6-18.6,34.1-6.6,39.5,8.7c0.8,2.4,2.5,14,2.1,17.1c-3.5,26.7-44.7,45.9-72.2,27.6
	c-37.3-24.8-36-71.2-7.6-100.7c19.6-20.3,48.7-31.5,67-49.3c21.6-20.9,13.2-41.1,9.8-60.8c-3.1-17.4,2.2-35.8-2.9-52.9
	c-36.2,20.8-12.3,46.1-25.6,72.6c-16,31.7-49.6,36.3-73.1,60c-21.3,21.5-33.8,50.9-35.7,71.4c-2.1,23.3,22.6,75.2,54,94.9
	c31,19.5,93.7,16.1,117.8-29.6c21-39.9-24.9-86.8,35.2-124.7c14.9,17,39,51.5,27.3,69.7c-7.4,11.6-21.4,8.6-34,15.4
	c-6.4,31.2,29.8,21.5,47.8,35c-3.4,18-14.3,42.9-32.3,58.6c-11.8,0.3-23.1-18.2-29.6-18.6c-7-0.1-12.9,9.2-19.4,13.6
	c1.7,12.6,15.2,23.7,15.7,36.5c-17.5,9.1-40.3,22.8-56.5,24.4c-3.6,0.4-6.3-0.5-6.3-0.5c-19.1-19.5-1.3-58.7-35.9-38.9
	c-9.8,12.8-13.7,36.5-20.5,37.9c-8.8,1.9-59.2-19.2-60.9-25.7c-2.2-8.8,11.4-22.5,22-40.8c-2.3-5.9-13.5-13.1-19.2-15
	c-13,8-34.5,28.3-38.7,27.2c-4.2-1.1-36.4-52.2-33.1-56.6c3.3-4.4,28.2-12.8,42.1-20.2c1.3-9.2-4.1-16.4-6.4-31.4
	c-16.2-1.1-45.5,6.9-49.7,2.9c-4.2-4-5.4-56.7,6.5-60.7c8.1-2.7,33.7,7.7,50.1,3.6c4.3-5.5,3.7-10.4,7.9-15.9
	c-8.7-8.8-26.7-18.8-39.5-28.5c2.2-21.1,32.6-47.2,35.4-46.5c2.9,0.8,21.9,21.8,33.7,34.1c8.4,1.2,16-4.7,23.2-12.8
	c-6.7-13.2-27.1-27.8-30.1-41.5c10.7-17.8,31.7-29,48.4-30.2c13.2,14.1,15.3,29.5,25.3,43.9c-0.1-0.2,5.4-7.9,5.8-8.7
	c3.1-5.2,4.2-10.2,4.4-16.3c0.3-9.4-1-18.7,0.1-28c0.7-6,2.7-10.6,5.7-15.8c4.5-7.6,10-13,16.3-19c5.9-5.6,12.4-11.8,20.6-13.7
	c3.8-0.9,8.1-0.3,11.5,1.7c14,8.3,11,42.2,13.9,61.5c4.6,31.5,21.3,69.6,2.7,101.3c-12.3,21-32.4,28-45.2,35.4
	c-26.3,15.3-67.1,56.8-31,79.5c14.7,9.2,25.7-4.3,26.6-5.8C285.7,304.9,279.5,300.3,266.4,289.7L266.4,289.7z"/>
</svg>
