<?xml version="1.0" encoding="utf-8"?>
<!-- Generator: Adobe Illustrator 24.2.1, SVG Export Plug-In . SVG Version: 6.00 Build 0)  -->
<svg version="1.1" id="Layer_1" xmlns="http://www.w3.org/2000/svg" xmlns:xlink="http://www.w3.org/1999/xlink" x="0px" y="0px"
	 viewBox="0 0 400 400" style="enable-background:new 0 0 400 400;" xml:space="preserve">
<g>
	<path d="M200,15.5C98.1,15.5,15.5,98.1,15.5,200c0,101.9,82.6,184.5,184.5,184.5c101.9,0,184.5-82.6,184.5-184.5
		C384.5,98.1,301.9,15.5,200,15.5z M345.9,258.6c-11,2.5-13.9-8.7-22.4-10.9c-1.6,5.1-5.9,10.3-5.4,15c0.9,8.3,15.9,13.9,12.9,24.5
		c-9.6,3.9-12.7-9.3-19-12.9c-4.6,3.1-9.1,8-8.8,12.9c0.5,8.7,17.1,16.6,10.9,27.2c-10.4,1.2-13.5-10.5-20.4-15
		c-21.1,7,11.5,21.6,1.4,33.3c-11.2-0.9-9.6-18.2-18.4-19.7c-4.7-0.8-11.4,3.9-12.2,6.8c-2.8,9.1,11.1,16.5,6.1,25.8
		c-11.7-0.7-13.4-11.6-19.7-17.7c-4.6,0.2-8.1,1.4-10.9,3.4c-0.5,6.9,8.7,23.1-0.7,24.5c-10.2,1.5-6-18.4-15.6-21.1
		c-3.4-0.9-8.1,0.9-11.6,3.4c0.5,10.1,5.1,30.6-6.1,28.6c-8.2-1.5-4.4-18.1-4.8-27.9c-3.3-1.5-8.1-1.5-12.9-1.4
		c-3.2,7.5-1.2,23.6-8.8,24.5c-9.4,1-4.1-17-4.1-24.5c-2.3-2.4-5.9-3.7-10.2-4.1c-6.2,6.1-0.5,24-12.9,23.8c-4.3-4.4-4-9.5-2-17
		c0.7-2.9,3.4-6.7,2.7-9.5c-0.8-2.9-6.3-6.7-10.9-5.4c-5.6,1.5-6.8,23.4-15,21.8c-10.5-2.1,3.5-20.1,2.7-26.5
		c-0.7-5.5-3.2-4.9-8.2-8.2c-9.4,4.2-10.9,19.9-24.5,17.7c-3.9-13,24.2-25.8,4.1-35.4c-8.2,1.4-13.9,18.1-25.2,15
		c-1.1-0.3-3.6-2.3-4.1-4.1c-3.3-11.8,16.9-14.9,19.7-23.8c-2.8-3.6-3.8-8.9-8.1-9.5C75.8,271,71,285.4,63,281
		c-4.9-15.2,26.8-18.1,8.8-32.6c-7.9,2-20.3,12.1-27.2,2.7c5.3-12.2,16.2-10.8,24.5-19c0.8-5.1-1.5-7.1-1.4-11.6
		c-7.2-1.2-27.9,4.6-28.6-4.1c-0.6-7.4,16.6-9.2,25.2-10.9c2.2-3.3,2.4-8.2,0.7-12.2c-9.5-1.9-27.9,3.2-27.9-6.8
		c0-9.1,20-8.3,29.2-9.5c0.8-1.5,4.3-5.9,3.4-8.8c-1.5-5.1-15.5-5.1-19.7-8.8c-4.7-4.1-6.3-14,2.7-15.6c5.5-1,12.1,4.4,20.4,4.8
		c4.1-1.4,4.2-6.6,6.1-10.2c-5.8-8.7-28.6-9.8-21.1-25.2c10.7-5,18,13.2,26.5,12.2c3.6-0.4,6.7-5.2,6.8-8.2
		c0.1-8.7-16.4-12.3-14.9-22.4c9.1-9.3,19.6,4.4,25.8,8.8c4-1.4,6.6-4.3,9.5-6.8c-1.3-10.2-10.3-12.8-11.6-23.1
		c10-0.9,14.4,9.5,20.4,15c17.6-8-9.1-19.5-0.7-29.9c6,0.6,10.5,9,12.2,9.5c0.2,10.1,15.9,9.9,18.4,1.4c2.2-7.8-7.8-18.5-2.7-24.5
		c13.3-2.6,14.8,12.3,18.4,21.8c18.4,4.1,10.3-18.3,19.7-23.1c5.6,3.5,6,12.1,8.2,19c5.6,0.3,9.3,1.2,12.2-2
		c1.1-5.9-0.2-14.2,4.8-16.3c8.3,1.2,4.5,14.6,7.5,21.1c8.3,3.7,9.6-10.4,15.6-11.6c9.6-1.8,8.1,7.6,6.1,16.3
		c14.6,12.8,17.5-17.8,32-11.6c-0.6,9.8-6.5,14.4-8.8,22.4c2.2,2.5,4.9,4.6,8.8,5.4c7.8-5.4,12.8-17.1,26.5-14.3
		c6,13.5-11.5,14.6-15,23.1c2.5,3.8,6.3,6.4,10.2,8.8c4.3,0.5,32.3-12.1,29.9,0c-1.1,5.3-18.2,6.8-20.4,12.2
		c1.2,5.2,4.1,8.6,7.5,11.6c8.3-3.2,25-12,32.6-3.4c-3.1,10.3-16.2,10.5-25.8,14.3c0.4,5.9,2.8,9.9,5.4,13.6
		c9-1.6,20.9-6.9,31.3-2.7c-0.5,13.5-16.4,11.7-25.8,16.3c0.2,4.8,0.2,9.7,2,12.9c9.1-0.6,29.6-3.4,28.6,5.4
		c-0.9,7.6-20,4.3-27.9,5.4c-3,3.9,0.1,11.7,0,15c10.8,5.5,28.2,4.4,29.2,19.7c-10.4,6-18.4-6-28.6-6.8c-3.6,2.6-1.8,10.4-3.4,15
		C335.6,240,347.1,245.8,345.9,258.6z"/>
	<path d="M322.8,196c-0.4-6.7-0.4-14.4-1.4-20.4c-2.5-14.9-14.6-39.8-20.4-49.6c-11-18.7-35.9-38.7-59.8-46.2
		c-11.8-3.7-30-7.5-44.9-6.8c-14.9,0.7-29.9,4.2-40.1,8.2c-20,7.6-38.5,19.4-50.3,32.6c-4.6,5.1-7.7,13-10.9,18.4
		c-3.6,6-8.1,12.5-10.9,19c-13,30.7-11.2,70.6,0,97.9c10.2,25.1,30.7,50.3,51.7,62.6c34.5,20.2,79.4,18.8,114.2,5.4
		c28.6-11,45-34.3,51.7-45.6C314.9,249.1,325,230.7,322.8,196z M307.2,234.1c-1.9,7-10.3,21.8-10.3,21.8
		c-11.4,25.4-56.8,78.3-139.3,51.7c-9-2.9-19.2-8.3-26.5-13.6c-5.9-4.2-12.3-13-17.7-19.7c-5.9-7.3-11-15.8-14.3-22.4
		c-14.4-29.6-16.3-75.1-0.7-104c2.3-4.3,6.5-8.6,10.2-13.6c6.9-9.5,13.7-20.2,23.1-27.2c16.8-12.4,38.9-18.4,60.5-20.4
		c9.3-0.8,20.4-1.3,29.9,0.7c32.2,6.8,51.5,19.8,63.9,39.4C302.6,152.8,318.5,192.6,307.2,234.1z"/>
	<g>
		<path d="M290.2,201.5c-1.3-3.2-2.4-8.3-2-11.6c0.9-8.7,13.8-18.2,11.6-27.9c-2.2-9.2-19.1-7-25.2-12.2c-3.3-2.8-8-12.4-8.8-18.4
			c-0.8-6,1.9-13.2,0-18.4c-6.1-16.4-24.8,4.8-34,4.8c-17.1,0-12.1-26.6-27.2-27.9c-12.1-1-16.2,18.6-23.1,21.8
			c-10,4.6-26.7-3.2-37.4-2c-3.4,0.3-10.5,3-12.2,7.5c-2.7,7,0.9,14-0.7,20.4c-0.8,3.2-4.5,11.5-8.2,15c-9.8,9.3-31.3,4.6-27.2,23.8
			c1.9,8.9,17,12.3,19,21.8c4.1,19.1-30.3,32.1-8.2,55.1c12.9,2.5,24.8,2.8,27.9,14.3c2.6,9.7-6,25.1,5.4,27.9
			c9.1,2.2,20.4-5.5,29.9-6.8c12-1.6,19.5,4.3,25.8,10.9c3.5,3.7,8.7,12.7,13.6,12.9c11.1,0.4,12-21.9,17.7-28.6
			c2.6-3.1,10.1-7.4,16.3-7.5c9.4-0.1,16.2,9.6,25.2,6.8c11.1-3.4,0.4-31.1,6.1-39.4c5.2-7.5,28.9-3,31.3-15
			C308.2,216.7,293.6,210,290.2,201.5z M254.1,126.7c-0.3,2.1,1.8,1.8,2,3.4c-0.9,5.8-9.5,4.4-10.2-0.7
			C245.8,125.6,250.7,126.9,254.1,126.7z M209.2,113.8c-2.4,2.2-8.5,1.7-10.2-0.7C196.8,103.1,210.8,106.9,209.2,113.8z M144,124
			c2.4-3.2,8.9-2.2,10.2,1.4c-0.4,4.2-3,6.1-8.2,5.4C145.1,128.7,143.3,127.6,144,124z M111.3,176.3c-0.5-2.5,0.5-3.6,1.4-4.8
			c2.4,1,5.3,1.5,4.8,5.4c-0.6,0.3-1.2,0.6-1.4,1.4C114,178.2,113,176.9,111.3,176.3z M120.8,241.6c-5.9,0.6-8.6-1.8-8.2-7.5
			c2.7-2.6,7.1-0.9,8.8,1.4C121.4,237.6,122,240.5,120.8,241.6z M145.3,283.1c-1.3-9.9,11-8.5,10.9-0.7
			C154.8,286.3,147.1,287,145.3,283.1z M206.5,295.3c-7.9-5,3.6-12.4,5.4-5.4C212.7,292.6,210.6,295.3,206.5,295.3z M257.5,272.2
			c-2.3-1.4-5.1-2.2-4.8-6.1c2.8-2.6,8-1.2,8.8,2C261.6,270.8,259,270.9,257.5,272.2z M274.5,210.3c-1.6,17.8-7.1,25.3-17,37.4
			c-10.8,13.2-26.1,27.2-44.9,31.3c-12.8,2.8-29.6,0.9-40.8-2.7c-12.4-4-21.6-12.4-29.9-21.8c-17-19.1-29.2-58.8-12.9-89.8
			c11.2-21.4,32.8-34.8,59.8-40.1C242.9,121.7,279.8,152.9,274.5,210.3z M278.6,164.8c6.7-2.8,10.1,4.7,8.2,8.8
			c-0.8,1-6.3,0.9-8.2-0.7C277.7,170.8,277.7,166.9,278.6,164.8z M283.4,228.7c-9.7-1-1.1-17.5,6.1-6.8
			C288.8,225.6,286.5,229,283.4,228.7z"/>
	</g>
	<path d="M188.8,151.8c-17.7,2.9-29.4,17.1-33.3,25.2c-4.5,9.4-6,23.1-4.8,32c1.3,8.8,8.1,21.6,15,27.9c18.9,17.4,61,14.8,74.1-12.2
		C258.6,185.7,228,145.4,188.8,151.8z M203.1,166.1c5.7-0.8,12-0.9,17.7,0c-6.2,4.4-17.6,6.7-27.9,8.2c-7.4,1-16.7,3.1-22.4,0
		C178.9,169.6,191.1,167.8,203.1,166.1z M225.6,178.4c1.4,0.2,1.8,1.4,2.7,2c-1.9,4.4-8.3,4-12.9,4.8c-13.1,2.1-32.5,7.1-45.6,3.4
		C183,178.8,209.4,183.6,225.6,178.4z M196.3,197.4c9.5-1.2,20.9-4.8,31.3,0c-16.7,6.3-34.5,10.1-55.7,6.8
		C176,197.2,187.4,198.5,196.3,197.4z M190.2,234.1c-3.9,0.2-9,2.9-10.9-1.4c1.3-3.6,6.6-4.2,10.2-4.8c11.8-1.7,27.5-3,38.1,0
		C222,235.9,203.4,233.5,190.2,234.1z M173.9,219.1c14.9-6.6,42-9.6,59.8-6.8C219.7,219.6,192.7,221.2,173.9,219.1z"/>
	<g>
		<path d="M245.3,152.5c-11.3-11.9-38.9-21.8-60.5-19.7c-4.3,1.7-9.3,2.3-12.9,4.1c-24.3,11.5-45.7,40.8-38.8,76.8
			c1.7,8.8,6.8,20.9,12.2,28.6c3.6,5.1,11,12.3,17,16.3c24.2,16.5,61.2,13.3,82.3-8.2c5.6-5.7,12.7-14.8,15.7-22.4
			C270.2,201.6,261,169.2,245.3,152.5z M246.6,224.6c-2.2,5.6-7.2,9.7-12.2,14.3c-8.6,7.8-13.6,14.1-26.5,16.3
			c-25.2,4.4-50.5-9.9-59.8-33.3c-11.2-27.9,6.3-63.4,28.5-72.1c4.3-1.7,9.5-2.1,15-2.7c16.8-2,37.7,6,46.9,17.7
			C248,176.9,254.8,204.2,246.6,224.6z"/>
	</g>
</g>
</svg>
