<?xml version="1.0" encoding="utf-8"?>
<!-- Generator: Adobe Illustrator 24.2.1, SVG Export Plug-In . SVG Version: 6.00 Build 0)  -->
<svg version="1.1" id="Layer_1" xmlns="http://www.w3.org/2000/svg" xmlns:xlink="http://www.w3.org/1999/xlink" x="0px" y="0px"
	 viewBox="0 0 400 400" style="enable-background:new 0 0 400 400;" xml:space="preserve">
<g>
	<path d="M259.6,138.1c1.4-7.7,16.3-3.5,22.8-6.8c2.6-5.2,0.7-14.2-1.2-19.6c-6.8-3.2-18.8,5-23.3-1.2c1-11.9,22.3-9.5,31.6-9.1
		c6.2,13.1,3.9,22.8,5.1,38.1C288,142.4,264,146.4,259.6,138.1z M251.5,250.1c4.8-1.5,8.3-1.3,12.4-0.8c6-5.7,2.8-17.9,3.7-26.1
		c-4.6-1.8-11.3-1.2-17.9-0.7c0.1-3.8-1.4-9.1,0.2-11.6c8.8,1.5,21.4-2.4,27.8,1.8c0.9,15.3,2.7,29,0.1,44.6
		C273.1,259.2,245.4,266.7,251.5,250.1L251.5,250.1z M281.8,78.7c-6.9,6.8-15,12.5-27.7,14.2c-6.6-10.8,9.5-12.5,12.1-20.4
		c-1.4-5.7-4.8-9.1-8.8-11.9c-6.4,0.6-12.6,6.1-17.2,10.9c-13.4-3.6,9.9-25.9,14.4-26.8C267.8,42.2,278.5,66.5,281.8,78.7z
		 M174.5,26.2c15.7-2.2,44.5-6.4,50.8,5.2c-2.7,10.2,2.2,27.1-11.7,27.5c-1.9-5.7,1.6-16.4-1.4-23.1c-5.5-2.4-20.7-1.7-25.8,1.6
		c0.1,6.9,5.3,15.9,1.3,21.3C177.2,60.9,174.3,36.1,174.5,26.2z M146.5,42.6c8,6.3,18.8,14.1,20.3,24.6c-9.4,5.4-13-7.7-19.3-8.6
		c-6.4-0.9-8.2,5.1-13.7,9.8c2.8,6.4,16.4,10.2,9.2,19.1c-11.9-1.8-18.3-9.8-24.3-18.1C125.7,58.4,135.3,49.7,146.5,42.6z
		 M117.3,216.6c10.4-0.1,24.3-4.1,27.1,4.5c0.5,7.4-12,3.4-16.6,6.4c-1.7,5.8-0.1,14.5-1.4,20.6c5.5,4.1,12.3,1.7,19.8,2.3
		c-0.1,3.3,1.3,7.8-0.3,9.8c-7.4,1.3-13.7,1.4-25.8,1.6c-0.4-2.1-2.9-1.8-3.8-3.3C114.3,244.4,112.6,228,117.3,216.6z M105.5,113.8
		c3.9-11.1,21.2-9.1,35.1-9.3c1.4,2.9,1.8,8.5,0.7,11.6c-6-0.7-14.9-3.1-21.4,0.4c-2.4,4.1-1.6,13.2,1.9,15.9
		c6.8-0.1,15-1.8,20.5-0.4c2.2,3.2,1.4,4,1.4,8.8c-10.1,2.5-25.6,4.8-34.7,1.3C104.5,133.2,107.9,123.9,105.5,113.8z"/>
	<path d="M254.5,169.6c14.6-0.3,40.6-1.3,25-14.1c-16.1,1.1-52.2,4.4-66.8,2.4c18.9-6.3,32.2-18.3,33.4-36.9
		c3.2-50.5-62.4-57.3-84.7-27.7c-12.5,16.5-5.7,47.9,6.2,56.7c6.4,4.8,16.4,2.9,22.9,9.3c-25.9,2.2-55.7,0.9-76.6,3
		c-0.9,3.1-2,6-1.1,10.8c13.1,1.7,29.2,0.1,44.6-0.1c10.9-0.2,25.1-2.3,30.7,6.1c-1.2,1.1-1.2,3.4-2.4,4.6
		c-20.7,0.5-43.1,1.8-70.4,1.7c0,4.3-1.9,5.1-0.3,8.9c19.7,5.5,53.6-3.1,71.5,1.8c-8.9,3.8-16.2,2.7-22.7,8.6
		c-19.6,17.7-13.9,59.4,8,70.9c-15.3,0.6-33.2-3.5-45.2,4.6c0.4,3,2.5,4.1,2.3,7.9c16,1.2,35.3-1.4,49.2,2.3c1.8,2.2,1,7.7-1.2,9
		c-14.7,0.6-29.9-1.7-41.8,1.7c-2.2,2.7,1.4,5,0.8,8.9c13.6,0.7,33.8-1.1,41.5,2.8l0.4,6.2c-7.4,1.2-17.6-0.7-21.5,3.1
		c6.6,18.9,20.2,37.9,31.8,54.2c1.4-25.5,1.1-48.6,1.5-74.2c0.2-8.2-1.4-17.1,3-23.4c19.9-3.4,14.9,20,13.2,39.3
		c-1.6,17.9-3.4,42.5-0.9,57.2c6.8-5.3,11.3-15.7,16.3-24.2c5.3-8.9,13-17.9,13.3-29.4c-4.6-3-14-0.7-18.9-3.3
		c-1.6-1.4-1-5.2-1.4-7.9c9.4-4.6,29.4-2.4,39-4.2c0.8-2.7,2.2-4.7,1.2-9c-10.6-3.6-27.4-0.1-41.1-0.1c0-3.7-1.4-8.5,1.2-9.9
		c14.3-2.6,37.5,1.8,50.6-5c-0.7-3.4,1.3-4.4,0.4-8.1c-12-2-30.8-0.1-41.1-1c10.4-8.5,18.5-18.9,18.3-35.1
		c-0.3-22-15-38.5-32.2-43.5c13.1-4.6,41.6,0.1,57.8-2.7c4.7-0.8,12.5-2.9,11-9.6c-7.5-4-18.8-3.2-28.7-2.7
		c-15,0.8-33.6,6.5-40.4-4.6C217.2,169.6,235.9,170,254.5,169.6L254.5,169.6z M221.1,221.7c7.2,13.2,4.1,34.1-9,40.7
		c-22.5,11.4-42-3.5-42.8-28.5c-0.2-6.8,2.9-15.2,8.6-19.3C188.9,206.7,213.6,208,221.1,221.7z M182,124.2
		c-3.5-13.1,3.7-26.4,18.8-27.1c15.4-0.7,24.8,14.7,21.4,28.1C217.1,145.3,187.2,143.8,182,124.2z"/>
	<path d="M188.8,246.9c-13-9-2.8-29.6,12.8-24c2.9,1,7.5,8.1,7.7,9.3C210.8,242.3,201.9,249.6,188.8,246.9z"/>
</g>
</svg>
