<?xml version="1.0" encoding="utf-8"?>
<!-- Generator: Adobe Illustrator 24.2.1, SVG Export Plug-In . SVG Version: 6.00 Build 0)  -->
<svg version="1.1" id="Layer_1" xmlns="http://www.w3.org/2000/svg" xmlns:xlink="http://www.w3.org/1999/xlink" x="0px" y="0px"
	 viewBox="0 0 400 400" style="enable-background:new 0 0 400 400;" xml:space="preserve">
<g>
	<path d="M178.3,243.5c-5.9-17.5,4.5-33,21.1-34c8-0.5,18.1,2.5,22,9.3C237.4,247.3,187.7,271.4,178.3,243.5z M179,348.9
		c-1-6.7,1.1-13.1,4.6-16.5c13-12.6,39.4-1,33.8,18.6C212.7,367.4,182.5,371.3,179,348.9z M248.7,28.9c14.8-1.5,28.1,4.6,35,12.5
		c1.5,1.7,3.8,5.8,4.1,8.2c1,8.9-27.7,49.5-36.8,29.3c6.2-9.9,13.7-18.7,19.8-28.8c-1.8-4.1-4.3-7.3-8.3-8.7
		c-10.3,8.3-14.3,21.9-25.7,29.2C215.3,65.3,242.1,36.2,248.7,28.9z M222.4,60.7c-2.9,2.6-10.3,3.2-13.5,1.1
		c-5.5-10.2,7.7-36.1-7.6-41.9c-15.8,3.3-3.8,29.9-7.8,41.4c-3.3,3.6-9.3,2.8-13.4,2.8c-6-14.6-8-37.7,0.4-48.5
		c9.6-6.8,27.7-8,36.6,0.5C226.5,25,225.8,46.1,222.4,60.7z M170.4,69.9c-2.6,2.5-7,3.5-11.6,4.3c-5.5-4.4-9.1-30.7-19.4-29.9
		c-7.3,0.5-5.9,8-3.1,13.9c3.4,7.4,12.5,13.8,14.5,21.8c-2.1,4.2-6.1,6.9-11.2,8.5c-20.6-10.8-30-57.9,3.9-57.3
		C161.4,31.6,163.8,54.3,170.4,69.9z M172.5,85.1c1.5,0.1,1.1-4.9-1.1-3.3c19.2-15.6,43.9-10.2,63.9,2.6c5.6,3.6,10.4,7.6,14.5,10.7
		c4.1,3.1,20.5,12.2,20.3,19.6c-0.4,11.4-15.4,2.8-22.3-2.5c-17.1-13-38.8-35.5-69.6-20.8c-10.4,5-19.3,12.1-27.4,18.3
		c-8.3,6.4-15.5,15.4-28.3,17.6c-1.5-2.6-3.2-4.8-4.1-8.2c15.5-13.5,34.1-28.6,53.2-36.5C172.4,82.7,172.2,84.1,172.5,85.1z"/>
	<path d="M271.8,190.2c-11.6-9,22.8-24.2,1.4-35.8c-24.7,0-24.7,30.4-34.8,43.6c15.9,21.4,13.1,56-1.8,73.2
		c-8.8,10.2-23.1,20.8-35.9,29.2c-13.9,9.1-29.6,18.7-34.2,29.9c-10.7,26.3,14.1,48.3,38.3,43.7c19.5-3.7,31.1-28.5,18.3-47.4
		c-5.8-8.6-18-5.6-21-18.7c11.5-6.7,23.1,3.3,28.7,8.8c29.1,28,4.2,68.1-26.5,72.6c-26.4,3.9-55.1-13.3-53.6-43.3
		c2.1-43,40.6-51.4,67-75.9c16-14.8,24.2-40.6,9.5-62.8c-11.2-8.2-28.7-12-43.1-7.6c-13.3,4-24.1,23.4-22.5,37.5
		c2.4,21.6,20,26.9,35.1,35.4c-11.4,14.2-28.1,2.6-37.2-8.1c-15.6-18.3-13-53.6,3.2-66.5c-5.4-16.4-14.8-28.2-22.9-41.5
		c-14.9-7.2-25.8,9.9-14.5,20.7c3.3,3.2,9.8-1.5,12,1.6c2.6,6.8-2.2,13-7.4,14.2c-14.6,3.3-29.6-20-22.6-38.1
		c2.8-7.3,15.1-15.3,26-14.8c6.5,0.3,13.4,5,16.8,8c7.8,7,8.2,17.8,17.5,27.5c8.6,9,35.3,16.4,52.5,8.6
		c13.8-6.2,17.4-25.4,25.4-33.5c7.7-7.8,29.4-14.5,40.3-6.6C303.3,156.6,291.2,192,271.8,190.2L271.8,190.2z"/>
	<path d="M179.9,104c-9.5,5.2-19.5,21.9-15.5,40.3c4.7,21.6,20.8,30.4,43.7,26.3c8.3-1.5,21.5-9.6,25.7-18.2
		C251,118,214.6,85.1,179.9,104z M180.3,151.6c-11.6-13.7-0.5-37.1,17.3-38.8c11.1-1,20.3,4.8,26.6,14
		C234.4,156.8,193.5,167,180.3,151.6z"/>
	<path d="M194.1,121.6c14.1-1.8,22.1,3.6,21.1,19.6c-3.6,4.4-8.7,9.3-14.5,9.7C185.4,151.8,179.5,128.2,194.1,121.6z"/>
</g>
</svg>
