<?xml version="1.0" encoding="utf-8"?>
<!-- Generator: Adobe Illustrator 24.2.1, SVG Export Plug-In . SVG Version: 6.00 Build 0)  -->
<svg version="1.1" id="Layer_1" xmlns="http://www.w3.org/2000/svg" xmlns:xlink="http://www.w3.org/1999/xlink" x="0px" y="0px"
	 viewBox="0 0 500 500" style="enable-background:new 0 0 500 500;" xml:space="preserve">
<style type="text/css">
	.st0{fill:#231F20;}
</style>
<path class="st0" d="M290.9,181.3c0,0-0.2,7.8-3.2,16.3c-3,8.5-6.3,24.7-6.3,24.7s1-18,2.2-23.2c0,0-21.8-11.5-42.3-14.7
	c-20.5-3.2-69.3,1-95.2,15.8S96.2,238,83.5,262c-12.7,23.8-17,55-16.8,74c0.2,19,8.3,33.7,8.3,33.7s-7.3-10.2-11.7-23.3
	c0,0-5.8-1.2-12-1.2s-9.7,1-9.7,1s12,10.2,18.7,20.5c6.8,10.2,12.5,32.7,24.7,44.5c12.2,12,21,11.7,21,11.7l1-14.3
	c0,0,2.2,30.7,6.8,38.2s50.8,17.8,69.8,21.2c19,3.3,41.3,7,51.8,6.2c10.5-1,16-1.2,21.7-3.3c5.7-2.2,10.7-7.5,10.7-10.5
	s-7.3-6.2-11.7-11.5c-4.3-5.3-4.8-11-11-14.8c-6.2-3.8-23.8-7-30.2-7.8s-19.2-1.7-19.2-1.7s29.5,0.2,44,1.7
	c14.5,1.5,22.3,2.7,22.3,2.7l-2.7-17c0,0,7.3,9,12.5,24.8s2.5,23.7,7.8,31s39,12.2,49.8,11.5c11-0.7,12.8-4.8,8.8-12.5
	c-4.2-7.5-4.2-8.5-9.5-12.7s-6.5-11-9.7-15.2c-3.2-4.2-4.2-2.5-5.3-7.5c-1.2-5.2-1.5-15.3-1.5-15.3s1.5,14.7,4,17.7
	c2.7,3,5.5,3.2,7,6.5c1.5,3.2,1,4.8,4.2,5.7s14.7,1.8,15.7-3c1-4.7-1.2-9.7-6.2-15.2c-5-5.3-8.2-15.7-6.8-22.3
	c1.3-6.7,13.2-23.2,13.2-23.2l-12.3,3.8c0,0,8.5-3.8,33-15.7c24.5-11.8,35.8-31.8,38.3-49.7c2.5-17.8-1.8-32.3-1.8-32.3l-12.2,9.3
	c0,0,8.8-10.8,16.2-18.5c7.3-7.7,10.5-24.2,8.7-36.8c-2-12.7-8.5-20.7-9-25.8c-0.5-5.2-1.5-18.8-3.2-26.5
	c-1.7-7.7-8.2-18.2-8.2-18.2s5.5,5.5,6.8,8.5c0,0,4.8-16,18.3-31.7c13.5-15.7,21.8-31.5,26.5-47.8c4.7-16.3,12.8-44.5,13.5-53.3
	c0.7-9-4.5-9.2-9.8-6.5c-5.3,2.7-28,20.7-43.7,34.2s-30.5,32-37.8,44.5c-7.3,12.5-7.5,29-7.5,29l11.7,4.7c0,0-10.7-2.2-15.8-2.7
	c-5.2-0.5-13.7-0.5-13.7-0.5l5.2-2.2c0,0,3.2-27.3-1.5-46c-4.7-18.7-12.7-42.2-23-53.5s-19-22.8-26.8-26.3
	c-7.8-3.5-15.2,3.2-17.8,9.3c-2.8,6.2-1.3,5.3-3.7,20c-2.5,14.7-6.3,25.8-4,47.8c2.3,22,5.7,31.8,12.7,42.7
	c7,10.8,4.7,13.5,5.3,21.2c0.7,7.7,3.3,13.7,3.3,13.7l3-8.8L290.9,181.3z"/>
</svg>
