<?xml version="1.0" encoding="utf-8"?>
<!-- Generator: Adobe Illustrator 24.2.1, SVG Export Plug-In . SVG Version: 6.00 Build 0)  -->
<svg version="1.1" id="Layer_1" xmlns="http://www.w3.org/2000/svg" xmlns:xlink="http://www.w3.org/1999/xlink" x="0px" y="0px"
	 viewBox="0 0 500 500" style="enable-background:new 0 0 500 500;" xml:space="preserve">
<path d="M68.3,218c0,0-16.6,14.7-20.5,25.3c-3.9,10.6,0,26.2,0,26.2s-8.4,15.2-9.9,17.6c-1.5,2.5,1.2,1.7,4.2,0
	c3.1-1.7,11.8-11.4,11.8-11.4l1.2-5c0,0,0.3,6,0.1,10.2c-0.1,4.2-14.9,24-13.1,25.8c1.7,1.7,9.5-3.2,13.3-10.2
	c3.8-7,6.7-11.8,10.8-13.8c4.1-2,10.2-3.4,10.2-3.4l-8.6,5.8c0,0,17.8-3.6,37.6,8.6c19.8,12.2,42,36.4,57.7,60.3
	c15.7,23.9,24.2,37.9,40.5,44.3c16.3,6.4,88.9,4.7,106.4,0c17.5-4.7,40.8-2.6,75.5-5.5c34.7-2.9,46.3-8.2,65.6-12.8
	c19.2-4.7,26.5-4.1,23.9-7.9c-2.6-3.8-48.8-20.8-48.8-20.8s-14.8,7.4-23.5,8.9c-8.7,1.6-18.1,1-18.1,1s38.1-7.6,56.7-29.3
	c18.6-21.8,25.3-54.8,22.1-79.3c-3.1-24.7-16.2-47.7-33.9-64.9c-19.7-19.3-44.1-28.5-71.2-31.8c-7.2-0.9-14.4-1.4-21.6-1.7
	c-23.7-0.8-48.1,2.4-69.6,12.9c-23.8,11.5-40.8,31.9-55.4,53.3c-1.6,2.3-3.1,4.6-4.6,7c-7.4,11.7-12.4,27.2-12.4,27.2l17.1,17.9
	c0,0-45.8-28.4-59.4-35.4c-13.6-7-43.9-18.3-49.7-20c-5.8-1.7-9.7-2.5-9.7-2.5l-1.4,8.2c0,0-4.9-29.3-5.4-42.3
	c-0.6-13-4.7-35.2-10.9-36.5c-6.2-1.4-10.3,2.5-7.4,9.5c2.9,7,5.2,5.4,6,15c0.8,9.5,1,34.4,1,34.4l-3.9-23.3
	c0,0-22.5-61.6-30.5-71.3c-8-9.7-11.1-13-13-9.9c-1.9,3.1-5.6-0.6,2.5,13c8.2,13.6,24.9,57.1,28,69.9C60.8,194.2,68.3,218,68.3,218z
	"/>
</svg>
