<?xml version="1.0" encoding="utf-8"?>
<!-- Generator: Adobe Illustrator 24.2.1, SVG Export Plug-In . SVG Version: 6.00 Build 0)  -->
<svg version="1.1" id="Layer_1" xmlns="http://www.w3.org/2000/svg" xmlns:xlink="http://www.w3.org/1999/xlink" x="0px" y="0px"
	 viewBox="0 0 500 500" style="enable-background:new 0 0 500 500;" xml:space="preserve">
<style type="text/css">
	.st0{fill:#10141D;}
</style>
<path class="st0" d="M80.6,163.6c-1.2,1.5-1.3,3.8,0.1,5.1c6.3,6.3,9.5,9.4,15.8,15.7c0.1,0.2,0.4,0.1,0.6,0.2
	c-0.2,0.5-0.5,1-0.7,1.4c-0.2,0-0.3-0.2-0.5-0.2c-8.9-0.2-13.3-0.3-22.2-0.4c-1.9,0-3.5,1.5-3.8,3.5c-0.6,4.2-1.2,6.2-3.1,10
	c-0.9,1.7-0.5,4,1.1,5c7.4,4.9,11.1,7.3,18.5,12.2c0.1,0.1,0.4,0.1,0.5,0.1c-0.1,0.3-0.1,0.5-0.2,0.8c-0.2,0-0.3-0.1-0.5-0.1
	c-8.7,1.6-13.1,2.4-21.9,4c-1.9,0.3-3.1,2.2-3,4.1c0.3,4.3,0.1,6.4-1.1,10.4c-0.5,1.9,0.3,4,2.1,4.7c8.2,3.3,12.3,5,20.6,8.4
	c0.1,0,0.3-0.1,0.5,0c0,2.1,0.1,4.1,0.1,6.2c-0.2,0-0.4-0.1-0.6,0c-8.2,3.5-12.2,5.3-20.4,8.8c-1.8,0.7-2.6,2.8-2,4.7
	c1.2,4.1,1.4,6.2,1.2,10.4c-0.1,2,1.3,3.8,3.1,4.1c6.4,1,10.5,1.7,15.6,2.5c-4.4,2.8-7.9,5-13.3,8.5c-1.7,1-2.1,3.2-1.2,5
	c1.9,3.8,2.5,5.9,3,10c0.2,2,1.8,3.6,3.7,3.6c8.9,0,13.3-0.1,22.2-0.1c0.1,0,0.3-0.1,0.4-0.1c0.2,0.4,0.4,0.8,0.5,1.2
	c-0.1,0.1-0.3,0.1-0.4,0.2c-6.4,6.2-9.6,9.3-16,15.4c-1.4,1.4-1.4,3.5-0.2,5.1c2.6,3.4,3.6,5.2,4.8,9.2c0.6,1.9,2.5,3.2,4.4,2.8
	c8.4-1.7,12.8-2.6,21-4.3c-4.8,6.8-7.4,10.5-12.4,17.5c-1.1,1.6-0.7,3.8,0.7,5.1c3.2,2.8,4.5,4.5,6.5,8.2c1,1.7,3,2.6,4.8,1.9
	c8.2-3.4,12.3-5,20.6-8.4c0.1-0.1,0.1-0.2,0.2-0.3c0.3,0.3,0.7,0.6,1,0.9c-0.1,0.1-0.2,0.1-0.3,0.3c-3.6,8.1-5.4,12.1-9,20.3
	c-0.8,1.7,0,3.8,1.8,4.8c3.6,2.2,5.3,3.5,8,6.7c1.3,1.5,3.5,2,5,0.9c7.5-4.9,11.1-7.4,18.5-12.3c0.1-0.1,0.1-0.2,0.2-0.3
	c0.5,0.3,1,0.7,1.6,1c-0.1,0.1-0.2,0.2-0.2,0.4c-1.9,8.7-2.9,13-4.7,21.6c-0.4,1.9,0.8,3.8,2.7,4.4c4,1.4,5.9,2.4,9.2,5
	c1.5,1.2,3.8,1.3,5.2-0.2c6.2-6.3,9.4-9.4,15.6-15.7c0.1-0.1,0.1-0.3,0.2-0.4c0.5,0.2,0.9,0.4,1.4,0.7c0,0.1-0.1,0.2-0.2,0.3
	c-0.2,8.9-0.2,13.3-0.4,22.2c0,1.9,1.6,3.5,3.5,3.8c4.2,0.5,6.3,1.1,10,3.1c1.7,0.9,3.9,0.5,5-1.1c4.9-7.4,7.4-11.1,12.2-18.6
	c0.1-0.1,0-0.2,0.1-0.3c0.3,0.1,0.5,0.1,0.8,0.2c0,0.1-0.1,0.2-0.1,0.3c1.6,8.8,2.4,13.1,4,21.9c0.3,1.9,2.2,3.1,4.1,3
	c4.2-0.3,6.4-0.1,10.4,1.1c1.9,0.5,4-0.3,4.7-2.1c3.4-8.2,5-12.3,8.4-20.6c0-0.1,0-0.2,0-0.4c0.7,0,1.3,0,2,0c0,0.1-0.1,0.3,0,0.4
	c3.3,8.2,5,12.4,8.3,20.6c0.7,1.8,2.8,2.6,4.7,2.1c4.1-1.1,6.2-1.4,10.4-1c1.9,0.1,3.8-1.1,4.2-3c1.6-8.5,2.4-12.9,4-21.3
	c4.5,7.2,7,10.9,11.7,18.2c1,1.6,3.2,2.1,5,1.2c3.8-1.9,5.8-2.5,10-2.9c2-0.3,3.5-1.8,3.6-3.7c0-8.9-0.1-13.3-0.1-22.2
	c0-0.1-0.1-0.3-0.2-0.4c0.5-0.2,1-0.5,1.5-0.7c0.1,0.2,0.1,0.4,0.2,0.5c6.2,6.4,9.3,9.6,15.5,16c1.3,1.3,3.6,1.3,5.1,0.1
	c3.4-2.6,5.3-3.6,9.2-4.8c1.9-0.7,3.1-2.5,2.7-4.4c-1.7-8.5-2.7-12.9-4.4-21.2c6.9,4.9,10.6,7.5,17.7,12.4c1.5,1.1,3.7,0.7,5.1-0.8
	c2.8-3.1,4.5-4.5,8.1-6.5c1.8-1,2.6-3,1.9-4.8c-3.4-8.2-5.1-12.3-8.5-20.5c0-0.1-0.2-0.2-0.3-0.3c0.5-0.5,1-1.1,1.5-1.6
	c0.2,0.1,0.2,0.3,0.4,0.4c8.1,3.6,12.2,5.3,20.4,8.9c1.8,0.8,3.8-0.1,4.8-1.8c2.2-3.7,3.5-5.3,6.7-8c1.5-1.3,1.9-3.5,0.9-5.1
	c-5-7.4-7.5-11-12.5-18.4c-0.1-0.2-0.3-0.2-0.5-0.3c0.1-0.2,0.2-0.4,0.3-0.5c0.2,0.1,0.3,0.3,0.5,0.4c8.7,1.9,13,2.8,21.7,4.8
	c1.9,0.4,3.7-0.8,4.4-2.7c1.4-4,2.4-5.8,5-9.2c1.2-1.6,1.3-3.8-0.1-5.1c-6.3-6.3-9.4-9.4-15.7-15.6c-0.2-0.2-0.4-0.2-0.6-0.3
	c0.2-0.5,0.4-1,0.6-1.4c0.2,0.1,0.4,0.2,0.6,0.2c8.9,0.2,13.3,0.2,22.2,0.3c1.9,0.1,3.5-1.5,3.8-3.5c0.6-4.2,1.2-6.2,3.1-10
	c0.9-1.7,0.5-3.9-1.2-5c-7.4-4.9-11.1-7.3-18.5-12.2c-0.2-0.1-0.4-0.1-0.7-0.2c0.1-0.2,0.2-0.5,0.2-0.8c0.2,0,0.4,0.2,0.6,0.1
	c8.8-1.6,13.1-2.4,21.9-3.9c1.9-0.4,3.1-2.2,3-4.2c-0.3-4.2-0.1-6.4,1.1-10.4c0.5-1.9-0.3-4-2.1-4.7c-8.2-3.4-12.3-5-20.6-8.4
	c-0.2-0.1-0.5,0-0.7,0c0-2.1-0.1-4.1-0.2-6.2c0.3,0,0.6,0.1,0.9,0c8.1-3.5,12.2-5.3,20.4-8.8c1.7-0.7,2.5-2.8,2-4.7
	c-1.2-4.1-1.5-6.2-1.3-10.4c0.1-1.9-1.2-3.8-3.1-4.1c-6.4-1-10.5-1.7-15.6-2.5c4.4-2.8,7.9-5,13.3-8.5c1.6-1,2.1-3.2,1.2-5
	c-1.9-3.8-2.5-5.9-2.9-10c-0.2-2-1.8-3.5-3.7-3.6c-8.9,0-13.3,0.1-22.2,0.1c-0.3,0-0.5,0.2-0.7,0.3c-0.2-0.4-0.4-0.8-0.5-1.2
	c0.3-0.1,0.6-0.1,0.8-0.3c6.4-6.2,9.6-9.2,16-15.4c1.4-1.3,1.4-3.5,0.2-5.1c-2.6-3.4-3.5-5.3-4.9-9.2c-0.6-1.9-2.5-3.1-4.3-2.7
	c-8.4,1.7-12.9,2.6-21,4.3c4.8-6.8,7.4-10.5,12.4-17.5c1.1-1.6,0.7-3.8-0.7-5.1c-3.2-2.8-4.5-4.5-6.5-8.1c-0.9-1.8-3-2.7-4.8-1.9
	c-8.2,3.3-12.4,5-20.6,8.4c-0.2,0.1-0.4,0.3-0.6,0.6c-0.3-0.3-0.6-0.6-1-1c0.2-0.2,0.5-0.4,0.6-0.6c3.6-8.1,5.4-12.2,9-20.3
	c0.8-1.7,0-3.8-1.7-4.8c-3.6-2.2-5.3-3.5-8-6.7c-1.3-1.5-3.5-2-5.1-0.9c-7.4,4.9-11.1,7.4-18.5,12.3c-0.2,0.2-0.3,0.4-0.5,0.7
	c-0.5-0.4-1-0.7-1.6-1c0.2-0.3,0.5-0.5,0.5-0.8c1.9-8.7,2.8-13,4.8-21.7c0.4-1.9-0.8-3.8-2.7-4.4c-4-1.4-5.9-2.4-9.2-5
	c-1.5-1.3-3.7-1.3-5.1,0.1c-6.3,6.3-9.4,9.4-15.7,15.8c-0.2,0.2-0.3,0.5-0.4,0.8c-0.5-0.2-0.9-0.5-1.4-0.6c0.1-0.3,0.3-0.5,0.3-0.8
	c0.1-8.9,0.2-13.3,0.4-22.2c0-1.9-1.5-3.5-3.5-3.8c-4.2-0.5-6.2-1.2-10-3.1c-1.7-0.9-3.9-0.4-5,1.1c-4.9,7.4-7.3,11.1-12.2,18.6
	c-0.2,0.2-0.1,0.5-0.2,0.8c-0.3-0.1-0.5-0.1-0.8-0.2c0.1-0.3,0.2-0.5,0.2-0.8c-1.6-8.7-2.3-13.1-3.9-21.9c-0.4-1.9-2.2-3.1-4.2-3
	c-4.2,0.2-6.4,0-10.4-1.1c-1.9-0.5-4,0.3-4.7,2.1c-3.4,8.2-5,12.3-8.4,20.5c-0.1,0.3,0,0.6,0,0.8c-0.7,0-1.4,0-2,0
	c0-0.3,0.1-0.6,0-0.8c-3.3-8.3-4.9-12.4-8.2-20.6c-0.7-1.8-2.8-2.7-4.7-2.2c-4.1,1.1-6.2,1.3-10.4,1c-2-0.1-3.8,1.1-4.2,3
	c-1.6,8.5-2.4,12.9-4,21.3c-4.5-7.2-7-10.9-11.7-18.2c-1.1-1.6-3.2-2.1-5-1.2c-3.8,1.9-5.8,2.5-10,3c-1.9,0.2-3.5,1.8-3.5,3.7
	c0,8.9,0,13.3,0.1,22.2c0,0.3,0.2,0.5,0.3,0.7c-0.4,0.2-1,0.4-1.5,0.6c-0.1-0.3-0.1-0.6-0.3-0.8c-6.2-6.4-9.2-9.6-15.4-16
	c-1.3-1.4-3.5-1.4-5.1-0.2c-3.4,2.6-5.3,3.6-9.3,4.9c-1.9,0.6-3.1,2.5-2.7,4.4c1.7,8.4,2.6,12.8,4.3,21.1
	c-6.9-4.8-10.6-7.4-17.6-12.4c-1.6-1.1-3.7-0.7-5.1,0.8c-2.8,3.2-4.5,4.5-8.2,6.5c-1.7,0.9-2.6,3-1.9,4.8c3.4,8.2,5.1,12.3,8.5,20.5
	c0.1,0.2,0.3,0.3,0.5,0.5c-0.5,0.5-1,1-1.5,1.6c-0.2-0.2-0.3-0.4-0.5-0.5c-8.2-3.5-12.2-5.3-20.4-8.8c-1.8-0.8-3.8,0.1-4.8,1.7
	c-2.1,3.7-3.5,5.4-6.7,8.1c-1.5,1.3-1.9,3.5-0.9,5.1c5,7.4,7.5,11,12.4,18.4c0.1,0.2,0.4,0.2,0.5,0.4c-0.1,0.2-0.2,0.3-0.3,0.5
	c-0.2-0.1-0.3-0.3-0.6-0.4c-8.7-1.9-13-2.9-21.7-4.8c-1.9-0.4-3.7,0.8-4.4,2.7C84.2,158.5,83.2,160.4,80.6,163.6z M179.3,379.7
	c-18.4-10-33.7-23.4-45.8-39c21.2-14.4,131-81.8,241.3-12.6C333.8,394,248.3,417.3,179.3,379.7z M226.3,237.3
	c7.1-13,23.5-17.8,36.5-10.8c13,7.1,17.9,23.5,10.7,36.5c-7.1,13-23.4,17.8-36.5,10.7C224,266.7,219.2,250.3,226.3,237.3z
	 M320.5,120.7c68.6,37.4,95.5,121.4,63.1,191.3c-30.3-16.4-132.8-82-122.2-208.7C281.5,104.9,301.6,110.5,320.5,120.7z M234.5,103.6
	C237,128.7,244,262.7,123,325c-25.4-43.2-28.3-98.2-2.6-145.4C144.5,135.4,188,108.6,234.5,103.6z"/>
</svg>
