<?xml version="1.0" encoding="utf-8"?>
<!-- Generator: Adobe Illustrator 24.2.1, SVG Export Plug-In . SVG Version: 6.00 Build 0)  -->
<svg version="1.1" id="Layer_1" xmlns="http://www.w3.org/2000/svg" xmlns:xlink="http://www.w3.org/1999/xlink" x="0px" y="0px"
	 viewBox="0 0 500 500" style="enable-background:new 0 0 500 500;" xml:space="preserve">
<style type="text/css">
	.st0{fill:#10141D;}
</style>
<path class="st0" d="M63.9,255.1c-0.4,1.9,0.7,3.8,2.5,4.4c8.3,2.4,12.5,3.6,20.9,6c0.2,0.1,0.4-0.1,0.6,0c0,0.5,0,1,0.1,1.5
	c-0.2,0-0.4,0-0.6,0.1c-7.7,4.1-11.6,6-19.3,10c-1.7,0.9-2.3,3-1.6,4.8c1.5,3.9,1.9,5.9,2.1,10c0.1,2,1.5,3.6,3.3,3.8
	c8.7,0.7,13,1.1,21.7,1.8c0.2,0,0.4-0.2,0.5-0.2c0.1,0.3,0.1,0.6,0.2,0.8c-0.2,0-0.4,0.1-0.5,0.2c-6.8,5.4-10.2,8.1-16.9,13.6
	c-1.6,1.2-1.8,3.3-0.7,5c2.2,3.6,3,5.4,3.9,9.4c0.5,1.9,2.1,3.3,4,3.1c8.7-1,13-1.5,21.6-2.4c0.1,0,0.3-0.2,0.4-0.2
	c0.9,1.8,2.1,3.5,3,5.2c-0.1,0.1-0.4,0.1-0.6,0.3c-5.3,6.8-8,10.2-13.4,17.1c-1.2,1.5-0.8,3.6,0.5,5c3,3,4.2,4.6,6,8.3
	c0.8,1.8,2.8,2.7,4.5,2.1c6-2.1,9.8-3.4,14.6-5.2c-2.5,4.5-4.4,8-7.4,13.6c-0.9,1.7-0.3,3.7,1.2,4.9c3.5,2.4,4.9,3.9,7.3,7.2
	c1.1,1.6,3.2,2.2,4.9,1.3c7.6-4.2,11.4-6.3,19-10.5c0.2,0,0.2-0.2,0.3-0.3c0.3,0.3,0.6,0.5,1,0.7c0,0.2-0.2,0.2-0.3,0.4
	c-2.6,8.3-3.9,12.4-6.5,20.7c-0.6,1.8,0.5,3.7,2.2,4.5c3.8,1.7,5.6,2.8,8.6,5.7c1.4,1.3,3.6,1.5,5,0.3c6.5-5.4,9.8-8.3,16.1-13.6
	c-1,8.2-1.4,12.5-2.4,20.9c-0.2,1.9,1.1,3.5,3,4c4,1,5.9,1.7,9.4,4c1.6,1,3.8,0.9,4.9-0.6c5.5-6.7,8.3-10.1,13.8-16.9
	c0-0.1,0-0.3,0.1-0.3c0.5,0.1,0.9,0.3,1.3,0.3c0,0.1-0.1,0.2-0.1,0.4c0.7,8.6,1,13,1.7,21.7c0.2,1.9,1.8,3.3,3.8,3.3
	c4.1,0.1,6.2,0.5,10.1,2c1.8,0.7,3.9,0.1,4.7-1.6c4.1-7.7,6-11.5,10.2-19.2c0-0.1,0-0.3,0-0.3c0.6,0,1.3,0.1,1.9,0.1
	c0,0.1-0.1,0.3-0.1,0.3c2.5,8.4,3.6,12.6,6,20.9c0.6,1.8,2.5,2.9,4.4,2.6c4.1-0.7,6.2-0.7,10.3,0c1.9,0.3,3.8-0.7,4.3-2.6
	c2.4-8.3,3.7-12.5,6.1-20.9c0-0.1-0.1-0.2-0.1-0.4c0.5-0.1,1-0.1,1.5-0.1c0,0.1,0,0.3,0,0.4c4.1,7.7,6.1,11.5,10.1,19.3
	c0.9,1.6,3,2.2,4.8,1.5c3.9-1.4,5.9-1.9,10.1-2c1.9-0.1,3.6-1.4,3.8-3.3c0.7-8.7,1.1-13,1.8-21.6c0-0.1-0.1-0.3-0.1-0.4
	c0.2,0,0.5-0.1,0.8-0.2c0,0.1,0,0.2,0,0.3c5.5,6.7,8.2,10.2,13.6,17c1.2,1.4,3.4,1.7,5,0.6c3.5-2.2,5.4-3,9.4-3.9
	c1.8-0.5,3.3-2.2,3.1-4c-1-8.7-1.5-13-2.5-21.6c0-0.1-0.1-0.2-0.1-0.4c0.5-0.3,1.1-0.6,1.7-0.9c0.1,0.1,0.1,0.2,0.2,0.3
	c6.7,5.6,10.1,8.3,16.8,13.9c1.4,1.2,3.6,0.9,5-0.3c3-2.9,4.7-4,8.4-5.8c1.8-0.8,2.7-2.7,2.2-4.6c-2.6-8.1-4-12.3-6.6-20.1
	c7.3,4,11.1,6.1,18.6,10.2c1.7,0.9,3.7,0.3,4.9-1.3c2.4-3.4,3.8-4.8,7.2-7.2c1.6-1.2,2.3-3.2,1.3-4.9c-4.2-7.6-6.3-11.5-10.4-19
	c-0.1-0.2-0.3-0.2-0.4-0.3c0.3-0.4,0.5-0.9,0.9-1.3c0.1,0,0.3,0.3,0.4,0.3c8.3,2.6,12.4,3.9,20.7,6.5c1.8,0.6,3.8-0.5,4.5-2.2
	c1.8-3.8,2.8-5.5,5.7-8.5c1.3-1.4,1.6-3.6,0.3-5c-5.5-6.5-8.3-9.8-13.7-16.1c8.2,0.9,12.6,1.4,21,2.4c1.9,0.3,3.6-1.1,4-3
	c0.9-4.1,1.8-6,4-9.4c1-1.7,0.8-3.9-0.7-5c-6.8-5.6-10.2-8.2-16.9-13.7c-0.1-0.1-0.3-0.1-0.4-0.2c0.2-0.7,0.4-1.4,0.5-2.1
	c0.2,0,0.4,0.2,0.6,0.2c8.7-0.8,13-1.2,21.7-1.9c1.8-0.2,3.2-1.9,3.3-3.8c0.1-4.2,0.5-6.2,2-10.1c0.7-1.8,0-3.9-1.7-4.7
	c-7.7-4-11.6-6-19.3-10c-0.2-0.1-0.4,0-0.7,0c0-0.2,0-0.4,0.1-0.6c0.2,0,0.4,0.1,0.6,0c8.3-2.4,12.5-3.6,20.9-6.1
	c1.8-0.5,2.8-2.4,2.5-4.3c-0.7-4.2-0.7-6.2,0-10.2c0.3-1.9-0.7-3.8-2.5-4.4c-8.4-2.4-12.5-3.6-20.9-6c-0.3,0-0.5,0-0.7,0
	c0-0.5,0-1-0.1-1.5c0.2,0,0.4,0,0.6-0.1c7.7-4,11.6-6,19.2-10.1c1.7-0.8,2.3-2.9,1.6-4.7c-1.5-3.9-1.9-6-2-10
	c-0.1-1.9-1.5-3.6-3.4-3.7c-8.7-0.8-13-1.1-21.6-1.8c-0.2,0-0.5,0.1-0.7,0.2c-0.1-0.2-0.2-0.5-0.2-0.8c0.2,0,0.5-0.1,0.6-0.2
	c6.8-5.4,10.1-8.2,17-13.6c1.5-1.2,1.7-3.4,0.6-5c-2.2-3.6-3-5.4-3.9-9.5c-0.4-1.8-2.1-3.2-4-3.1c-8.7,1-13,1.4-21.6,2.5
	c-0.3,0-0.5,0.2-0.6,0.3c-0.9-1.8-2.1-3.5-3.1-5.2c0.3-0.2,0.5-0.3,0.8-0.4c5.3-6.9,8-10.3,13.4-17.1c1.2-1.4,0.8-3.6-0.5-4.9
	c-2.9-3-4.2-4.6-5.9-8.4c-0.9-1.7-2.8-2.6-4.6-2c-6,2.1-9.7,3.4-14.6,5.1c2.4-4.4,4.4-8,7.4-13.5c0.9-1.7,0.3-3.7-1.3-4.9
	c-3.3-2.4-4.8-3.8-7.2-7.2c-1.2-1.6-3.2-2.2-4.9-1.3c-7.6,4.2-11.4,6.3-19.1,10.4c-0.3,0.2-0.3,0.4-0.4,0.7
	c-0.3-0.3-0.7-0.5-1.1-0.8c0.2-0.1,0.5-0.3,0.6-0.6c2.6-8.3,3.9-12.4,6.5-20.7c0.6-1.9-0.5-3.7-2.2-4.5c-3.8-1.7-5.6-2.8-8.6-5.7
	c-1.4-1.3-3.5-1.6-5-0.3c-6.4,5.5-9.8,8.3-16.1,13.6c0.9-8.2,1.5-12.5,2.5-20.9c0.2-1.8-1.1-3.5-3-4c-4.1-0.9-6-1.8-9.4-4
	c-1.6-1.1-3.8-0.9-5,0.6c-5.5,6.8-8.2,10.2-13.7,16.9c-0.2,0.2-0.2,0.5-0.3,0.8c-0.4-0.1-0.8-0.3-1.2-0.4c0.2-0.2,0.2-0.5,0.3-0.7
	c-0.7-8.7-1-13-1.8-21.7c-0.1-1.9-1.8-3.3-3.7-3.3c-4.2-0.2-6.2-0.6-10-2.1c-1.8-0.7-3.9-0.1-4.8,1.6c-4,7.7-6.1,11.5-10.1,19.2
	c-0.2,0.2-0.1,0.5-0.1,0.8c-0.6,0-1.2-0.1-1.8-0.2c0-0.3,0.1-0.6,0.1-0.8c-2.4-8.4-3.6-12.6-6.1-20.9c-0.5-1.9-2.5-2.9-4.4-2.6
	c-4.1,0.7-6.1,0.8-10.2,0c-1.9-0.3-3.8,0.7-4.4,2.5c-2.4,8.3-3.6,12.6-6,20.9c-0.1,0.2,0,0.6,0.1,0.8c-0.5,0.1-1,0-1.5,0.1
	c0-0.3,0.1-0.6-0.1-0.8c-4-7.7-6-11.6-10.1-19.3c-0.9-1.7-3-2.3-4.8-1.6c-3.9,1.5-5.9,1.9-10,2.1c-1.9,0.1-3.6,1.4-3.8,3.4
	c-0.7,8.7-1.1,13-1.8,21.6c0,0.3,0.1,0.6,0.2,0.8c-0.2,0.1-0.5,0.1-0.8,0.2c-0.1-0.3-0.1-0.5-0.3-0.8c-5.5-6.8-8.1-10.1-13.6-16.9
	c-1.2-1.4-3.4-1.7-5-0.6c-3.6,2.3-5.4,3.1-9.4,3.9c-2,0.5-3.3,2.1-3.1,4c1,8.6,1.4,13,2.5,21.6c0,0.3,0.2,0.5,0.4,0.7
	c-0.6,0.3-1.1,0.6-1.7,0.9c-0.2-0.2-0.2-0.5-0.5-0.7c-6.7-5.5-10-8.3-16.7-13.8c-1.5-1.2-3.6-0.9-5.1,0.4c-3,2.9-4.7,4-8.4,5.8
	c-1.8,0.8-2.8,2.8-2.2,4.5c2.6,8.1,4,12.3,6.6,20.2c-7.3-4.1-11.2-6.1-18.6-10.2c-1.6-0.9-3.7-0.3-4.9,1.3c-2.4,3.4-3.9,4.8-7.2,7.3
	c-1.5,1.1-2.1,3.1-1.3,4.8c4.2,7.6,6.3,11.4,10.5,19c0.1,0.2,0.4,0.4,0.6,0.4c-0.3,0.5-0.6,0.9-0.9,1.3c-0.2-0.1-0.4-0.4-0.7-0.4
	c-8.3-2.6-12.5-3.9-20.8-6.5c-1.7-0.6-3.7,0.5-4.5,2.2c-1.7,3.8-2.8,5.5-5.7,8.5c-1.3,1.4-1.5,3.5-0.3,5c5.5,6.5,8.4,9.8,13.7,16.2
	c-8.2-1-12.5-1.5-21-2.4c-1.9-0.3-3.5,1.1-4,3c-0.9,4-1.8,5.9-4,9.4c-1,1.7-0.8,3.8,0.6,5.1c6.8,5.4,10.2,8.2,16.9,13.6
	c0.2,0.2,0.4,0.2,0.7,0.3c-0.3,0.6-0.4,1.3-0.6,2c-0.2,0-0.5-0.2-0.7-0.2c-8.7,0.8-13,1.1-21.7,1.9c-1.9,0.2-3.2,1.9-3.4,3.8
	c-0.1,4.1-0.5,6.2-1.9,10c-0.7,1.8-0.1,3.9,1.6,4.7c7.8,4,11.6,6,19.4,10c0.2,0,0.4,0,0.6,0c0,0.3,0,0.4,0,0.6c-0.2,0-0.4-0.1-0.6,0
	c-8.4,2.5-12.6,3.6-20.9,6c-1.9,0.5-2.8,2.5-2.5,4.4C64.5,249,64.6,251.1,63.9,255.1z M106,257.5l78.5,0.1
	c1.2,11.1,5.2,21.5,11.3,30.3L140,343.6C120,320.1,107.6,290.2,106,257.5z M153.8,357.8l55.6-55.6c8.7,6.9,19.2,11.5,30.6,13.2
	l0,78.8C207,391.9,177.1,378.6,153.8,357.8z M250,222.5c15.3,0,27.8,12.4,27.8,27.8c0,15.4-12.4,27.8-27.8,27.8
	c-15.4,0-27.8-12.4-27.7-27.7C222.2,234.9,234.7,222.5,250,222.5z M259.9,394.2l0-78.7c11.5-1.8,21.9-6.4,30.7-13.2l55.6,55.6
	C322.9,378.6,292.9,391.9,259.9,394.2z M360,343.7l-55.8-55.9c6.1-8.8,10.1-19.1,11.3-30.2l78.5,0
	C392.4,290.3,379.9,320.2,360,343.7z M393.8,237.7l-79,0c-2-10.5-6.5-19.9-12.8-28l55.5-55.6C377.8,176.7,391,205.7,393.8,237.7z
	 M343.4,140.2l-55.9,55.8c-8.1-5.6-17.5-9.5-27.7-11l0-78.8C291.6,108.5,320.6,120.8,343.4,140.2z M240.1,106.3l0,78.7
	c-10.2,1.5-19.6,5.4-27.6,11l-55.8-55.8C179.4,120.8,208.3,108.5,240.1,106.3z M142.5,154.1l55.6,55.6c-6.3,8-10.8,17.6-12.8,28
	l-79,0C109,205.7,122.2,176.7,142.5,154.1z"/>
</svg>
