<?xml version="1.0" encoding="utf-8"?>
<!-- Generator: Adobe Illustrator 24.2.1, SVG Export Plug-In . SVG Version: 6.00 Build 0)  -->
<svg version="1.1" id="Layer_1" xmlns="http://www.w3.org/2000/svg" xmlns:xlink="http://www.w3.org/1999/xlink" x="0px" y="0px"
	 viewBox="0 0 500 500" style="enable-background:new 0 0 500 500;" xml:space="preserve">
<style type="text/css">
	.st0{fill:#03070D;}
</style>
<g>
	<path class="st0" d="M71.5,361.9c20.3,32.8,48.8,58.7,81.9,75.8c5-3.5,10-7,15-10.4c-34.8-16.2-64.8-42.6-85.1-76.7
		C80.3,355,76.5,358.9,71.5,361.9z"/>
	<path class="st0" d="M98.7,123.6c1.1,0.5,2.1,1,3.2,1.5c22-26,51.1-46.6,85.7-58.4c76.6-26.1,158.2-1.8,208.7,55.3
		c4.2-3.4,9.1-6.1,14.2-7.8c-54.4-63.6-144-91.2-228.1-62.5c-40,13.6-73.2,38.1-97.5,69C89.4,120.7,94,121.6,98.7,123.6z"/>
	<path class="st0" d="M312.8,434.4C211.1,469,100.5,414.7,65.8,313c-17.2-50.4-12.5-103,9-147.5c-5.5-0.9-10.9-1.8-16.4-2.6
		c-21.5,47.2-25.7,102.3-7.7,155.3C88.2,428.2,207.9,487,318,449.5c110.1-37.5,168.9-157.2,131.4-267.3
		c-18.2-53.4-55.8-94.8-102.3-118.9c-5,3.5-10,7-14.9,10.4c46.4,21.6,84.3,61.4,102.1,113.6C468.9,289,414.6,399.6,312.8,434.4z"/>
	<path class="st0" d="M268,440.3l-0.1-0.9c-72.5,5.4-142.8-30.2-181.3-92.1l-0.4-0.6L60.6,356l0.6,0.9
		c43.9,74.4,127.5,116.8,213.2,108.8l1-0.1l-6.7-26.3l-0.8,0L268,440.3l-0.9,0.2l6.2,24.6l0.9-0.2l-0.1-0.9
		c-85,8-167.9-34.1-211.4-107.9l-0.8,0.4l0.3,0.8l23.9-8.8l-0.3-0.8l-0.8,0.5c38.9,62.5,109.8,98.4,183,93L268,440.3l-0.9,0.2
		L268,440.3z"/>
	<path class="st0" d="M265.8,444.8c-70.6,5-144.4-32.4-181.9-92l-14.4,5.5C110.2,428.1,187,467,268.9,459.6L265.8,444.8z"/>
	<path class="st0" d="M352,411.6l0.5,0.7c61.2-40.4,95.5-112.1,88.1-185.4l-0.9,0.1l0.3,0.9l24.3-7.6l-0.3-0.9l-0.9,0.1
		c10.6,85.1-29.3,169-101.5,214.6l0.5,0.8l0.8-0.4l-10.1-23.3L352,411.6l0.5,0.7L352,411.6l-0.8,0.3l10.5,24.2l0.9-0.6
		c72.7-46,113-130.6,102.3-216.3l-0.1-1.1l-26.1,8.2l0.1,0.7c7.3,72.6-26.6,143.6-87.3,183.7l-0.6,0.4l0.3,0.7L352,411.6z"/>
	<path class="st0" d="M356.5,413.9c58.9-39.1,94.5-113.8,87.8-184l14.8-4.5c10.3,80.2-26.6,157.9-96,202.1L356.5,413.9z"/>
	<path class="st0" d="M281.6,62.4l0.1-0.9c-72.6-10.7-145.8,20-189.2,79.5l0.7,0.5l0.4-0.8l-23.2-10.5l-0.4,0.8l0.7,0.5
		c48.8-70.5,134.5-106.5,218.7-92.4l0.2-0.9l-0.8-0.3l-8,24.1L281.6,62.4l0.1-0.9L281.6,62.4l0.9,0.3l8.3-25.1l-1.1-0.2
		c-84.9-14.2-171.2,22-220.4,93.1l-0.6,0.9l24.9,11.2l0.4-0.6c42.9-59,115.6-89.4,187.4-78.8l0.8,0.1l0.3-0.7L281.6,62.4z"/>
	<path class="st0" d="M279.8,57.7c-70-10.1-146.3,21.9-188.1,78.7l-14-6.5c45.7-66.7,125.2-100,206.3-86.7L279.8,57.7z"/>
	<path class="st0" d="M351.5,60.2c-0.5,0.4-1.1,0.8-1.7,1.2c35.5,18.6,66,46.7,87.2,82.4l-22.2,8.2c-21.2-33.8-51.7-59.6-86.8-75.4
		c-0.6,0.4-1.2,0.8-1.8,1.2c35.5,15.7,66.3,41.7,87.5,75.7l0.4,0.6l25.6-9.4l-0.6-0.9C417.9,107.6,387.2,79.1,351.5,60.2z"/>
	<path class="st0" d="M331,74.4c34.8,16.1,65.3,41.6,85.4,73.5l14.4-5.5c-20.3-34.7-49.4-61.7-83.7-79.3
		C341.8,66.9,336.4,70.7,331,74.4z"/>
	<path class="st0" d="M79.3,166.2C63.2,198.8,56,235.6,59.7,273l-22.6,7.1c-4.9-40.9,1.9-81.5,18.3-117.7c-0.6-0.1-1.3-0.2-1.9-0.3
		C37,198.8,30.2,240,35.4,281.4l0.1,1.1l26-8.2l-0.1-0.7c-3.8-37.4,3.5-74.5,19.6-107C80.5,166.4,79.9,166.3,79.3,166.2z"/>
	<path class="st0" d="M58.4,162.9C42.4,197.3,36.1,236,41.2,275.3l14.8-4.5c-3.4-35.6,4.1-72.4,20.1-105.2
		C70.1,164.7,64.3,163.8,58.4,162.9z"/>
	<path class="st0" d="M94.8,214.5c-6.7,28.3-5.3,57.4,3.2,84.2c4.5,0.8,9,1.6,13.6,2.4c-10-27.2-11.9-57.3-4.5-86.5
		C103.2,215.5,99.1,215.5,94.8,214.5z"/>
	<path class="st0" d="M236.8,101.6c0.3,0.8,0.6,1.7,0.9,2.5c25.7-2.2,52.2,2.4,77,14.6c54.9,27,85.5,83.6,82,141
		c4.1,0.4,8.1,1.6,11.8,3.4c4.9-63.1-28.2-125.7-88.5-155.3c-28.7-14.1-59.5-18.7-89-15.2C233.3,95.1,235.3,98.1,236.8,101.6z"/>
	<path class="st0" d="M185.1,382.1C112.1,346.3,82.1,258.2,118,185.2c17.7-36.1,48.4-61.7,83.6-74c-2.4-3.4-4.9-6.8-7.4-10.2
		c-36.7,13.7-68.4,40.9-87.1,78.9c-38.8,78.9-6.3,174.2,72.6,213c78.9,38.8,174.3,6.2,213.1-72.6c18.8-38.3,20.8-80.5,8.9-118.2
		c-4.5-0.8-9-1.6-13.6-2.4c13.3,36.3,12.3,77.8-6.2,115.3C346.1,387.9,258,417.9,185.1,382.1z"/>
	<path class="st0" d="M157.9,361.3l0.4-0.5c-41.6-35.9-60.1-92.4-47.6-146.1l0.1-0.5l-18.7-8.7l-0.2,0.8
		c-16.3,63.2,5.7,130.5,55.8,172l0.6,0.5l10.5-17.6l-0.4-0.4L157.9,361.3l-0.6-0.3l-9.8,16.5l0.6,0.3l0.4-0.5
		c-49.7-41.1-71.5-107.9-55.3-170.6l-0.7-0.2l-0.3,0.7l17.5,8.1l0.3-0.6l-0.7-0.2c-12.6,54.2,6.1,111.2,48.1,147.4L157.9,361.3
		l-0.6-0.3L157.9,361.3z"/>
	<path class="st0" d="M154.3,362.6c-40.4-35-59.8-94.4-48-146.4l-10.6-4.8c-15.5,59.1,4.7,120.9,52.4,160.7L154.3,362.6z"/>
	<path class="st0" d="M218.2,390.9l-0.2,0.7c54.4,11.1,110.9-8.9,146.2-52l-0.5-0.4l-0.3,0.6l17.1,8.9l0.3-0.6l-0.5-0.4
		c-39.8,51.1-106,74.6-168.9,60.4l-0.2,0.7l0.6,0.3l7-17.8L218.2,390.9l-0.2,0.7L218.2,390.9l-0.6-0.3l-7.3,18.6l0.8,0.2
		c63.4,14.3,130.2-9.4,170.3-60.9l0.5-0.6l-18.3-9.5l-0.3,0.4c-34.9,42.7-91,62.6-144.8,51.5l-0.5-0.1l-0.2,0.5L218.2,390.9z"/>
	<path class="st0" d="M219.3,394.5c52.4,10.6,111.4-10.3,145.3-51.4l10.3,5.5c-37.3,48.4-98.6,70.1-159.3,56.7L219.3,394.5z"/>
	<path class="st0" d="M367.2,166.7l0.5-0.4c-33.1-44.5-88.6-67.3-143.6-58.6l0.1,0.7l0.6-0.3l-6.8-18l-0.6,0.2l0.1,0.7
		c63.7-11.6,128.7,15,166.2,67.5l0.5-0.4l-0.3-0.6l-17.1,8.6L367.2,166.7l0.5-0.4L367.2,166.7l0.3,0.6l17.9-9l-0.5-0.6
		c-37.7-53-103.3-79.8-167.6-68.1l-0.8,0.1l7.3,19.3l0.5-0.1c54.5-8.6,109.5,14,142.3,58.1l0.3,0.5l0.5-0.2L367.2,166.7z"/>
	<path class="st0" d="M368.7,163.2c-32-42.8-89.9-66.5-142.6-58.5l-4-11c60-11.2,120.3,13.4,156.5,63.9L368.7,163.2z"/>
	<path class="st0" d="M405.7,202.8c-0.5-0.1-1-0.2-1.5-0.3c9,28.9,10.3,60.2,2.6,90.6l-16.2-7.5c6.7-29.3,4.2-59.5-6.1-86.7
		c-0.5-0.1-1.1-0.2-1.6-0.3c10.6,27.3,13.1,57.7,6.2,87.2l-0.1,0.5l18.7,8.7l0.2-0.8C415.8,263.6,414.7,231.9,405.7,202.8z"/>
	<path class="st0" d="M387.2,199.5c10,27.2,12.6,57.1,6.3,84.9l10.7,4.8c7.7-29.4,6.5-59.4-2.4-87.1
		C396.9,201.2,392,200.4,387.2,199.5z"/>
	<path class="st0" d="M203.6,114c-25.9,8.8-49.5,24.7-67.5,46.6l-15.9-8.3c19.2-24.5,44.6-42.6,72.7-53.1c-0.3-0.4-0.6-0.8-0.8-1.1
		c-28.5,10.8-54.1,29.1-73.4,54l-0.5,0.7l18.3,9.6l0.3-0.4c18-22,41.6-37.9,67.7-46.7C204.1,114.8,203.8,114.4,203.6,114z"/>
	<path class="st0" d="M194.2,101c-26.9,9.9-51,27.2-69.3,50.9l10.3,5.5c17.2-20.9,40.9-36.5,66.9-45.5
		C199.5,108.3,196.9,104.7,194.2,101z"/>
	<path class="st0" d="M38.6,339.6l1.5-0.6c-24.6-58-23.3-120.4-1.4-174.5c21.9-54.1,64.4-99.8,122.4-124.4
		c58-24.6,120.4-23.3,174.5-1.4c54.1,21.9,99.8,64.4,124.3,122.4c24.5,57.9,23.3,120.4,1.4,174.4c-21.9,54.1-64.4,99.8-122.4,124.4
		c-58,24.5-120.4,23.3-174.5,1.4c-54.1-21.9-99.8-64.4-124.3-122.4L38.6,339.6l-1.6,0.7C86.8,457.8,222.6,512.8,340.2,463
		C457.9,413.1,512.8,277.4,463,159.8C413.2,42.2,277.4-12.8,159.8,37C42.1,86.8-12.8,222.6,37,340.3L38.6,339.6z"/>
	<path class="st0" d="M92.5,316.8l1.6-0.7c-18.3-43.1-17.3-89.5-1-129.6c16.3-40.2,47.9-74.2,90.9-92.4c43.1-18.2,89.4-17.3,129.6-1
		c40.2,16.3,74.1,47.9,92.4,90.9c18.2,43,17.3,89.4,1,129.6c-16.3,40.2-47.9,74.2-91,92.4c-43.1,18.3-89.5,17.3-129.7,1
		c-40.2-16.3-74.1-47.9-92.4-90.9L92.5,316.8l-1.5,0.7c37.2,87.8,138.6,128.8,226.4,91.6c87.9-37.2,128.9-138.6,91.7-226.4
		C371.9,94.8,270.5,53.7,182.6,90.9C94.8,128.2,53.7,229.5,90.9,317.4L92.5,316.8z"/>
	<path class="st0" d="M109.6,309.5l0.8-0.3c-16.3-38.5-15.4-80.1-0.9-116c14.6-36,42.8-66.4,81.4-82.7
		c38.6-16.3,80.1-15.5,116.1-0.9c36,14.6,66.4,42.8,82.7,81.4c16.3,38.5,15.5,80,0.9,116c-14.6,36-42.8,66.4-81.4,82.7
		c-38.6,16.3-80.1,15.5-116,0.9c-36-14.6-66.4-42.9-82.7-81.4L109.6,309.5l-0.8,0.3c33,77.9,123,114.3,200.9,81.3
		c78-33,114.4-123,81.4-200.9c-33-77.9-123-114.4-201-81.3c-77.9,33-114.3,123-81.3,200.9L109.6,309.5z"/>
	<path class="st0" d="M26.6,344.6l0.8-0.3c-26-61.5-24.7-127.7-1.4-185C49.2,101.9,94.2,53.4,155.7,27.4c61.5-26,127.7-24.7,185-1.5
		c57.4,23.2,105.9,68.3,131.9,129.8c26,61.4,24.7,127.6,1.5,185c-23.2,57.4-68.3,105.9-129.8,131.9c-61.5,26-127.7,24.7-185,1.5
		c-57.3-23.2-105.9-68.3-131.9-129.8L26.6,344.6l-0.8,0.3c52.5,123.8,195.3,181.6,319.1,129.2c123.8-52.5,181.7-195.3,129.2-319.1
		C421.7,31.3,278.9-26.6,155.1,25.8C31.2,78.3-26.6,221.2,25.8,345L26.6,344.6z"/>
</g>
</svg>
