<?xml version="1.0" encoding="utf-8"?>
<!-- Generator: Adobe Illustrator 24.2.1, SVG Export Plug-In . SVG Version: 6.00 Build 0)  -->
<svg version="1.1" id="Layer_1" xmlns="http://www.w3.org/2000/svg" xmlns:xlink="http://www.w3.org/1999/xlink" x="0px" y="0px"
	 viewBox="0 0 500 500" style="enable-background:new 0 0 500 500;" xml:space="preserve">
<g>
	<g>
		<path d="M398.6,310.4c2.1-7,5.1-13.6,6.5-20.8c15.7-0.3,31.7-1.6,47.5-4.2c3.2-18.9,4-38.2,2.1-57.4c-15.6-3.6-31.5-6.1-47.2-7.4
			c-1.1-7.2-3.3-14-5.2-20.9c-2.6-6.8-4.8-13.8-8.2-20.1c11.8-10.4,23.3-21.7,33.7-33.7c-9.4-17-21.9-31.7-35.4-45.3
			c-14.4,7.4-28.1,15.6-40.8,24.6c-5.7-4.2-11.3-9.1-17.6-12.7c-6.1-3.8-12.4-7.3-19.1-10.1c2.5-15.6,4-31.5,4.1-47.4
			c-17.9-7-37.1-10.3-56.1-12.1c-6.3,15-11.5,30.1-15.6,45.1c-7.2,0.4-14.4,0.5-21.5,1.8c-7.2,1-14.3,2.2-21.2,4.3
			c-8.1-13.6-17.2-26.4-27.4-38.8c-17.9,6.4-35.1,15.7-50.5,26.9c4.7,15.5,10.3,30,17,44.4c-5.3,4.9-10.9,9.6-15.4,15.2
			c-5.2,5.1-9.2,11.2-13.5,17c-15-5.3-30-9.1-45.9-12.2c-9.7,16.6-17,34.5-21.5,53.1c13.7,8.8,27.2,16.5,41.5,23.1
			c-0.9,7.3-2.1,14.3-2.1,21.7c-0.6,7.1,0.1,14.5,0.7,21.6c-14.9,5.6-28.9,12.4-43.1,20.2c3.4,18.9,9.3,37.3,17.9,54.4
			c15.8-1.8,31.1-4.8,46.6-8.9c3.6,6.2,7.6,12.2,12.2,17.9c4.2,5.8,9.5,10.9,14.5,16.2c-7.6,13.5-14.4,28-20.1,43.2
			c15,12,31.1,22.8,48.9,30.2c10.7-11.4,20.9-24,29.8-36.9c6.7,2.7,13.7,4.4,20.8,5.9c7,1.7,14.4,2.3,21.5,3.2
			c3,15.2,7.1,30.6,12.4,45.9c19.2-0.4,38.4-2.4,56.7-8.2c1-15.8,0.5-31.9-0.8-47.5c6.8-2.3,13.1-5.7,19.7-8.8
			c6.2-3.7,12.7-7.1,18.3-11.4c12.1,9.8,25.4,19.1,39.1,27.2c14.6-12.4,27.6-26.9,38.4-42.7c-9.7-12.8-20.3-25-31.3-35.9
			C393,323.7,395.3,316.8,398.6,310.4z M225.1,360.4c-26.2-5.2-49.5-20.5-65.8-40.9c-16.3-20.6-24.9-47.4-23.9-73.6
			c0.7-26.2,11.2-52.4,28.9-71.5c17.3-19.6,42.2-33.1,68.2-36.3c26-3.5,53.5,1.6,75.7,16c22.2,13.9,39.6,35.5,47.7,60.8
			c8.2,25.2,7.2,52.7-2.7,77.3c-10,24.5-28.3,44.9-51.6,57.5C278.3,362.2,250.6,365.8,225.1,360.4z"/>
	</g>
</g>
</svg>
