<?xml version="1.0" encoding="utf-8"?>
<!-- Generator: Adobe Illustrator 24.2.1, SVG Export Plug-In . SVG Version: 6.00 Build 0)  -->
<svg version="1.1" id="Layer_1" xmlns="http://www.w3.org/2000/svg" xmlns:xlink="http://www.w3.org/1999/xlink" x="0px" y="0px"
	 viewBox="0 0 1920 1920" style="enable-background:new 0 0 1920 1920;" xml:space="preserve">
<style type="text/css">
	.st0{fill:#10141D;}
	.st1{fill:url(#SVGID_1_);}
	.st2{fill:url(#SVGID_2_);}
	.st3{fill:#03070D;}
	.st4{fill:url(#SVGID_3_);}
	.st5{fill:url(#SVGID_4_);}
	.st6{fill:url(#SVGID_5_);}
	.st7{fill:url(#SVGID_6_);}
	.st8{fill:url(#SVGID_7_);}
	.st9{fill:url(#SVGID_8_);}
	.st10{fill:url(#SVGID_9_);}
	.st11{fill:url(#SVGID_10_);}
	.st12{fill:url(#SVGID_11_);}
	.st13{fill:url(#SVGID_12_);}
	.st14{fill:url(#SVGID_13_);}
	.st15{fill:url(#SVGID_14_);}
	.st16{fill:url(#SVGID_15_);}
	.st17{fill:url(#SVGID_16_);}
	.st18{fill:url(#SVGID_17_);}
	.st19{fill:url(#SVGID_18_);}
	.st20{fill:url(#SVGID_19_);}
	.st21{fill:url(#SVGID_20_);}
	.st22{fill:url(#SVGID_21_);}
	.st23{fill:url(#SVGID_22_);}
	.st24{fill:url(#SVGID_23_);}
	.st25{fill:url(#SVGID_24_);}
	.st26{fill:url(#SVGID_25_);}
	.st27{fill:url(#SVGID_26_);}
	.st28{fill:url(#SVGID_27_);}
	.st29{fill:url(#SVGID_28_);}
	.st30{fill:url(#SVGID_29_);}
	.st31{fill:url(#SVGID_30_);}
	.st32{fill:url(#SVGID_31_);}
	.st33{fill:url(#SVGID_32_);}
	.st34{fill:url(#SVGID_33_);}
</style>
<g>
	<path class="st0" d="M127.64,146.01c-0.8,0.96-0.81,2.39,0.07,3.28c4.01,3.98,6.04,5.98,10.09,9.99c0.07,0.08,0.25,0.07,0.35,0.15
		c-0.12,0.29-0.29,0.59-0.42,0.9c-0.11-0.03-0.24-0.15-0.34-0.13c-5.67-0.08-8.53-0.18-14.17-0.29c-1.24,0-2.26,1.01-2.43,2.25
		c-0.36,2.73-0.74,4.01-1.95,6.39c-0.57,1.15-0.29,2.51,0.71,3.21c4.77,3.09,7.13,4.67,11.85,7.79c0.11,0.05,0.27,0.03,0.37,0.04
		c-0.03,0.19-0.1,0.38-0.14,0.54c-0.1-0.03-0.24-0.06-0.33-0.06c-5.58,0.98-8.37,1.49-13.94,2.53c-1.25,0.18-2.05,1.36-1.94,2.64
		c0.17,2.73,0.04,4.06-0.68,6.62c-0.33,1.24,0.17,2.55,1.32,3.02c5.29,2.15,7.88,3.22,13.15,5.35c0.07,0.04,0.22-0.01,0.3,0.01
		c-0.02,1.33,0.09,2.65,0.1,3.95c-0.1,0-0.26-0.06-0.41,0c-5.19,2.23-7.8,3.36-13,5.61c-1.16,0.49-1.59,1.78-1.28,3
		c0.79,2.64,0.96,3.97,0.85,6.64c-0.09,1.3,0.75,2.43,1.94,2.62c4.1,0.68,6.68,1.09,9.98,1.59c-2.8,1.8-5.03,3.23-8.49,5.46
		c-1.04,0.7-1.35,2.05-0.83,3.18c1.24,2.46,1.62,3.75,1.93,6.37c0.12,1.28,1.14,2.28,2.38,2.29c5.66-0.02,8.52-0.02,14.16-0.07
		c0.1,0.03,0.19-0.03,0.27-0.05c0.09,0.24,0.2,0.46,0.32,0.72c-0.07,0.09-0.19,0.06-0.28,0.15c-4.08,3.92-6.12,5.89-10.2,9.82
		c-0.9,0.85-0.86,2.29-0.13,3.27c1.65,2.18,2.29,3.36,3.13,5.94c0.38,1.2,1.57,1.97,2.75,1.74c5.4-1.1,8.21-1.67,13.48-2.77
		c-3.12,4.38-4.74,6.73-7.94,11.23c-0.72,1-0.48,2.38,0.48,3.24c2,1.83,2.86,2.83,4.16,5.24c0.59,1.06,1.9,1.67,3.02,1.19
		c5.25-2.15,7.9-3.24,13.15-5.37c0.06-0.05,0.1-0.14,0.14-0.18c0.25,0.22,0.42,0.44,0.61,0.59c-0.01,0.06-0.11,0.1-0.16,0.2
		c-2.3,5.16-3.47,7.79-5.77,12.95c-0.49,1.14,0.02,2.45,1.13,3.1c2.33,1.37,3.38,2.24,5.13,4.3c0.81,0.93,2.19,1.26,3.19,0.55
		c4.73-3.13,7.07-4.72,11.85-7.84c0.01-0.04,0.06-0.15,0.07-0.19c0.35,0.21,0.69,0.44,1.05,0.67c-0.03,0.03-0.15,0.14-0.14,0.18
		c-1.22,5.58-1.87,8.32-3.08,13.86c-0.25,1.22,0.53,2.41,1.7,2.82c2.59,0.87,3.78,1.54,5.88,3.21c0.99,0.74,2.42,0.79,3.29-0.13
		c4-4.01,6-6.02,10.01-10.05c0.03-0.03,0.04-0.15,0.08-0.23c0.31,0.12,0.62,0.29,0.9,0.39c-0.02,0.07-0.08,0.14-0.1,0.23
		c-0.07,5.7-0.1,8.52-0.24,14.2c0.01,1.22,1.01,2.2,2.25,2.37c2.66,0.4,3.98,0.77,6.4,1.99c1.09,0.55,2.5,0.31,3.19-0.72
		c3.11-4.76,4.71-7.11,7.77-11.82c0.04-0.08,0.03-0.21,0.06-0.25c0.14,0.04,0.34,0.09,0.54,0.14c-0.03,0.04-0.07,0.11-0.08,0.16
		c1.05,5.59,1.53,8.4,2.5,14c0.26,1.18,1.42,2,2.69,1.92c2.71-0.19,4.04-0.06,6.61,0.7c1.22,0.27,2.59-0.22,3.03-1.34
		c2.16-5.29,3.21-7.91,5.32-13.15c0.06-0.07,0.01-0.17,0.05-0.24c0.4,0,0.83,0.01,1.26,0c0.02,0.08,0,0.17,0.02,0.24
		c2.12,5.28,3.16,7.91,5.28,13.19c0.44,1.13,1.78,1.66,2.98,1.37c2.62-0.69,3.96-0.85,6.64-0.67c1.26,0.1,2.43-0.71,2.67-1.93
		c1.02-5.42,1.56-8.26,2.53-13.58c2.91,4.56,4.48,6.98,7.46,11.65c0.66,1.05,2.04,1.32,3.21,0.79c2.43-1.21,3.69-1.59,6.37-1.89
		c1.26-0.18,2.29-1.14,2.27-2.39c-0.05-5.66-0.02-8.53-0.04-14.14c0-0.14-0.11-0.21-0.11-0.29c0.32-0.13,0.58-0.32,0.91-0.44
		c0.07,0.06,0.07,0.24,0.15,0.3c3.95,4.07,5.91,6.11,9.85,10.19c0.87,0.91,2.3,0.91,3.27,0.12c2.21-1.65,3.36-2.28,5.94-3.1
		c1.18-0.41,2.01-1.57,1.74-2.79c-1.14-5.43-1.7-8.23-2.8-13.5c4.39,3.08,6.77,4.74,11.3,7.95c0.98,0.73,2.4,0.46,3.21-0.5
		c1.8-2.04,2.9-2.9,5.24-4.12c1.08-0.67,1.65-1.99,1.18-3.09c-2.16-5.3-3.27-7.87-5.44-13.12c-0.01-0.09-0.1-0.15-0.19-0.24
		c0.32-0.33,0.64-0.69,0.96-1.03c0.11,0.06,0.16,0.22,0.27,0.27c5.21,2.27,7.79,3.36,13.02,5.71c1.12,0.44,2.42-0.09,3.06-1.17
		c1.37-2.35,2.24-3.37,4.27-5.16c0.94-0.8,1.24-2.21,0.53-3.22c-3.17-4.71-4.76-7.03-7.91-11.74c-0.1-0.09-0.22-0.12-0.36-0.23
		c0.07-0.1,0.15-0.24,0.24-0.32c0.11,0.05,0.21,0.19,0.35,0.21c5.54,1.22,8.28,1.84,13.87,3.04c1.16,0.29,2.36-0.5,2.77-1.69
		c0.88-2.61,1.54-3.77,3.19-5.85c0.77-1.01,0.81-2.42-0.06-3.3c-4.03-4.01-6.05-5.99-10.07-9.97c-0.14-0.1-0.28-0.14-0.41-0.19
		c0.12-0.29,0.28-0.57,0.41-0.88c0.09,0.05,0.2,0.14,0.36,0.14c5.65,0.07,8.5,0.17,14.19,0.21c1.24,0.08,2.22-0.93,2.4-2.19
		c0.37-2.71,0.74-4.02,2-6.38c0.55-1.14,0.28-2.52-0.77-3.2c-4.73-3.15-7.08-4.69-11.82-7.8c-0.14-0.07-0.3-0.08-0.43-0.11
		c0.02-0.17,0.06-0.32,0.11-0.51c0.12,0.04,0.28,0.1,0.38,0.09c5.58-0.99,8.37-1.55,13.96-2.51c1.26-0.24,2.03-1.42,1.92-2.65
		c-0.17-2.73-0.02-4.04,0.73-6.66c0.32-1.2-0.22-2.52-1.33-3c-5.28-2.14-7.9-3.23-13.16-5.33c-0.16-0.06-0.33-0.02-0.47-0.02
		c0.01-1.3-0.09-2.64-0.14-3.93c0.21-0.03,0.38,0.01,0.57-0.02c5.2-2.27,7.81-3.4,13.04-5.62c1.12-0.47,1.61-1.81,1.24-2.99
		c-0.73-2.65-0.93-3.96-0.75-6.68c0.02-1.25-0.81-2.4-2.04-2.58c-4.08-0.68-6.66-1.07-9.93-1.62c2.78-1.78,5-3.18,8.47-5.42
		c1.06-0.67,1.33-2.06,0.77-3.21c-1.17-2.4-1.59-3.69-1.86-6.4c-0.17-1.27-1.14-2.26-2.39-2.25c-5.65,0.01-8.54,0.06-14.18,0.02
		c-0.22,0.01-0.32,0.15-0.45,0.25c-0.09-0.29-0.27-0.51-0.38-0.82c0.18-0.01,0.4-0.04,0.55-0.18c4.08-3.92,6.11-5.87,10.18-9.83
		c0.91-0.91,0.88-2.28,0.17-3.28c-1.68-2.15-2.34-3.38-3.14-5.91c-0.38-1.2-1.52-2-2.78-1.77c-5.38,1.14-8.2,1.7-13.45,2.76
		c3.09-4.39,4.74-6.7,7.95-11.21c0.69-0.98,0.44-2.36-0.5-3.24c-2.04-1.8-2.88-2.88-4.15-5.22c-0.6-1.11-1.92-1.68-3.05-1.22
		c-5.26,2.16-7.87,3.27-13.11,5.4c-0.18,0.08-0.28,0.23-0.4,0.36c-0.18-0.2-0.38-0.4-0.58-0.63c0.15-0.06,0.29-0.2,0.37-0.34
		c2.3-5.18,3.48-7.77,5.75-12.96c0.52-1.1,0.02-2.44-1.1-3.07c-2.36-1.41-3.36-2.28-5.09-4.33c-0.79-0.97-2.19-1.24-3.26-0.55
		c-4.71,3.13-7.08,4.69-11.79,7.85c-0.18,0.07-0.23,0.28-0.31,0.42c-0.33-0.22-0.66-0.41-0.98-0.65c0.08-0.15,0.25-0.28,0.29-0.43
		c1.24-5.57,1.85-8.36,3.04-13.87c0.3-1.25-0.54-2.42-1.71-2.86c-2.55-0.86-3.76-1.47-5.86-3.17c-0.99-0.79-2.41-0.79-3.28,0.09
		c-4,4.01-6.02,6.08-9.98,10.1c-0.12,0.09-0.2,0.33-0.22,0.5c-0.31-0.12-0.59-0.29-0.91-0.42c0.08-0.14,0.22-0.32,0.22-0.5
		c0.07-5.65,0.14-8.51,0.25-14.17c0-1.27-0.99-2.26-2.25-2.44c-2.69-0.34-4-0.73-6.37-1.94c-1.12-0.56-2.49-0.29-3.2,0.74
		c-3.12,4.73-4.7,7.09-7.79,11.82c-0.1,0.15-0.09,0.36-0.12,0.55c-0.15-0.04-0.34-0.09-0.5-0.13c0.03-0.19,0.11-0.34,0.09-0.52
		c-1.01-5.58-1.5-8.35-2.51-13.95c-0.23-1.2-1.42-2.04-2.67-1.93c-2.75,0.18-4.06,0.06-6.59-0.69c-1.28-0.35-2.58,0.18-3.05,1.33
		c-2.09,5.26-3.23,7.87-5.34,13.16c-0.08,0.15-0.03,0.33-0.01,0.51c-0.43,0.02-0.84,0.01-1.26,0c-0.02-0.18,0.03-0.37-0.04-0.56
		c-2.09-5.24-3.14-7.84-5.26-13.15c-0.47-1.14-1.8-1.65-3.02-1.35c-2.6,0.7-3.96,0.85-6.6,0.68c-1.3-0.11-2.45,0.71-2.68,1.89
		c-1.03,5.46-1.54,8.28-2.52,13.62c-2.9-4.6-4.48-7-7.48-11.65c-0.64-1.05-2.01-1.34-3.19-0.81c-2.42,1.19-3.72,1.56-6.42,1.9
		c-1.2,0.15-2.2,1.14-2.23,2.37c0.02,5.66,0.04,8.52,0.05,14.18c-0.01,0.17,0.12,0.33,0.2,0.43c-0.32,0.17-0.62,0.31-0.93,0.43
		c-0.06-0.15-0.11-0.37-0.24-0.46c-3.94-4.1-5.91-6.14-9.87-10.21c-0.83-0.87-2.25-0.85-3.27-0.12c-2.16,1.64-3.34,2.29-5.91,3.11
		c-1.17,0.43-1.97,1.56-1.75,2.78c1.12,5.43,1.74,8.23,2.78,13.52c-4.38-3.11-6.72-4.75-11.26-7.94c-1-0.74-2.36-0.47-3.23,0.49
		c-1.77,2.01-2.85,2.82-5.21,4.11c-1.12,0.63-1.68,1.93-1.23,3.09c2.22,5.25,3.27,7.86,5.45,13.08c0.03,0.19,0.2,0.23,0.28,0.38
		c-0.35,0.29-0.64,0.63-0.97,0.97c-0.12-0.07-0.21-0.27-0.32-0.3c-5.21-2.27-7.81-3.41-13-5.69c-1.16-0.48-2.46,0.08-3.12,1.15
		c-1.35,2.33-2.2,3.38-4.24,5.15c-0.97,0.81-1.26,2.18-0.58,3.2c3.22,4.74,4.79,7.06,7.97,11.78c0.08,0.06,0.27,0.11,0.34,0.22
		c-0.1,0.15-0.12,0.23-0.2,0.33c-0.1-0.06-0.21-0.18-0.34-0.22c-5.57-1.21-8.35-1.86-13.84-3.07c-1.24-0.27-2.4,0.55-2.83,1.74
		C129.94,142.69,129.3,143.91,127.64,146.01z M151.03,160.5l44.96,24.55c-2.8,6.76-3.72,13.93-2.98,20.89l-49.42,14.55
		C139.52,200.79,141.73,179.8,151.03,160.5z M147.14,232.9l49.19-14.51c2.84,6.69,7.42,12.6,13.43,17.14l-24.59,45.12
		C166.94,269.06,153.95,252.08,147.14,232.9z M244.46,185.42c8.79,4.79,12.05,15.8,7.24,24.59c-4.79,8.8-15.8,12.07-24.61,7.26
		c-8.81-4.81-12.03-15.79-7.23-24.56C224.64,183.89,235.67,180.63,244.46,185.42z M196.5,286.85l24.59-45.11
		c7.14,2.58,14.56,3.18,21.72,2.05l14.48,49.2C237.49,297.6,216.16,295.87,196.5,286.85z M269.65,289.2l-14.53-49.44
		c6.21-3.13,11.75-7.75,15.94-13.79l44.99,24.48C304.88,268.74,288.38,281.99,269.65,289.2z M322.06,239.04l-45.27-24.67
		c2.11-6.62,2.5-13.45,1.43-20.05l49.16-14.49C331.96,199.11,330.49,219.83,322.06,239.04z M323.67,167.5l-49.44,14.53
		c-2.89-5.74-7.07-10.88-12.43-14.94l24.59-45.12C303.89,133.15,316.64,149.25,323.67,167.5z M275.04,115.8l-24.59,45.11
		c-6.32-2.32-12.89-3.03-19.25-2.36l-14.54-49.4C235.79,105.14,256.19,107.13,275.04,115.8z M204.23,112.66l14.48,49.22
		c-6.11,2.62-11.69,6.69-16.08,12.04l-45.26-24.67C168.94,131.78,185.55,119.3,204.23,112.66z"/>
	<path class="st0" d="M105.72,400.49c-0.75,0.95-0.77,2.31,0.07,3.13c3.88,3.83,5.81,5.77,9.67,9.6c0.08,0.09,0.24,0.09,0.34,0.13
		c-0.11,0.31-0.28,0.6-0.4,0.88c-0.1-0.03-0.2-0.11-0.32-0.12c-5.43-0.11-8.16-0.15-13.58-0.24c-1.19-0.02-2.16,0.93-2.3,2.14
		c-0.37,2.58-0.74,3.82-1.9,6.12c-0.56,1.06-0.31,2.43,0.7,3.07c4.54,2.98,6.81,4.5,11.35,7.47c0.08,0.06,0.23,0.04,0.34,0.07
		c-0.05,0.18-0.08,0.32-0.14,0.49c-0.1-0.02-0.19-0.09-0.31-0.08c-5.35,0.98-8.03,1.46-13.39,2.46c-1.16,0.18-1.92,1.32-1.85,2.51
		c0.17,2.61,0.05,3.9-0.66,6.37c-0.33,1.16,0.18,2.43,1.28,2.88c5.04,2.04,7.56,3.08,12.61,5.14c0.08,0.02,0.2-0.05,0.31-0.01
		c-0.02,1.28,0.07,2.51,0.08,3.79c-0.13,0.02-0.26-0.06-0.36,0.01c-5,2.14-7.5,3.23-12.49,5.39c-1.11,0.44-1.59,1.71-1.23,2.87
		c0.73,2.51,0.88,3.78,0.76,6.36c-0.06,1.21,0.77,2.32,1.92,2.52c3.91,0.61,6.42,1.01,9.54,1.53c-2.69,1.69-4.83,3.05-8.14,5.19
		c-1.02,0.64-1.29,1.98-0.75,3.06c1.14,2.34,1.51,3.6,1.81,6.13c0.14,1.22,1.08,2.18,2.28,2.19c5.45-0.02,8.15-0.04,13.59-0.06
		c0.07-0.02,0.15-0.09,0.24-0.09c0.11,0.24,0.23,0.5,0.32,0.72c-0.08,0.06-0.2,0.04-0.26,0.1c-3.92,3.79-5.88,5.68-9.78,9.45
		c-0.86,0.83-0.85,2.17-0.12,3.15c1.57,2.08,2.18,3.21,2.97,5.65c0.38,1.17,1.51,1.93,2.67,1.69c5.17-1.06,7.86-1.6,12.88-2.64
		c-2.96,4.18-4.53,6.44-7.6,10.73c-0.67,0.97-0.42,2.31,0.45,3.12c1.95,1.74,2.75,2.77,4,5.02c0.6,1.06,1.84,1.59,2.93,1.15
		c5.04-2.07,7.55-3.09,12.59-5.14c0.07-0.04,0.09-0.13,0.13-0.15c0.21,0.2,0.42,0.38,0.6,0.57c-0.06,0.03-0.14,0.08-0.17,0.17
		c-2.2,4.96-3.31,7.44-5.54,12.41c-0.48,1.07,0.02,2.35,1.09,2.94c2.23,1.34,3.22,2.17,4.88,4.13c0.78,0.94,2.13,1.22,3.08,0.57
		c4.56-3.02,6.82-4.53,11.36-7.54c0.06-0.03,0.06-0.12,0.11-0.17c0.32,0.2,0.64,0.42,0.97,0.61c-0.05,0.09-0.13,0.13-0.14,0.22
		c-1.15,5.32-1.75,7.96-2.91,13.26c-0.26,1.18,0.49,2.32,1.63,2.7c2.44,0.84,3.59,1.47,5.61,3.08c0.94,0.73,2.31,0.77,3.16-0.1
		c3.81-3.85,5.74-5.78,9.58-9.63c0.05-0.06,0.04-0.16,0.1-0.23c0.28,0.12,0.56,0.27,0.86,0.4c-0.01,0.04-0.08,0.12-0.1,0.18
		c-0.1,5.46-0.12,8.17-0.23,13.6c-0.01,1.18,0.95,2.14,2.15,2.33c2.59,0.32,3.83,0.69,6.14,1.88c1.05,0.55,2.39,0.28,3.05-0.69
		c2.99-4.55,4.5-6.82,7.48-11.39c0.05-0.06,0.02-0.14,0.06-0.2c0.16,0.05,0.32,0.09,0.49,0.14c-0.01,0.05-0.06,0.1-0.05,0.18
		c0.97,5.37,1.46,8.02,2.42,13.39c0.2,1.17,1.35,1.9,2.54,1.85c2.59-0.17,3.89-0.04,6.37,0.66c1.17,0.32,2.43-0.21,2.88-1.3
		c2.06-5.04,3.08-7.54,5.14-12.59c0.02-0.06-0.01-0.14-0.01-0.23c0.41,0.02,0.82,0,1.24,0.01c0.01,0.07-0.04,0.15-0.01,0.24
		c2.04,5.05,3.05,7.58,5.07,12.63c0.43,1.1,1.69,1.59,2.86,1.3c2.51-0.68,3.8-0.83,6.38-0.62c1.18,0.08,2.33-0.69,2.55-1.86
		c0.98-5.22,1.48-7.91,2.44-13.02c2.77,4.38,4.27,6.68,7.15,11.17c0.63,0.98,1.95,1.26,3.05,0.73c2.34-1.14,3.56-1.51,6.13-1.8
		c1.2-0.16,2.17-1.1,2.18-2.29c-0.02-5.42-0.03-8.16-0.05-13.61c0-0.09-0.08-0.15-0.1-0.24c0.3-0.11,0.6-0.29,0.9-0.42
		c0.04,0.11,0.03,0.22,0.11,0.28c3.79,3.93,5.67,5.88,9.47,9.82c0.81,0.81,2.18,0.82,3.13,0.07c2.06-1.57,3.22-2.19,5.66-2.96
		c1.14-0.4,1.91-1.53,1.68-2.68c-1.07-5.18-1.63-7.89-2.68-12.96c4.22,3,6.48,4.58,10.81,7.62c0.95,0.68,2.29,0.44,3.1-0.48
		c1.75-1.93,2.73-2.74,4.99-3.97c1.09-0.6,1.6-1.86,1.15-2.94c-2.06-5.01-3.11-7.55-5.18-12.57c-0.03-0.08-0.13-0.13-0.2-0.21
		c0.32-0.34,0.61-0.67,0.93-1c0.1,0.07,0.15,0.19,0.25,0.24c4.99,2.18,7.5,3.23,12.47,5.42c1.09,0.47,2.34-0.04,2.95-1.07
		c1.32-2.26,2.14-3.26,4.09-4.92c0.9-0.8,1.19-2.15,0.54-3.11c-3.06-4.5-4.59-6.75-7.63-11.28c-0.07-0.09-0.2-0.13-0.3-0.2
		c0.05-0.1,0.12-0.22,0.2-0.32c0.1,0.07,0.19,0.19,0.31,0.22c5.33,1.17,7.96,1.74,13.28,2.92c1.17,0.25,2.28-0.51,2.68-1.65
		c0.86-2.46,1.48-3.58,3.06-5.62c0.76-0.95,0.78-2.31-0.07-3.13c-3.87-3.83-5.79-5.76-9.65-9.58c-0.11-0.11-0.26-0.11-0.38-0.16
		c0.12-0.3,0.27-0.59,0.37-0.86c0.13,0.05,0.24,0.14,0.37,0.15c5.46,0.09,8.16,0.14,13.6,0.2c1.19,0.04,2.14-0.92,2.3-2.12
		c0.36-2.56,0.73-3.81,1.89-6.12c0.55-1.07,0.31-2.42-0.71-3.07c-4.54-2.99-6.82-4.48-11.35-7.46c-0.14-0.08-0.27-0.05-0.4-0.11
		c0.03-0.13,0.1-0.31,0.13-0.47c0.12,0.02,0.24,0.1,0.36,0.08c5.37-0.98,8.04-1.46,13.39-2.42c1.18-0.22,1.92-1.35,1.86-2.56
		c-0.17-2.6-0.05-3.91,0.66-6.35c0.31-1.16-0.2-2.43-1.3-2.87c-5.05-2.05-7.55-3.09-12.6-5.14c-0.13-0.06-0.31-0.02-0.45-0.01
		c0.02-1.27-0.09-2.51-0.12-3.77c0.18-0.01,0.38,0.05,0.54-0.03c4.99-2.15,7.5-3.23,12.51-5.38c1.06-0.45,1.56-1.75,1.2-2.89
		c-0.74-2.51-0.89-3.78-0.77-6.36c0.04-1.19-0.76-2.32-1.91-2.51c-3.91-0.62-6.42-1.02-9.56-1.53c2.68-1.71,4.81-3.06,8.14-5.2
		c1.01-0.62,1.28-1.96,0.75-3.06c-1.14-2.32-1.5-3.59-1.8-6.13c-0.15-1.19-1.11-2.17-2.29-2.18c-5.45,0.03-8.16,0.05-13.61,0.04
		c-0.17,0.02-0.3,0.15-0.46,0.2c-0.1-0.25-0.23-0.47-0.32-0.73c0.16-0.05,0.36-0.07,0.48-0.2c3.92-3.77,5.87-5.64,9.79-9.45
		c0.84-0.81,0.85-2.14,0.12-3.13c-1.56-2.09-2.17-3.22-2.97-5.66c-0.35-1.15-1.51-1.92-2.66-1.65c-5.16,1.03-7.87,1.57-12.89,2.61
		c2.97-4.15,4.55-6.43,7.6-10.73c0.67-0.98,0.44-2.3-0.44-3.13c-1.96-1.73-2.77-2.73-4-4.97c-0.58-1.1-1.85-1.63-2.92-1.17
		c-5.02,2.03-7.57,3.09-12.61,5.15c-0.13,0.06-0.22,0.21-0.34,0.36c-0.19-0.19-0.38-0.39-0.59-0.59c0.12-0.11,0.32-0.22,0.38-0.36
		c2.2-4.99,3.32-7.45,5.5-12.44c0.51-1.07-0.01-2.31-1.03-2.94c-2.23-1.36-3.26-2.16-4.89-4.13c-0.78-0.93-2.13-1.24-3.11-0.56
		c-4.52,3.02-6.78,4.52-11.33,7.55c-0.14,0.11-0.2,0.27-0.3,0.44c-0.31-0.23-0.64-0.43-0.95-0.63c0.12-0.17,0.28-0.29,0.31-0.47
		c1.16-5.33,1.74-7.96,2.93-13.29c0.24-1.16-0.48-2.3-1.65-2.68c-2.46-0.84-3.59-1.48-5.63-3.05c-0.93-0.77-2.29-0.78-3.12,0.05
		c-3.87,3.88-5.78,5.78-9.61,9.66c-0.11,0.11-0.16,0.32-0.22,0.49c-0.28-0.13-0.54-0.28-0.83-0.38c0.06-0.16,0.19-0.32,0.19-0.49
		c0.09-5.46,0.12-8.14,0.23-13.6c0.01-1.15-0.94-2.15-2.13-2.3c-2.6-0.32-3.81-0.71-6.13-1.9c-1.07-0.52-2.42-0.27-3.06,0.7
		c-3,4.56-4.49,6.82-7.47,11.38c-0.1,0.14-0.09,0.33-0.11,0.51c-0.15-0.05-0.31-0.08-0.48-0.13c0.05-0.18,0.11-0.32,0.1-0.48
		c-0.99-5.34-1.43-8.03-2.39-13.4c-0.24-1.17-1.35-1.91-2.56-1.84c-2.6,0.14-3.9,0.02-6.38-0.68c-1.15-0.31-2.43,0.19-2.85,1.3
		c-2.06,5.05-3.09,7.55-5.14,12.57c-0.06,0.18-0.01,0.35,0,0.52c-0.42,0.03-0.83-0.01-1.23-0.01c0-0.19,0.06-0.36-0.02-0.51
		c-2.01-5.06-3.02-7.57-5.05-12.6c-0.45-1.13-1.71-1.65-2.87-1.33c-2.49,0.68-3.8,0.82-6.37,0.63c-1.21-0.08-2.35,0.67-2.56,1.84
		c-0.98,5.22-1.48,7.91-2.43,13.05c-2.78-4.39-4.28-6.7-7.14-11.18c-0.65-1-1.97-1.26-3.07-0.76c-2.34,1.15-3.56,1.51-6.13,1.83
		c-1.19,0.12-2.17,1.1-2.17,2.26c0,5.46,0.02,8.16,0.05,13.61c0,0.17,0.1,0.3,0.16,0.46c-0.27,0.11-0.6,0.25-0.89,0.39
		c-0.06-0.17-0.06-0.36-0.2-0.46c-3.79-3.93-5.66-5.85-9.45-9.78c-0.81-0.84-2.17-0.87-3.12-0.13c-2.1,1.59-3.22,2.2-5.67,3
		c-1.16,0.39-1.92,1.53-1.67,2.68c1.05,5.17,1.62,7.86,2.66,12.93c-4.21-2.97-6.48-4.56-10.8-7.62c-0.97-0.69-2.29-0.43-3.1,0.48
		c-1.75,1.95-2.75,2.74-5.02,3.98c-1.06,0.57-1.6,1.85-1.15,2.94c2.08,5.02,3.12,7.54,5.2,12.58c0.05,0.12,0.2,0.17,0.28,0.29
		c-0.32,0.31-0.62,0.64-0.94,0.97c-0.1-0.1-0.17-0.25-0.31-0.32c-5-2.17-7.49-3.26-12.48-5.42c-1.07-0.48-2.34,0.05-2.95,1.06
		c-1.3,2.27-2.13,3.29-4.08,4.95c-0.92,0.79-1.18,2.12-0.53,3.11c3.06,4.51,4.58,6.75,7.62,11.27c0.08,0.11,0.22,0.12,0.33,0.22
		c-0.07,0.1-0.14,0.21-0.2,0.31c-0.12-0.09-0.2-0.19-0.34-0.23c-5.33-1.16-7.98-1.76-13.3-2.92c-1.15-0.27-2.28,0.49-2.68,1.65
		C107.93,397.33,107.3,398.49,105.72,400.49z M166.17,532.85c-11.26-6.14-20.65-14.35-28.04-23.87c12.98-8.84,80.23-50.07,147.8-7.7
		C260.82,541.61,208.41,555.87,166.17,532.85z M194.94,445.62c4.35-7.98,14.4-10.93,22.36-6.59c7.98,4.35,10.94,14.38,6.58,22.37
		c-4.34,7.98-14.36,10.93-22.35,6.56C193.57,463.62,190.59,453.6,194.94,445.62z M252.63,374.23
		c42.04,22.93,58.47,74.34,38.64,117.16c-18.54-10.07-81.34-50.22-74.85-127.83C228.74,364.51,241.08,367.95,252.63,374.23z
		 M199.99,363.75c1.52,15.36,5.78,97.45-68.32,135.61c-15.57-26.47-17.33-60.13-1.58-89.04
		C144.88,383.23,171.47,366.77,199.99,363.75z"/>
	<g>
		<g>
			<g>
				<path d="M199.72,663.99c0.24,15.71,0.46,67.39,0.46,67.39l30.71,11.43c0,0-18.06-38.42-18.6-78.98
					c-0.57-40.09,21.63-61.1,21.63-61.1l-35.53-4.76C198.39,597.97,199.51,648.3,199.72,663.99z"/>
				<path d="M191.45,664.11c0.2,15.71,1.35,67.36,1.35,67.36l-33.08,10.09c0,0,19.73-36.7,19.16-77.25
					c-0.52-40.1-21.25-60.82-21.25-60.82l33.37-5.44C191.01,598.05,191.23,648.43,191.45,664.11z"/>
				
					<radialGradient id="SVGID_1_" cx="1279.3087" cy="-82.4902" r="43.8935" gradientTransform="matrix(-0.9999 0.0135 0.0135 0.9999 1494.5094 729.695)" gradientUnits="userSpaceOnUse">
					<stop  offset="0.2363" style="stop-color:#815B22"/>
					<stop  offset="1" style="stop-color:#0D0000"/>
				</radialGradient>
				<path class="st1" d="M204,603.84l0.63,116.62c0,0,7.98,1.98,14.28,5.11c0,0-27.52-65.31,4.94-119.34
					C223.85,606.23,212.45,601.77,204,603.84z"/>
				
					<radialGradient id="SVGID_2_" cx="742.0516" cy="-82.3497" r="43.8918" gradientTransform="matrix(0.9999 -0.0135 0.0135 0.9999 -563.7894 757.2382)" gradientUnits="userSpaceOnUse">
					<stop  offset="0.2363" style="stop-color:#815B22"/>
					<stop  offset="1" style="stop-color:#0D0000"/>
				</radialGradient>
				<path class="st2" d="M185.61,604.08l2.58,116.58c0,0-7.95,2.17-14.17,5.49c0,0,25.75-66-8.13-119.16
					C165.89,607,177.17,602.25,185.61,604.08z"/>
			</g>
			<g>
				<path class="st3" d="M499.86,440.88c20.3,32.75,48.82,58.65,81.87,75.83c5-3.48,9.97-6.96,14.97-10.4
					c-34.77-16.18-64.76-42.56-85.09-76.75C508.72,433.96,504.89,437.83,499.86,440.88z"/>
				<path class="st3" d="M527.11,202.53c1.06,0.45,2.13,0.96,3.17,1.51c21.99-26.03,51.09-46.62,85.69-58.42
					c76.61-26.11,158.22-1.76,208.69,55.28c4.23-3.41,9.09-6.09,14.25-7.84c-54.39-63.64-144.02-91.21-228.08-62.55
					c-39.98,13.63-73.17,38.14-97.48,69.05C517.79,199.71,522.39,200.61,527.11,202.53z"/>
				<path class="st3" d="M741.22,513.32c-101.76,34.69-212.37-19.67-247.01-121.36c-17.19-50.43-12.5-103.04,8.99-147.52
					c-5.47-0.89-10.93-1.76-16.4-2.6c-21.5,47.18-25.74,102.33-7.7,155.28c37.51,110.03,157.18,168.83,267.28,131.3
					c110.1-37.53,168.92-157.22,131.38-267.31c-18.22-53.42-55.84-94.76-102.28-118.89c-4.98,3.51-9.97,6.96-14.94,10.42
					c46.42,21.61,84.29,61.36,102.12,113.62C897.33,368.01,842.98,478.62,741.22,513.32z"/>
				<path class="st3" d="M696.34,519.22l-0.06-0.89c-72.5,5.36-142.78-30.17-181.31-92.12l-0.37-0.6l-25.64,9.41l0.55,0.95
					c43.93,74.42,127.48,116.81,213.15,108.76l1.04-0.1l-6.66-26.34l-0.76,0.05L696.34,519.22l-0.86,0.24l6.23,24.57l0.86-0.22
					l-0.08-0.89c-84.96,7.99-167.86-34.08-211.42-107.87l-0.8,0.44l0.34,0.85l23.92-8.79l-0.31-0.85l-0.78,0.47
					c38.92,62.52,109.8,98.37,182.97,92.96L696.34,519.22l-0.86,0.24L696.34,519.22z"/>
				<path class="st3" d="M694.2,523.78c-70.58,5.02-144.41-32.38-181.92-92.04l-14.44,5.53c40.75,69.79,117.53,108.72,199.44,101.3
					L694.2,523.78z"/>
				<path class="st3" d="M780.43,490.57l0.5,0.74c61.23-40.41,95.47-112.1,88.06-185.38l-0.91,0.1l0.28,0.85l24.31-7.65l-0.27-0.85
					l-0.89,0.1c10.62,85.06-29.32,168.98-101.48,214.59l0.47,0.76l0.84-0.36l-10.09-23.27L780.43,490.57l0.5,0.74L780.43,490.57
					l-0.84,0.34l10.5,24.25l0.92-0.56c72.73-45.98,112.99-130.58,102.3-216.34l-0.13-1.09l-26.06,8.2l0.08,0.73
					c7.33,72.6-26.59,143.64-87.27,183.7l-0.64,0.42l0.3,0.68L780.43,490.57z"/>
				<path class="st3" d="M784.92,492.85c58.92-39.13,94.54-113.85,87.79-184.03l14.81-4.47c10.35,80.2-26.64,157.92-96.02,202.09
					L784.92,492.85z"/>
				<path class="st3" d="M710.02,141.4l0.12-0.9c-72.58-10.7-145.85,19.97-189.19,79.53l0.74,0.52l0.36-0.83l-23.19-10.51
					l-0.39,0.82l0.73,0.54c48.78-70.51,134.5-106.46,218.65-92.36l0.15-0.89l-0.84-0.27l-8,24.06L710.02,141.4l0.12-0.9
					L710.02,141.4l0.86,0.28l8.33-25.06l-1.05-0.19c-84.88-14.22-171.24,22.03-220.44,93.11l-0.62,0.9l24.89,11.24l0.44-0.6
					c42.89-59.02,115.56-89.38,187.45-78.8l0.76,0.11l0.25-0.71L710.02,141.4z"/>
				<path class="st3" d="M708.19,136.7c-70.01-10.09-146.33,21.87-188.1,78.66l-14.02-6.53c45.72-66.68,125.16-99.97,206.27-86.67
					L708.19,136.7z"/>
				<path class="st3" d="M779.9,139.12c-0.55,0.41-1.1,0.79-1.67,1.17c35.45,18.61,65.96,46.72,87.24,82.39l-22.22,8.17
					c-21.18-33.76-51.69-59.61-86.84-75.37c-0.59,0.4-1.16,0.79-1.75,1.21c35.46,15.67,66.26,41.7,87.46,75.74l0.39,0.62l25.63-9.43
					l-0.56-0.93C846.26,186.56,815.59,158.06,779.9,139.12z"/>
				<path class="st3" d="M759.42,153.4c34.82,16.08,65.3,41.59,85.39,73.51l14.45-5.49c-20.25-34.73-49.41-61.74-83.69-79.26
					C770.21,145.9,764.82,149.66,759.42,153.4z"/>
				<path class="st3" d="M507.65,245.18c-16.06,32.56-23.24,69.43-19.61,106.81l-22.58,7.1c-4.9-40.93,1.9-81.52,18.34-117.71
					c-0.62-0.09-1.25-0.19-1.88-0.26c-16.54,36.67-23.32,77.8-18.14,119.26l0.15,1.07l26.04-8.2l-0.08-0.72
					c-3.76-37.43,3.46-74.46,19.61-107.04C508.86,245.37,508.24,245.29,507.65,245.18z"/>
				<path class="st3" d="M486.74,241.83c-15.91,34.46-22.25,73.14-17.16,112.47l14.8-4.48c-3.41-35.64,4.12-72.44,20.07-105.15
					C498.53,243.68,492.66,242.75,486.74,241.83z"/>
				<path class="st3" d="M523.21,293.44c-6.67,28.32-5.28,57.41,3.22,84.25c4.52,0.8,9.04,1.63,13.56,2.44
					c-9.97-27.23-11.85-57.34-4.48-86.49C531.63,294.48,527.49,294.46,523.21,293.44z"/>
				<path class="st3" d="M665.15,180.55c0.34,0.81,0.62,1.66,0.9,2.52c25.66-2.16,52.2,2.37,77.01,14.56
					c54.87,26.99,85.47,83.59,81.95,141.04c4.08,0.42,8.1,1.58,11.81,3.4c4.92-63.07-28.21-125.66-88.47-155.27
					c-28.66-14.08-59.46-18.72-88.98-15.17C661.66,174.11,663.64,177.02,665.15,180.55z"/>
				<path class="st3" d="M613.45,461.06c-72.93-35.82-102.94-123.92-67.11-196.86c17.73-36.13,48.38-61.73,83.61-74.01
					c-2.44-3.38-4.91-6.81-7.38-10.17c-36.69,13.73-68.43,40.93-87.07,78.86c-38.78,78.91-6.28,174.24,72.6,213.01
					c78.94,38.77,174.31,6.24,213.06-72.64c18.84-38.33,20.85-80.53,8.91-118.22c-4.54-0.79-9.03-1.6-13.55-2.4
					c13.26,36.32,12.25,77.82-6.16,115.29C774.53,466.84,686.36,496.9,613.45,461.06z"/>
				<path class="st3" d="M586.31,440.24l0.45-0.51c-41.64-35.88-60.15-92.36-47.63-146.08l0.1-0.54l-18.72-8.65l-0.23,0.8
					c-16.29,63.24,5.69,130.52,55.76,171.98l0.62,0.5l10.52-17.64l-0.43-0.37L586.31,440.24l-0.59-0.34l-9.81,16.46l0.58,0.35
					l0.43-0.54c-49.68-41.14-71.48-107.87-55.31-170.6l-0.67-0.17l-0.29,0.65l17.51,8.07l0.29-0.62l-0.71-0.17
					c-12.59,54.2,6.12,111.2,48.09,147.4L586.31,440.24l-0.59-0.34L586.31,440.24z"/>
				<path class="st3" d="M582.72,441.53c-40.4-35.03-59.84-94.41-48.02-146.37l-10.65-4.78c-15.55,59.1,4.69,120.89,52.39,160.71
					L582.72,441.53z"/>
				<path class="st3" d="M646.56,469.85l-0.16,0.67c54.36,11.11,110.94-8.9,146.15-52.01l-0.54-0.44l-0.32,0.62l17.08,8.9l0.32-0.6
					l-0.53-0.42c-39.78,51.12-105.98,74.65-168.91,60.44l-0.15,0.66l0.64,0.25l7.03-17.83L646.56,469.85l-0.16,0.67L646.56,469.85
					l-0.64-0.25l-7.34,18.56l0.78,0.18c63.44,14.32,130.17-9.39,170.29-60.93l0.5-0.64l-18.31-9.54l-0.35,0.42
					c-34.87,42.71-90.98,62.55-144.81,51.54l-0.54-0.13l-0.23,0.55L646.56,469.85z"/>
				<path class="st3" d="M647.73,473.47c52.39,10.59,111.35-10.31,145.27-51.42l10.28,5.53c-37.29,48.38-98.63,70.14-159.32,56.68
					L647.73,473.47z"/>
				<path class="st3" d="M795.55,245.63l0.54-0.4c-33.06-44.5-88.63-67.28-143.6-58.61l0.11,0.68l0.63-0.26l-6.77-18.03l-0.62,0.24
					l0.09,0.7c63.73-11.63,128.75,14.96,166.2,67.51l0.55-0.42l-0.3-0.61l-17.13,8.59L795.55,245.63l0.54-0.4L795.55,245.63
					l0.3,0.63l17.87-8.95l-0.48-0.64c-37.74-52.96-103.28-79.77-167.55-68.05l-0.79,0.13l7.27,19.32l0.54-0.1
					c54.49-8.6,109.53,13.99,142.3,58.09l0.35,0.45l0.49-0.25L795.55,245.63z"/>
				<path class="st3" d="M797.08,242.17c-31.99-42.83-89.88-66.54-142.55-58.49l-3.97-10.99c60.04-11.22,120.27,13.44,156.51,63.92
					L797.08,242.17z"/>
				<path class="st3" d="M834.09,281.72c-0.51-0.09-1-0.16-1.5-0.27c9,28.88,10.26,60.21,2.56,90.64l-16.23-7.5
					c6.72-29.34,4.23-59.48-6.12-86.65c-0.51-0.09-1.05-0.19-1.59-0.29c10.57,27.3,13.12,57.66,6.25,87.18l-0.12,0.53l18.73,8.66
					l0.19-0.79C844.19,342.55,843.07,310.9,834.09,281.72z"/>
				<path class="st3" d="M815.55,278.43c9.99,27.18,12.65,57.1,6.32,84.87l10.68,4.8c7.71-29.36,6.54-59.38-2.37-87.06
					C825.3,280.19,820.41,279.32,815.55,278.43z"/>
				<path class="st3" d="M631.94,192.95c-25.94,8.83-49.54,24.69-67.53,46.6l-15.86-8.28c19.24-24.49,44.59-42.55,72.69-53.09
					c-0.26-0.38-0.56-0.77-0.84-1.15c-28.45,10.75-54.08,29.11-73.45,54.02l-0.5,0.66l18.32,9.56l0.34-0.45
					c17.99-22.03,41.61-37.94,67.68-46.73C632.5,193.73,632.22,193.35,631.94,192.95z"/>
				<path class="st3" d="M622.58,180.01c-26.93,9.92-50.98,27.19-69.31,50.89l10.34,5.54c17.21-20.88,40.91-36.5,66.89-45.47
					C627.88,187.28,625.24,183.63,622.58,180.01z"/>
				<path class="st3" d="M466.96,418.56l1.53-0.65c-24.57-57.97-23.3-120.39-1.4-174.47c21.91-54.09,64.44-99.81,122.4-124.35
					c58-24.57,120.39-23.31,174.49-1.41c54.05,21.89,99.77,64.42,124.32,122.38c24.55,57.94,23.28,120.37,1.4,174.44
					c-21.92,54.09-64.42,99.82-122.4,124.38c-57.96,24.55-120.39,23.29-174.47,1.4c-54.08-21.9-99.8-64.43-124.34-122.35
					L466.96,418.56l-1.58,0.66c49.8,117.59,185.58,172.55,303.22,122.73c117.64-49.84,172.62-185.59,122.8-303.22
					c-49.81-117.6-185.59-172.59-303.21-122.74c-117.65,49.8-172.61,185.61-122.8,303.22L466.96,418.56z"/>
				<path class="st3" d="M520.87,395.72l1.56-0.66c-18.26-43.06-17.34-89.47-1.04-129.65c16.26-40.2,47.87-74.17,90.95-92.42
					c43.07-18.25,89.45-17.32,129.65-1.04c40.19,16.28,74.15,47.86,92.4,90.95c18.23,43.04,17.3,89.42,1.02,129.62
					c-16.28,40.2-47.86,74.16-90.96,92.42c-43.08,18.25-89.46,17.31-129.65,1.03c-40.18-16.26-74.15-47.86-92.37-90.91
					L520.87,395.72l-1.54,0.65c37.17,87.8,138.56,128.85,226.42,91.65c87.87-37.22,128.92-138.61,91.72-226.43
					c-37.21-87.85-138.59-128.91-226.44-91.69c-87.86,37.23-128.93,138.6-91.7,226.47L520.87,395.72z"/>
				<path class="st3" d="M538.01,388.44l0.75-0.32c-16.31-38.54-15.44-80.06-0.88-116.03c14.56-35.97,42.82-66.39,81.37-82.72
					c38.58-16.32,80.07-15.48,116.06-0.91c35.96,14.55,66.37,42.82,82.69,81.37c16.33,38.51,15.49,80.04,0.9,116.01
					c-14.57,35.98-42.84,66.38-81.39,82.72c-38.58,16.33-80.08,15.5-116.04,0.93c-35.99-14.57-66.4-42.85-82.72-81.36L538.01,388.44
					l-0.76,0.34c32.99,77.91,122.97,114.34,200.91,81.32c77.97-33.04,114.4-122.99,81.39-200.92
					c-33.02-77.93-122.96-114.37-200.95-81.34c-77.92,33.03-114.35,123.01-81.34,200.94L538.01,388.44z"/>
				<path class="st3" d="M455,423.61l0.77-0.33c-26.03-61.46-24.7-127.65-1.44-185.01c23.22-57.35,68.28-105.85,129.77-131.89
					c61.52-26.03,127.69-24.7,185.04-1.47c57.35,23.21,105.85,68.3,131.88,129.78c26.03,61.44,24.7,127.64,1.47,184.99
					c-23.23,57.38-68.31,105.86-129.81,131.9c-61.48,26.03-127.68,24.69-185.03,1.49c-57.35-23.22-105.85-68.34-131.87-129.79
					L455,423.61l-0.78,0.33c52.46,123.77,195.31,181.61,319.11,129.17c123.81-52.45,181.66-195.33,129.22-319.09
					c-52.44-123.8-195.28-181.63-319.11-129.21C459.62,157.27,401.8,300.15,454.21,423.94L455,423.61z"/>
			</g>
			<g>
				<g>
					<path d="M638.25,599.3c-0.63-0.62-1.5-2.28-4.8,1.29c-21.2,21.22-65.52,59.6-118.63,71.2c0,0-9.46,5.78,3.51,7.19
						c0,0,13.77,3.4,28.97,2.58l-8.65,9.34l-19.78,0.49c0,0-13.38,28.77-32.47,54.63c-5.93-0.66-12,1.28-16.3,5.92
						c-4.57,4.95-6.01,11.67-4.47,17.86L355.62,888.7c5.32,4.86,10.5,9.87,15.55,15l110.18-119.06c6.41,1.26,13.24-0.64,17.92-5.7
						c4.51-4.87,5.96-11.48,4.53-17.57c24.21-20.87,51.53-36.25,51.53-36.25l-1.03-19.34l8.84-9.56c0.36,15.21,4.81,28.7,4.81,28.7
						c2.43,12.82,7.43,2.91,7.43,2.91c7.46-53.71,42.15-100.79,61.69-123.63C640.3,600.73,638.84,599.89,638.25,599.3z"/>
					
						<radialGradient id="SVGID_3_" cx="462.105" cy="1142.3268" r="372.1441" gradientTransform="matrix(0.734 0.6792 -0.6792 0.734 886.6362 -411.4526)" gradientUnits="userSpaceOnUse">
						<stop  offset="0" style="stop-color:#FFF1B6"/>
						<stop  offset="0.5611" style="stop-color:#512D00"/>
						<stop  offset="1" style="stop-color:#1C0A00"/>
					</radialGradient>
					<path class="st4" d="M517.99,675.04c0.39,0.06,0.81,0.11,1.25,0.18c0.02-0.05,13.34,3.24,27.83,2.45l9.55-0.51l-16.23,17.56
						l-19.05,0.47c-3.51,7.21-15.57,31.08-31.82,53.13l-1.33,1.78l-2.23-0.23c-4.82-0.54-9.62,1.01-13.02,4.7
						c-3.63,3.93-4.8,9.25-3.53,14.26l0.52,2.06L358.45,891.36c3.37,3.13,6.7,6.31,9.98,9.56l111.52-120.5l2.15,0.42
						c5.19,1,10.62-0.51,14.34-4.53c3.56-3.86,4.74-9.11,3.57-14.03l-0.54-2.31l1.78-1.54c20.62-17.72,43.23-31.44,50.09-35.47
						l-0.97-18.6l16.42-17.77l0.24,9.55c0.34,14.52,4.61,27.55,4.74,28.07c0.06,0.26,0.1,0.49,0.13,0.73
						c6.8-43.99,30.88-82.94,50.16-108.26C598.36,637.8,561.36,664.85,517.99,675.04z"/>
					
						<linearGradient id="SVGID_4_" gradientUnits="userSpaceOnUse" x1="479.9597" y1="1138.6991" x2="528.1636" y2="1138.6991" gradientTransform="matrix(0.734 0.6792 -0.6792 0.734 886.6362 -411.4526)">
						<stop  offset="0.3901" style="stop-color:#FFF1B6"/>
						<stop  offset="0.6978" style="stop-color:#512D00"/>
						<stop  offset="1" style="stop-color:#1C0A00"/>
					</linearGradient>
					<path class="st5" d="M536.46,673.68c3.26,0.22,6.83,0.3,10.41,0.12l19.1-1.02l-23.87,25.77l-18.33,0.46
						c-4.54,9.13-16,31.08-31.14,51.62l-2.67,3.57l-2.21-0.24l-2.23-0.24c-3.74-0.4-7.22,0.77-9.75,3.48
						c-2.7,2.92-3.57,6.84-2.64,10.66l1.05,4.1L361.3,893.98c1.47,1.4,2.97,2.76,4.43,4.17l112.85-121.97l2.13,0.43l2.14,0.39
						c4,0.79,7.98-0.35,10.72-3.33c2.67-2.87,3.55-6.74,2.67-10.52l-1.08-4.62l1.79-1.53l1.79-1.52
						c19.17-16.5,39.9-29.48,48.59-34.68l-0.92-17.89l24.03-25.97l0.46,19.1c0.09,3.64,0.42,7.18,0.88,10.45
						c6.79-26.07,18.8-49.73,31.14-69.15C584.52,651.12,561.9,664.9,536.46,673.68z"/>
				</g>
			</g>
			<linearGradient id="SVGID_5_" gradientUnits="userSpaceOnUse" x1="242.0963" y1="882.7745" x2="270.2015" y2="908.6313">
				<stop  offset="0.3901" style="stop-color:#FFF1B6"/>
				<stop  offset="0.7912" style="stop-color:#512D00"/>
			</linearGradient>
			<path class="st6" d="M212.98,914.85c0,0,5.64,21.08-3.09,41.87c0,0,35.12-34.29,67.17-37.65c0,0-4.49-15.18,6.47-33.44
				l32.61-37.67l-7.89-7.87l-31.47,36.82C276.79,876.91,248.13,914.85,212.98,914.85z"/>
			<g>
				<path d="M1456,636.42c-7.81-39.65-31.84-74.47-66.11-95.87c-0.14-0.07-0.39-0.27-0.91-0.56
					c-24.78-15.28-52.27-26.51-80.98-32.97c-9.93-2.24-19.13-6.1-27.42-11.26c-24.61-15.37-40.9-42.32-41.88-72.42l-0.8-25.09
					l-13.91,20.87c0,0-3.3,4.92-10.27,12.97c-21.02,24.29-73.79,74.15-157.65,83.41c-0.44,0.07-14.32,2.27-33.81,2.44
					c-19.42,0.19-44.13-1.86-64.51-9.78l-4.29-1.66l-3.62,2.84c-0.41,0.36-2.24,1.83-4.1,4.7c-1.47,2.38-3.09,6.2-2.38,10.89
					c0.67,4.7,3.67,9.02,8.03,12.34l38.07,28.87c0.14,0.14,2.2,1.73,5.64,3.9c7.03,4.24,19.33,11.06,33.45,10.96
					c6.19,1.03,40.22,5.26,107.29-10.33c0.68-0.22,8.85-2.89,22.99-6.12c42.46-9.79,136.38-23.02,205.25,20.27
					c5.18,3.21,10.2,6.77,15.11,10.68c18.17,14.29,31,38.48,29.74,60.61c-0.67,13.18-4.48,27.08-11.49,38.31
					c-5.4,8.67-12.61,15.72-21.83,20.31c-18.19,9.02-40.75,8.21-58.82-1.62c-0.99-0.53-2.03-1.13-2.99-1.74
					c-16.03-10-26.08-27.67-26.25-46.66c-0.09-6.67,1.78-12.99,5.2-18.46c3.31-5.33,8.08-9.78,13.91-12.55
					c1.33-0.7,2.74-1.26,4.12-1.71c-0.09,0.09-0.14,0.22-0.21,0.32c-4.14,6.63-5.5,14.87-3.38,22.79
					c2.79,10.14,9.26,18.61,17.84,23.98c5.15,3.21,11.04,5.3,17.28,5.97c15.66,1.64,30.77-5.85,38.94-19.01
					c0.63-0.97,1.2-1.95,1.71-2.94c6.1-11.95,6.97-25.81,2.43-38.34c-3.71-10.17-10.68-18.77-19.76-24.41
					c-2.07-1.3-4.31-2.48-6.7-3.45c-31.37-13.35-67.89-6.22-92.04,17.98c-3.69,3.69-6.9,7.73-9.61,12.05
					c-18.15,29.45-12.89,68.61,8.31,96.01c8.36,10.77,18.1,19.54,28.75,26.17c28.56,17.88,63.86,20.25,97.38,6.53
					c21.35-8.73,38.6-23.79,50.08-42.25C1455.72,691.08,1461.36,663.7,1456,636.42z"/>
				<g>
					
						<radialGradient id="SVGID_6_" cx="1357.921" cy="821.2365" r="752.238" gradientTransform="matrix(0.9058 0.4237 -0.4237 0.9058 646.8864 -306.6543)" gradientUnits="userSpaceOnUse">
						<stop  offset="0" style="stop-color:#FFD4A2"/>
						<stop  offset="0.88" style="stop-color:#290F00"/>
						<stop  offset="1" style="stop-color:#0B0001"/>
					</radialGradient>
					<path class="st7" d="M1321.29,410.87l38.01,28.92c0,0,17.95,13.9,34.87,13.13c0,0,32.63,6.68,104.81-10.08
						c0,0,153.66-50.37,250.22,26.36c19.96,15.85,34.03,41.91,32.75,67.38c-1.27,25.42-13.04,53.18-37.79,65.38
						c-20.73,10.24-45.86,9.25-66.2-1.74c-20.36-10.99-33.21-32.29-33.47-55.43c-0.2-16.24,9.06-31.23,23.66-38.36
						c14.58-7.13,32.07-5.18,44.78,4.94c-6.99-5.59-16.85-6.05-24.32-1.16c-7.51,4.94-11.01,14.15-8.67,22.8
						c3.54,13.08,14.79,22.67,28.27,24.03c13.45,1.44,26.44-5.61,32.61-17.66c5.04-9.85,5.78-21.43,2-31.88
						c-3.78-10.41-11.78-18.84-21.98-23.18c-28.41-12.07-61.5-5.64-83.28,16.24c-25.6,25.66-22.89,68.87-0.63,97.45
						c28.68,36.89,73.5,47.81,116.74,30.17c43.54-17.76,68.47-64.01,59.42-110.16c-7.42-37.71-30.37-70.82-63.07-91
						c-24.3-14.97-50.94-25.86-78.8-32.14c-42.95-9.66-74.08-47.31-75.55-91.29c0,0-58.06,87.09-173.73,99.92
						c0,0-58.23,9.21-102.11-7.84C1319.84,395.66,1310.79,402.89,1321.29,410.87z"/>
					
						<radialGradient id="SVGID_7_" cx="890.7885" cy="858.0938" r="392.3323" gradientTransform="matrix(0.9058 0.4237 -0.4237 0.9058 646.8864 -306.6543)" gradientUnits="userSpaceOnUse">
						<stop  offset="0" style="stop-color:#FFF1B6"/>
						<stop  offset="0.5611" style="stop-color:#512D00"/>
						<stop  offset="1" style="stop-color:#1C0A00"/>
					</radialGradient>
					<path class="st8" d="M1099.71,809.65c-6.97-35.36-28.51-66.46-59.19-85.34c-8.17-5.08-16.6-9.59-25.28-13.66
						c-16.26-7.62-33.33-13.47-50.88-17.43c-7.52-1.71-14.7-4.15-21.45-7.3c-29.13-13.66-49.59-36.13-57.01-67.45
						c-27.06,32.41-118.33,100.64-250.22,86.37l23.91,18.19c0-0.05,1.28,0.91,3.47,2.34c2.08,1.35,5.01,3.08,8.48,4.72
						c5.43,2.6,12,4.51,17.79,4.26c0.05,0,15.21,1.35,37.11,0.31c21.86-0.99,50.66-4.72,64.9-9.96
						c0.82-0.02,122.37-40.73,221.47,5.16c12.75,5.98,25.14,13.38,36.73,22.61c21.86,17.49,37.31,45.55,35.98,74.52
						c-0.61,12.44-3.54,25.35-9.09,37.23c-6.77,14.51-17.74,27.66-33.47,35.4c-22,10.85-47.95,10.46-69.84,0.24
						c-1.45-0.65-2.82-1.37-4.24-2.1c-23.11-12.48-37.67-36.61-37.96-62.9c-0.1-7.73,1.61-15.26,4.77-22
						c4.84-10.34,13.11-18.97,23.72-24.13c13.93-6.84,30.05-6.77,43.76-0.34c3.52,1.62,6.99,3.73,10.17,6.34
						c0,0,4.89,4.7,0.92,11.11c-3.42,5.47-11.69,2.22-11.69,2.22c-0.77-0.61-1.56-1.13-2.41-1.5c-3.76-1.76-8.27-1.5-11.86,0.84
						c-1.93,1.26-3.38,3.01-4.36,5.03c-1.18,2.56-1.47,5.49-0.7,8.32c1.84,6.99,6.77,12.63,13.13,15.64
						c2.41,1.13,5.03,1.83,7.73,2.15c9.9,1.06,19.57-4.15,24.03-12.97c0.2-0.37,0.39-0.68,0.57-1.06c3.5-7.55,3.93-16.27,1.08-24.08
						c-2.85-7.83-8.73-14.29-16.27-17.81c-0.43-0.17-0.43-0.17-0.43-0.17l-0.22-0.09l-0.34-0.14
						c-25.16-10.72-54.54-4.97-73.88,14.39c-4.34,4.38-7.74,9.33-10.27,14.73c-10.24,21.59-5.73,50.9,10.34,71.4
						c9.59,12.34,20.97,21.38,33.45,27.21c22.03,10.26,47.62,10.72,73.31,0.31c21.55-8.82,38.12-25.23,47.43-45.23
						C1100.75,848.14,1103.5,828.9,1099.71,809.65z"/>
				</g>
			</g>
			<radialGradient id="SVGID_8_" cx="1136.6868" cy="39.5835" r="509.1647" gradientUnits="userSpaceOnUse">
				<stop  offset="0" style="stop-color:#FFFDE3"/>
				<stop  offset="0.18" style="stop-color:#FFFDE3"/>
				<stop  offset="0.1995" style="stop-color:#FFFCD9"/>
				<stop  offset="0.2289" style="stop-color:#FFF1B6"/>
				<stop  offset="0.5611" style="stop-color:#512D00"/>
				<stop  offset="1" style="stop-color:#1C0A00"/>
			</radialGradient>
			<path class="st9" d="M1648.59,143c0,0-152.96,87.45-325.48,43.52c0,0-253.02-77.89-310.44,12.17c0,0-30.35,53.99,25.45,79.98
				c16.6,7.71,36.32,4.46,49.57-8.17c13.23-12.61,17.42-32.19,10.48-49.09c-5.06-12.37-17.18-20.53-30.54-20.53
				c-13.37,0-25.47,8.15-30.54,20.53c6.49-15.83,22.49-25.67,39.48-24.41c17.03,1.28,31.35,13.47,35.38,30.05
				c7.68,31.74-11.3,63.82-42.84,72.35c-17.42,4.7-36.14,2.22-51.71-6.92c-15.6-9.15-26.91-24.27-31.3-41.79
				c-9.27-37.09,7.16-76.06,40.19-95.29c14.7-8.58,30.75-14.7,47.45-18.1c31.48-6.41,63.76-8.63,95.82-6.56
				c0,0,87.02,3.81,165.36,30.06c0,0,119.46,23.42,160.65-17.79H1648.59z"/>
		</g>
	</g>
	<g>
		<g>
			<g>
				<g>
					<path d="M1048.39,695.7c0.18,0.43,0.8,1.86,0.8,1.86l-0.71,0.68c0,0,0.04-1.27-0.43-2.4c-0.47-1.11-1.33-1.42-1.33-1.42
						l0.92-0.56C1047.63,693.86,1048.2,695.26,1048.39,695.7z"/>
					<path d="M1048.62,695.6c0.18,0.43,0.77,1.87,0.77,1.87l1.03-0.12c0,0-0.98-0.77-1.45-1.9c-0.47-1.11-0.14-1.93-0.14-1.93
						l-0.98,0.25C1047.84,693.78,1048.44,695.16,1048.62,695.6z"/>
					
						<radialGradient id="SVGID_9_" cx="1104.8411" cy="817.0812" r="2.537" gradientTransform="matrix(0.9221 -0.3869 0.3869 0.9221 -286.8505 369.6804)" gradientUnits="userSpaceOnUse">
						<stop  offset="0.2363" style="stop-color:#815B22"/>
						<stop  offset="1" style="stop-color:#0D0000"/>
					</radialGradient>
					<path class="st10" d="M1047.55,694.09l1.38,3.22c0,0-0.2,0.15-0.33,0.31c0,0-0.02-2.13-1.57-3.23
						C1047.03,694.39,1047.29,694.14,1047.55,694.09z"/>
					
						<radialGradient id="SVGID_10_" cx="952.5371" cy="817.5612" r="2.4372" gradientTransform="matrix(-0.9221 0.3869 0.3869 0.9221 1610.8663 -427.1186)" gradientUnits="userSpaceOnUse">
						<stop  offset="0.2363" style="stop-color:#815B22"/>
						<stop  offset="1" style="stop-color:#0D0000"/>
					</radialGradient>
					<path class="st11" d="M1048.06,693.88l1.33,3.24c0,0,0.25-0.04,0.46-0.02c0,0-1.5-1.51-1.2-3.38
						C1048.64,693.72,1048.27,693.73,1048.06,693.88z"/>
				</g>
				<g>
					<path d="M1051.29,702.62c-0.18-0.43-0.77-1.87-0.77-1.87l-0.98,0.03c0,0,0.93,0.87,1.41,1.99c0.46,1.11,0.09,1.94,0.09,1.94
						l1.04-0.27C1052.07,704.44,1051.48,703.05,1051.29,702.62z"/>
					<path d="M1051.52,702.52c-0.18-0.43-0.8-1.86-0.8-1.86l0.81-0.65c0,0-0.14,1.24,0.34,2.37c0.47,1.11,1.27,1.45,1.27,1.45
						l-0.87,0.53C1052.28,704.36,1051.71,702.96,1051.52,702.52z"/>
					
						<radialGradient id="SVGID_11_" cx="1104.1938" cy="1302.4696" r="1.3175" gradientTransform="matrix(0.9221 -0.3869 -0.3869 -0.9221 536.6333 2330.99)" gradientUnits="userSpaceOnUse">
						<stop  offset="0.2363" style="stop-color:#815B22"/>
						<stop  offset="1" style="stop-color:#0D0000"/>
					</radialGradient>
					<path class="st12" d="M1051.85,704.34l-1.33-3.24c0,0-0.25,0.04-0.46,0.02c0,0,1.5,1.51,1.2,3.38
						C1051.27,704.5,1051.64,704.49,1051.85,704.34z"/>
					
						<radialGradient id="SVGID_12_" cx="952.9378" cy="1301.9675" r="1.3176" gradientTransform="matrix(-0.9221 0.3869 -0.3869 -0.9221 2434.3496 1534.1915)" gradientUnits="userSpaceOnUse">
						<stop  offset="0.2363" style="stop-color:#815B22"/>
						<stop  offset="1" style="stop-color:#0D0000"/>
					</radialGradient>
					<path class="st13" d="M1052.36,704.13l-1.38-3.22c0,0,0.2-0.15,0.33-0.31c0,0,0.03,2.13,1.57,3.23
						C1052.88,703.83,1052.61,704.08,1052.36,704.13z"/>
				</g>
				<g>
					<path d="M1053.35,697.58c-0.43,0.18-1.86,0.8-1.86,0.8l-0.68-0.71c0,0,1.27,0.04,2.4-0.43c1.11-0.47,1.42-1.33,1.42-1.33
						l0.56,0.92C1055.19,696.83,1053.79,697.4,1053.35,697.58z"/>
					<path d="M1053.45,697.81c-0.43,0.18-1.87,0.77-1.87,0.77l0.12,1.03c0,0,0.77-0.98,1.9-1.45c1.11-0.47,1.93-0.14,1.93-0.14
						l-0.25-0.98C1055.27,697.03,1053.88,697.63,1053.45,697.81z"/>
					
						<radialGradient id="SVGID_13_" cx="792.92" cy="974.5172" r="1.3172" gradientTransform="matrix(0.3869 0.9221 -0.9221 0.3869 1644.9893 -411.0045)" gradientUnits="userSpaceOnUse">
						<stop  offset="0.2363" style="stop-color:#815B22"/>
						<stop  offset="1" style="stop-color:#0D0000"/>
					</radialGradient>
					<path class="st14" d="M1054.96,696.74l-3.22,1.38c0,0-0.15-0.2-0.31-0.33c0,0,2.13-0.02,3.22-1.57
						C1054.65,696.23,1054.91,696.49,1054.96,696.74z"/>
					
						<radialGradient id="SVGID_14_" cx="1264.2123" cy="975.0203" r="1.3176" gradientTransform="matrix(-0.3869 -0.9221 -0.9221 0.3869 2441.7891 1486.712)" gradientUnits="userSpaceOnUse">
						<stop  offset="0.2363" style="stop-color:#815B22"/>
						<stop  offset="1" style="stop-color:#0D0000"/>
					</radialGradient>
					<path class="st15" d="M1055.17,697.25l-3.24,1.33c0,0,0.03,0.25,0.02,0.46c0,0,1.51-1.5,3.38-1.2
						C1055.33,697.83,1055.32,697.46,1055.17,697.25z"/>
				</g>
				<g>
					<path d="M1046.43,700.49c0.44-0.18,1.87-0.77,1.87-0.77l-0.03-0.98c0,0-0.86,0.93-1.99,1.4c-1.11,0.47-1.94,0.09-1.94,0.09
						l0.27,1.04C1044.61,701.27,1046,700.67,1046.43,700.49z"/>
					<path d="M1046.53,700.72c0.43-0.18,1.86-0.79,1.86-0.79l0.65,0.81c0,0-1.24-0.14-2.37,0.34c-1.11,0.47-1.45,1.27-1.45,1.27
						l-0.53-0.87C1044.69,701.47,1046.09,700.9,1046.53,700.72z"/>
					
						<radialGradient id="SVGID_15_" cx="792.417" cy="1145.2245" r="1.3171" gradientTransform="matrix(0.3869 0.9221 0.9221 -0.3869 -316.3202 412.4787)" gradientUnits="userSpaceOnUse">
						<stop  offset="0.2363" style="stop-color:#815B22"/>
						<stop  offset="1" style="stop-color:#0D0000"/>
					</radialGradient>
					<path class="st16" d="M1044.71,701.04l3.24-1.33c0,0-0.04-0.24-0.02-0.46c0,0-1.51,1.5-3.38,1.2
						C1044.55,700.47,1044.55,700.83,1044.71,701.04z"/>
					
						<radialGradient id="SVGID_16_" cx="1264.7168" cy="1144.7241" r="1.3173" gradientTransform="matrix(-0.3869 -0.9221 0.9221 -0.3869 480.4785 2310.1973)" gradientUnits="userSpaceOnUse">
						<stop  offset="0.2363" style="stop-color:#815B22"/>
						<stop  offset="1" style="stop-color:#0D0000"/>
					</radialGradient>
					<path class="st17" d="M1044.92,701.55l3.22-1.38c0,0,0.15,0.2,0.31,0.33c0,0-2.13,0.03-3.23,1.57
						C1045.22,702.07,1044.96,701.81,1044.92,701.55z"/>
				</g>
			</g>
			<g>
				<g>
					<path d="M1051.26,695.61c-0.18,0.44-0.75,1.88-0.75,1.88l-0.98-0.02c0,0,0.93-0.87,1.39-2c0.46-1.11,0.07-1.95,0.07-1.95
						l1.04,0.26C1052.02,693.78,1051.44,695.17,1051.26,695.61z"/>
					<path d="M1051.49,695.71c-0.18,0.44-0.78,1.87-0.78,1.87l0.81,0.65c0,0-0.15-1.24,0.31-2.37c0.45-1.11,1.26-1.46,1.26-1.46
						l-0.87-0.52C1052.23,693.86,1051.67,695.27,1051.49,695.71z"/>
					
						<radialGradient id="SVGID_17_" cx="916.0814" cy="831.7972" r="1.3174" gradientTransform="matrix(0.9256 0.3784 -0.3784 0.9256 517.6787 -421.0936)" gradientUnits="userSpaceOnUse">
						<stop  offset="0.2363" style="stop-color:#815B22"/>
						<stop  offset="1" style="stop-color:#0D0000"/>
					</radialGradient>
					<path class="st18" d="M1051.8,693.88l-1.3,3.25c0,0-0.25-0.03-0.46-0.01c0,0,1.49-1.52,1.17-3.39
						C1051.22,693.73,1051.59,693.73,1051.8,693.88z"/>
					
						<radialGradient id="SVGID_18_" cx="1141.3667" cy="831.6517" r="1.3174" gradientTransform="matrix(-0.9256 -0.3784 -0.3784 0.9256 2423.0298 358.0017)" gradientUnits="userSpaceOnUse">
						<stop  offset="0.2363" style="stop-color:#815B22"/>
						<stop  offset="1" style="stop-color:#0D0000"/>
					</radialGradient>
					<path class="st19" d="M1052.31,694.09l-1.35,3.23c0,0,0.2,0.15,0.33,0.31c0,0,0.01-2.13,1.54-3.24
						C1052.83,694.39,1052.57,694.13,1052.31,694.09z"/>
				</g>
				<g>
					<path d="M1048.42,702.56c0.18-0.44,0.78-1.87,0.78-1.87l-0.72-0.68c0,0,0.05,1.27-0.41,2.4c-0.45,1.11-1.31,1.44-1.31,1.44
						l0.93,0.55C1047.68,704.4,1048.24,703,1048.42,702.56z"/>
					<path d="M1048.65,702.66c0.18-0.44,0.75-1.88,0.75-1.88l1.03,0.11c0,0-0.97,0.78-1.44,1.91c-0.46,1.11-0.13,1.93-0.13,1.93
						l-0.99-0.24C1047.89,704.48,1048.47,703.09,1048.65,702.66z"/>
					
						<radialGradient id="SVGID_19_" cx="916.2278" cy="1288.2606" r="1.3175" gradientTransform="matrix(0.9256 0.3784 0.3784 -0.9256 -287.515 1548.0923)" gradientUnits="userSpaceOnUse">
						<stop  offset="0.2363" style="stop-color:#815B22"/>
						<stop  offset="1" style="stop-color:#0D0000"/>
					</radialGradient>
					<path class="st20" d="M1047.6,704.17l1.35-3.23c0,0-0.2-0.15-0.34-0.31c0,0,0,2.13-1.54,3.24
						C1047.07,703.87,1047.34,704.13,1047.6,704.17z"/>
					
						<radialGradient id="SVGID_20_" cx="1141.2191" cy="1288.4089" r="1.3175" gradientTransform="matrix(-0.9256 -0.3784 0.3784 -0.9256 1617.8354 2327.1902)" gradientUnits="userSpaceOnUse">
						<stop  offset="0.2363" style="stop-color:#815B22"/>
						<stop  offset="1" style="stop-color:#0D0000"/>
					</radialGradient>
					<path class="st21" d="M1048.11,704.38l1.3-3.25c0,0,0.25,0.03,0.46,0.02c0,0-1.49,1.52-1.17,3.39
						C1048.69,704.53,1048.32,704.53,1048.11,704.38z"/>
				</g>
				<g>
					<path d="M1053.44,700.46c-0.44-0.18-1.88-0.75-1.88-0.75l0.02-0.98c0,0,0.87,0.93,2,1.39c1.11,0.46,1.94,0.07,1.94,0.07
						l-0.26,1.04C1055.27,701.22,1053.87,700.63,1053.44,700.46z"/>
					<path d="M1053.34,700.69c-0.44-0.18-1.87-0.78-1.87-0.78l-0.64,0.81c0,0,1.24-0.15,2.37,0.31c1.11,0.46,1.47,1.26,1.47,1.26
						l0.52-0.87C1055.18,701.42,1053.78,700.86,1053.34,700.69z"/>
					
						<radialGradient id="SVGID_21_" cx="806.7934" cy="1163.449" r="1.3173" gradientTransform="matrix(-0.3784 0.9256 -0.9256 -0.3784 2435.7644 393.5261)" gradientUnits="userSpaceOnUse">
						<stop  offset="0.2363" style="stop-color:#815B22"/>
						<stop  offset="1" style="stop-color:#0D0000"/>
					</radialGradient>
					<path class="st22" d="M1055.16,701l-3.25-1.3c0,0,0.03-0.25,0.01-0.46c0,0,1.52,1.48,3.39,1.17
						C1055.32,700.42,1055.32,700.78,1055.16,701z"/>
					
						<radialGradient id="SVGID_22_" cx="1250.653" cy="1163.301" r="1.3174" gradientTransform="matrix(0.3784 -0.9256 -0.9256 -0.3784 1656.6675 2298.8755)" gradientUnits="userSpaceOnUse">
						<stop  offset="0.2363" style="stop-color:#815B22"/>
						<stop  offset="1" style="stop-color:#0D0000"/>
					</radialGradient>
					<path class="st23" d="M1054.96,701.51l-3.23-1.35c0,0-0.15,0.2-0.31,0.34c0,0,2.13,0.01,3.24,1.54
						C1054.66,702.03,1054.92,701.76,1054.96,701.51z"/>
				</g>
				<g>
					<path d="M1046.49,697.61c0.44,0.18,1.87,0.78,1.87,0.78l0.68-0.71c0,0-1.27,0.05-2.4-0.41c-1.11-0.45-1.43-1.31-1.43-1.31
						l-0.55,0.93C1044.65,696.88,1046.05,697.44,1046.49,697.61z"/>
					<path d="M1046.39,697.84c0.44,0.18,1.88,0.75,1.88,0.75l-0.11,1.03c0,0-0.78-0.98-1.91-1.44c-1.11-0.46-1.93-0.13-1.93-0.13
						l0.24-0.99C1044.56,697.08,1045.96,697.67,1046.39,697.84z"/>
					
						<radialGradient id="SVGID_23_" cx="806.9417" cy="956.61" r="1.3175" gradientTransform="matrix(-0.3784 0.9256 0.9256 0.3784 466.5779 -411.6691)" gradientUnits="userSpaceOnUse">
						<stop  offset="0.2363" style="stop-color:#815B22"/>
						<stop  offset="1" style="stop-color:#0D0000"/>
					</radialGradient>
					<path class="st24" d="M1044.88,696.79l3.23,1.35c0,0,0.15-0.2,0.31-0.33c0,0-2.13-0.01-3.24-1.54
						C1045.17,696.27,1044.92,696.53,1044.88,696.79z"/>
					
						<radialGradient id="SVGID_24_" cx="1250.505" cy="956.7578" r="1.3175" gradientTransform="matrix(0.3784 -0.9256 0.9256 0.3784 -312.5194 1493.6812)" gradientUnits="userSpaceOnUse">
						<stop  offset="0.2363" style="stop-color:#815B22"/>
						<stop  offset="1" style="stop-color:#0D0000"/>
					</radialGradient>
					<path class="st25" d="M1044.67,697.3l3.25,1.3c0,0-0.03,0.25-0.01,0.46c0,0-1.52-1.49-3.39-1.17
						C1044.52,697.88,1044.52,697.51,1044.67,697.3z"/>
				</g>
			</g>
			<path d="M1056.74,696.17c-0.03-0.08-0.09-0.15-0.17-0.19c0.02-0.07,0.01-0.15-0.01-0.22l0-0.01l-0.01-0.02
				c-0.04-0.08-0.11-0.15-0.2-0.18c0.02-0.07,0.01-0.15-0.02-0.22c-0.01-0.02-0.01-0.03-0.02-0.04c-0.05-0.08-0.12-0.14-0.2-0.17
				c0-0.06,0-0.12-0.03-0.18c-0.01-0.03-0.02-0.04-0.03-0.06c-0.05-0.07-0.12-0.13-0.21-0.15c0-0.05-0.01-0.1-0.03-0.15
				c-0.01-0.03-0.03-0.06-0.05-0.08c-0.06-0.07-0.13-0.12-0.22-0.14c0-0.04-0.01-0.09-0.03-0.13c-0.02-0.04-0.04-0.07-0.06-0.1
				c-0.06-0.06-0.13-0.11-0.21-0.12c0-0.03-0.01-0.06-0.03-0.09c-0.02-0.05-0.05-0.09-0.08-0.12c-0.06-0.06-0.14-0.1-0.22-0.11
				c0-0.02-0.01-0.05-0.02-0.07c-0.02-0.05-0.06-0.1-0.1-0.14c-0.07-0.06-0.16-0.1-0.26-0.09c0-0.03-0.01-0.05-0.02-0.08
				c-0.02-0.06-0.07-0.11-0.12-0.15c-0.07-0.05-0.16-0.08-0.24-0.07c0-0.01-0.01-0.02-0.01-0.03c-0.03-0.07-0.08-0.13-0.14-0.17
				c-0.07-0.05-0.16-0.07-0.24-0.06c0,0,0-0.01,0-0.01c-0.03-0.08-0.09-0.14-0.16-0.18c-0.08-0.04-0.17-0.06-0.25-0.04
				c-0.04-0.08-0.1-0.14-0.18-0.18c-0.08-0.04-0.16-0.05-0.24-0.03c-0.04-0.07-0.1-0.12-0.18-0.16c-0.08-0.03-0.17-0.04-0.26-0.01
				c-0.05-0.07-0.12-0.13-0.2-0.16c-0.09-0.03-0.18-0.03-0.26,0.01c0,0-0.01,0-0.01,0c-0.05-0.08-0.13-0.13-0.22-0.16
				c-0.08-0.02-0.16-0.01-0.24,0.02c0,0-0.01,0-0.01,0.01c-0.05-0.07-0.13-0.11-0.22-0.13c-0.07-0.01-0.15-0.01-0.21,0.02
				c-0.01,0-0.02,0.01-0.03,0.02c-0.06-0.06-0.14-0.1-0.22-0.11c-0.06-0.01-0.13,0-0.19,0.03c-0.02,0.01-0.04,0.02-0.06,0.03
				c-0.06-0.06-0.15-0.09-0.23-0.1c-0.06,0-0.11,0.01-0.17,0.03c-0.02,0.01-0.04,0.02-0.06,0.03c-0.06-0.05-0.14-0.07-0.23-0.07
				c-0.05,0-0.1,0.01-0.14,0.03c-0.03,0.01-0.06,0.03-0.08,0.05c-0.07-0.05-0.15-0.07-0.23-0.06c-0.04,0-0.08,0.01-0.12,0.03
				c-0.05,0.02-0.09,0.05-0.12,0.09c-0.08-0.05-0.17-0.07-0.27-0.06c-0.03,0-0.06,0.01-0.09,0.03c-0.05,0.02-0.09,0.05-0.13,0.09
				c-0.08-0.04-0.17-0.05-0.25-0.03c-0.02,0-0.04,0.01-0.07,0.02c-0.05,0.02-0.1,0.06-0.14,0.11c-0.08-0.03-0.17-0.04-0.25-0.02
				c-0.01,0-0.03,0.01-0.04,0.02c-0.06,0.03-0.12,0.07-0.16,0.13c-0.08-0.03-0.17-0.03-0.25,0c0,0-0.01,0-0.02,0.01
				c-0.07,0.03-0.13,0.08-0.17,0.14c-0.08-0.02-0.16-0.01-0.24,0.02c-0.08,0.03-0.15,0.1-0.19,0.17c-0.08-0.02-0.16-0.01-0.23,0.02
				c0,0,0,0,0,0c0,0-0.01,0-0.03,0.01c-0.08,0.04-0.14,0.11-0.17,0.19c-0.07-0.02-0.15-0.01-0.22,0.02c-0.01,0-0.02,0.01-0.04,0.02
				v0c-0.07,0.04-0.13,0.11-0.16,0.19c-0.06-0.01-0.12,0-0.18,0.03c-0.02,0.01-0.05,0.02-0.07,0.04c-0.07,0.04-0.12,0.11-0.14,0.19
				c-0.05,0-0.1,0.01-0.15,0.03c-0.03,0.01-0.06,0.03-0.09,0.06c-0.06,0.05-0.11,0.12-0.13,0.21c-0.04,0-0.09,0.01-0.13,0.03
				c-0.04,0.02-0.07,0.04-0.11,0.07c-0.06,0.05-0.1,0.12-0.11,0.2c-0.03,0-0.06,0.01-0.09,0.03c-0.04,0.02-0.09,0.05-0.13,0.09
				c-0.06,0.06-0.09,0.13-0.1,0.21c-0.02,0-0.05,0.01-0.07,0.02c-0.05,0.02-0.1,0.06-0.14,0.1c-0.06,0.07-0.09,0.16-0.09,0.25
				c-0.03,0.01-0.05,0.01-0.07,0.02c-0.06,0.03-0.12,0.07-0.16,0.12c-0.05,0.07-0.08,0.15-0.07,0.24c-0.01,0-0.02,0.01-0.03,0.01
				c-0.07,0.03-0.13,0.08-0.17,0.14c-0.05,0.07-0.07,0.15-0.06,0.24c0,0,0,0-0.01,0c-0.08,0.03-0.14,0.09-0.18,0.16
				c-0.04,0.08-0.06,0.16-0.04,0.25c-0.08,0.04-0.14,0.1-0.18,0.18c-0.04,0.07-0.05,0.15-0.03,0.23c-0.07,0.04-0.13,0.1-0.16,0.18
				c-0.03,0.08-0.04,0.17-0.01,0.25c-0.07,0.05-0.13,0.12-0.16,0.2c-0.03,0.08-0.03,0.17,0.01,0.26c0,0,0,0.01,0,0.01
				c-0.08,0.05-0.13,0.13-0.16,0.22c-0.02,0.08-0.01,0.16,0.02,0.24c0,0,0,0.01,0.01,0.01c-0.07,0.06-0.11,0.13-0.13,0.22
				c-0.01,0.07-0.01,0.14,0.02,0.21c0,0.01,0.01,0.02,0.01,0.03c-0.06,0.06-0.1,0.14-0.11,0.22c-0.01,0.06,0,0.13,0.03,0.19
				c0.01,0.02,0.02,0.04,0.03,0.06c-0.06,0.06-0.09,0.15-0.1,0.24c0,0.05,0.01,0.11,0.03,0.16c0.01,0.02,0.02,0.04,0.03,0.06
				c-0.05,0.07-0.08,0.15-0.07,0.23c0,0.05,0.01,0.1,0.03,0.14c0.01,0.03,0.03,0.06,0.05,0.08c-0.04,0.07-0.07,0.15-0.06,0.23
				c0,0.04,0.01,0.08,0.03,0.12c0.02,0.05,0.05,0.09,0.09,0.12c-0.05,0.08-0.07,0.17-0.06,0.26c0,0.03,0.01,0.06,0.03,0.09
				c0.02,0.05,0.05,0.09,0.09,0.13c-0.04,0.08-0.05,0.17-0.03,0.25c0,0.02,0.01,0.04,0.02,0.07c0.02,0.05,0.06,0.1,0.11,0.14
				c-0.03,0.08-0.04,0.17-0.02,0.25c0,0.01,0.01,0.03,0.02,0.04c0.02,0.06,0.07,0.12,0.13,0.16c-0.03,0.08-0.03,0.17,0,0.25
				c0,0,0,0.01,0.01,0.02c0.03,0.07,0.08,0.13,0.14,0.17c-0.02,0.08-0.01,0.16,0.02,0.24c0.03,0.08,0.09,0.15,0.17,0.19
				c-0.02,0.08-0.01,0.16,0.02,0.23c0,0,0,0.01,0.01,0.03c0.04,0.08,0.11,0.15,0.2,0.18c-0.02,0.07-0.01,0.15,0.02,0.22
				c0,0.01,0.01,0.03,0.03,0.05c0.04,0.07,0.11,0.13,0.19,0.16c-0.01,0.06,0,0.12,0.03,0.18c0.01,0.02,0.02,0.05,0.04,0.07
				c0.04,0.07,0.11,0.12,0.19,0.14c0,0.05,0.01,0.1,0.03,0.15c0.01,0.03,0.03,0.06,0.05,0.09c0.05,0.06,0.13,0.11,0.21,0.13
				c0,0.04,0.01,0.09,0.03,0.13c0.02,0.04,0.04,0.07,0.07,0.11c0.05,0.06,0.12,0.1,0.2,0.11c0,0.03,0.01,0.06,0.02,0.09
				c0.02,0.04,0.05,0.09,0.08,0.12c0.06,0.06,0.13,0.09,0.21,0.1c0,0.02,0.01,0.05,0.02,0.07c0.02,0.05,0.05,0.1,0.1,0.14
				c0.07,0.06,0.16,0.09,0.25,0.09c0,0.03,0.01,0.05,0.02,0.08c0.02,0.06,0.07,0.11,0.12,0.15c0.07,0.05,0.15,0.08,0.24,0.07
				c0,0.01,0.01,0.02,0.01,0.03c0.03,0.07,0.08,0.13,0.14,0.17c0.07,0.05,0.16,0.07,0.24,0.06c0,0,0,0,0,0.01
				c0.03,0.08,0.09,0.14,0.16,0.18c0.08,0.04,0.17,0.06,0.25,0.04c0.04,0.08,0.1,0.14,0.18,0.18c0.08,0.04,0.16,0.05,0.24,0.03
				c0.04,0.07,0.1,0.12,0.18,0.16c0.08,0.03,0.17,0.04,0.26,0.01c0.05,0.07,0.12,0.13,0.2,0.16c0.08,0.03,0.18,0.02,0.26-0.01
				c0,0,0,0,0.01,0c0.05,0.08,0.13,0.13,0.22,0.16c0.08,0.02,0.16,0.02,0.24-0.02c0,0,0.01,0,0.01-0.01
				c0.06,0.07,0.13,0.11,0.22,0.13c0.07,0.01,0.15,0.01,0.21-0.02c0.01,0,0.02-0.01,0.03-0.02c0.06,0.06,0.14,0.1,0.22,0.11
				c0.06,0.01,0.13,0,0.19-0.03c0.02-0.01,0.04-0.02,0.06-0.03c0.06,0.06,0.15,0.09,0.23,0.1c0.06,0,0.11-0.01,0.16-0.03
				c0.02-0.01,0.04-0.02,0.06-0.03c0.06,0.05,0.14,0.07,0.23,0.07c0.05,0,0.1-0.01,0.14-0.03c0.03-0.01,0.06-0.03,0.08-0.05
				c0.07,0.05,0.15,0.07,0.23,0.06c0.04,0,0.08-0.01,0.12-0.03c0.05-0.02,0.09-0.05,0.12-0.08c0.08,0.05,0.17,0.07,0.26,0.06
				c0.03,0,0.06-0.01,0.09-0.03c0.05-0.02,0.09-0.05,0.13-0.09c0.08,0.04,0.17,0.05,0.25,0.03c0.03-0.01,0.05-0.01,0.07-0.02
				c0.06-0.02,0.1-0.06,0.14-0.11c0.08,0.03,0.17,0.04,0.25,0.02c0.02-0.01,0.03-0.01,0.05-0.02c0.06-0.03,0.12-0.07,0.16-0.13
				c0.08,0.03,0.17,0.03,0.25,0c0.01,0,0.02-0.01,0.02-0.01c0.07-0.03,0.13-0.08,0.17-0.14c0.08,0.02,0.16,0.01,0.24-0.02
				c0,0,0,0,0,0c0.08-0.03,0.15-0.1,0.19-0.17c0.08,0.02,0.16,0.01,0.23-0.02c0.01,0,0.01,0,0.01,0c0.09-0.05,0.16-0.12,0.2-0.21
				c0.07,0.02,0.15,0.01,0.22-0.02c0.02-0.01,0.03-0.01,0.04-0.02c0.08-0.04,0.14-0.11,0.17-0.2c0.06,0.01,0.12,0,0.18-0.03
				c0.02-0.01,0.04-0.02,0.06-0.03c0.07-0.05,0.13-0.12,0.15-0.2c0.05,0,0.1-0.01,0.15-0.03c0.03-0.01,0.06-0.03,0.08-0.05
				c0.07-0.06,0.12-0.13,0.14-0.22c0.05,0,0.09-0.01,0.13-0.03c0.04-0.01,0.07-0.04,0.1-0.06c0.06-0.06,0.1-0.13,0.12-0.21
				c0.03,0,0.06-0.01,0.09-0.02c0.05-0.02,0.09-0.05,0.12-0.08c0.06-0.06,0.1-0.14,0.11-0.22c0.02,0,0.05-0.01,0.07-0.02
				c0.05-0.02,0.1-0.06,0.14-0.1c0.06-0.07,0.1-0.16,0.09-0.26c0.03-0.01,0.05-0.01,0.08-0.02c0.06-0.03,0.11-0.07,0.15-0.12
				c0.05-0.07,0.08-0.16,0.08-0.24c0.01,0,0.02-0.01,0.03-0.01c0.07-0.03,0.12-0.08,0.17-0.14c0.05-0.07,0.07-0.16,0.06-0.24
				c0,0,0,0,0.01,0c0.08-0.03,0.14-0.09,0.18-0.16c0.04-0.08,0.06-0.17,0.04-0.25c0.08-0.04,0.14-0.1,0.18-0.17
				c0.04-0.08,0.05-0.16,0.03-0.24c0.07-0.04,0.12-0.1,0.15-0.18c0.03-0.09,0.04-0.18,0.01-0.26c0.08-0.05,0.13-0.12,0.16-0.2
				c0.03-0.09,0.03-0.18-0.01-0.26c0,0,0-0.01,0-0.01c0.08-0.05,0.13-0.13,0.16-0.22c0.02-0.09,0.01-0.17-0.02-0.24
				c0,0,0-0.01-0.01-0.02c0.07-0.05,0.11-0.13,0.13-0.21c0.01-0.08,0.01-0.15-0.02-0.22c0-0.01-0.01-0.02-0.02-0.03
				c0.06-0.06,0.1-0.14,0.11-0.22c0.01-0.07,0-0.13-0.03-0.19c-0.01-0.02-0.02-0.04-0.03-0.06c0.06-0.06,0.09-0.14,0.1-0.23
				c0-0.06-0.01-0.12-0.03-0.17c-0.01-0.02-0.02-0.04-0.04-0.06c0.05-0.06,0.08-0.14,0.08-0.23c0-0.05-0.01-0.1-0.03-0.14
				c-0.01-0.03-0.03-0.06-0.05-0.08c0.05-0.07,0.06-0.15,0.06-0.23c0-0.05-0.01-0.09-0.03-0.12c-0.02-0.05-0.05-0.09-0.09-0.12
				c0.05-0.08,0.07-0.17,0.06-0.26c-0.01-0.04-0.02-0.07-0.03-0.09c-0.02-0.05-0.05-0.09-0.09-0.13c0.04-0.08,0.05-0.16,0.04-0.25
				c-0.01-0.03-0.01-0.05-0.02-0.07c-0.02-0.06-0.06-0.1-0.11-0.14c0.03-0.08,0.04-0.16,0.02-0.25c-0.01-0.02-0.01-0.04-0.02-0.05
				c-0.03-0.06-0.07-0.12-0.13-0.16c0.03-0.08,0.03-0.17,0-0.25c-0.01-0.02-0.01-0.02-0.01-0.02c-0.03-0.07-0.08-0.13-0.14-0.17
				C1056.78,696.33,1056.77,696.24,1056.74,696.17z M1044.9,701.14c-1.18-2.82,0.14-6.06,2.96-7.25c2.82-1.18,6.06,0.14,7.25,2.96
				c1.18,2.82-0.15,6.06-2.96,7.24C1049.32,705.28,1046.08,703.96,1044.9,701.14z"/>
			
				<radialGradient id="SVGID_25_" cx="1105.2179" cy="813.1926" r="14.585" gradientTransform="matrix(0.9221 -0.3869 0.3869 0.9221 -286.8505 369.6804)" gradientUnits="userSpaceOnUse">
				<stop  offset="0.2363" style="stop-color:#815B22"/>
				<stop  offset="1" style="stop-color:#0D0000"/>
			</radialGradient>
			<path class="st26" d="M1047.26,692.47c-0.06,0.03-0.1,0.09-0.08,0.16c0.07,0.22,0.1,0.33,0.16,0.55
				c0.02,0.07,0.13,0.09,0.23,0.05c0.11-0.04,0.17-0.14,0.13-0.2c-0.11-0.2-0.17-0.3-0.28-0.5
				C1047.4,692.46,1047.32,692.44,1047.26,692.47z M1052.42,704.78c-0.11,0.04-0.16,0.14-0.13,0.2c0.11,0.2,0.17,0.3,0.28,0.5
				c0.03,0.06,0.11,0.08,0.17,0.05c0.06-0.03,0.1-0.09,0.08-0.16c-0.06-0.22-0.1-0.33-0.16-0.55
				C1052.64,704.76,1052.53,704.73,1052.42,704.78z M1056.37,696.18c-0.22,0.07-0.33,0.1-0.55,0.16c-0.06,0.02-0.09,0.13-0.05,0.23
				c0.05,0.11,0.14,0.16,0.2,0.13c0.2-0.11,0.3-0.17,0.5-0.28c0.06-0.03,0.08-0.11,0.05-0.17
				C1056.51,696.2,1056.44,696.16,1056.37,696.18z M1043.63,701.82c0.22-0.06,0.33-0.1,0.55-0.16c0.06-0.02,0.09-0.13,0.05-0.23
				c-0.05-0.11-0.14-0.17-0.2-0.13c-0.2,0.11-0.3,0.17-0.5,0.28c-0.06,0.03-0.08,0.11-0.05,0.17
				C1043.49,701.8,1043.56,701.84,1043.63,701.82z M1052.37,693.2c0.11,0.04,0.21,0.02,0.23-0.05c0.06-0.22,0.09-0.33,0.16-0.55
				c0.02-0.07-0.02-0.13-0.08-0.16c-0.06-0.03-0.14,0-0.17,0.05c-0.11,0.2-0.16,0.3-0.27,0.5
				C1052.21,693.06,1052.26,693.15,1052.37,693.2z M1047.63,704.8c-0.11-0.04-0.22-0.02-0.23,0.05c-0.06,0.22-0.09,0.33-0.16,0.55
				c-0.02,0.07,0.02,0.13,0.08,0.16c0.06,0.03,0.14,0,0.17-0.06c0.11-0.2,0.17-0.3,0.27-0.5
				C1047.79,704.94,1047.74,704.84,1047.63,704.8z M1056,701.24c-0.06-0.03-0.15,0.02-0.2,0.13c-0.04,0.11-0.02,0.21,0.05,0.23
				c0.22,0.06,0.33,0.09,0.55,0.16c0.07,0.02,0.13-0.02,0.16-0.08c0.03-0.06,0-0.14-0.06-0.17
				C1056.3,701.4,1056.2,701.35,1056,701.24z M1044,696.76c0.06,0.03,0.15-0.02,0.2-0.13c0.04-0.11,0.02-0.21-0.05-0.23
				c-0.22-0.06-0.33-0.09-0.55-0.16c-0.07-0.02-0.13,0.02-0.16,0.08c-0.02,0.06,0,0.14,0.06,0.17
				C1043.7,696.6,1043.8,696.65,1044,696.76z M1049.96,692.73c0.12,0,0.21-0.07,0.2-0.13c-0.02-0.23-0.04-0.34-0.07-0.57
				c-0.01-0.07-0.07-0.11-0.14-0.11c-0.07,0-0.13,0.05-0.13,0.12c-0.02,0.23-0.04,0.34-0.06,0.57
				C1049.75,692.67,1049.84,692.73,1049.96,692.73z M1050.04,705.27c-0.12,0-0.2,0.07-0.2,0.13c0.03,0.23,0.04,0.34,0.07,0.57
				c0.01,0.07,0.07,0.11,0.14,0.11c0.07,0,0.13-0.05,0.13-0.12c0.02-0.23,0.04-0.34,0.06-0.57
				C1050.25,705.33,1050.16,705.27,1050.04,705.27z M1056.97,698.82c-0.23-0.02-0.34-0.04-0.57-0.06c-0.07-0.01-0.13,0.08-0.13,0.2
				c0,0.12,0.07,0.21,0.13,0.2c0.23-0.03,0.34-0.04,0.57-0.07c0.07-0.01,0.12-0.07,0.11-0.14
				C1057.08,698.89,1057.03,698.83,1056.97,698.82z M1043.03,699.18c0.23,0.02,0.34,0.04,0.57,0.06c0.07,0.01,0.13-0.08,0.13-0.2
				c0-0.12-0.07-0.2-0.13-0.2c-0.23,0.03-0.34,0.04-0.57,0.07c-0.07,0.01-0.12,0.07-0.11,0.14
				C1042.92,699.11,1042.97,699.17,1043.03,699.18z M1054.4,694.54c0.08,0.08,0.19,0.1,0.23,0.04c0.14-0.18,0.21-0.27,0.35-0.45
				c0.04-0.05,0.03-0.13-0.02-0.18c-0.05-0.05-0.13-0.06-0.18-0.01c-0.18,0.14-0.26,0.22-0.44,0.36
				C1054.3,694.35,1054.32,694.46,1054.4,694.54z M1045.6,703.46c-0.08-0.08-0.19-0.1-0.23-0.04c-0.14,0.18-0.21,0.27-0.36,0.45
				c-0.04,0.05-0.03,0.13,0.02,0.18c0.05,0.05,0.13,0.06,0.18,0.01c0.18-0.14,0.27-0.21,0.44-0.36
				C1045.7,703.65,1045.68,703.54,1045.6,703.46z M1054.69,703.35c-0.04-0.05-0.15-0.04-0.23,0.05c-0.08,0.08-0.1,0.19-0.04,0.23
				c0.18,0.14,0.27,0.21,0.45,0.35c0.05,0.04,0.13,0.03,0.18-0.02c0.05-0.05,0.06-0.12,0.01-0.18
				C1054.91,703.62,1054.84,703.53,1054.69,703.35z M1045.31,694.65c0.04,0.05,0.15,0.04,0.23-0.05c0.08-0.08,0.1-0.19,0.04-0.24
				c-0.18-0.14-0.27-0.21-0.45-0.35c-0.05-0.04-0.13-0.03-0.18,0.02c-0.05,0.05-0.06,0.12-0.01,0.18
				C1045.09,694.38,1045.16,694.47,1045.31,694.65z M1047.94,693.08c0.11-0.04,0.17-0.13,0.14-0.19c-0.1-0.21-0.15-0.31-0.25-0.52
				c-0.03-0.06-0.1-0.09-0.17-0.06c-0.06,0.02-0.11,0.09-0.09,0.15c0.05,0.22,0.08,0.33,0.13,0.56
				C1047.72,693.09,1047.83,693.12,1047.94,693.08z M1052.06,704.92c-0.11,0.04-0.17,0.13-0.14,0.19c0.1,0.21,0.15,0.31,0.25,0.52
				c0.03,0.06,0.1,0.09,0.17,0.06c0.06-0.02,0.11-0.09,0.09-0.15c-0.05-0.22-0.08-0.33-0.13-0.56
				C1052.28,704.91,1052.17,704.88,1052.06,704.92z M1056.54,696.58c-0.22,0.05-0.33,0.08-0.56,0.13c-0.07,0.02-0.1,0.12-0.06,0.23
				c0.04,0.11,0.13,0.17,0.19,0.14c0.21-0.1,0.31-0.15,0.51-0.25c0.06-0.03,0.09-0.1,0.06-0.17
				C1056.67,696.61,1056.6,696.57,1056.54,696.58z M1043.46,701.42c0.22-0.05,0.33-0.08,0.56-0.13c0.07-0.02,0.1-0.12,0.06-0.23
				c-0.04-0.11-0.13-0.17-0.19-0.14c-0.21,0.1-0.31,0.15-0.52,0.25c-0.06,0.03-0.09,0.1-0.06,0.17S1043.4,701.43,1043.46,701.42z
				 M1052.73,693.36c0.1,0.05,0.21,0.03,0.24-0.03c0.08-0.22,0.11-0.32,0.19-0.54c0.02-0.06-0.01-0.13-0.07-0.16
				c-0.06-0.03-0.14-0.01-0.17,0.04c-0.12,0.19-0.18,0.29-0.3,0.48C1052.57,693.21,1052.62,693.31,1052.73,693.36z M1047.27,704.64
				c-0.11-0.05-0.21-0.03-0.24,0.03c-0.08,0.22-0.11,0.32-0.19,0.54c-0.02,0.06,0.01,0.13,0.07,0.16c0.06,0.03,0.14,0.01,0.17-0.04
				c0.12-0.19,0.18-0.29,0.3-0.48C1047.43,704.79,1047.38,704.69,1047.27,704.64z M1055.85,701.61c-0.06-0.04-0.15,0.01-0.21,0.12
				c-0.05,0.11-0.03,0.22,0.03,0.24c0.22,0.08,0.32,0.11,0.54,0.19c0.06,0.02,0.13-0.01,0.16-0.07c0.03-0.06,0.01-0.14-0.04-0.17
				C1056.14,701.79,1056.04,701.73,1055.85,701.61z M1044.15,696.39c0.06,0.04,0.15-0.01,0.21-0.12c0.05-0.11,0.03-0.21-0.03-0.24
				c-0.22-0.08-0.32-0.11-0.54-0.19c-0.06-0.02-0.13,0.01-0.16,0.07c-0.03,0.06-0.01,0.14,0.04,0.17
				C1043.86,696.21,1043.96,696.27,1044.15,696.39z M1050.35,692.74c0.12,0.01,0.21-0.05,0.21-0.12c-0.01-0.23-0.02-0.34-0.03-0.57
				c0-0.07-0.06-0.12-0.13-0.12c-0.07,0-0.13,0.04-0.14,0.11c-0.04,0.22-0.06,0.34-0.1,0.56
				C1050.15,692.67,1050.23,692.74,1050.35,692.74z M1049.65,705.26c-0.12-0.01-0.21,0.05-0.21,0.12c0.01,0.23,0.02,0.34,0.03,0.57
				c0,0.07,0.06,0.12,0.13,0.12s0.13-0.04,0.14-0.11c0.04-0.23,0.06-0.34,0.09-0.56C1049.85,705.33,1049.77,705.26,1049.65,705.26z
				 M1056.97,699.25c-0.23-0.04-0.34-0.06-0.56-0.09c-0.07-0.01-0.14,0.07-0.14,0.19c-0.01,0.12,0.05,0.21,0.12,0.21
				c0.23-0.01,0.34-0.02,0.57-0.03c0.07,0,0.12-0.06,0.12-0.13C1057.07,699.33,1057.03,699.26,1056.97,699.25z M1043.04,698.75
				c0.23,0.04,0.34,0.06,0.56,0.09c0.07,0.01,0.14-0.07,0.14-0.19c0.01-0.12-0.05-0.21-0.12-0.21c-0.23,0.01-0.34,0.02-0.57,0.03
				c-0.07,0-0.12,0.06-0.12,0.13C1042.93,698.67,1042.97,698.73,1043.04,698.75z M1054.64,694.59c-0.05,0.04-0.04,0.15,0.03,0.24
				c0.08,0.09,0.19,0.11,0.23,0.06c0.15-0.17,0.23-0.26,0.38-0.42c0.05-0.05,0.04-0.13,0-0.18s-0.12-0.06-0.18-0.02
				C1054.92,694.39,1054.83,694.45,1054.64,694.59z M1045.36,703.41c0.05-0.04,0.05-0.15-0.03-0.24c-0.08-0.09-0.19-0.11-0.23-0.06
				c-0.15,0.17-0.23,0.26-0.38,0.43c-0.05,0.05-0.04,0.13,0,0.18c0.04,0.05,0.12,0.06,0.18,0.02
				C1045.08,703.61,1045.18,703.55,1045.36,703.41z M1054.41,703.64c-0.04-0.05-0.15-0.05-0.24,0.03c-0.09,0.08-0.11,0.19-0.06,0.23
				c0.17,0.15,0.26,0.23,0.42,0.38c0.05,0.04,0.13,0.04,0.18,0c0.05-0.05,0.06-0.12,0.03-0.18
				C1054.61,703.92,1054.55,703.83,1054.41,703.64z M1045.59,694.36c0.04,0.06,0.15,0.05,0.24-0.03c0.09-0.08,0.11-0.19,0.06-0.23
				c-0.17-0.15-0.26-0.23-0.42-0.38c-0.05-0.05-0.13-0.04-0.18,0c-0.05,0.05-0.06,0.12-0.03,0.18
				C1045.39,694.08,1045.45,694.18,1045.59,694.36z M1048.49,692.78c-0.08-0.21-0.13-0.32-0.21-0.53c-0.02-0.06-0.1-0.09-0.16-0.07
				c-0.07,0.02-0.11,0.08-0.1,0.15c0.04,0.22,0.06,0.34,0.09,0.56c0.01,0.07,0.11,0.11,0.23,0.08
				C1048.45,692.93,1048.51,692.84,1048.49,692.78z M1051.67,705.04c-0.11,0.03-0.18,0.12-0.16,0.18c0.08,0.21,0.13,0.32,0.21,0.53
				c0.02,0.06,0.1,0.09,0.16,0.07c0.07-0.02,0.11-0.08,0.1-0.15c-0.04-0.22-0.05-0.34-0.09-0.56
				C1051.88,705.05,1051.78,705.01,1051.67,705.04z M1056.68,697.02c-0.22,0.04-0.34,0.05-0.56,0.09c-0.07,0.01-0.11,0.11-0.07,0.23
				c0.03,0.11,0.12,0.18,0.18,0.15c0.21-0.08,0.32-0.13,0.53-0.21c0.06-0.03,0.09-0.1,0.07-0.16
				C1056.81,697.05,1056.75,697,1056.68,697.02z M1043.32,700.98c0.23-0.04,0.34-0.05,0.56-0.09c0.07-0.01,0.11-0.11,0.08-0.23
				c-0.03-0.11-0.12-0.18-0.18-0.16c-0.21,0.09-0.32,0.13-0.53,0.21c-0.06,0.02-0.09,0.09-0.07,0.16
				C1043.19,700.95,1043.25,701,1043.32,700.98z M1053.09,693.55c0.1,0.06,0.21,0.04,0.24-0.02c0.09-0.21,0.14-0.31,0.23-0.52
				c0.03-0.06,0-0.13-0.06-0.17s-0.14-0.02-0.17,0.03c-0.13,0.18-0.2,0.28-0.34,0.46C1052.95,693.39,1052.99,693.49,1053.09,693.55z
				 M1046.91,704.45c-0.1-0.06-0.21-0.04-0.24,0.02c-0.09,0.21-0.13,0.31-0.22,0.52c-0.03,0.06,0,0.13,0.06,0.17
				c0.06,0.03,0.14,0.02,0.17-0.03c0.13-0.18,0.2-0.28,0.34-0.46C1047.05,704.61,1047.01,704.51,1046.91,704.45z M1055.66,701.99
				c-0.05-0.04-0.15,0-0.21,0.11c-0.06,0.1-0.04,0.21,0.02,0.24c0.21,0.09,0.32,0.13,0.52,0.23c0.06,0.03,0.13,0,0.17-0.06
				c0.03-0.06,0.02-0.14-0.03-0.17C1055.94,702.19,1055.85,702.12,1055.66,701.99z M1044.34,696.01c0.06,0.04,0.16,0,0.21-0.11
				c0.06-0.1,0.04-0.21-0.02-0.24c-0.21-0.09-0.32-0.13-0.52-0.23c-0.06-0.03-0.13,0-0.17,0.06c-0.03,0.06-0.02,0.14,0.03,0.17
				C1044.06,695.81,1044.15,695.88,1044.34,696.01z M1050.76,692.78c0.12,0.01,0.21-0.04,0.21-0.11c0-0.23,0-0.34,0.01-0.57
				c0-0.07-0.05-0.12-0.12-0.13c-0.07-0.01-0.13,0.03-0.15,0.1c-0.05,0.22-0.08,0.33-0.13,0.56
				C1050.56,692.69,1050.64,692.77,1050.76,692.78z M1049.24,705.22c-0.12-0.01-0.21,0.04-0.21,0.11c0,0.23,0,0.34-0.01,0.57
				c0,0.07,0.05,0.12,0.12,0.13c0.07,0.01,0.13-0.03,0.15-0.1c0.05-0.22,0.08-0.33,0.13-0.56
				C1049.44,705.31,1049.36,705.23,1049.24,705.22z M1056.38,699.58c-0.06-0.01-0.14,0.06-0.16,0.18c-0.01,0.12,0.04,0.21,0.11,0.21
				c0.23,0,0.34,0,0.57,0.01c0.07,0,0.12-0.06,0.13-0.12c0.01-0.07-0.03-0.13-0.1-0.15C1056.71,699.66,1056.6,699.63,1056.38,699.58
				z M1043.62,698.42c0.07,0.02,0.14-0.06,0.16-0.18c0.01-0.12-0.04-0.21-0.11-0.21c-0.23,0-0.34,0-0.57-0.01
				c-0.07,0-0.12,0.05-0.13,0.12c-0.01,0.07,0.03,0.13,0.1,0.15C1043.29,698.34,1043.4,698.37,1043.62,698.42z M1054.92,694.9
				c-0.06,0.04-0.06,0.15,0.02,0.24c0.07,0.09,0.18,0.12,0.23,0.07c0.16-0.16,0.25-0.24,0.41-0.4c0.05-0.05,0.05-0.12,0.01-0.18
				c-0.04-0.05-0.12-0.07-0.17-0.04C1055.21,694.72,1055.11,694.78,1054.92,694.9z M1045.08,703.1c0.06-0.04,0.06-0.15-0.02-0.24
				c-0.07-0.09-0.18-0.12-0.23-0.08c-0.16,0.16-0.25,0.24-0.41,0.4c-0.05,0.05-0.05,0.12-0.01,0.18c0.04,0.05,0.12,0.07,0.17,0.04
				C1044.79,703.28,1044.89,703.22,1045.08,703.1z M1053.86,703.94c-0.09,0.07-0.12,0.18-0.07,0.23c0.16,0.16,0.24,0.25,0.4,0.41
				c0.05,0.05,0.12,0.05,0.18,0.01c0.05-0.04,0.07-0.12,0.04-0.17c-0.12-0.19-0.18-0.29-0.3-0.49
				C1054.06,703.86,1053.95,703.86,1053.86,703.94z M1046.14,694.06c0.09-0.07,0.12-0.18,0.07-0.23c-0.16-0.16-0.24-0.25-0.4-0.41
				c-0.05-0.05-0.13-0.05-0.18-0.01c-0.05,0.04-0.07,0.12-0.04,0.17c0.12,0.19,0.18,0.29,0.3,0.49
				C1045.94,694.14,1046.05,694.14,1046.14,694.06z M1048.73,692.86c0.12-0.02,0.19-0.11,0.17-0.17c-0.07-0.22-0.11-0.33-0.18-0.54
				c-0.02-0.06-0.09-0.1-0.16-0.08c-0.07,0.01-0.12,0.07-0.11,0.14c0.02,0.23,0.03,0.34,0.05,0.57
				C1048.51,692.84,1048.61,692.89,1048.73,692.86z M1051.27,705.14c-0.12,0.02-0.19,0.11-0.17,0.17c0.07,0.22,0.1,0.33,0.18,0.54
				c0.02,0.06,0.09,0.1,0.16,0.08c0.07-0.01,0.12-0.07,0.11-0.14c-0.02-0.23-0.03-0.34-0.05-0.57
				C1051.49,705.16,1051.39,705.11,1051.27,705.14z M1056.79,697.45c-0.23,0.02-0.34,0.03-0.57,0.05c-0.07,0.01-0.11,0.11-0.09,0.22
				c0.02,0.11,0.11,0.19,0.17,0.17c0.22-0.07,0.33-0.11,0.54-0.18c0.07-0.02,0.1-0.09,0.09-0.16
				C1056.92,697.5,1056.86,697.45,1056.79,697.45z M1043.21,700.55c0.23-0.02,0.34-0.03,0.57-0.05c0.07-0.01,0.11-0.11,0.09-0.22
				c-0.02-0.11-0.11-0.19-0.17-0.17c-0.22,0.07-0.33,0.11-0.54,0.18c-0.07,0.02-0.1,0.09-0.09,0.16
				C1043.08,700.51,1043.14,700.56,1043.21,700.55z M1053.44,693.76c0.1,0.07,0.21,0.06,0.24,0c0.1-0.2,0.16-0.31,0.26-0.51
				c0.03-0.06,0.01-0.13-0.05-0.17c-0.06-0.04-0.13-0.03-0.18,0.02c-0.15,0.18-0.22,0.27-0.36,0.44
				C1053.3,693.59,1053.34,693.7,1053.44,693.76z M1046.56,704.24c-0.1-0.06-0.21-0.06-0.24,0c-0.1,0.2-0.16,0.3-0.26,0.51
				c-0.03,0.06-0.01,0.13,0.05,0.17c0.06,0.04,0.13,0.03,0.18-0.02c0.15-0.18,0.22-0.26,0.36-0.44
				C1046.7,704.41,1046.66,704.3,1046.56,704.24z M1055.46,702.35c-0.05-0.04-0.15-0.01-0.22,0.09c-0.06,0.1-0.06,0.21,0,0.24
				c0.2,0.1,0.31,0.16,0.51,0.26c0.06,0.03,0.13,0.01,0.17-0.05c0.04-0.06,0.03-0.13-0.02-0.18
				C1055.72,702.56,1055.64,702.49,1055.46,702.35z M1044.54,695.65c0.05,0.04,0.15,0,0.22-0.09c0.06-0.1,0.06-0.21,0-0.24
				c-0.2-0.1-0.3-0.16-0.51-0.26c-0.06-0.03-0.13-0.01-0.17,0.05c-0.04,0.06-0.03,0.13,0.02,0.18
				C1044.28,695.43,1044.36,695.51,1044.54,695.65z M1051.16,692.84c0.12,0.02,0.22-0.03,0.22-0.09c0.02-0.23,0.03-0.34,0.04-0.57
				c0.01-0.07-0.04-0.13-0.11-0.14c-0.07-0.01-0.13,0.02-0.16,0.09c-0.07,0.22-0.1,0.33-0.17,0.55
				C1050.97,692.74,1051.05,692.82,1051.16,692.84z M1048.84,705.16c-0.12-0.02-0.21,0.03-0.22,0.09c-0.02,0.23-0.03,0.34-0.04,0.57
				c0,0.07,0.04,0.13,0.11,0.14c0.07,0.01,0.14-0.02,0.16-0.09c0.07-0.22,0.1-0.33,0.17-0.55
				C1049.03,705.26,1048.96,705.18,1048.84,705.16z M1056.33,699.99c-0.06-0.02-0.15,0.06-0.17,0.17c-0.02,0.12,0.03,0.21,0.1,0.22
				c0.23,0.02,0.34,0.03,0.57,0.04c0.07,0,0.13-0.05,0.14-0.11c0.01-0.07-0.02-0.13-0.09-0.15
				C1056.65,700.09,1056.54,700.06,1056.33,699.99z M1043.67,698.01c0.06,0.02,0.15-0.05,0.17-0.17c0.02-0.12-0.03-0.21-0.09-0.22
				c-0.23-0.02-0.34-0.03-0.57-0.04c-0.07-0.01-0.13,0.04-0.14,0.11c-0.01,0.07,0.02,0.14,0.09,0.15
				C1043.35,697.91,1043.46,697.94,1043.67,698.01z M1055.17,695.23c-0.06,0.03-0.06,0.14,0,0.24c0.07,0.1,0.17,0.13,0.22,0.09
				c0.17-0.15,0.26-0.22,0.43-0.37c0.05-0.04,0.06-0.12,0.02-0.18c-0.04-0.06-0.11-0.08-0.17-0.05
				C1055.48,695.07,1055.37,695.12,1055.17,695.23z M1044.83,702.77c0.06-0.03,0.06-0.14,0-0.24c-0.07-0.1-0.17-0.13-0.22-0.09
				c-0.17,0.15-0.26,0.22-0.43,0.37c-0.05,0.04-0.06,0.12-0.02,0.18c0.04,0.06,0.11,0.08,0.17,0.05
				C1044.52,702.93,1044.63,702.88,1044.83,702.77z M1053.53,704.18c-0.1,0.07-0.13,0.17-0.09,0.22c0.15,0.17,0.22,0.26,0.37,0.43
				c0.04,0.05,0.12,0.06,0.18,0.02c0.06-0.04,0.08-0.11,0.05-0.17c-0.11-0.2-0.16-0.3-0.27-0.5
				C1053.74,704.11,1053.63,704.11,1053.53,704.18z M1046.47,693.83c0.1-0.07,0.13-0.17,0.09-0.22c-0.15-0.17-0.22-0.26-0.37-0.43
				c-0.04-0.05-0.12-0.06-0.18-0.02c-0.06,0.04-0.08,0.11-0.05,0.17c0.11,0.2,0.16,0.3,0.27,0.5
				C1046.26,693.89,1046.37,693.89,1046.47,693.83z M1049.13,692.79c0.12-0.02,0.19-0.09,0.18-0.16c-0.06-0.22-0.08-0.33-0.14-0.55
				c-0.02-0.07-0.08-0.11-0.15-0.1c-0.07,0.01-0.12,0.07-0.12,0.13c0.01,0.23,0.01,0.34,0.02,0.57
				C1048.92,692.76,1049.02,692.81,1049.13,692.79z M1050.87,705.21c-0.12,0.02-0.19,0.09-0.18,0.16c0.06,0.22,0.08,0.33,0.14,0.55
				c0.02,0.07,0.08,0.11,0.15,0.09c0.07-0.01,0.12-0.07,0.12-0.13c-0.01-0.23-0.01-0.34-0.02-0.57
				C1051.08,705.24,1050.98,705.19,1050.87,705.21z M1056.88,697.9c-0.23,0.01-0.34,0.01-0.57,0.02c-0.07,0-0.12,0.1-0.1,0.22
				c0.02,0.11,0.09,0.19,0.16,0.18c0.22-0.06,0.33-0.08,0.55-0.14c0.07-0.02,0.1-0.08,0.1-0.15
				C1057.01,697.95,1056.95,697.9,1056.88,697.9z M1043.12,700.1c0.23-0.01,0.34-0.01,0.57-0.02c0.07,0,0.12-0.1,0.1-0.22
				c-0.02-0.12-0.09-0.19-0.16-0.18c-0.22,0.06-0.33,0.08-0.55,0.14c-0.07,0.02-0.11,0.08-0.1,0.15
				C1042.99,700.05,1043.05,700.1,1043.12,700.1z M1053.77,694c0.09,0.07,0.2,0.07,0.24,0.01c0.12-0.2,0.18-0.29,0.29-0.49
				c0.03-0.06,0.02-0.13-0.04-0.17c-0.05-0.04-0.13-0.04-0.18,0.01c-0.16,0.17-0.23,0.25-0.39,0.42
				C1053.65,693.82,1053.68,693.93,1053.77,694z M1046.22,704c-0.09-0.07-0.2-0.07-0.24-0.01c-0.12,0.2-0.17,0.29-0.29,0.49
				c-0.03,0.06-0.02,0.13,0.04,0.17c0.05,0.04,0.13,0.04,0.18-0.01c0.16-0.17,0.24-0.25,0.39-0.41
				C1046.35,704.18,1046.32,704.07,1046.22,704z M1055.23,702.7c-0.05-0.05-0.15-0.01-0.23,0.08c-0.07,0.09-0.07,0.2-0.01,0.24
				c0.2,0.12,0.29,0.18,0.49,0.29c0.06,0.03,0.13,0.01,0.17-0.04c0.04-0.05,0.04-0.13-0.01-0.18
				C1055.48,702.93,1055.39,702.85,1055.23,702.7z M1044.77,695.3c0.05,0.05,0.15,0.02,0.23-0.08c0.07-0.09,0.07-0.2,0.01-0.24
				c-0.2-0.12-0.29-0.17-0.49-0.29c-0.06-0.03-0.13-0.01-0.17,0.04c-0.04,0.05-0.04,0.13,0.01,0.18
				C1044.52,695.07,1044.61,695.15,1044.77,695.3z M1051.56,692.93c0.11,0.03,0.22-0.01,0.23-0.08c0.03-0.23,0.05-0.34,0.08-0.57
				c0.01-0.07-0.04-0.13-0.1-0.14c-0.07-0.02-0.14,0.02-0.16,0.08c-0.08,0.21-0.12,0.32-0.2,0.53
				C1051.38,692.82,1051.45,692.9,1051.56,692.93z M1048.44,705.07c-0.11-0.03-0.22,0.01-0.23,0.08c-0.03,0.23-0.05,0.34-0.08,0.57
				c-0.01,0.07,0.04,0.13,0.1,0.14c0.06,0.02,0.14-0.01,0.16-0.08c0.08-0.21,0.12-0.32,0.2-0.53
				C1048.62,705.18,1048.55,705.1,1048.44,705.07z M1056.25,700.4c-0.06-0.02-0.15,0.04-0.18,0.16c-0.03,0.11,0.01,0.22,0.08,0.23
				c0.23,0.03,0.34,0.05,0.57,0.08c0.07,0.01,0.13-0.04,0.15-0.1c0.02-0.06-0.01-0.14-0.08-0.16
				C1056.57,700.52,1056.46,700.48,1056.25,700.4z M1043.75,697.6c0.06,0.02,0.15-0.05,0.18-0.16c0.03-0.11-0.01-0.22-0.08-0.23
				c-0.23-0.03-0.34-0.05-0.56-0.08c-0.07-0.01-0.13,0.04-0.15,0.1c-0.02,0.07,0.01,0.14,0.08,0.16
				C1043.43,697.48,1043.54,697.52,1043.75,697.6z M1055.41,695.57c-0.06,0.03-0.07,0.14-0.01,0.24c0.06,0.1,0.16,0.14,0.22,0.1
				c0.18-0.14,0.27-0.21,0.46-0.34c0.05-0.04,0.07-0.12,0.03-0.17c-0.03-0.06-0.11-0.09-0.17-0.06
				C1055.72,695.43,1055.62,695.48,1055.41,695.57z M1044.59,702.43c0.06-0.03,0.07-0.14,0.01-0.24c-0.06-0.1-0.16-0.14-0.22-0.1
				c-0.18,0.14-0.28,0.21-0.46,0.34c-0.05,0.04-0.06,0.12-0.03,0.18c0.03,0.06,0.11,0.09,0.17,0.06
				C1044.28,702.57,1044.38,702.52,1044.59,702.43z M1053.19,704.4c-0.1,0.06-0.14,0.16-0.1,0.22c0.14,0.18,0.21,0.27,0.34,0.46
				c0.04,0.05,0.12,0.06,0.17,0.03c0.06-0.03,0.09-0.11,0.06-0.17c-0.09-0.21-0.14-0.31-0.23-0.52
				C1053.4,704.35,1053.29,704.34,1053.19,704.4z M1046.81,693.6c0.1-0.06,0.14-0.16,0.1-0.21c-0.14-0.18-0.21-0.28-0.34-0.46
				c-0.04-0.05-0.12-0.06-0.18-0.03c-0.06,0.03-0.09,0.11-0.06,0.17c0.09,0.21,0.14,0.31,0.23,0.52
				C1046.6,693.65,1046.71,693.66,1046.81,693.6z M1049.57,692.75c0.12-0.01,0.2-0.08,0.19-0.15c-0.04-0.22-0.06-0.34-0.1-0.56
				c-0.01-0.07-0.08-0.11-0.14-0.11c-0.07,0-0.12,0.06-0.13,0.12c-0.01,0.23-0.02,0.34-0.02,0.57
				C1049.36,692.7,1049.45,692.76,1049.57,692.75z M1050.43,705.25c-0.12,0.01-0.2,0.08-0.19,0.15c0.04,0.23,0.06,0.34,0.1,0.56
				c0.01,0.07,0.08,0.11,0.14,0.1c0.07,0,0.12-0.06,0.13-0.12c0.01-0.23,0.01-0.34,0.02-0.57
				C1050.64,705.3,1050.55,705.24,1050.43,705.25z M1056.94,698.38c-0.23-0.01-0.34-0.01-0.57-0.02c-0.07,0-0.13,0.09-0.12,0.21
				c0.01,0.12,0.08,0.2,0.15,0.19c0.22-0.04,0.34-0.06,0.56-0.1c0.07-0.01,0.11-0.08,0.11-0.14
				C1057.06,698.44,1057.01,698.39,1056.94,698.38z M1043.06,699.62c0.23,0.01,0.34,0.02,0.57,0.02c0.07,0,0.13-0.09,0.12-0.21
				c-0.01-0.12-0.08-0.2-0.15-0.19c-0.23,0.04-0.34,0.06-0.56,0.1c-0.07,0.01-0.11,0.08-0.11,0.14
				C1042.94,699.56,1042.99,699.61,1043.06,699.62z M1054.11,694.27c0.09,0.08,0.2,0.08,0.24,0.03c0.13-0.19,0.2-0.28,0.33-0.47
				c0.04-0.06,0.02-0.13-0.03-0.18c-0.05-0.05-0.13-0.05-0.18,0c-0.17,0.15-0.25,0.23-0.42,0.39
				C1054,694.09,1054.03,694.2,1054.11,694.27z M1045.89,703.73c-0.09-0.08-0.2-0.08-0.24-0.03c-0.13,0.19-0.2,0.28-0.33,0.47
				c-0.04,0.06-0.03,0.13,0.03,0.18c0.05,0.04,0.13,0.05,0.18,0c0.17-0.15,0.25-0.23,0.42-0.39
				C1046,703.91,1045.97,703.8,1045.89,703.73z M1054.96,703.05c-0.05-0.05-0.15-0.03-0.23,0.06c-0.08,0.09-0.09,0.2-0.03,0.24
				c0.19,0.13,0.28,0.2,0.47,0.33c0.06,0.04,0.13,0.02,0.17-0.03c0.04-0.05,0.05-0.13,0-0.18
				C1055.19,703.31,1055.11,703.22,1054.96,703.05z M1045.04,694.95c0.04,0.05,0.15,0.03,0.23-0.06c0.08-0.09,0.08-0.2,0.03-0.24
				c-0.19-0.13-0.28-0.2-0.47-0.33c-0.06-0.04-0.13-0.02-0.18,0.03c-0.04,0.05-0.05,0.13,0,0.18
				C1044.81,694.69,1044.89,694.78,1045.04,694.95z M1051.98,693.05c0.11,0.04,0.21,0,0.23-0.06c0.05-0.22,0.07-0.34,0.12-0.56
				c0.02-0.07-0.03-0.13-0.09-0.15c-0.06-0.02-0.14,0-0.16,0.07c-0.1,0.21-0.14,0.31-0.24,0.52
				C1051.81,692.93,1051.87,693.02,1051.98,693.05z M1048.02,704.95c-0.11-0.04-0.22,0-0.23,0.06c-0.05,0.22-0.07,0.33-0.12,0.56
				c-0.01,0.07,0.03,0.13,0.09,0.15c0.07,0.02,0.14,0,0.16-0.07c0.1-0.21,0.14-0.31,0.24-0.52
				C1048.19,705.07,1048.13,704.98,1048.02,704.95z M1056.13,700.84c-0.06-0.03-0.15,0.03-0.19,0.15c-0.04,0.11,0,0.22,0.06,0.23
				c0.22,0.05,0.33,0.07,0.56,0.12c0.07,0.01,0.13-0.03,0.15-0.09c0.02-0.06,0-0.14-0.07-0.16
				C1056.45,700.98,1056.34,700.93,1056.13,700.84z M1043.87,697.16c0.06,0.03,0.15-0.03,0.19-0.15c0.04-0.11,0-0.22-0.06-0.23
				c-0.22-0.05-0.34-0.07-0.56-0.12c-0.07-0.02-0.13,0.03-0.15,0.09c-0.02,0.06,0,0.14,0.07,0.17
				C1043.55,697.02,1043.66,697.07,1043.87,697.16z M1055.64,695.96c-0.06,0.02-0.08,0.13-0.03,0.24c0.05,0.1,0.15,0.15,0.21,0.12
				c0.19-0.12,0.29-0.19,0.48-0.31c0.06-0.04,0.07-0.11,0.04-0.17c-0.03-0.06-0.1-0.09-0.16-0.07
				C1055.96,695.84,1055.85,695.88,1055.64,695.96z M1044.36,702.04c0.06-0.02,0.08-0.13,0.03-0.24c-0.05-0.11-0.15-0.16-0.21-0.12
				c-0.19,0.12-0.29,0.19-0.48,0.31c-0.06,0.04-0.07,0.11-0.04,0.17c0.03,0.06,0.1,0.09,0.16,0.07
				C1044.04,702.16,1044.15,702.12,1044.36,702.04z M1052.8,704.6c-0.1,0.05-0.15,0.15-0.12,0.21c0.12,0.19,0.19,0.29,0.31,0.48
				c0.04,0.06,0.11,0.07,0.17,0.04c0.06-0.03,0.09-0.1,0.07-0.16c-0.08-0.21-0.12-0.32-0.2-0.54
				C1053.02,704.57,1052.91,704.55,1052.8,704.6z M1047.32,693.19c-0.12-0.19-0.19-0.29-0.31-0.48c-0.04-0.06-0.11-0.07-0.17-0.04
				c-0.06,0.03-0.09,0.1-0.07,0.16c0.08,0.21,0.12,0.32,0.2,0.54c0.02,0.06,0.13,0.08,0.24,0.03
				C1047.3,693.34,1047.35,693.24,1047.32,693.19z"/>
			
				<radialGradient id="SVGID_26_" cx="1104.4258" cy="813.9175" r="14.4361" gradientTransform="matrix(0.9221 -0.3869 0.3869 0.9221 -286.8505 369.6804)" gradientUnits="userSpaceOnUse">
				<stop  offset="0" style="stop-color:#AFA374"/>
				<stop  offset="0.5611" style="stop-color:#230600"/>
				<stop  offset="1" style="stop-color:#000000"/>
			</radialGradient>
			<path class="st27" d="M1047.49,693.03c-3.3,1.38-4.85,5.18-3.46,8.48c1.38,3.3,5.18,4.85,8.48,3.46c3.3-1.38,4.85-5.18,3.46-8.48
				C1054.59,693.2,1050.79,691.65,1047.49,693.03z M1052.2,704.25c-2.9,1.22-6.24-0.15-7.46-3.05c-1.22-2.9,0.15-6.24,3.05-7.46
				c2.9-1.22,6.24,0.15,7.46,3.05C1056.47,699.7,1055.11,703.04,1052.2,704.25z"/>
			<g>
				
					<radialGradient id="SVGID_27_" cx="1104.8827" cy="814.2874" r="23.779" gradientTransform="matrix(0.9221 -0.3869 0.3869 0.9221 -286.8505 369.6804)" gradientUnits="userSpaceOnUse">
					<stop  offset="0" style="stop-color:#AFAD98"/>
					<stop  offset="0.18" style="stop-color:#AFAD98"/>
					<stop  offset="0.1995" style="stop-color:#AFAC90"/>
					<stop  offset="0.2289" style="stop-color:#AFA374"/>
					<stop  offset="0.5611" style="stop-color:#230600"/>
					<stop  offset="1" style="stop-color:#000000"/>
				</radialGradient>
				<path class="st28" d="M1044.21,701.43c-1.34-3.2,0.16-6.88,3.36-8.22l0,0c3.2-1.34,6.87,0.16,8.22,3.36l0,0
					c1.34,3.2-0.16,6.88-3.36,8.22l0,0C1049.23,706.13,1045.55,704.62,1044.21,701.43L1044.21,701.43z M1044.41,701.35
					c1.3,3.08,4.84,4.53,7.93,3.24l0,0c3.08-1.3,4.53-4.84,3.24-7.93l0,0c-1.3-3.09-4.85-4.53-7.93-3.25l0,0
					C1044.57,694.71,1043.12,698.26,1044.41,701.35L1044.41,701.35z"/>
			</g>
			<g>
				<g>
					
						<radialGradient id="SVGID_28_" cx="1105.4365" cy="815.41" r="4.2818" gradientTransform="matrix(0.9221 -0.3869 0.3869 0.9221 -286.8505 369.6804)" gradientUnits="userSpaceOnUse">
						<stop  offset="0.2363" style="stop-color:#926724"/>
						<stop  offset="1" style="stop-color:#0C0000"/>
					</radialGradient>
					<path class="st29" d="M1051.73,698.28c0.4,0.95-0.05,2.05-1,2.45c-0.95,0.4-2.05-0.05-2.45-1c-0.4-0.96,0.05-2.05,1-2.45
						C1050.23,696.87,1051.33,697.32,1051.73,698.28z"/>
					
						<radialGradient id="SVGID_29_" cx="1105.4507" cy="819.3929" r="3.3812" gradientTransform="matrix(0.9221 -0.3869 0.3869 0.9221 -286.8505 369.6804)" gradientUnits="userSpaceOnUse">
						<stop  offset="0" style="stop-color:#AFAD98"/>
						<stop  offset="0.18" style="stop-color:#AFAD98"/>
						<stop  offset="0.1995" style="stop-color:#AFAC90"/>
						<stop  offset="0.2289" style="stop-color:#AFA374"/>
						<stop  offset="0.5611" style="stop-color:#230600"/>
						<stop  offset="1" style="stop-color:#000000"/>
					</radialGradient>
					<path class="st30" d="M1051.57,698.34c0.36,0.87-0.04,1.87-0.91,2.23c-0.87,0.36-1.87-0.04-2.23-0.91
						c-0.36-0.87,0.04-1.87,0.91-2.23C1050.21,697.07,1051.21,697.47,1051.57,698.34z"/>
					
						<radialGradient id="SVGID_30_" cx="1105.3739" cy="818.4331" r="3.4263" gradientTransform="matrix(0.9221 -0.3869 0.3869 0.9221 -286.8505 369.6804)" gradientUnits="userSpaceOnUse">
						<stop  offset="0.2363" style="stop-color:#926724"/>
						<stop  offset="1" style="stop-color:#0C0000"/>
					</radialGradient>
					<path class="st31" d="M1051.39,698.42c0.32,0.77-0.04,1.65-0.81,1.98c-0.77,0.32-1.65-0.04-1.97-0.81
						c-0.32-0.77,0.04-1.65,0.81-1.98C1050.18,697.29,1051.07,697.65,1051.39,698.42z"/>
				</g>
				<path d="M1050.82,698.66c0.19,0.46-0.02,0.98-0.48,1.17c-0.45,0.19-0.98-0.02-1.17-0.48c-0.19-0.46,0.02-0.98,0.48-1.17
					C1050.11,697.99,1050.63,698.2,1050.82,698.66z"/>
				<path d="M1050.7,698.71c0.16,0.39-0.02,0.84-0.41,1c-0.39,0.16-0.84-0.02-1-0.41c-0.17-0.39,0.02-0.84,0.41-1
					C1050.09,698.13,1050.54,698.32,1050.7,698.71z"/>
			</g>
		</g>
		<g>
			
				<radialGradient id="SVGID_31_" cx="1119.4373" cy="868.1594" r="0.6942" gradientTransform="matrix(0.9311 -0.3647 0.3647 0.9311 -308.9269 298.9216)" gradientUnits="userSpaceOnUse">
				<stop  offset="0.2363" style="stop-color:#6D470E"/>
				<stop  offset="1" style="stop-color:#000000"/>
			</radialGradient>
			<path class="st32" d="M1050.18,698.34c0.37,0.1,0.59,0.48,0.49,0.85c-0.1,0.37-0.48,0.59-0.85,0.48
				c-0.37-0.1-0.59-0.48-0.49-0.85C1049.43,698.45,1049.81,698.23,1050.18,698.34z"/>
			<g>
				
					<radialGradient id="SVGID_32_" cx="895.162" cy="912.5099" r="1.034" gradientTransform="matrix(0.2639 -0.9646 0.9646 0.2639 -66.4506 1321.5957)" gradientUnits="userSpaceOnUse">
					<stop  offset="0" style="stop-color:#AFA374"/>
					<stop  offset="0.5611" style="stop-color:#230600"/>
					<stop  offset="1" style="stop-color:#000000"/>
				</radialGradient>
				<path class="st33" d="M1050.14,698.49c0.28,0.08,0.44,0.37,0.37,0.64c-0.08,0.28-0.36,0.44-0.64,0.37
					c-0.28-0.08-0.44-0.36-0.37-0.64C1049.58,698.58,1049.86,698.42,1050.14,698.49z"/>
				<path d="M1050.12,698.56c0.04,0.01,0.06,0.05,0.05,0.09l-0.2,0.73c-0.01,0.04-0.05,0.06-0.09,0.05l0,0
					c-0.04-0.01-0.06-0.05-0.05-0.09l0.2-0.74C1050.05,698.58,1050.09,698.55,1050.12,698.56L1050.12,698.56z"/>
			</g>
		</g>
	</g>
</g>
<radialGradient id="SVGID_33_" cx="60.4171" cy="654.5517" r="45.261" gradientTransform="matrix(0.9972 -0.0749 0.0749 0.9972 -75.4643 296.886)" gradientUnits="userSpaceOnUse">
	<stop  offset="0.2363" style="stop-color:#815B22"/>
	<stop  offset="1" style="stop-color:#0D0000"/>
</radialGradient>
<path class="st34" d="M48.48,987.35c-0.76-13.32-1.17-20.01-1.94-33.31c-0.15-3.96-3.58-6.94-7.53-7.09
	c-3.97-0.3-7.63,2.36-8.31,6.22c-2.1,13.14-3.21,19.79-5.4,32.94c-0.59,3.93,4.32,8.06,11.21,8.44
	C43.33,994.87,48.71,991.28,48.48,987.35z"/>
</svg>
